<?xml version="1.0" standalone="no"?>
<!DOCTYPE svg PUBLIC "-//W3C//DTD SVG 1.1//EN" "http://www.w3.org/Graphics/SVG/1.1/DTD/svg11.dtd" >
<svg xmlns="http://www.w3.org/2000/svg" xmlns:xlink="http://www.w3.org/1999/xlink" version="1.1">
<metadata>
Created by Christoph Koeberlin (http://christoph.koe.berlin)
Copyright supertype 2022, Juergen Huber and Martin Wenzel. All rights reserved.
</metadata>
<defs>
<font id="Font" horiz-adv-x="560" >
  <font-face 
    font-family="Font"
    font-weight="400"
    font-stretch="normal"
    units-per-em="1000"
    panose-1="2 11 5 4 4 0 0 0 0 4"
    ascent="800"
    descent="-200"
    x-height="480"
    cap-height="670"
    bbox="-178 -241 951 908"
    underline-thickness="69"
    underline-position="-125"
    unicode-range="U+0020-FB02"
  />
<missing-glyph horiz-adv-x="406" 
d="M42 670h323v-670h-323v670zM296 67v537h-185v-537h185z" />
    <glyph glyph-name="arrowright" unicode="&#x2d;&#x3e;" horiz-adv-x="763" 
d="M715 336l-299 -299l-60 59l202 196v2h-531v83h531v2l-201 196l60 59z" />
    <glyph glyph-name="uniE008" unicode="[Hermann]" horiz-adv-x="805" 
d="M720 500q0 -25 -6 -69l-3 -26l-3 -26q-6 -1 -12 19q-1 2 -4.5 11t-7.5 9q-2 0 -7 -6q-3 -5 -12 -16t-10 -19q2 -15 8 -15q5 0 9 10q7 16 14 16q6 0 6 -13q0 -14 -8 -33q-4 -9 -7 -21t-7 -18t-12 -7v1q0 7 -2.5 15t-8.5 8q0 -20 -6.5 -29t-16.5 -8q1 4 1 10q0 15 -7 26.5
t-20 24.5q-10 11 -14.5 17.5t-4.5 14.5q0 10 5 17q-3 14 -26 52q-16 27 -24.5 45t-8.5 33t12 24q9 -18 20.5 -30t22.5 -12t18 11q6 8 11.5 -2t9.5 -29q8 10 8 32q0 5 -2 21q34 -27 34 -59q0 -16 -7 -33q7 0 12 4t13 13.5t12 3.5q8 -10 14 -30v1q3 21 3 46q0 75 -28 103
q-5 4 -18 17.5t-20 16.5t-8 -4q-4 -20 -11 -41.5t-15 -21.5q-19 33 -41.5 51.5t-38 24t-35.5 9.5q-12 3 -12 17q0 20 17 39q9 9 -18.5 17t-64.5 8q-53 0 -80 -17q-7 -5 -1.5 -10.5t20.5 -13.5q3 -2 10 -6.5t7 -7.5t-9 -4q-25 -2 -41 -9.5t-16 -16.5q0 -7 14 -15
q8 -4 -14.5 -12t-44.5 -13q-45 -12 -66.5 -20.5t-41.5 -27.5q15 -2 24 -5t-1 -9q-44 -26 -44 -83q0 -9 2 -25h24q35 0 58.5 -15t54.5 -43q3 -2 1 -4q-8 -15 -8 -34l1 -26q0 -24 -12 -38q-11 -14 -11 -28q0 -12 9.5 -17t21 -7t17.5 -4h3q30 15 48 15q14 0 10 -12
q-1 -2 -25 -13.5t-30 -22.5q-9 -1 -20.5 3.5t-18.5 5.5q-3 1 -9 1q-23 0 -36 -23.5t-13 -48.5q9 20 29 33.5t50 13.5q11 0 17 -1q3 -8 14.5 -12.5t27.5 -4.5q17 0 36 7q8 3 17 3q15 0 30.5 -6.5t26.5 -15.5l1 -2q0 -1 -5.5 -3t-4.5 -4q0 -2 9 -4t16 -4.5t7 -8.5q0 -5 -7 -13
q-2 -2 -11 -11.5t-19.5 -15.5t-20.5 -6q-8 0 -15 4q-5 4 -12 4q-8 0 -17 -9.5t-12 -9.5q-6 -1 -11 1.5t-9 5.5q-10 8 -20 8q-15 0 -33 -16q7 -17 26 -25.5t44 -8.5q28 0 44 -11q-6 -24 -29 -40.5t-53 -23.5q15 -6 36 -6q41 0 76 30q17 14 17 26t-26 26q-11 6 -11 12
q0 8 13 15t27 7q7 0 10 -1q6 -2 15 -2q10 0 13.5 5.5t6.5 17.5q4 23 17 35l20 16q35 24 61 52.5t45 80.5h5q19 0 24 11q6 11 17.5 21.5t16.5 9.5q-2 -6 -16 -38q-10 -20 -25 -20q-5 0 -11 2q4 -39 -25.5 -92t-99.5 -136q-35 -42 -82.5 -71t-92.5 -29q-8 0 -22 2
q-58 13 -98.5 75t-49.5 169q-1 19 -20 55q-12 26 -16 38q-9 29 -17.5 88t-7.5 105q-10 -4 -16 -29q-21 49 -21 96q0 19 4 32q15 59 46.5 102.5t81.5 76.5q46 30 90.5 47.5t103.5 17.5q35 0 70 -7q86 -17 148.5 -61.5t90.5 -144.5q10 -36 10 -72zM381.5 344.5l-0.5 -0.5
q0 -2 3.5 -5t4.5 -4q11 -7 25 -12q-5 -5 -11 -10t-9 -3q-49 25 -71 30q-9 3 -12 8.5t-5 16.5t-5 15q19 24 54 33q12 3 45 3q24 0 44 -2.5t26 -8.5q-4 -1 -9.5 -1.5t-7.5 -1.5q-1 -1 -7 -3t-5 -5q0 -7 -0.5 -9.5t-4.5 -2.5q-17 0 -26 0.5t-14 0.5q-8 0 -12 -5l84 -15
q6 -1 9 -4.5t2 -6.5q-11 1 -17 -1.5t-17 -11.5q-7 -6 -16 -6q-7 0 -14.5 3t-10.5 8l-6 11l-16 -10zM157 370.5q1 -2.5 4 -1.5q9 3 26 3t25 -1q3 -1 3.5 1.5t-1.5 4.5q-10 6 -25 6q-17 0 -31 -8q-2 -2 -1 -4.5zM145 309q0 -14 4 -33.5t9 -30.5q8 -16 19 -31t20 -23
q15 12 23 26q8 13 18.5 52.5t12.5 70.5q0 4 -4 4q-12 0 -22 8q-2 3 -4 1q-17 -14 -28 -14q-10 0 -23 13q-1 1 -4 1q-6 -1 -6 -9q0 -5 1.5 -11t0.5 -8.5t-7 0.5q-10 4 -10 -16z" />
    <glyph glyph-name="uniE018" unicode="[Friedrich]" horiz-adv-x="805" 
d="M730 319q0 -29 -6.5 -59.5t-12.5 -38.5q-14 -18 -25 -18t-19 12q5 8 20 10q11 3 16 6.5t6 12.5q-4 3 -10 3q-9 0 -19 -5t-16 -13q-19 -26 -21 -53q-4 -36 -23.5 -91t-36.5 -81q-33 -48 -73.5 -71t-84.5 -23q-53 0 -105 30t-93.5 81.5t-63.5 113.5q-5 11 -9.5 16t-15.5 5
q-24 2 -41 55t-17 101q0 21 5 33q10 -10 18.5 -16.5t17.5 -6.5q8 0 15 7q-21 8 -33 25q2 31 -3 76q-1 10 -2 24t-1 33q0 5 0.5 20.5t-5 25.5t-17.5 14q4 29 18.5 62t37.5 48q7 4 27 6t36 7q9 3 13 3q9 0 5 -9t-16.5 -20.5t-25.5 -17.5q15 -3 26 4t27 22q21 21 38 28
q-17 10 -51 10q-25 0 -59 -7q18 27 53 50.5t76 25.5q40 1 64 -4.5t54 -23.5l-22 -9q27 -2 42.5 -7t36 -22.5t58.5 -58.5q-65 -30 -105 -30q-25 0 -40 9q-32 17 -56 17q-26 0 -38 -18q-20 -26 -45.5 -39t-42.5 -13q-8 0 -10 2q25 -25 64 -21q1 -7 -14 -24.5t-32 -22.5
q5 -5 20 -5q9 0 17 2q-8 -25 -25 -41q7 0 21 -2q-11 -16 -11 -33q0 -12 6 -24q1 -1 19 4.5t36 5.5q11 0 16 -1q6 -1 18 -1q36 0 74 23q16 -17 40 -25t47 -8q10 0 22 2q16 3 42 3q48 0 70 -8l-1 -14q0 -6 2 -16q6 -9 8 -23q18 -5 20 -2q15 15 28 40q-19 23 -19 47q0 20 15 47
q6 -7 20 -17.5t23 -15.5q-2 12 -18 40q-2 5 -8.5 17.5t-8.5 20.5q-1 25 -6.5 46.5t-14.5 29.5l-32 8q-32 8 -46 16t-31 30q-44 58 -103.5 91t-115.5 41q32 13 79 13q59 0 121 -25q104 -42 156.5 -119t52.5 -175q0 -43 -11 -93q-12 -13 -16.5 -19.5t-4.5 -14.5q0 -3 2 -11
q22 27 27 34q6 -16 6 -43zM470 323q0 -18 20 -31t46 -13q28 0 48 15t20 35q0 8 -4 18q-11 17 -39 23q31 -21 31 -39q0 -8 -4 -13q-6 0 -8.5 6t-5.5 8.5t-13 2.5q-9 -24 -27 -24q-8 0 -18.5 4t-13.5 5q-22 10 -31 8zM285 89q6 7 11.5 10.5t10.5 5.5l16 -20q0 18 5.5 39.5
t26.5 32.5q-17 16 -17 33q0 10 6.5 21t7.5 13q16 24 17 41q-1 6 -5 8t-13.5 2.5t-13.5 3.5q-19 -11 -44 -11q-32 0 -55 18t-23 43q0 12 4 21q-9 7 -17 7t-8 -9q3 -6 0 -18t-3 -20q-4 -113 94 -221zM667 299q0 19 10 34q-1 6 -3.5 11t-4.5 2q-6 -8 -24 -36q-1 -3 -6 -3
t-14.5 2.5t-14.5 0.5q-8 -18 -28 -30t-46 -12q-28 0 -50 14.5t-27 35.5q-23 28 -49 34q0 -18 -4 -54l-5 -80q-1 -18 1.5 -25t10.5 -14q9 -9 15 -18q6 4 15 12t15 8q10 0 20 -13q-48 -1 -48 -43l1 -19q-39 7 -32 24l-10 5q-4 -3 -17.5 -10t-11.5 -12l72 -23q5 5 37 5t50 -4
q6 3 6 14q0 8 -2.5 17t-2.5 10q42 -13 42 -59q0 -11 -2 -19q-48 24 -94 24q-34 0 -72 -11q2 -9 48 -19q21 -5 34 -10q-16 -21 -41 -21q-17 0 -35.5 7.5t-21.5 8.5q-19 8 -30 11q-9 3 -20 3q-4 0 -17.5 -0.5t-20.5 5.5t-8 20q-11 -14 -11 -25q0 -12 11 -21t30 -13
q0 -9 7 -23.5t27 -25.5q24 -12 43 -12q12 0 23 5t14 5q7 0 15 -14q46 -1 78 21t63 65q-5 4 -5 11t5.5 17.5t12.5 22.5q16 28 25 49t12 47q3 20 8.5 33.5t15.5 28.5q12 18 15 33q-4 10 -4 23zM225.5 332q0.5 -2 0.5 -3q0 -20 19.5 -35t47.5 -15q24 0 42.5 11t23.5 28
q-11 11 -20 14t-23 4q-11 -15 -27 -15q-11 0 -21.5 6.5t-13.5 13.5q-7 -4 -7 -15q0 -9 4 -19q-10 4 -15 12t-7 24l-3 -7q-1 -2 -0.5 -4z" />
    <glyph glyph-name=".notdef" horiz-adv-x="406" 
d="M42 670h323v-670h-323v670zM296 67v537h-185v-537h185z" />
    <glyph glyph-name="space" unicode=" " horiz-adv-x="222" 
 />
    <glyph glyph-name="A" unicode="A" horiz-adv-x="617" 
d="M604 0h-98l-56 166h-285l-57 -166h-95l243 670h105zM305 573l-112 -325h229l-111 325h-6z" />
    <glyph glyph-name="Aacute" unicode="&#xc1;" horiz-adv-x="617" 
d="M604 0h-98l-56 166h-285l-57 -166h-95l243 670h105zM305 573l-112 -325h229l-111 325h-6zM328 729h-92l103 131h110z" />
    <glyph glyph-name="Abreve" unicode="&#x102;" horiz-adv-x="617" 
d="M604 0h-98l-56 166h-285l-57 -166h-95l243 670h105zM305 573l-112 -325h229l-111 325h-6zM222 865q0 -34 22.5 -54t64.5 -20q40 0 62.5 20t22.5 54h75q0 -63 -42.5 -99.5t-117.5 -36.5q-77 0 -118.5 36.5t-41.5 99.5h73z" />
    <glyph glyph-name="Acircumflex" unicode="&#xc2;" horiz-adv-x="617" 
d="M604 0h-98l-56 166h-285l-57 -166h-95l243 670h105zM305 573l-112 -325h229l-111 325h-6zM368 860l106 -131h-85l-81 89l-80 -89h-85l106 131h119z" />
    <glyph glyph-name="Adieresis" unicode="&#xc4;" horiz-adv-x="617" 
d="M604 0h-98l-56 166h-285l-57 -166h-95l243 670h105zM305 573l-112 -325h229l-111 325h-6zM167 747.5q-15 14.5 -15 37.5q0 21 15.5 35.5t37.5 14.5t37.5 -14.5t15.5 -35.5q0 -23 -15.5 -37.5t-37.5 -14.5q-23 0 -38 14.5zM374.5 747.5q-15.5 14.5 -15.5 37.5
q0 21 15.5 35.5t37.5 14.5t38 -14.5t16 -35.5q0 -23 -16 -37.5t-38 -14.5t-37.5 14.5z" />
    <glyph glyph-name="Agrave" unicode="&#xc0;" horiz-adv-x="617" 
d="M604 0h-98l-56 166h-285l-57 -166h-95l243 670h105zM305 573l-112 -325h229l-111 325h-6zM277 860l103 -131h-90l-123 131h110z" />
    <glyph glyph-name="Amacron" unicode="&#x100;" horiz-adv-x="617" 
d="M604 0h-98l-56 166h-285l-57 -166h-95l243 670h105zM305 573l-112 -325h229l-111 325h-6zM447 739h-278v68h278v-68z" />
    <glyph glyph-name="Aogonek" unicode="&#x104;" horiz-adv-x="617" 
d="M604 0h-98l-56 166h-285l-57 -166h-95l243 670h105zM305 573l-112 -325h229l-111 325h-6zM588 0q-43 0 -74 -23t-31 -59q0 -23 13.5 -36t34.5 -13q19 0 32 8t25 21l35 -47q-40 -49 -104 -49q-46 0 -74.5 27.5t-28.5 74.5q0 44 32.5 77t86.5 43z" />
    <glyph glyph-name="Aring" unicode="&#xc5;" horiz-adv-x="617" 
d="M604 0h-98l-56 166h-285l-57 -166h-95l243 670h105zM305 573l-112 -325h229l-111 325h-6zM206 742.5q-38 26.5 -38 68.5q0 43 38 70t104 27q64 0 102 -27t38 -70q0 -42 -38 -68.5t-102 -26.5q-66 0 -104 26.5zM366 780q20 12 20 31q0 20 -20 33t-56 13q-37 0 -57.5 -13
t-20.5 -33q0 -19 20.5 -31t57.5 -12q36 0 56 12z" />
    <glyph glyph-name="Atilde" unicode="&#xc3;" horiz-adv-x="617" 
d="M604 0h-98l-56 166h-285l-57 -166h-95l243 670h105zM305 573l-112 -325h229l-111 325h-6zM421 855q2 -33 -5 -50t-25 -17q-9 0 -18 4t-17 8.5t-11 6.5l-51 33q-16 11 -33 17t-41 6q-40 0 -64.5 -28t-24.5 -83q0 -15 1 -23h62l-1 18q0 49 31 49q18 0 46 -18l50 -32
q19 -13 36.5 -19.5t40.5 -6.5q39 0 63 28t24 84q0 15 -1 23h-62z" />
    <glyph glyph-name="AE" unicode="&#xc6;" horiz-adv-x="872" 
d="M495 299l75 -215h251v-84h-315l-56 166h-285l-57 -166h-95l243 670h558v-82h-421l74 -209h333v-80h-305zM305 573l-112 -325h229l-111 325h-6z" />
    <glyph glyph-name="AEacute" unicode="&#x1fc;" horiz-adv-x="872" 
d="M495 299l75 -215h251v-84h-315l-56 166h-285l-57 -166h-95l243 670h558v-82h-421l74 -209h333v-80h-305zM305 573l-112 -325h229l-111 325h-6zM525 729h-92l103 131h110z" />
    <glyph glyph-name="B" unicode="B" horiz-adv-x="596" 
d="M520 285.5q30 -40.5 30 -94.5q0 -53 -26.5 -96.5t-78.5 -69t-126 -25.5h-235v670h239q66 0 113 -23t70.5 -62t23.5 -88q0 -48 -25 -88t-72 -62q57 -21 87 -61.5zM175 589v-208h145q62 0 92.5 29.5t30.5 73.5q0 46 -30.5 75.5t-92.5 29.5h-145zM316 83q72 0 107 31t35 79
t-35 79.5t-107 31.5h-141v-221h141z" />
    <glyph glyph-name="C" unicode="C" horiz-adv-x="670" 
d="M168 196.5q28 -59.5 79 -92t118 -32.5q69 0 121 33t76 94l77 -44q-32 -81 -104 -124.5t-170 -43.5q-97 0 -169 43.5t-110.5 122.5t-38.5 182q0 102 40 181t112 123t166 44t167.5 -44t106.5 -117l-78 -44q-24 54 -76.5 87.5t-119.5 33.5t-118 -33t-79 -93t-28 -138
q0 -79 28 -138.5z" />
    <glyph glyph-name="Cacute" unicode="&#x106;" horiz-adv-x="670" 
d="M168 196.5q28 -59.5 79 -92t118 -32.5q69 0 121 33t76 94l77 -44q-32 -81 -104 -124.5t-170 -43.5q-97 0 -169 43.5t-110.5 122.5t-38.5 182q0 102 40 181t112 123t166 44t167.5 -44t106.5 -117l-78 -44q-24 54 -76.5 87.5t-119.5 33.5t-118 -33t-79 -93t-28 -138
q0 -79 28 -138.5zM385 744h-92l103 131h110z" />
    <glyph glyph-name="Ccaron" unicode="&#x10c;" horiz-adv-x="670" 
d="M168 196.5q28 -59.5 79 -92t118 -32.5q69 0 121 33t76 94l77 -44q-32 -81 -104 -124.5t-170 -43.5q-97 0 -169 43.5t-110.5 122.5t-38.5 182q0 102 40 181t112 123t166 44t167.5 -44t106.5 -117l-78 -44q-24 54 -76.5 87.5t-119.5 33.5t-118 -33t-79 -93t-28 -138
q0 -79 28 -138.5zM366 786l80 89h85l-106 -131h-119l-105 131h84z" />
    <glyph glyph-name="Ccedilla" unicode="&#xc7;" horiz-adv-x="670" 
d="M168 196.5q28 -59.5 79 -92t118 -32.5q69 0 121 33t76 94l77 -44q-32 -81 -104 -124.5t-170 -43.5q-97 0 -169 43.5t-110.5 122.5t-38.5 182q0 102 40 181t112 123t166 44t167.5 -44t106.5 -117l-78 -44q-24 54 -76.5 87.5t-119.5 33.5t-118 -33t-79 -93t-28 -138
q0 -79 28 -138.5zM451 -69.5q29 -20.5 29 -57.5q0 -42 -34.5 -66.5t-87.5 -24.5q-62 0 -99 26l21 49q31 -22 74 -22q28 0 44.5 9t16.5 26t-16.5 25t-40.5 8q-40 0 -65 -11l-13 29l70 105h63l-50 -75h18q41 0 70 -20.5z" />
    <glyph glyph-name="Ccircumflex" unicode="&#x108;" horiz-adv-x="670" 
d="M168 196.5q28 -59.5 79 -92t118 -32.5q69 0 121 33t76 94l77 -44q-32 -81 -104 -124.5t-170 -43.5q-97 0 -169 43.5t-110.5 122.5t-38.5 182q0 102 40 181t112 123t166 44t167.5 -44t106.5 -117l-78 -44q-24 54 -76.5 87.5t-119.5 33.5t-118 -33t-79 -93t-28 -138
q0 -79 28 -138.5zM425 875l106 -131h-85l-81 89l-80 -89h-85l106 131h119z" />
    <glyph glyph-name="Cdotaccent" unicode="&#x10a;" horiz-adv-x="670" 
d="M168 196.5q28 -59.5 79 -92t118 -32.5q69 0 121 33t76 94l77 -44q-32 -81 -104 -124.5t-170 -43.5q-97 0 -169 43.5t-110.5 122.5t-38.5 182q0 102 40 181t112 123t166 44t167.5 -44t106.5 -117l-78 -44q-24 54 -76.5 87.5t-119.5 33.5t-118 -33t-79 -93t-28 -138
q0 -79 28 -138.5zM321.5 761.5q-17.5 15.5 -17.5 39.5t17.5 39.5t43.5 15.5q25 0 43 -15.5t18 -39.5t-18 -39.5t-43 -15.5q-26 0 -43.5 15.5z" />
    <glyph glyph-name="D" unicode="D" horiz-adv-x="682" 
d="M595 160q-40 -76 -114.5 -118t-175.5 -42h-221v670h221q102 0 176.5 -41t114 -116.5t39.5 -176.5q0 -100 -40 -176zM479.5 520q-62.5 68 -174.5 68h-130v-504h130q112 0 174.5 67.5t62.5 184.5q0 116 -62.5 184z" />
    <glyph glyph-name="Eth" unicode="&#xd0;" horiz-adv-x="702" 
d="M325 670q102 0 177 -41t114.5 -116.5t39.5 -176.5q0 -100 -40 -176t-115 -118t-176 -42h-220v298h-86v81h86v291h220zM325 84q112 0 175 67.5t63 184.5q0 116 -63 184t-175 68h-129v-209h161v-81h-161v-214h129z" />
    <glyph glyph-name="Dcaron" unicode="&#x10e;" horiz-adv-x="682" 
d="M595 160q-40 -76 -114.5 -118t-175.5 -42h-221v670h221q102 0 176.5 -41t114 -116.5t39.5 -176.5q0 -100 -40 -176zM479.5 520q-62.5 68 -174.5 68h-130v-504h130q112 0 174.5 67.5t62.5 184.5q0 116 -62.5 184zM325 771l80 89h85l-106 -131h-119l-105 131h84z" />
    <glyph glyph-name="Dcroat" unicode="&#x110;" horiz-adv-x="702" 
d="M325 670q102 0 177 -41t114.5 -116.5t39.5 -176.5q0 -100 -40 -176t-115 -118t-176 -42h-220v298h-86v81h86v291h220zM325 84q112 0 175 67.5t63 184.5q0 116 -63 184t-175 68h-129v-209h161v-81h-161v-214h129z" />
    <glyph glyph-name="E" unicode="E" horiz-adv-x="574" 
d="M175 299v-215h348v-84h-439v670h433v-82h-342v-209h328v-80h-328z" />
    <glyph glyph-name="Eacute" unicode="&#xc9;" horiz-adv-x="574" 
d="M175 299v-215h348v-84h-439v670h433v-82h-342v-209h328v-80h-328zM325 729h-92l103 131h110z" />
    <glyph glyph-name="Ebreve" unicode="&#x114;" horiz-adv-x="574" 
d="M175 299v-215h348v-84h-439v670h433v-82h-342v-209h328v-80h-328zM219 865q0 -34 22.5 -54t64.5 -20q40 0 62.5 20t22.5 54h75q0 -63 -42.5 -99.5t-117.5 -36.5q-77 0 -118.5 36.5t-41.5 99.5h73z" />
    <glyph glyph-name="Ecaron" unicode="&#x11a;" horiz-adv-x="574" 
d="M175 299v-215h348v-84h-439v670h433v-82h-342v-209h328v-80h-328zM306 771l80 89h85l-106 -131h-119l-105 131h84z" />
    <glyph glyph-name="Ecircumflex" unicode="&#xca;" horiz-adv-x="574" 
d="M175 299v-215h348v-84h-439v670h433v-82h-342v-209h328v-80h-328zM365 860l106 -131h-85l-81 89l-80 -89h-85l106 131h119z" />
    <glyph glyph-name="Edieresis" unicode="&#xcb;" horiz-adv-x="574" 
d="M175 299v-215h348v-84h-439v670h433v-82h-342v-209h328v-80h-328zM164 747.5q-15 14.5 -15 37.5q0 21 15.5 35.5t37.5 14.5t37.5 -14.5t15.5 -35.5q0 -23 -15.5 -37.5t-37.5 -14.5q-23 0 -38 14.5zM371.5 747.5q-15.5 14.5 -15.5 37.5q0 21 15.5 35.5t37.5 14.5t38 -14.5
t16 -35.5q0 -23 -16 -37.5t-38 -14.5t-37.5 14.5z" />
    <glyph glyph-name="Edotaccent" unicode="&#x116;" horiz-adv-x="574" 
d="M175 299v-215h348v-84h-439v670h433v-82h-342v-209h328v-80h-328zM261.5 746.5q-17.5 15.5 -17.5 39.5t17.5 39.5t43.5 15.5q25 0 43 -15.5t18 -39.5t-18 -39.5t-43 -15.5q-26 0 -43.5 15.5z" />
    <glyph glyph-name="Egrave" unicode="&#xc8;" horiz-adv-x="574" 
d="M175 299v-215h348v-84h-439v670h433v-82h-342v-209h328v-80h-328zM274 860l103 -131h-90l-123 131h110z" />
    <glyph glyph-name="Emacron" unicode="&#x112;" horiz-adv-x="574" 
d="M175 299v-215h348v-84h-439v670h433v-82h-342v-209h328v-80h-328zM444 739h-278v68h278v-68z" />
    <glyph glyph-name="Eogonek" unicode="&#x118;" horiz-adv-x="574" 
d="M175 299v-215h348v-84h-439v670h433v-82h-342v-209h328v-80h-328zM479 0q-43 0 -74 -23t-31 -59q0 -23 13.5 -36t34.5 -13q19 0 32 8t25 21l35 -47q-40 -49 -104 -49q-46 0 -74.5 27.5t-28.5 74.5q0 44 32.5 77t86.5 43z" />
    <glyph glyph-name="F" unicode="F" horiz-adv-x="553" 
d="M512 670v-82h-337v-230h329v-79h-329v-279h-91v670h428z" />
    <glyph glyph-name="G" unicode="G" horiz-adv-x="710" 
d="M667 306q0 -91 -35.5 -163.5t-103.5 -114t-163 -41.5q-96 0 -168 43.5t-111.5 123t-39.5 182.5q0 101 40 180t112.5 123t166.5 44t167 -44t106 -117l-78 -44q-24 54 -76.5 87.5t-118.5 33.5q-68 0 -119 -32.5t-79 -92.5t-28 -138q0 -80 28 -139.5t80 -92t121 -32.5
q66 0 112.5 27.5t70.5 74t26 103.5h-242v79h331z" />
    <glyph glyph-name="Gbreve" unicode="&#x11e;" horiz-adv-x="710" 
d="M667 306q0 -91 -35.5 -163.5t-103.5 -114t-163 -41.5q-96 0 -168 43.5t-111.5 123t-39.5 182.5q0 101 40 180t112.5 123t166.5 44t167 -44t106 -117l-78 -44q-24 54 -76.5 87.5t-118.5 33.5q-68 0 -119 -32.5t-79 -92.5t-28 -138q0 -80 28 -139.5t80 -92t121 -32.5
q66 0 112.5 27.5t70.5 74t26 103.5h-242v79h331zM278 880q0 -34 22.5 -54t64.5 -20q40 0 62.5 20t22.5 54h75q0 -63 -42.5 -99.5t-117.5 -36.5q-77 0 -118.5 36.5t-41.5 99.5h73z" />
    <glyph glyph-name="Gcircumflex" unicode="&#x11c;" horiz-adv-x="710" 
d="M667 306q0 -91 -35.5 -163.5t-103.5 -114t-163 -41.5q-96 0 -168 43.5t-111.5 123t-39.5 182.5q0 101 40 180t112.5 123t166.5 44t167 -44t106 -117l-78 -44q-24 54 -76.5 87.5t-118.5 33.5q-68 0 -119 -32.5t-79 -92.5t-28 -138q0 -80 28 -139.5t80 -92t121 -32.5
q66 0 112.5 27.5t70.5 74t26 103.5h-242v79h331zM424 875l106 -131h-85l-81 89l-80 -89h-85l106 131h119z" />
    <glyph glyph-name="uni0122" unicode="&#x122;" horiz-adv-x="710" 
d="M667 306q0 -91 -35.5 -163.5t-103.5 -114t-163 -41.5q-96 0 -168 43.5t-111.5 123t-39.5 182.5q0 101 40 180t112.5 123t166.5 44t167 -44t106 -117l-78 -44q-24 54 -76.5 87.5t-118.5 33.5q-68 0 -119 -32.5t-79 -92.5t-28 -138q0 -80 28 -139.5t80 -92t121 -32.5
q66 0 112.5 27.5t70.5 74t26 103.5h-242v79h331zM397.5 -190q-26.5 -34 -68.5 -51l-22 27q26 15 40 35.5t16 42.5q-21 0 -37 12t-16 34q0 20 14.5 33.5t38.5 13.5q28 0 44.5 -18t16.5 -50q0 -45 -26.5 -79z" />
    <glyph glyph-name="Gdotaccent" unicode="&#x120;" horiz-adv-x="710" 
d="M667 306q0 -91 -35.5 -163.5t-103.5 -114t-163 -41.5q-96 0 -168 43.5t-111.5 123t-39.5 182.5q0 101 40 180t112.5 123t166.5 44t167 -44t106 -117l-78 -44q-24 54 -76.5 87.5t-118.5 33.5q-68 0 -119 -32.5t-79 -92.5t-28 -138q0 -80 28 -139.5t80 -92t121 -32.5
q66 0 112.5 27.5t70.5 74t26 103.5h-242v79h331zM321.5 761.5q-17.5 15.5 -17.5 39.5t17.5 39.5t43.5 15.5q25 0 43 -15.5t18 -39.5t-18 -39.5t-43 -15.5q-26 0 -43.5 15.5z" />
    <glyph glyph-name="H" unicode="H" horiz-adv-x="680" 
d="M505 380v290h91v-670h-91v297h-330v-297h-91v670h91v-290h330z" />
    <glyph glyph-name="Hbar" unicode="&#x126;" horiz-adv-x="699" 
d="M605 559h69v-61h-69v-498h-91v297h-330v-297h-91v498h-67v61h67v111h91v-111h330v111h91v-111zM184 380h330v118h-330v-118z" />
    <glyph glyph-name="Hcircumflex" unicode="&#x124;" horiz-adv-x="680" 
d="M505 380v290h91v-670h-91v297h-330v-297h-91v670h91v-290h330zM400 860l106 -131h-85l-81 89l-80 -89h-85l106 131h119z" />
    <glyph glyph-name="I" unicode="I" horiz-adv-x="259" 
d="M175 0h-91v670h91v-670z" />
    <glyph glyph-name="IJ" unicode="&#x132;" horiz-adv-x="763" 
d="M175 0h-91v670h91v-670zM265 88l59 60q22 -35 53 -55t81 -20q61 0 99 38.5t38 113.5v445h90v-454q0 -109 -61.5 -169t-165.5 -60q-129 0 -193 101z" />
    <glyph glyph-name="Iacute" unicode="&#xcd;" horiz-adv-x="259" 
d="M175 0h-91v670h91v-670zM150 729h-92l103 131h110z" />
    <glyph glyph-name="Ibreve" unicode="&#x12c;" horiz-adv-x="259" 
d="M175 0h-91v670h91v-670zM43 865q0 -34 22.5 -54t64.5 -20q40 0 62.5 20t22.5 54h75q0 -63 -42.5 -99.5t-117.5 -36.5q-77 0 -118.5 36.5t-41.5 99.5h73z" />
    <glyph glyph-name="Icircumflex" unicode="&#xce;" horiz-adv-x="259" 
d="M175 0h-91v670h91v-670zM189 860l106 -131h-85l-81 89l-80 -89h-85l106 131h119z" />
    <glyph glyph-name="Idieresis" unicode="&#xcf;" horiz-adv-x="259" 
d="M175 0h-91v670h91v-670zM-12 747.5q-15 14.5 -15 37.5q0 21 15.5 35.5t37.5 14.5t37.5 -14.5t15.5 -35.5q0 -23 -15.5 -37.5t-37.5 -14.5q-23 0 -38 14.5zM195.5 747.5q-15.5 14.5 -15.5 37.5q0 21 15.5 35.5t37.5 14.5t38 -14.5t16 -35.5q0 -23 -16 -37.5t-38 -14.5
t-37.5 14.5z" />
    <glyph glyph-name="Idotaccent" unicode="&#x130;" horiz-adv-x="259" 
d="M175 0h-91v670h91v-670zM86.5 746.5q-17.5 15.5 -17.5 39.5t17.5 39.5t43.5 15.5q25 0 43 -15.5t18 -39.5t-18 -39.5t-43 -15.5q-26 0 -43.5 15.5z" />
    <glyph glyph-name="Igrave" unicode="&#xcc;" horiz-adv-x="259" 
d="M175 0h-91v670h91v-670zM98 860l103 -131h-90l-123 131h110z" />
    <glyph glyph-name="Imacron" unicode="&#x12a;" horiz-adv-x="259" 
d="M175 0h-91v670h91v-670zM268 739h-278v68h278v-68z" />
    <glyph glyph-name="Iogonek" unicode="&#x12e;" horiz-adv-x="261" 
d="M177 0h-91v670h91v-670zM161 0q-43 0 -74 -23t-31 -59q0 -23 13.5 -36t34.5 -13q19 0 32 8t25 21l35 -47q-40 -49 -104 -49q-46 0 -74.5 27.5t-28.5 74.5q0 44 32.5 77t86.5 43z" />
    <glyph glyph-name="Itilde" unicode="&#x128;" horiz-adv-x="259" 
d="M175 0h-91v670h91v-670zM242 855q2 -33 -5 -50t-25 -17q-9 0 -18 4t-17 8.5t-11 6.5l-51 33q-16 11 -33 17t-41 6q-40 0 -64.5 -28t-24.5 -83q0 -15 1 -23h62l-1 18q0 49 31 49q18 0 46 -18l50 -32q19 -13 36.5 -19.5t40.5 -6.5q39 0 63 28t24 84q0 15 -1 23h-62z" />
    <glyph glyph-name="J" unicode="J" horiz-adv-x="504" 
d="M6 88l59 60q22 -35 53 -55t81 -20q61 0 99 38.5t38 113.5v445h90v-454q0 -109 -61.5 -169t-165.5 -60q-129 0 -193 101z" />
    <glyph glyph-name="Jcircumflex" unicode="&#x134;" horiz-adv-x="504" 
d="M6 88l59 60q22 -35 53 -55t81 -20q61 0 99 38.5t38 113.5v445h90v-454q0 -109 -61.5 -169t-165.5 -60q-129 0 -193 101zM440 860l106 -131h-85l-81 89l-80 -89h-85l106 131h119z" />
    <glyph glyph-name="K" unicode="K" horiz-adv-x="611" 
d="M613 0h-115l-238 313l-85 -92v-221h-91v670h91v-331l304 331h112l-267 -296z" />
    <glyph glyph-name="uni0136" unicode="&#x136;" horiz-adv-x="611" 
d="M613 0h-115l-238 313l-85 -92v-221h-91v670h91v-331l304 331h112l-267 -296zM361.5 -190q-26.5 -34 -68.5 -51l-22 27q26 15 40 35.5t16 42.5q-21 0 -37 12t-16 34q0 20 14.5 33.5t38.5 13.5q28 0 44.5 -18t16.5 -50q0 -45 -26.5 -79z" />
    <glyph glyph-name="L" unicode="L" horiz-adv-x="531" 
d="M175 670v-586h339v-84h-430v670h91z" />
    <glyph glyph-name="Lacute" unicode="&#x139;" horiz-adv-x="531" 
d="M175 670v-586h339v-84h-430v670h91zM150 729h-92l103 131h110z" />
    <glyph glyph-name="Lcaron" unicode="&#x13d;" horiz-adv-x="536" 
d="M175 670v-586h339v-84h-430v670h91zM399 670h87l-57 -184h-60z" />
    <glyph glyph-name="uni013B" unicode="&#x13b;" horiz-adv-x="531" 
d="M175 670v-586h339v-84h-430v670h91zM330.5 -190q-26.5 -34 -68.5 -51l-22 27q26 15 40 35.5t16 42.5q-21 0 -37 12t-16 34q0 20 14.5 33.5t38.5 13.5q28 0 44.5 -18t16.5 -50q0 -45 -26.5 -79z" />
    <glyph glyph-name="Ldot" unicode="&#x13f;" horiz-adv-x="536" 
d="M175 670v-586h339v-84h-430v670h91zM340.5 326q-17.5 17 -17.5 42t17.5 42.5t42.5 17.5t43 -17.5t18 -42.5t-18 -42t-43 -17t-42.5 17z" />
    <glyph glyph-name="Lslash" unicode="&#x141;" horiz-adv-x="574" 
d="M217 294v-210h339v-84h-430v257l-82 -34l-23 57l105 44v346h91v-309l223 93l23 -58z" />
    <glyph glyph-name="M" unicode="M" horiz-adv-x="792" 
d="M688 670l37 -670h-90l-24 531h-3l-171 -448h-84l-168 447h-4l-24 -530h-91l38 670h115l176 -466h3l178 466h112z" />
    <glyph glyph-name="N" unicode="N" horiz-adv-x="689" 
d="M518 149v521h86v-670h-104l-326 529h-3v-529h-87v670h107l324 -521h3z" />
    <glyph glyph-name="Nacute" unicode="&#x143;" horiz-adv-x="689" 
d="M518 149v521h86v-670h-104l-326 529h-3v-529h-87v670h107l324 -521h3zM365 729h-92l103 131h110z" />
    <glyph glyph-name="Ncaron" unicode="&#x147;" horiz-adv-x="689" 
d="M518 149v521h86v-670h-104l-326 529h-3v-529h-87v670h107l324 -521h3zM345 771l80 89h85l-106 -131h-119l-105 131h84z" />
    <glyph glyph-name="uni0145" unicode="&#x145;" horiz-adv-x="689" 
d="M518 149v521h86v-670h-104l-326 529h-3v-529h-87v670h107l324 -521h3zM377.5 -190q-26.5 -34 -68.5 -51l-22 27q26 15 40 35.5t16 42.5q-21 0 -37 12t-16 34q0 20 14.5 33.5t38.5 13.5q28 0 44.5 -18t16.5 -50q0 -45 -26.5 -79z" />
    <glyph glyph-name="Eng" unicode="&#x14a;" horiz-adv-x="689" 
d="M604 670v-708q0 -74 -42 -116t-112 -42q-44 0 -73 12l16 74q19 -8 47 -8q37 0 57.5 24.5t20.5 67.5v18l-344 537h-3v-529h-87v670h107l324 -509h3v509h86z" />
    <glyph glyph-name="Ntilde" unicode="&#xd1;" horiz-adv-x="689" 
d="M518 149v521h86v-670h-104l-326 529h-3v-529h-87v670h107l324 -521h3zM457 855q2 -33 -5 -50t-25 -17q-9 0 -18 4t-17 8.5t-11 6.5l-51 33q-16 11 -33 17t-41 6q-40 0 -64.5 -28t-24.5 -83q0 -15 1 -23h62l-1 18q0 49 31 49q18 0 46 -18l50 -32q19 -13 36.5 -19.5
t40.5 -6.5q39 0 63 28t24 84q0 15 -1 23h-62z" />
    <glyph glyph-name="O" unicode="O" horiz-adv-x="719" 
d="M86 517q39 79 110.5 122.5t163.5 43.5t163 -43.5t110 -122.5t39 -181q0 -103 -39 -182t-110 -123t-163 -44q-93 0 -164 44t-110 123t-39 182q0 102 39 181zM552.5 474q-27.5 60 -77 92.5t-115.5 32.5t-115.5 -32.5t-77 -92.5t-27.5 -138q0 -79 27 -139t77 -92.5
t116 -32.5t116 32.5t77 92.5t27 139q0 78 -27.5 138z" />
    <glyph glyph-name="Oacute" unicode="&#xd3;" horiz-adv-x="719" 
d="M86 517q39 79 110.5 122.5t163.5 43.5t163 -43.5t110 -122.5t39 -181q0 -103 -39 -182t-110 -123t-163 -44q-93 0 -164 44t-110 123t-39 182q0 102 39 181zM552.5 474q-27.5 60 -77 92.5t-115.5 32.5t-115.5 -32.5t-77 -92.5t-27.5 -138q0 -79 27 -139t77 -92.5
t116 -32.5t116 32.5t77 92.5t27 139q0 78 -27.5 138zM380 744h-92l103 131h110z" />
    <glyph glyph-name="Obreve" unicode="&#x14e;" horiz-adv-x="719" 
d="M86 517q39 79 110.5 122.5t163.5 43.5t163 -43.5t110 -122.5t39 -181q0 -103 -39 -182t-110 -123t-163 -44q-93 0 -164 44t-110 123t-39 182q0 102 39 181zM552.5 474q-27.5 60 -77 92.5t-115.5 32.5t-115.5 -32.5t-77 -92.5t-27.5 -138q0 -79 27 -139t77 -92.5
t116 -32.5t116 32.5t77 92.5t27 139q0 78 -27.5 138zM273 880q0 -34 22.5 -54t64.5 -20q40 0 62.5 20t22.5 54h75q0 -63 -42.5 -99.5t-117.5 -36.5q-77 0 -118.5 36.5t-41.5 99.5h73z" />
    <glyph glyph-name="Ocircumflex" unicode="&#xd4;" horiz-adv-x="719" 
d="M86 517q39 79 110.5 122.5t163.5 43.5t163 -43.5t110 -122.5t39 -181q0 -103 -39 -182t-110 -123t-163 -44q-93 0 -164 44t-110 123t-39 182q0 102 39 181zM552.5 474q-27.5 60 -77 92.5t-115.5 32.5t-115.5 -32.5t-77 -92.5t-27.5 -138q0 -79 27 -139t77 -92.5
t116 -32.5t116 32.5t77 92.5t27 139q0 78 -27.5 138zM419 875l106 -131h-85l-81 89l-80 -89h-85l106 131h119z" />
    <glyph glyph-name="Odieresis" unicode="&#xd6;" horiz-adv-x="719" 
d="M86 517q39 79 110.5 122.5t163.5 43.5t163 -43.5t110 -122.5t39 -181q0 -103 -39 -182t-110 -123t-163 -44q-93 0 -164 44t-110 123t-39 182q0 102 39 181zM552.5 474q-27.5 60 -77 92.5t-115.5 32.5t-115.5 -32.5t-77 -92.5t-27.5 -138q0 -79 27 -139t77 -92.5
t116 -32.5t116 32.5t77 92.5t27 139q0 78 -27.5 138zM219 762.5q-15 14.5 -15 37.5q0 21 15.5 35.5t37.5 14.5t37.5 -14.5t15.5 -35.5q0 -23 -15.5 -37.5t-37.5 -14.5q-23 0 -38 14.5zM426.5 762.5q-15.5 14.5 -15.5 37.5q0 21 15.5 35.5t37.5 14.5t38 -14.5t16 -35.5
q0 -23 -16 -37.5t-38 -14.5t-37.5 14.5z" />
    <glyph glyph-name="Ograve" unicode="&#xd2;" horiz-adv-x="719" 
d="M86 517q39 79 110.5 122.5t163.5 43.5t163 -43.5t110 -122.5t39 -181q0 -103 -39 -182t-110 -123t-163 -44q-93 0 -164 44t-110 123t-39 182q0 102 39 181zM552.5 474q-27.5 60 -77 92.5t-115.5 32.5t-115.5 -32.5t-77 -92.5t-27.5 -138q0 -79 27 -139t77 -92.5
t116 -32.5t116 32.5t77 92.5t27 139q0 78 -27.5 138zM328 875l103 -131h-90l-123 131h110z" />
    <glyph glyph-name="Ohungarumlaut" unicode="&#x150;" horiz-adv-x="719" 
d="M86 517q39 79 110.5 122.5t163.5 43.5t163 -43.5t110 -122.5t39 -181q0 -103 -39 -182t-110 -123t-163 -44q-93 0 -164 44t-110 123t-39 182q0 102 39 181zM552.5 474q-27.5 60 -77 92.5t-115.5 32.5t-115.5 -32.5t-77 -92.5t-27.5 -138q0 -79 27 -139t77 -92.5
t116 -32.5t116 32.5t77 92.5t27 139q0 78 -27.5 138zM304 744h-72l101 131h87zM461 744h-73l104 131h85z" />
    <glyph glyph-name="Omacron" unicode="&#x14c;" horiz-adv-x="719" 
d="M86 517q39 79 110.5 122.5t163.5 43.5t163 -43.5t110 -122.5t39 -181q0 -103 -39 -182t-110 -123t-163 -44q-93 0 -164 44t-110 123t-39 182q0 102 39 181zM552.5 474q-27.5 60 -77 92.5t-115.5 32.5t-115.5 -32.5t-77 -92.5t-27.5 -138q0 -79 27 -139t77 -92.5
t116 -32.5t116 32.5t77 92.5t27 139q0 78 -27.5 138zM499 754h-278v68h278v-68z" />
    <glyph glyph-name="Oslash" unicode="&#xd8;" horiz-adv-x="728" 
d="M681 645l-72 -81q68 -91 68 -228q0 -103 -39 -182t-110 -123t-163 -44q-57 0 -106.5 17t-88.5 49l-68 -77l-57 52l71 82q-64 92 -64 226q0 102 39.5 181t110.5 122.5t163 43.5q112 0 192 -64l67 79zM249.5 566.5q-49.5 -32.5 -77 -92.5t-27.5 -138q0 -91 35 -155l320 371
q-56 47 -135 47q-66 0 -115.5 -32.5zM481 104.5q50 32.5 77 92.5t27 139q0 94 -38 158l-319 -373q55 -49 137 -49q66 0 116 32.5z" />
    <glyph glyph-name="Oslashacute" unicode="&#x1fe;" horiz-adv-x="728" 
d="M681 645l-72 -81q68 -91 68 -228q0 -103 -39 -182t-110 -123t-163 -44q-57 0 -106.5 17t-88.5 49l-68 -77l-57 52l71 82q-64 92 -64 226q0 102 39.5 181t110.5 122.5t163 43.5q112 0 192 -64l67 79zM249.5 566.5q-49.5 -32.5 -77 -92.5t-27.5 -138q0 -91 35 -155l320 371
q-56 47 -135 47q-66 0 -115.5 -32.5zM481 104.5q50 32.5 77 92.5t27 139q0 94 -38 158l-319 -373q55 -49 137 -49q66 0 116 32.5zM384 744h-92l103 131h110z" />
    <glyph glyph-name="Otilde" unicode="&#xd5;" horiz-adv-x="719" 
d="M86 517q39 79 110.5 122.5t163.5 43.5t163 -43.5t110 -122.5t39 -181q0 -103 -39 -182t-110 -123t-163 -44q-93 0 -164 44t-110 123t-39 182q0 102 39 181zM552.5 474q-27.5 60 -77 92.5t-115.5 32.5t-115.5 -32.5t-77 -92.5t-27.5 -138q0 -79 27 -139t77 -92.5
t116 -32.5t116 32.5t77 92.5t27 139q0 78 -27.5 138zM472 870q2 -33 -5 -50t-25 -17q-9 0 -18 4t-17 8.5t-11 6.5l-51 33q-16 11 -33 17t-41 6q-40 0 -64.5 -28t-24.5 -83q0 -15 1 -23h62l-1 18q0 49 31 49q18 0 46 -18l50 -32q19 -13 36.5 -19.5t40.5 -6.5q39 0 63 28
t24 84q0 15 -1 23h-62z" />
    <glyph glyph-name="OE" unicode="&#x152;" horiz-adv-x="1003" 
d="M951 84v-84h-511q-40 -13 -90 -13q-90 0 -158.5 43.5t-106 123t-37.5 182.5q0 102 38 181t106.5 122.5t157.5 43.5q51 0 90 -13h504v-82h-377q34 -40 55 -93.5t26 -115.5h282v-80h-281q-11 -132 -81 -215h383zM166 197q26 -60 74 -92.5t110 -32.5q63 0 110.5 32.5
t73 92.5t25.5 139q0 78 -26 138t-73 92.5t-110 32.5q-62 0 -110 -33t-74 -92.5t-26 -137.5q0 -79 26 -139z" />
    <glyph glyph-name="P" unicode="P" horiz-adv-x="581" 
d="M447.5 641q53.5 -29 80 -77.5t26.5 -107.5q0 -57 -27 -105t-80.5 -77t-130.5 -29h-141v-245h-91v670h232q78 0 131.5 -29zM312 325q77 0 114 38t37 93q0 57 -36.5 94.5t-114.5 37.5h-137v-263h137z" />
    <glyph glyph-name="Thorn" unicode="&#xde;" horiz-adv-x="594" 
d="M316 551q78 0 131.5 -29t80 -77t26.5 -106q0 -57 -27 -105.5t-80.5 -77.5t-130.5 -29h-141v-127h-91v670h91v-119h141zM312 206q78 0 114.5 38t36.5 95q0 56 -36.5 93t-114.5 37h-137v-263h137z" />
    <glyph glyph-name="Q" unicode="Q" horiz-adv-x="719" 
d="M640 169.5q-32 -73.5 -90 -119.5l80 -114l-74 -49l-76 122q-57 -22 -120 -22q-93 0 -164 44t-110 123t-39 182q0 102 39 181t110.5 122.5t163.5 43.5t163 -43.5t110 -122.5t39 -181q0 -93 -32 -166.5zM167 197q27 -60 77 -92.5t116 -32.5q39 0 73 12l-82 122l72 47
l78 -129q38 35 58.5 89.5t20.5 122.5q0 78 -27.5 138t-77 92.5t-115.5 32.5t-115.5 -32.5t-77 -92.5t-27.5 -138q0 -79 27 -139z" />
    <glyph glyph-name="R" unicode="R" horiz-adv-x="613" 
d="M478 0l-168 259h-135v-259h-91v670h232q78 0 131.5 -28t80 -75t26.5 -104q0 -66 -38 -118.5t-110 -73.5l181 -271h-109zM175 588v-250h137q77 0 114 36t37 89q0 54 -36.5 89.5t-114.5 35.5h-137z" />
    <glyph glyph-name="Racute" unicode="&#x154;" horiz-adv-x="613" 
d="M478 0l-168 259h-135v-259h-91v670h232q78 0 131.5 -28t80 -75t26.5 -104q0 -66 -38 -118.5t-110 -73.5l181 -271h-109zM175 588v-250h137q77 0 114 36t37 89q0 54 -36.5 89.5t-114.5 35.5h-137zM327 729h-92l103 131h110z" />
    <glyph glyph-name="Rcaron" unicode="&#x158;" horiz-adv-x="613" 
d="M478 0l-168 259h-135v-259h-91v670h232q78 0 131.5 -28t80 -75t26.5 -104q0 -66 -38 -118.5t-110 -73.5l181 -271h-109zM175 588v-250h137q77 0 114 36t37 89q0 54 -36.5 89.5t-114.5 35.5h-137zM308 771l80 89h85l-106 -131h-119l-105 131h84z" />
    <glyph glyph-name="uni0156" unicode="&#x156;" horiz-adv-x="613" 
d="M478 0l-168 259h-135v-259h-91v670h232q78 0 131.5 -28t80 -75t26.5 -104q0 -66 -38 -118.5t-110 -73.5l181 -271h-109zM175 588v-250h137q77 0 114 36t37 89q0 54 -36.5 89.5t-114.5 35.5h-137zM342.5 -190q-26.5 -34 -68.5 -51l-22 27q26 15 40 35.5t16 42.5
q-21 0 -37 12t-16 34q0 20 14.5 33.5t38.5 13.5q28 0 44.5 -18t16.5 -50q0 -45 -26.5 -79z" />
    <glyph glyph-name="S" unicode="S" horiz-adv-x="535" 
d="M80 138q32 -31 79.5 -49t104.5 -18q66 0 100.5 29t34.5 79q0 38 -22 62t-66 41l-119 45q-68 26 -103 68t-35 108q0 50 25 91t73.5 65t117.5 24q65 0 120.5 -18.5t95.5 -52.5l-41 -71q-34 28 -80.5 44t-94.5 16q-62 0 -93.5 -25t-31.5 -67q0 -37 21 -60t69 -41l113 -44
q74 -28 108.5 -71t34.5 -110q0 -90 -61 -143t-163 -53q-74 0 -134.5 20.5t-100.5 57.5z" />
    <glyph glyph-name="Sacute" unicode="&#x15a;" horiz-adv-x="535" 
d="M80 138q32 -31 79.5 -49t104.5 -18q66 0 100.5 29t34.5 79q0 38 -22 62t-66 41l-119 45q-68 26 -103 68t-35 108q0 50 25 91t73.5 65t117.5 24q65 0 120.5 -18.5t95.5 -52.5l-41 -71q-34 28 -80.5 44t-94.5 16q-62 0 -93.5 -25t-31.5 -67q0 -37 21 -60t69 -41l113 -44
q74 -28 108.5 -71t34.5 -110q0 -90 -61 -143t-163 -53q-74 0 -134.5 20.5t-100.5 57.5zM288 744h-92l103 131h110z" />
    <glyph glyph-name="Scaron" unicode="&#x160;" horiz-adv-x="535" 
d="M80 138q32 -31 79.5 -49t104.5 -18q66 0 100.5 29t34.5 79q0 38 -22 62t-66 41l-119 45q-68 26 -103 68t-35 108q0 50 25 91t73.5 65t117.5 24q65 0 120.5 -18.5t95.5 -52.5l-41 -71q-34 28 -80.5 44t-94.5 16q-62 0 -93.5 -25t-31.5 -67q0 -37 21 -60t69 -41l113 -44
q74 -28 108.5 -71t34.5 -110q0 -90 -61 -143t-163 -53q-74 0 -134.5 20.5t-100.5 57.5zM268 786l80 89h85l-106 -131h-119l-105 131h84z" />
    <glyph glyph-name="Scedilla" unicode="&#x15e;" horiz-adv-x="535" 
d="M80 138q32 -31 79.5 -49t104.5 -18q66 0 100.5 29t34.5 79q0 38 -22 62t-66 41l-119 45q-68 26 -103 68t-35 108q0 50 25 91t73.5 65t117.5 24q65 0 120.5 -18.5t95.5 -52.5l-41 -71q-34 28 -80.5 44t-94.5 16q-62 0 -93.5 -25t-31.5 -67q0 -37 21 -60t69 -41l113 -44
q74 -28 108.5 -71t34.5 -110q0 -90 -61 -143t-163 -53q-74 0 -134.5 20.5t-100.5 57.5zM354 -69.5q29 -20.5 29 -57.5q0 -42 -34.5 -66.5t-87.5 -24.5q-62 0 -99 26l21 49q31 -22 74 -22q28 0 44.5 9t16.5 26t-16.5 25t-40.5 8q-40 0 -65 -11l-13 29l70 105h63l-50 -75h18
q41 0 70 -20.5z" />
    <glyph glyph-name="Scircumflex" unicode="&#x15c;" horiz-adv-x="535" 
d="M80 138q32 -31 79.5 -49t104.5 -18q66 0 100.5 29t34.5 79q0 38 -22 62t-66 41l-119 45q-68 26 -103 68t-35 108q0 50 25 91t73.5 65t117.5 24q65 0 120.5 -18.5t95.5 -52.5l-41 -71q-34 28 -80.5 44t-94.5 16q-62 0 -93.5 -25t-31.5 -67q0 -37 21 -60t69 -41l113 -44
q74 -28 108.5 -71t34.5 -110q0 -90 -61 -143t-163 -53q-74 0 -134.5 20.5t-100.5 57.5zM327 875l106 -131h-85l-81 89l-80 -89h-85l106 131h119z" />
    <glyph glyph-name="uni0218" unicode="&#x218;" horiz-adv-x="535" 
d="M80 138q32 -31 79.5 -49t104.5 -18q66 0 100.5 29t34.5 79q0 38 -22 62t-66 41l-119 45q-68 26 -103 68t-35 108q0 50 25 91t73.5 65t117.5 24q65 0 120.5 -18.5t95.5 -52.5l-41 -71q-34 28 -80.5 44t-94.5 16q-62 0 -93.5 -25t-31.5 -67q0 -37 21 -60t69 -41l113 -44
q74 -28 108.5 -71t34.5 -110q0 -90 -61 -143t-163 -53q-74 0 -134.5 20.5t-100.5 57.5zM295.5 -190q-26.5 -34 -68.5 -51l-22 27q26 15 40 35.5t16 42.5q-21 0 -37 12t-16 34q0 20 14.5 33.5t38.5 13.5q28 0 44.5 -18t16.5 -50q0 -45 -26.5 -79z" />
    <glyph glyph-name="uni1E9E" unicode="&#x1e9e;" horiz-adv-x="701" 
d="M77 419q0 76 32.5 133t92.5 87.5t140 30.5h249v-74l-79 -230q69 -20 108.5 -68t39.5 -114q0 -60 -27 -104.5t-75.5 -68.5t-109.5 -24q-91 0 -151 34l30 81q50 -30 117 -30q56 0 90 30t34 82q0 56 -44 88.5t-120 43.5l92 272h-148q-86 0 -133 -46t-47 -130v-412h-91v419z
" />
    <glyph glyph-name="uni018F" unicode="&#x18f;" horiz-adv-x="689" 
d="M495.5 639.5q73.5 -43.5 110 -120.5t36.5 -178q0 -105 -37 -185t-105.5 -124.5t-159.5 -44.5q-141 0 -218.5 92.5t-77.5 253.5q0 21 2 37h504q-1 62 -26.5 114t-78 83.5t-130.5 31.5q-64 0 -119.5 -23.5t-90.5 -58.5l-46 66q45 45 112 72.5t144 27.5q107 0 180.5 -43.5z
M490.5 135.5q52.5 63.5 59.5 157.5h-418q9 -105 60.5 -163t148.5 -58t149.5 63.5z" />
    <glyph glyph-name="T" unicode="T" 
d="M543 670v-82h-218v-588h-90v588h-219v82h527z" />
    <glyph glyph-name="Tbar" unicode="&#x166;" horiz-adv-x="577" 
d="M552 670v-82h-218v-232h154v-61h-154v-295h-91v295h-154v61h154v232h-218v82h527z" />
    <glyph glyph-name="Tcaron" unicode="&#x164;" 
d="M543 670v-82h-218v-588h-90v588h-219v82h527zM279 771l80 89h85l-106 -131h-119l-105 131h84z" />
    <glyph glyph-name="uni0162" unicode="&#x162;" 
d="M543 670v-82h-218v-588h-90v588h-219v82h527zM311.5 -190q-26.5 -34 -68.5 -51l-22 27q26 15 40 35.5t16 42.5q-21 0 -37 12t-16 34q0 20 14.5 33.5t38.5 13.5q28 0 44.5 -18t16.5 -50q0 -45 -26.5 -79z" />
    <glyph glyph-name="uni021A" unicode="&#x21a;" 
d="M543 670v-82h-218v-588h-90v588h-219v82h527zM311.5 -190q-26.5 -34 -68.5 -51l-22 27q26 15 40 35.5t16 42.5q-21 0 -37 12t-16 34q0 20 14.5 33.5t38.5 13.5q28 0 44.5 -18t16.5 -50q0 -45 -26.5 -79z" />
    <glyph glyph-name="U" unicode="U" horiz-adv-x="680" 
d="M603 262q0 -82 -32 -144t-91.5 -96.5t-139.5 -34.5t-139.5 34.5t-91.5 96.5t-32 144v408h91v-408q0 -86 47.5 -138t124.5 -52q79 0 125.5 52t46.5 138v408h91v-408z" />
    <glyph glyph-name="Uacute" unicode="&#xda;" horiz-adv-x="680" 
d="M603 262q0 -82 -32 -144t-91.5 -96.5t-139.5 -34.5t-139.5 34.5t-91.5 96.5t-32 144v408h91v-408q0 -86 47.5 -138t124.5 -52q79 0 125.5 52t46.5 138v408h91v-408zM359 729h-92l103 131h110z" />
    <glyph glyph-name="Ubreve" unicode="&#x16c;" horiz-adv-x="680" 
d="M603 262q0 -82 -32 -144t-91.5 -96.5t-139.5 -34.5t-139.5 34.5t-91.5 96.5t-32 144v408h91v-408q0 -86 47.5 -138t124.5 -52q79 0 125.5 52t46.5 138v408h91v-408zM253 865q0 -34 22.5 -54t64.5 -20q40 0 62.5 20t22.5 54h75q0 -63 -42.5 -99.5t-117.5 -36.5
q-77 0 -118.5 36.5t-41.5 99.5h73z" />
    <glyph glyph-name="Ucircumflex" unicode="&#xdb;" horiz-adv-x="680" 
d="M603 262q0 -82 -32 -144t-91.5 -96.5t-139.5 -34.5t-139.5 34.5t-91.5 96.5t-32 144v408h91v-408q0 -86 47.5 -138t124.5 -52q79 0 125.5 52t46.5 138v408h91v-408zM399 860l106 -131h-85l-81 89l-80 -89h-85l106 131h119z" />
    <glyph glyph-name="Udieresis" unicode="&#xdc;" horiz-adv-x="680" 
d="M603 262q0 -82 -32 -144t-91.5 -96.5t-139.5 -34.5t-139.5 34.5t-91.5 96.5t-32 144v408h91v-408q0 -86 47.5 -138t124.5 -52q79 0 125.5 52t46.5 138v408h91v-408zM198 747.5q-15 14.5 -15 37.5q0 21 15.5 35.5t37.5 14.5t37.5 -14.5t15.5 -35.5q0 -23 -15.5 -37.5
t-37.5 -14.5q-23 0 -38 14.5zM405.5 747.5q-15.5 14.5 -15.5 37.5q0 21 15.5 35.5t37.5 14.5t38 -14.5t16 -35.5q0 -23 -16 -37.5t-38 -14.5t-37.5 14.5z" />
    <glyph glyph-name="Ugrave" unicode="&#xd9;" horiz-adv-x="680" 
d="M603 262q0 -82 -32 -144t-91.5 -96.5t-139.5 -34.5t-139.5 34.5t-91.5 96.5t-32 144v408h91v-408q0 -86 47.5 -138t124.5 -52q79 0 125.5 52t46.5 138v408h91v-408zM307 860l103 -131h-90l-123 131h110z" />
    <glyph glyph-name="Uhungarumlaut" unicode="&#x170;" horiz-adv-x="680" 
d="M603 262q0 -82 -32 -144t-91.5 -96.5t-139.5 -34.5t-139.5 34.5t-91.5 96.5t-32 144v408h91v-408q0 -86 47.5 -138t124.5 -52q79 0 125.5 52t46.5 138v408h91v-408zM283 729h-72l101 131h87zM440 729h-73l104 131h85z" />
    <glyph glyph-name="Umacron" unicode="&#x16a;" horiz-adv-x="680" 
d="M603 262q0 -82 -32 -144t-91.5 -96.5t-139.5 -34.5t-139.5 34.5t-91.5 96.5t-32 144v408h91v-408q0 -86 47.5 -138t124.5 -52q79 0 125.5 52t46.5 138v408h91v-408zM478 739h-278v68h278v-68z" />
    <glyph glyph-name="Uogonek" unicode="&#x172;" horiz-adv-x="680" 
d="M603 262q0 -82 -32 -144t-91.5 -96.5t-139.5 -34.5t-139.5 34.5t-91.5 96.5t-32 144v408h91v-408q0 -86 47.5 -138t124.5 -52q79 0 125.5 52t46.5 138v408h91v-408zM457 12q-38 -25 -57.5 -47t-19.5 -48q0 -25 15.5 -38.5t39.5 -13.5q36 0 64 32l35 -49q-42 -49 -108 -49
q-49 0 -80.5 27.5t-31.5 74.5q0 36 21 61t65 52z" />
    <glyph glyph-name="Uring" unicode="&#x16e;" horiz-adv-x="680" 
d="M603 262q0 -82 -32 -144t-91.5 -96.5t-139.5 -34.5t-139.5 34.5t-91.5 96.5t-32 144v408h91v-408q0 -86 47.5 -138t124.5 -52q79 0 125.5 52t46.5 138v408h91v-408zM237 742.5q-38 26.5 -38 68.5q0 43 38 70t104 27q64 0 102 -27t38 -70q0 -42 -38 -68.5t-102 -26.5
q-66 0 -104 26.5zM397 780q20 12 20 31q0 20 -20 33t-56 13q-37 0 -57.5 -13t-20.5 -33q0 -19 20.5 -31t57.5 -12q36 0 56 12z" />
    <glyph glyph-name="Utilde" unicode="&#x168;" horiz-adv-x="680" 
d="M603 262q0 -82 -32 -144t-91.5 -96.5t-139.5 -34.5t-139.5 34.5t-91.5 96.5t-32 144v408h91v-408q0 -86 47.5 -138t124.5 -52q79 0 125.5 52t46.5 138v408h91v-408zM452 855q2 -33 -5 -50t-25 -17q-9 0 -18 4t-17 8.5t-11 6.5l-51 33q-16 11 -33 17t-41 6
q-40 0 -64.5 -28t-24.5 -83q0 -15 1 -23h62l-1 18q0 49 31 49q18 0 46 -18l50 -32q19 -13 36.5 -19.5t40.5 -6.5q39 0 63 28t24 84q0 15 -1 23h-62z" />
    <glyph glyph-name="V" unicode="V" horiz-adv-x="619" 
d="M312 97l198 573h97l-244 -670h-107l-243 670h100l194 -573h5z" />
    <glyph glyph-name="W" unicode="W" horiz-adv-x="848" 
d="M620 121l101 549h92l-133 -670h-114l-141 560h-4l-144 -560h-107l-136 670h94l99 -549h5l138 549h109l137 -549h4z" />
    <glyph glyph-name="Wacute" unicode="&#x1e82;" horiz-adv-x="848" 
d="M620 121l101 549h92l-133 -670h-114l-141 560h-4l-144 -560h-107l-136 670h94l99 -549h5l138 549h109l137 -549h4zM444 729h-92l103 131h110z" />
    <glyph glyph-name="Wcircumflex" unicode="&#x174;" horiz-adv-x="848" 
d="M620 121l101 549h92l-133 -670h-114l-141 560h-4l-144 -560h-107l-136 670h94l99 -549h5l138 549h109l137 -549h4zM483 860l106 -131h-85l-81 89l-80 -89h-85l106 131h119z" />
    <glyph glyph-name="Wdieresis" unicode="&#x1e84;" horiz-adv-x="848" 
d="M620 121l101 549h92l-133 -670h-114l-141 560h-4l-144 -560h-107l-136 670h94l99 -549h5l138 549h109l137 -549h4zM282 747.5q-15 14.5 -15 37.5q0 21 15.5 35.5t37.5 14.5t37.5 -14.5t15.5 -35.5q0 -23 -15.5 -37.5t-37.5 -14.5q-23 0 -38 14.5zM489.5 747.5
q-15.5 14.5 -15.5 37.5q0 21 15.5 35.5t37.5 14.5t38 -14.5t16 -35.5q0 -23 -16 -37.5t-38 -14.5t-37.5 14.5z" />
    <glyph glyph-name="Wgrave" unicode="&#x1e80;" horiz-adv-x="848" 
d="M620 121l101 549h92l-133 -670h-114l-141 560h-4l-144 -560h-107l-136 670h94l99 -549h5l138 549h109l137 -549h4zM392 860l103 -131h-90l-123 131h110z" />
    <glyph glyph-name="X" unicode="X" horiz-adv-x="599" 
d="M573 670l-215 -321l234 -349h-111l-181 283h-4l-182 -283h-105l230 348l-216 322h108l167 -258h3l167 258h105z" />
    <glyph glyph-name="uni1E8A" unicode="&#x1e8a;" horiz-adv-x="599" 
d="M573 670l-215 -321l234 -349h-111l-181 283h-4l-182 -283h-105l230 348l-216 322h108l167 -258h3l167 258h105zM255.5 746.5q-17.5 15.5 -17.5 39.5t17.5 39.5t43.5 15.5q25 0 43 -15.5t18 -39.5t-18 -39.5t-43 -15.5q-26 0 -43.5 15.5z" />
    <glyph glyph-name="Y" unicode="Y" horiz-adv-x="606" 
d="M307 358l187 312h101l-246 -392v-278h-91v278l-248 392h104l189 -312h4z" />
    <glyph glyph-name="Yacute" unicode="&#xdd;" horiz-adv-x="606" 
d="M307 358l187 312h101l-246 -392v-278h-91v278l-248 392h104l189 -312h4zM325 729h-92l103 131h110z" />
    <glyph glyph-name="Ycircumflex" unicode="&#x176;" horiz-adv-x="606" 
d="M307 358l187 312h101l-246 -392v-278h-91v278l-248 392h104l189 -312h4zM365 860l106 -131h-85l-81 89l-80 -89h-85l106 131h119z" />
    <glyph glyph-name="Ydieresis" unicode="&#x178;" horiz-adv-x="606" 
d="M307 358l187 312h101l-246 -392v-278h-91v278l-248 392h104l189 -312h4zM164 747.5q-15 14.5 -15 37.5q0 21 15.5 35.5t37.5 14.5t37.5 -14.5t15.5 -35.5q0 -23 -15.5 -37.5t-37.5 -14.5q-23 0 -38 14.5zM371.5 747.5q-15.5 14.5 -15.5 37.5q0 21 15.5 35.5t37.5 14.5
t38 -14.5t16 -35.5q0 -23 -16 -37.5t-38 -14.5t-37.5 14.5z" />
    <glyph glyph-name="Ygrave" unicode="&#x1ef2;" horiz-adv-x="606" 
d="M307 358l187 312h101l-246 -392v-278h-91v278l-248 392h104l189 -312h4zM273 860l103 -131h-90l-123 131h110z" />
    <glyph glyph-name="Z" unicode="Z" horiz-adv-x="543" 
d="M34 0v75l352 509v4h-338v82h451v-72l-346 -510v-4h352v-84h-471z" />
    <glyph glyph-name="Zacute" unicode="&#x179;" horiz-adv-x="543" 
d="M34 0v75l352 509v4h-338v82h451v-72l-346 -510v-4h352v-84h-471zM293 729h-92l103 131h110z" />
    <glyph glyph-name="Zcaron" unicode="&#x17d;" horiz-adv-x="543" 
d="M34 0v75l352 509v4h-338v82h451v-72l-346 -510v-4h352v-84h-471zM273 771l80 89h85l-106 -131h-119l-105 131h84z" />
    <glyph glyph-name="Zdotaccent" unicode="&#x17b;" horiz-adv-x="543" 
d="M34 0v75l352 509v4h-338v82h451v-72l-346 -510v-4h352v-84h-471zM229.5 746.5q-17.5 15.5 -17.5 39.5t17.5 39.5t43.5 15.5q25 0 43 -15.5t18 -39.5t-18 -39.5t-43 -15.5q-26 0 -43.5 15.5z" />
    <glyph glyph-name="uni01B5" unicode="&#x1b5;" horiz-adv-x="556" 
d="M160 88v-4h352v-84h-471v75l162 234h-136v61h178l148 214v4h-338v82h450v-72l-154 -228h134v-61h-175z" />
    <glyph glyph-name="a" unicode="a" horiz-adv-x="507" 
d="M451 0h-76l-9 95h-3q-20 -52 -63.5 -80t-106.5 -28q-67 0 -107.5 38.5t-40.5 101.5q0 70 50.5 109.5t139.5 39.5q55 0 111 -15v41q0 52 -29 83.5t-77 31.5q-43 0 -71.5 -18t-48.5 -56l-65 37q24 55 72.5 84t115.5 29q89 0 139.5 -51t50.5 -140v-97zM279.5 79
q30.5 18 48.5 48.5t18 66.5q-25 8 -49 12t-57 4q-53 0 -82 -19.5t-29 -55.5q0 -74 84 -74q36 0 66.5 18z" />
    <glyph glyph-name="aacute" unicode="&#xe1;" horiz-adv-x="507" 
d="M451 0h-76l-9 95h-3q-20 -52 -63.5 -80t-106.5 -28q-67 0 -107.5 38.5t-40.5 101.5q0 70 50.5 109.5t139.5 39.5q55 0 111 -15v41q0 52 -29 83.5t-77 31.5q-43 0 -71.5 -18t-48.5 -56l-65 37q24 55 72.5 84t115.5 29q89 0 139.5 -51t50.5 -140v-97zM279.5 79
q30.5 18 48.5 48.5t18 66.5q-25 8 -49 12t-57 4q-53 0 -82 -19.5t-29 -55.5q0 -74 84 -74q36 0 66.5 18zM258 547h-87l104 158h105z" />
    <glyph glyph-name="abreve" unicode="&#x103;" horiz-adv-x="507" 
d="M451 0h-76l-9 95h-3q-20 -52 -63.5 -80t-106.5 -28q-67 0 -107.5 38.5t-40.5 101.5q0 70 50.5 109.5t139.5 39.5q55 0 111 -15v41q0 52 -29 83.5t-77 31.5q-43 0 -71.5 -18t-48.5 -56l-65 37q24 55 72.5 84t115.5 29q89 0 139.5 -51t50.5 -140v-97zM279.5 79
q30.5 18 48.5 48.5t18 66.5q-25 8 -49 12t-57 4q-53 0 -82 -19.5t-29 -55.5q0 -74 84 -74q36 0 66.5 18zM153 710q0 -45 24 -71.5t67 -26.5t67 27t24 71h69q0 -74 -42.5 -118.5t-117.5 -44.5q-76 0 -118 44.5t-42 118.5h69z" />
    <glyph glyph-name="acircumflex" unicode="&#xe2;" horiz-adv-x="507" 
d="M451 0h-76l-9 95h-3q-20 -52 -63.5 -80t-106.5 -28q-67 0 -107.5 38.5t-40.5 101.5q0 70 50.5 109.5t139.5 39.5q55 0 111 -15v41q0 52 -29 83.5t-77 31.5q-43 0 -71.5 -18t-48.5 -56l-65 37q24 55 72.5 84t115.5 29q89 0 139.5 -51t50.5 -140v-97zM279.5 79
q30.5 18 48.5 48.5t18 66.5q-25 8 -49 12t-57 4q-53 0 -82 -19.5t-29 -55.5q0 -74 84 -74q36 0 66.5 18zM300 705l106 -158h-82l-80 108l-81 -108h-83l106 158h114z" />
    <glyph glyph-name="adieresis" unicode="&#xe4;" horiz-adv-x="507" 
d="M451 0h-76l-9 95h-3q-20 -52 -63.5 -80t-106.5 -28q-67 0 -107.5 38.5t-40.5 101.5q0 70 50.5 109.5t139.5 39.5q55 0 111 -15v41q0 52 -29 83.5t-77 31.5q-43 0 -71.5 -18t-48.5 -56l-65 37q24 55 72.5 84t115.5 29q89 0 139.5 -51t50.5 -140v-97zM279.5 79
q30.5 18 48.5 48.5t18 66.5q-25 8 -49 12t-57 4q-53 0 -82 -19.5t-29 -55.5q0 -74 84 -74q36 0 66.5 18zM102.5 573.5q-15.5 15.5 -15.5 38.5q0 22 15 37t38 15q22 0 37.5 -15t15.5 -37t-15.5 -38t-37.5 -16t-37.5 15.5zM309.5 574q-15.5 16 -15.5 38t15.5 37t37.5 15
t38 -15t16 -37t-16 -38t-38 -16t-37.5 16z" />
    <glyph glyph-name="agrave" unicode="&#xe0;" horiz-adv-x="507" 
d="M451 0h-76l-9 95h-3q-20 -52 -63.5 -80t-106.5 -28q-67 0 -107.5 38.5t-40.5 101.5q0 70 50.5 109.5t139.5 39.5q55 0 111 -15v41q0 52 -29 83.5t-77 31.5q-43 0 -71.5 -18t-48.5 -56l-65 37q24 55 72.5 84t115.5 29q89 0 139.5 -51t50.5 -140v-97zM279.5 79
q30.5 18 48.5 48.5t18 66.5q-25 8 -49 12t-57 4q-53 0 -82 -19.5t-29 -55.5q0 -74 84 -74q36 0 66.5 18zM211 705l103 -158h-85l-122 158h104z" />
    <glyph glyph-name="amacron" unicode="&#x101;" horiz-adv-x="507" 
d="M451 0h-76l-9 95h-3q-20 -52 -63.5 -80t-106.5 -28q-67 0 -107.5 38.5t-40.5 101.5q0 70 50.5 109.5t139.5 39.5q55 0 111 -15v41q0 52 -29 83.5t-77 31.5q-43 0 -71.5 -18t-48.5 -56l-65 37q24 55 72.5 84t115.5 29q89 0 139.5 -51t50.5 -140v-97zM279.5 79
q30.5 18 48.5 48.5t18 66.5q-25 8 -49 12t-57 4q-53 0 -82 -19.5t-29 -55.5q0 -74 84 -74q36 0 66.5 18zM382 566h-278v69h278v-69z" />
    <glyph glyph-name="aogonek" unicode="&#x105;" horiz-adv-x="507" 
d="M451 0h-76l-9 95h-3q-20 -52 -63.5 -80t-106.5 -28q-67 0 -107.5 38.5t-40.5 101.5q0 70 50.5 109.5t139.5 39.5q55 0 111 -15v41q0 52 -29 83.5t-77 31.5q-43 0 -71.5 -18t-48.5 -56l-65 37q24 55 72.5 84t115.5 29q89 0 139.5 -51t50.5 -140v-97zM279.5 79
q30.5 18 48.5 48.5t18 66.5q-25 8 -49 12t-57 4q-53 0 -82 -19.5t-29 -55.5q0 -74 84 -74q36 0 66.5 18zM445 0q-43 0 -74 -23t-31 -59q0 -23 13.5 -36t34.5 -13q19 0 32 8t25 21l35 -47q-40 -49 -104 -49q-46 0 -74.5 27.5t-28.5 74.5q0 44 32.5 77t86.5 43z" />
    <glyph glyph-name="aring" unicode="&#xe5;" horiz-adv-x="507" 
d="M451 0h-76l-9 95h-3q-20 -52 -63.5 -80t-106.5 -28q-67 0 -107.5 38.5t-40.5 101.5q0 70 50.5 109.5t139.5 39.5q55 0 111 -15v41q0 52 -29 83.5t-77 31.5q-43 0 -71.5 -18t-48.5 -56l-65 37q24 55 72.5 84t115.5 29q89 0 139.5 -51t50.5 -140v-97zM279.5 79
q30.5 18 48.5 48.5t18 66.5q-25 8 -49 12t-57 4q-53 0 -82 -19.5t-29 -55.5q0 -74 84 -74q36 0 66.5 18zM142.5 573.5q-39.5 31.5 -39.5 78.5q0 49 39 81t103 32q62 0 101 -32t39 -81q0 -47 -38.5 -78.5t-101.5 -31.5t-102.5 31.5zM301 613q20 15 20 40t-20 41t-56 16
q-37 0 -57.5 -16t-20.5 -41t20.5 -40t57.5 -15q36 0 56 15z" />
    <glyph glyph-name="atilde" unicode="&#xe3;" horiz-adv-x="507" 
d="M451 0h-76l-9 95h-3q-20 -52 -63.5 -80t-106.5 -28q-67 0 -107.5 38.5t-40.5 101.5q0 70 50.5 109.5t139.5 39.5q55 0 111 -15v41q0 52 -29 83.5t-77 31.5q-43 0 -71.5 -18t-48.5 -56l-65 37q24 55 72.5 84t115.5 29q89 0 139.5 -51t50.5 -140v-97zM279.5 79
q30.5 18 48.5 48.5t18 66.5q-25 8 -49 12t-57 4q-53 0 -82 -19.5t-29 -55.5q0 -74 84 -74q36 0 66.5 18zM357 699q3 -76 -33 -76q-11 0 -20.5 4.5t-16.5 10t-9 6.5l-54 37q-19 13 -33.5 19.5t-36.5 6.5q-40 0 -64.5 -30.5t-24.5 -92.5q0 -18 1 -28h61q-1 7 -1 19q0 57 34 57
q9 0 17.5 -4.5t16 -9.5l10.5 -7l54 -37q19 -13 35.5 -19.5t38.5 -6.5q39 0 62.5 31t23.5 94q0 17 -1 26h-60z" />
    <glyph glyph-name="ae" unicode="&#xe6;" horiz-adv-x="808" 
d="M766 214h-333q2 -64 39.5 -106.5t108.5 -42.5q42 0 77 16t57 41l42 -62q-29 -34 -75 -53.5t-100 -19.5q-71 0 -120.5 32t-74.5 90h-2q-17 -51 -67.5 -86.5t-119.5 -35.5q-71 0 -112 38t-41 104q0 71 51 111.5t143 40.5h108v23q0 51 -29.5 82t-78.5 31q-42 0 -70 -17.5
t-48 -55.5l-66 36q24 55 71.5 84t112.5 29q61 -1 101 -28t56 -72h3q27 48 71 74t101 26q90 0 143 -66t53 -174q0 -27 -1 -39zM471.5 378.5q-33.5 -40.5 -38.5 -97.5h251q-5 64 -36 101t-84 37q-59 0 -92.5 -40.5zM308.5 103.5q38.5 42.5 38.5 110.5h-101q-54 0 -85 -21
t-31 -59q0 -35 21 -54t60 -19q59 0 97.5 42.5z" />
    <glyph glyph-name="aeacute" unicode="&#x1fd;" horiz-adv-x="808" 
d="M766 214h-333q2 -64 39.5 -106.5t108.5 -42.5q42 0 77 16t57 41l42 -62q-29 -34 -75 -53.5t-100 -19.5q-71 0 -120.5 32t-74.5 90h-2q-17 -51 -67.5 -86.5t-119.5 -35.5q-71 0 -112 38t-41 104q0 71 51 111.5t143 40.5h108v23q0 51 -29.5 82t-78.5 31q-42 0 -70 -17.5
t-48 -55.5l-66 36q24 55 71.5 84t112.5 29q61 -1 101 -28t56 -72h3q27 48 71 74t101 26q90 0 143 -66t53 -174q0 -27 -1 -39zM471.5 378.5q-33.5 -40.5 -38.5 -97.5h251q-5 64 -36 101t-84 37q-59 0 -92.5 -40.5zM308.5 103.5q38.5 42.5 38.5 110.5h-101q-54 0 -85 -21
t-31 -59q0 -35 21 -54t60 -19q59 0 97.5 42.5zM412 547h-87l104 158h105z" />
    <glyph glyph-name="b" unicode="b" horiz-adv-x="574" 
d="M433 461q48 -32 73.5 -88t25.5 -127q0 -76 -29 -134.5t-84.5 -91.5t-133.5 -33q-118 0 -212 67v644h86v-287h3q23 35 61.5 58.5t96.5 23.5q65 0 113 -32zM404.5 114.5q39.5 48.5 39.5 130.5q0 77 -37.5 124.5t-107.5 47.5q-38 0 -70 -18.5t-51 -50.5t-19 -71v-175
q26 -19 55.5 -27.5t70.5 -8.5q80 0 119.5 48.5z" />
    <glyph glyph-name="c" unicode="c" horiz-adv-x="489" 
d="M415 364q-50 52 -124 52q-78 0 -120 -49t-42 -126q0 -78 41 -126.5t117 -48.5q85 0 132 53l46 -62q-65 -70 -180 -70q-75 0 -130 32.5t-84.5 90.5t-29.5 131t30.5 130t86.5 89.5t130 32.5q106 0 172 -70z" />
    <glyph glyph-name="cacute" unicode="&#x107;" horiz-adv-x="489" 
d="M415 364q-50 52 -124 52q-78 0 -120 -49t-42 -126q0 -78 41 -126.5t117 -48.5q85 0 132 53l46 -62q-65 -70 -180 -70q-75 0 -130 32.5t-84.5 90.5t-29.5 131t30.5 130t86.5 89.5t130 32.5q106 0 172 -70zM298 547h-87l104 158h105z" />
    <glyph glyph-name="ccaron" unicode="&#x10d;" horiz-adv-x="489" 
d="M415 364q-50 52 -124 52q-78 0 -120 -49t-42 -126q0 -78 41 -126.5t117 -48.5q85 0 132 53l46 -62q-65 -70 -180 -70q-75 0 -130 32.5t-84.5 90.5t-29.5 131t30.5 130t86.5 89.5t130 32.5q106 0 172 -70zM283 597l80 108h82l-105 -158h-115l-105 158h82z" />
    <glyph glyph-name="ccedilla" unicode="&#xe7;" horiz-adv-x="489" 
d="M415 364q-50 52 -124 52q-78 0 -120 -49t-42 -126q0 -78 41 -126.5t117 -48.5q85 0 132 53l46 -62q-65 -70 -180 -70q-75 0 -130 32.5t-84.5 90.5t-29.5 131t30.5 130t86.5 89.5t130 32.5q106 0 172 -70zM362 -69.5q29 -20.5 29 -57.5q0 -42 -34.5 -66.5t-87.5 -24.5
q-62 0 -99 26l21 49q31 -22 74 -22q28 0 44.5 9t16.5 26t-16.5 25t-40.5 8q-40 0 -65 -11l-13 29l70 105h63l-50 -75h18q41 0 70 -20.5z" />
    <glyph glyph-name="ccircumflex" unicode="&#x109;" horiz-adv-x="489" 
d="M415 364q-50 52 -124 52q-78 0 -120 -49t-42 -126q0 -78 41 -126.5t117 -48.5q85 0 132 53l46 -62q-65 -70 -180 -70q-75 0 -130 32.5t-84.5 90.5t-29.5 131t30.5 130t86.5 89.5t130 32.5q106 0 172 -70zM339 705l106 -158h-82l-80 108l-81 -108h-83l106 158h114z" />
    <glyph glyph-name="cdotaccent" unicode="&#x10b;" horiz-adv-x="489" 
d="M415 364q-50 52 -124 52q-78 0 -120 -49t-42 -126q0 -78 41 -126.5t117 -48.5q85 0 132 53l46 -62q-65 -70 -180 -70q-75 0 -130 32.5t-84.5 90.5t-29.5 131t30.5 130t86.5 89.5t130 32.5q106 0 172 -70zM240.5 579q-17.5 17 -17.5 42t17.5 42.5t42.5 17.5t43 -17.5
t18 -42.5t-18 -42t-43 -17t-42.5 17z" />
    <glyph glyph-name="d" unicode="d" horiz-adv-x="588" 
d="M528 0h-76l-9 96h-3q-21 -51 -65.5 -80t-110.5 -29q-69 0 -119.5 31.5t-77 87.5t-26.5 129t29 132t83 92.5t125 33.5q89 0 145 -47v252h86v-488zM382.5 105.5q40.5 39.5 40.5 99.5v150q-22 29 -57 45.5t-81 16.5q-75 0 -115.5 -50.5t-40.5 -129.5q0 -77 40 -124t114 -47
q59 0 99.5 39.5z" />
    <glyph glyph-name="eth" unicode="&#xf0;" horiz-adv-x="557" 
d="M392 594q56 -71 87.5 -158.5t31.5 -188.5q0 -119 -64.5 -189.5t-176.5 -70.5q-71 0 -122.5 30.5t-79 85.5t-27.5 128q0 71 29.5 128t84 89.5t125.5 32.5q53 0 97 -22q-28 59 -67 108l-138 -47l-20 56l116 39q-34 34 -66 58l67 38q42 -30 80 -68l102 34l20 -56z
M382.5 110.5q40.5 44.5 40.5 131.5q0 62 -14 123q-48 41 -122 41q-75 0 -116.5 -49.5t-41.5 -124.5q0 -74 38 -120t108 -46q67 0 107.5 44.5z" />
    <glyph glyph-name="dcaron" unicode="&#x10f;" horiz-adv-x="618" 
d="M528 0h-76l-9 96h-3q-21 -51 -65.5 -80t-110.5 -29q-69 0 -119.5 31.5t-77 87.5t-26.5 129t29 132t83 92.5t125 33.5q89 0 145 -47v252h86v-488zM382.5 105.5q40.5 39.5 40.5 99.5v150q-22 29 -57 45.5t-81 16.5q-75 0 -115.5 -50.5t-40.5 -129.5q0 -77 40 -124t114 -47
q59 0 99.5 39.5zM602 698h87l-57 -184h-60z" />
    <glyph glyph-name="dcroat" unicode="&#x111;" horiz-adv-x="588" 
d="M582 559h-73v-349l19 -210h-76l-9 96h-3q-21 -51 -65.5 -80t-110.5 -29q-69 0 -119.5 31.5t-77 87.5t-26.5 129t29 132t83 92.5t125 33.5q89 0 145 -47v113h-160v61h160v78h86v-78h73v-61zM382.5 105.5q40.5 39.5 40.5 99.5v150q-22 29 -57 45.5t-81 16.5
q-75 0 -115.5 -50.5t-40.5 -129.5q0 -77 40 -124t114 -47q59 0 99.5 39.5z" />
    <glyph glyph-name="e" unicode="e" horiz-adv-x="524" 
d="M483 214h-355q2 -64 41.5 -106.5t114.5 -42.5q44 0 83 16t66 41l42 -62q-34 -33 -84 -53t-108 -20q-117 0 -179.5 69t-62.5 185q0 72 28 129.5t79 90t118 32.5q66 0 116 -31t76.5 -86.5t26.5 -127.5q0 -22 -2 -34zM168.5 379q-34.5 -40 -40.5 -98h273q-6 63 -41 100.5
t-95 37.5q-62 0 -96.5 -40z" />
    <glyph glyph-name="eacute" unicode="&#xe9;" horiz-adv-x="524" 
d="M483 214h-355q2 -64 41.5 -106.5t114.5 -42.5q44 0 83 16t66 41l42 -62q-34 -33 -84 -53t-108 -20q-117 0 -179.5 69t-62.5 185q0 72 28 129.5t79 90t118 32.5q66 0 116 -31t76.5 -86.5t26.5 -127.5q0 -22 -2 -34zM168.5 379q-34.5 -40 -40.5 -98h273q-6 63 -41 100.5
t-95 37.5q-62 0 -96.5 -40zM281 547h-87l104 158h105z" />
    <glyph glyph-name="ebreve" unicode="&#x115;" horiz-adv-x="524" 
d="M483 214h-355q2 -64 41.5 -106.5t114.5 -42.5q44 0 83 16t66 41l42 -62q-34 -33 -84 -53t-108 -20q-117 0 -179.5 69t-62.5 185q0 72 28 129.5t79 90t118 32.5q66 0 116 -31t76.5 -86.5t26.5 -127.5q0 -22 -2 -34zM168.5 379q-34.5 -40 -40.5 -98h273q-6 63 -41 100.5
t-95 37.5q-62 0 -96.5 -40zM175 710q0 -45 24 -71.5t67 -26.5t67 27t24 71h69q0 -74 -42.5 -118.5t-117.5 -44.5q-76 0 -118 44.5t-42 118.5h69z" />
    <glyph glyph-name="ecaron" unicode="&#x11b;" horiz-adv-x="524" 
d="M483 214h-355q2 -64 41.5 -106.5t114.5 -42.5q44 0 83 16t66 41l42 -62q-34 -33 -84 -53t-108 -20q-117 0 -179.5 69t-62.5 185q0 72 28 129.5t79 90t118 32.5q66 0 116 -31t76.5 -86.5t26.5 -127.5q0 -22 -2 -34zM168.5 379q-34.5 -40 -40.5 -98h273q-6 63 -41 100.5
t-95 37.5q-62 0 -96.5 -40zM266 597l80 108h82l-105 -158h-115l-105 158h82z" />
    <glyph glyph-name="ecircumflex" unicode="&#xea;" horiz-adv-x="524" 
d="M483 214h-355q2 -64 41.5 -106.5t114.5 -42.5q44 0 83 16t66 41l42 -62q-34 -33 -84 -53t-108 -20q-117 0 -179.5 69t-62.5 185q0 72 28 129.5t79 90t118 32.5q66 0 116 -31t76.5 -86.5t26.5 -127.5q0 -22 -2 -34zM168.5 379q-34.5 -40 -40.5 -98h273q-6 63 -41 100.5
t-95 37.5q-62 0 -96.5 -40zM322 705l106 -158h-82l-80 108l-81 -108h-83l106 158h114z" />
    <glyph glyph-name="edieresis" unicode="&#xeb;" horiz-adv-x="524" 
d="M483 214h-355q2 -64 41.5 -106.5t114.5 -42.5q44 0 83 16t66 41l42 -62q-34 -33 -84 -53t-108 -20q-117 0 -179.5 69t-62.5 185q0 72 28 129.5t79 90t118 32.5q66 0 116 -31t76.5 -86.5t26.5 -127.5q0 -22 -2 -34zM168.5 379q-34.5 -40 -40.5 -98h273q-6 63 -41 100.5
t-95 37.5q-62 0 -96.5 -40zM125.5 573.5q-15.5 15.5 -15.5 38.5q0 22 15 37t38 15q22 0 37.5 -15t15.5 -37t-15.5 -38t-37.5 -16t-37.5 15.5zM332.5 574q-15.5 16 -15.5 38t15.5 37t37.5 15t38 -15t16 -37t-16 -38t-38 -16t-37.5 16z" />
    <glyph glyph-name="edotaccent" unicode="&#x117;" horiz-adv-x="524" 
d="M483 214h-355q2 -64 41.5 -106.5t114.5 -42.5q44 0 83 16t66 41l42 -62q-34 -33 -84 -53t-108 -20q-117 0 -179.5 69t-62.5 185q0 72 28 129.5t79 90t118 32.5q66 0 116 -31t76.5 -86.5t26.5 -127.5q0 -22 -2 -34zM168.5 379q-34.5 -40 -40.5 -98h273q-6 63 -41 100.5
t-95 37.5q-62 0 -96.5 -40zM223.5 579q-17.5 17 -17.5 42t17.5 42.5t42.5 17.5t43 -17.5t18 -42.5t-18 -42t-43 -17t-42.5 17z" />
    <glyph glyph-name="egrave" unicode="&#xe8;" horiz-adv-x="524" 
d="M483 214h-355q2 -64 41.5 -106.5t114.5 -42.5q44 0 83 16t66 41l42 -62q-34 -33 -84 -53t-108 -20q-117 0 -179.5 69t-62.5 185q0 72 28 129.5t79 90t118 32.5q66 0 116 -31t76.5 -86.5t26.5 -127.5q0 -22 -2 -34zM168.5 379q-34.5 -40 -40.5 -98h273q-6 63 -41 100.5
t-95 37.5q-62 0 -96.5 -40zM234 705l103 -158h-85l-122 158h104z" />
    <glyph glyph-name="emacron" unicode="&#x113;" horiz-adv-x="524" 
d="M483 214h-355q2 -64 41.5 -106.5t114.5 -42.5q44 0 83 16t66 41l42 -62q-34 -33 -84 -53t-108 -20q-117 0 -179.5 69t-62.5 185q0 72 28 129.5t79 90t118 32.5q66 0 116 -31t76.5 -86.5t26.5 -127.5q0 -22 -2 -34zM168.5 379q-34.5 -40 -40.5 -98h273q-6 63 -41 100.5
t-95 37.5q-62 0 -96.5 -40zM405 566h-278v69h278v-69z" />
    <glyph glyph-name="eogonek" unicode="&#x119;" horiz-adv-x="524" 
d="M483 214h-355q2 -64 41.5 -106.5t114.5 -42.5q44 0 83 16t66 41l42 -62q-34 -33 -84 -53t-108 -20q-117 0 -179.5 69t-62.5 185q0 72 28 129.5t79 90t118 32.5q66 0 116 -31t76.5 -86.5t26.5 -127.5q0 -22 -2 -34zM168.5 379q-34.5 -40 -40.5 -98h273q-6 63 -41 100.5
t-95 37.5q-62 0 -96.5 -40zM402 13q-38 -25 -57.5 -47t-19.5 -48q0 -25 15.5 -38.5t39.5 -13.5q36 0 64 32l35 -49q-42 -49 -108 -49q-49 0 -80.5 27.5t-31.5 74.5q0 36 21 61t65 52z" />
    <glyph glyph-name="uni0259" unicode="&#x259;" horiz-adv-x="524" 
d="M420.5 424q62.5 -69 62.5 -184q0 -73 -28 -130.5t-79 -90t-118 -32.5t-116.5 30.5t-76 85.5t-26.5 128q0 18 3 36h355q-3 64 -42.5 108t-113.5 44q-45 0 -83.5 -17t-66.5 -44l-42 60q35 34 85 54.5t108 20.5q116 0 178.5 -69zM357 104q35 39 40 96h-273q6 -63 40.5 -99
t94.5 -36q63 0 98 39z" />
    <glyph glyph-name="f" unicode="f" horiz-adv-x="348" 
d="M208 609.5q-19 -22.5 -19 -65.5v-64h147v-77h-147v-403h-86v403h-77v77h77v73q0 73 42.5 114.5t110.5 41.5q75 0 116 -41l-35 -65q-32 29 -73 29q-37 0 -56 -22.5z" />
    <glyph glyph-name="g" unicode="g" horiz-adv-x="578" 
d="M442 480h76l-19 -202v-265q0 -99 -62.5 -155.5t-171.5 -56.5q-132 0 -205 84l49 63q31 -36 68 -53t87 -17q70 0 109.5 36.5t39.5 108.5v83h-2q-21 -41 -63 -65t-91 -24q-62 0 -110.5 30t-76 84t-27.5 123q0 71 28 125t77.5 84t112.5 30q58 0 102.5 -26.5t67.5 -77.5h2z
M375 139.5q38 43.5 38 116.5q0 74 -37.5 117.5t-101.5 43.5q-65 0 -104 -44t-39 -117t39 -116.5t104 -43.5q63 0 101 43.5z" />
    <glyph glyph-name="gbreve" unicode="&#x11f;" horiz-adv-x="578" 
d="M442 480h76l-19 -202v-265q0 -99 -62.5 -155.5t-171.5 -56.5q-132 0 -205 84l49 63q31 -36 68 -53t87 -17q70 0 109.5 36.5t39.5 108.5v83h-2q-21 -41 -63 -65t-91 -24q-62 0 -110.5 30t-76 84t-27.5 123q0 71 28 125t77.5 84t112.5 30q58 0 102.5 -26.5t67.5 -77.5h2z
M375 139.5q38 43.5 38 116.5q0 74 -37.5 117.5t-101.5 43.5q-65 0 -104 -44t-39 -117t39 -116.5t104 -43.5q63 0 101 43.5zM192 710q0 -45 24 -71.5t67 -26.5t67 27t24 71h69q0 -74 -42.5 -118.5t-117.5 -44.5q-76 0 -118 44.5t-42 118.5h69z" />
    <glyph glyph-name="gcircumflex" unicode="&#x11d;" horiz-adv-x="578" 
d="M442 480h76l-19 -202v-265q0 -99 -62.5 -155.5t-171.5 -56.5q-132 0 -205 84l49 63q31 -36 68 -53t87 -17q70 0 109.5 36.5t39.5 108.5v83h-2q-21 -41 -63 -65t-91 -24q-62 0 -110.5 30t-76 84t-27.5 123q0 71 28 125t77.5 84t112.5 30q58 0 102.5 -26.5t67.5 -77.5h2z
M375 139.5q38 43.5 38 116.5q0 74 -37.5 117.5t-101.5 43.5q-65 0 -104 -44t-39 -117t39 -116.5t104 -43.5q63 0 101 43.5zM339 705l106 -158h-82l-80 108l-81 -108h-83l106 158h114z" />
    <glyph glyph-name="uni0123" unicode="&#x123;" horiz-adv-x="578" 
d="M442 480h76l-19 -202v-265q0 -99 -62.5 -155.5t-171.5 -56.5q-132 0 -205 84l49 63q31 -36 68 -53t87 -17q70 0 109.5 36.5t39.5 108.5v83h-2q-21 -41 -63 -65t-91 -24q-62 0 -110.5 30t-76 84t-27.5 123q0 71 28 125t77.5 84t112.5 30q58 0 102.5 -26.5t67.5 -77.5h2z
M375 139.5q38 43.5 38 116.5q0 74 -37.5 117.5t-101.5 43.5q-65 0 -104 -44t-39 -117t39 -116.5t104 -43.5q63 0 101 43.5zM251 691q26 32 69 48l22 -27q-26 -15 -40 -33.5t-15 -37.5q21 0 37 -12t16 -34q0 -20 -14.5 -33.5t-38.5 -13.5q-28 0 -45 17.5t-17 49.5q0 44 26 76
z" />
    <glyph glyph-name="gdotaccent" unicode="&#x121;" horiz-adv-x="578" 
d="M442 480h76l-19 -202v-265q0 -99 -62.5 -155.5t-171.5 -56.5q-132 0 -205 84l49 63q31 -36 68 -53t87 -17q70 0 109.5 36.5t39.5 108.5v83h-2q-21 -41 -63 -65t-91 -24q-62 0 -110.5 30t-76 84t-27.5 123q0 71 28 125t77.5 84t112.5 30q58 0 102.5 -26.5t67.5 -77.5h2z
M375 139.5q38 43.5 38 116.5q0 74 -37.5 117.5t-101.5 43.5q-65 0 -104 -44t-39 -117t39 -116.5t104 -43.5q63 0 101 43.5zM239.5 579q-17.5 17 -17.5 42t17.5 42.5t42.5 17.5t43 -17.5t18 -42.5t-18 -42t-43 -17t-42.5 17z" />
    <glyph glyph-name="h" unicode="h" horiz-adv-x="551" 
d="M432.5 442q48.5 -51 48.5 -132v-310h-86v301q0 50 -32.5 81.5t-84.5 31.5q-50 0 -83.5 -32.5t-33.5 -80.5v-301h-86v698h86v-279h3q16 30 53.5 52t88.5 22q78 0 126.5 -51z" />
    <glyph glyph-name="hbar" unicode="&#x127;" horiz-adv-x="551" 
d="M432.5 442q48.5 -51 48.5 -132v-310h-86v301q0 50 -32.5 81.5t-84.5 31.5q-50 0 -83.5 -32.5t-33.5 -80.5v-301h-86v559h-72v61h72v78h86v-78h160v-61h-160v-140h3q16 30 53.5 52t88.5 22q78 0 126.5 -51z" />
    <glyph glyph-name="hcircumflex" unicode="&#x125;" horiz-adv-x="551" 
d="M432.5 442q48.5 -51 48.5 -132v-310h-86v301q0 50 -32.5 81.5t-84.5 31.5q-50 0 -83.5 -32.5t-33.5 -80.5v-301h-86v698h86v-279h3q16 30 53.5 52t88.5 22q78 0 126.5 -51zM176 860l106 -131h-85l-81 89l-80 -89h-85l106 131h119z" />
    <glyph glyph-name="i" unicode="i" horiz-adv-x="236" 
d="M75.5 591.5q-17.5 17.5 -17.5 42.5t17 42t43 17t43 -17t17 -42t-17 -42.5t-43 -17.5q-25 0 -42.5 17.5zM161 0h-86v480h86v-480z" />
    <glyph glyph-name="dotlessi" unicode="&#x131;" horiz-adv-x="236" 
d="M161 0h-86v480h86v-480z" />
    <glyph glyph-name="iacute" unicode="&#xed;" horiz-adv-x="236" 
d="M161 0h-86v480h86v-480zM133 547h-87l104 158h105z" />
    <glyph glyph-name="ibreve" unicode="&#x12d;" horiz-adv-x="236" 
d="M161 0h-86v480h86v-480zM27 710q0 -45 24 -71.5t67 -26.5t67 27t24 71h69q0 -74 -42.5 -118.5t-117.5 -44.5q-76 0 -118 44.5t-42 118.5h69z" />
    <glyph glyph-name="icircumflex" unicode="&#xee;" horiz-adv-x="236" 
d="M161 0h-86v480h86v-480zM174 705l106 -158h-82l-80 108l-81 -108h-83l106 158h114z" />
    <glyph glyph-name="idieresis" unicode="&#xef;" horiz-adv-x="236" 
d="M161 0h-86v480h86v-480zM-22.5 573.5q-15.5 15.5 -15.5 38.5q0 22 15 37t38 15q22 0 37.5 -15t15.5 -37t-15.5 -38t-37.5 -16t-37.5 15.5zM184.5 574q-15.5 16 -15.5 38t15.5 37t37.5 15t38 -15t16 -37t-16 -38t-38 -16t-37.5 16z" />
    <glyph glyph-name="igrave" unicode="&#xec;" horiz-adv-x="236" 
d="M161 0h-86v480h86v-480zM86 705l103 -158h-85l-122 158h104z" />
    <glyph glyph-name="ij" unicode="&#x133;" horiz-adv-x="473" 
d="M75.5 591.5q-17.5 17.5 -17.5 42.5t17 42t43 17t43 -17t17 -42t-17 -42.5t-43 -17.5q-25 0 -42.5 17.5zM161 0h-86v480h86v-480zM311.5 591.5q-17.5 17.5 -17.5 42.5t17.5 42t42.5 17q26 0 43.5 -17t17.5 -42t-17.5 -42.5t-43.5 -17.5q-25 0 -42.5 17.5zM398 -41
q0 -72 -41.5 -113.5t-113.5 -41.5q-45 0 -72 12l14 75q17 -9 47 -9q38 0 58.5 23t20.5 66v509h87v-521z" />
    <glyph glyph-name="imacron" unicode="&#x12b;" horiz-adv-x="236" 
d="M161 0h-86v480h86v-480zM257 566h-278v69h278v-69z" />
    <glyph glyph-name="iogonek" unicode="&#x12f;" horiz-adv-x="241" 
d="M80.5 591.5q-17.5 17.5 -17.5 42.5t17 42t43 17t43 -17t17 -42t-17 -42.5t-43 -17.5q-25 0 -42.5 17.5zM166 0h-86v480h86v-480zM145 0q-43 0 -74 -23t-31 -59q0 -23 13.5 -36t34.5 -13q19 0 32 8t25 21l35 -47q-40 -49 -104 -49q-46 0 -74.5 27.5t-28.5 74.5
q0 44 32.5 77t86.5 43z" />
    <glyph glyph-name="itilde" unicode="&#x129;" horiz-adv-x="236" 
d="M161 0h-86v480h86v-480zM232 699q3 -76 -33 -76q-11 0 -20.5 4.5t-16.5 10t-9 6.5l-54 37q-19 13 -33.5 19.5t-36.5 6.5q-40 0 -64.5 -30.5t-24.5 -92.5q0 -18 1 -28h61q-1 7 -1 19q0 57 34 57q9 0 17.5 -4.5t16 -9.5l10.5 -7l54 -37q19 -13 35.5 -19.5t38.5 -6.5
q39 0 62.5 31t23.5 94q0 17 -1 26h-60z" />
    <glyph glyph-name="j" unicode="j" horiz-adv-x="237" 
d="M75.5 591.5q-17.5 17.5 -17.5 42.5t17.5 42t42.5 17q26 0 43.5 -17t17.5 -42t-17.5 -42.5t-43.5 -17.5q-25 0 -42.5 17.5zM162 -41q0 -72 -41.5 -113.5t-113.5 -41.5q-45 0 -72 12l14 75q17 -9 47 -9q38 0 58.5 23t20.5 66v509h87v-521z" />
    <glyph glyph-name="uni0237" unicode="&#x237;" horiz-adv-x="237" 
d="M162 -41q0 -72 -41.5 -113.5t-113.5 -41.5q-45 0 -72 12l14 75q17 -9 47 -9q38 0 58.5 23t20.5 66v509h87v-521z" />
    <glyph glyph-name="jcircumflex" unicode="&#x135;" horiz-adv-x="237" 
d="M162 -41q0 -72 -41.5 -113.5t-113.5 -41.5q-45 0 -72 12l14 75q17 -9 47 -9q38 0 58.5 23t20.5 66v509h87v-521zM174 705l106 -158h-82l-80 108l-81 -108h-83l106 158h114z" />
    <glyph glyph-name="k" unicode="k" horiz-adv-x="505" 
d="M386 0l-148 207l-77 -60v-147h-86v698h86v-459q99 79 144 121.5t58.5 66t17.5 53.5h89q-4 -38 -16 -66.5t-45 -65.5t-101 -95l187 -253h-109z" />
    <glyph glyph-name="uni0137" unicode="&#x137;" horiz-adv-x="505" 
d="M386 0l-148 207l-77 -60v-147h-86v698h86v-459q99 79 144 121.5t58.5 66t17.5 53.5h89q-4 -38 -16 -66.5t-45 -65.5t-101 -95l187 -253h-109zM307.5 -190q-26.5 -34 -68.5 -51l-22 27q26 15 40 35.5t16 42.5q-21 0 -37 12t-16 34q0 20 14.5 33.5t38.5 13.5q28 0 44.5 -18
t16.5 -50q0 -45 -26.5 -79z" />
    <glyph glyph-name="l" unicode="l" horiz-adv-x="301" 
d="M73 698h86v-545q0 -41 19.5 -63.5t56.5 -22.5q28 0 49 9l10 -73q-33 -14 -75 -14q-67 0 -106.5 40.5t-39.5 111.5v557z" />
    <glyph glyph-name="lacute" unicode="&#x13a;" horiz-adv-x="301" 
d="M73 698h86v-545q0 -41 19.5 -63.5t56.5 -22.5q28 0 49 9l10 -73q-33 -14 -75 -14q-67 0 -106.5 40.5t-39.5 111.5v557zM136 729h-92l103 131h110z" />
    <glyph glyph-name="lcaron" unicode="&#x13e;" horiz-adv-x="301" 
d="M73 698h86v-545q0 -41 19.5 -63.5t56.5 -22.5q28 0 49 9l10 -73q-33 -14 -75 -14q-67 0 -106.5 40.5t-39.5 111.5v557zM239 698h87l-57 -184h-60z" />
    <glyph glyph-name="uni013C" unicode="&#x13c;" horiz-adv-x="301" 
d="M73 698h86v-545q0 -41 19.5 -63.5t56.5 -22.5q28 0 49 9l10 -73q-33 -14 -75 -14q-67 0 -106.5 40.5t-39.5 111.5v557zM216.5 -190q-26.5 -34 -68.5 -51l-22 27q26 15 40 35.5t16 42.5q-21 0 -37 12t-16 34q0 20 14.5 33.5t38.5 13.5q28 0 44.5 -18t16.5 -50
q0 -45 -26.5 -79z" />
    <glyph glyph-name="ldot" unicode="&#x140;" horiz-adv-x="310" 
d="M73 698h86v-545q0 -41 19.5 -63.5t56.5 -22.5q28 0 49 9l10 -73q-33 -14 -75 -14q-67 0 -106.5 40.5t-39.5 111.5v557zM228.5 330q-17.5 17 -17.5 42t17.5 42.5t42.5 17.5t43 -17.5t18 -42.5t-18 -42t-43 -17t-42.5 17z" />
    <glyph glyph-name="lslash" unicode="&#x142;" horiz-adv-x="360" 
d="M313 76l10 -73q-33 -14 -75 -14q-67 0 -106.5 40.5t-39.5 111.5v184l-65 -22l-21 58l86 29v308h86v-278l129 44l21 -58l-150 -51v-202q0 -41 19.5 -63.5t56.5 -22.5q27 0 49 9z" />
    <glyph glyph-name="m" unicode="m" horiz-adv-x="790" 
d="M679.5 447q41.5 -46 41.5 -121v-326h-86v317q0 44 -26.5 70.5t-70.5 26.5q-41 0 -68 -27.5t-27 -69.5v-317h-86v317q0 44 -26.5 70.5t-69.5 26.5q-41 0 -68.5 -27t-27.5 -70v-317h-86v293l-19 187h76l8 -73h1q19 42 55 64t88 22q45 0 80 -23t52 -63h3q18 42 56.5 64
t89.5 22q69 0 110.5 -46z" />
    <glyph glyph-name="n" unicode="n" horiz-adv-x="556" 
d="M438 442q49 -51 49 -133v-309h-86v301q0 50 -33 81.5t-85 31.5q-50 0 -83.5 -32.5t-33.5 -80.5v-301h-86v281l-20 199h77l8 -81h2q21 46 62.5 70t98.5 24q81 0 130 -51z" />
    <glyph glyph-name="nacute" unicode="&#x144;" horiz-adv-x="555" 
d="M437 442q49 -51 49 -133v-309h-86v301q0 50 -33 81.5t-85 31.5q-50 0 -83.5 -32.5t-33.5 -80.5v-301h-86v281l-20 199h77l8 -81h2q21 46 62.5 70t98.5 24q81 0 130 -51zM297 547h-87l104 158h105z" />
    <glyph glyph-name="napostrophe" unicode="&#x149;" horiz-adv-x="564" 
d="M446 442q49 -51 49 -133v-309h-86v301q0 50 -33 81.5t-85 31.5q-50 0 -83.5 -32.5t-33.5 -80.5v-301h-86v281l-20 199h77l8 -81h2q21 46 62.5 70t98.5 24q81 0 130 -51zM16.5 561q-26.5 -34 -68.5 -51l-22 27q26 15 40 35.5t16 42.5q-21 0 -37 12t-16 34q0 20 14.5 33.5
t38.5 13.5q28 0 44.5 -18t16.5 -50q0 -45 -26.5 -79z" />
    <glyph glyph-name="ncaron" unicode="&#x148;" horiz-adv-x="555" 
d="M437 442q49 -51 49 -133v-309h-86v301q0 50 -33 81.5t-85 31.5q-50 0 -83.5 -32.5t-33.5 -80.5v-301h-86v281l-20 199h77l8 -81h2q21 46 62.5 70t98.5 24q81 0 130 -51zM282 597l80 108h82l-105 -158h-115l-105 158h82z" />
    <glyph glyph-name="uni0146" unicode="&#x146;" horiz-adv-x="555" 
d="M437 442q49 -51 49 -133v-309h-86v301q0 50 -33 81.5t-85 31.5q-50 0 -83.5 -32.5t-33.5 -80.5v-301h-86v281l-20 199h77l8 -81h2q21 46 62.5 70t98.5 24q81 0 130 -51zM314.5 -190q-26.5 -34 -68.5 -51l-22 27q26 15 40 35.5t16 42.5q-21 0 -37 12t-16 34
q0 20 14.5 33.5t38.5 13.5q28 0 44.5 -18t16.5 -50q0 -45 -26.5 -79z" />
    <glyph glyph-name="eng" unicode="&#x14b;" horiz-adv-x="555" 
d="M437 441.5q49 -51.5 49 -132.5v-347q0 -75 -42 -116.5t-113 -41.5q-43 0 -72 12l16 73q17 -7 46 -7q37 0 58 24.5t21 67.5v327q0 50 -33 81.5t-85 31.5q-50 0 -83.5 -32.5t-33.5 -80.5v-301h-86v281l-20 199h77l8 -81h2q21 46 63 70t99 24q80 0 129 -51.5z" />
    <glyph glyph-name="ntilde" unicode="&#xf1;" horiz-adv-x="555" 
d="M437 442q49 -51 49 -133v-309h-86v301q0 50 -33 81.5t-85 31.5q-50 0 -83.5 -32.5t-33.5 -80.5v-301h-86v281l-20 199h77l8 -81h2q21 46 62.5 70t98.5 24q81 0 130 -51zM396 699q3 -76 -33 -76q-11 0 -20.5 4.5t-16.5 10t-9 6.5l-54 37q-19 13 -33.5 19.5t-36.5 6.5
q-40 0 -64.5 -30.5t-24.5 -92.5q0 -18 1 -28h61q-1 7 -1 19q0 57 34 57q9 0 17.5 -4.5t16 -9.5l10.5 -7l54 -37q19 -13 35.5 -19.5t38.5 -6.5q39 0 62.5 31t23.5 94q0 17 -1 26h-60z" />
    <glyph glyph-name="o" unicode="o" horiz-adv-x="557" 
d="M70 371q29 57 83 89.5t126 32.5t125.5 -32.5t82.5 -89.5t29 -130q0 -72 -29.5 -130t-83 -91t-124.5 -33q-72 0 -126 32.5t-83 90.5t-29 131t29 130zM389.5 367q-38.5 49 -110.5 49t-111 -48.5t-39 -126.5t39 -126.5t111 -48.5t110.5 49t38.5 126t-38.5 126z" />
    <glyph glyph-name="oacute" unicode="&#xf3;" horiz-adv-x="557" 
d="M70 371q29 57 83 89.5t126 32.5t125.5 -32.5t82.5 -89.5t29 -130q0 -72 -29.5 -130t-83 -91t-124.5 -33q-72 0 -126 32.5t-83 90.5t-29 131t29 130zM389.5 367q-38.5 49 -110.5 49t-111 -48.5t-39 -126.5t39 -126.5t111 -48.5t110.5 49t38.5 126t-38.5 126zM294 547h-87
l104 158h105z" />
    <glyph glyph-name="obreve" unicode="&#x14f;" horiz-adv-x="557" 
d="M70 371q29 57 83 89.5t126 32.5t125.5 -32.5t82.5 -89.5t29 -130q0 -72 -29.5 -130t-83 -91t-124.5 -33q-72 0 -126 32.5t-83 90.5t-29 131t29 130zM389.5 367q-38.5 49 -110.5 49t-111 -48.5t-39 -126.5t39 -126.5t111 -48.5t110.5 49t38.5 126t-38.5 126zM188 710
q0 -45 24 -71.5t67 -26.5t67 27t24 71h69q0 -74 -42.5 -118.5t-117.5 -44.5q-76 0 -118 44.5t-42 118.5h69z" />
    <glyph glyph-name="ocircumflex" unicode="&#xf4;" horiz-adv-x="557" 
d="M70 371q29 57 83 89.5t126 32.5t125.5 -32.5t82.5 -89.5t29 -130q0 -72 -29.5 -130t-83 -91t-124.5 -33q-72 0 -126 32.5t-83 90.5t-29 131t29 130zM389.5 367q-38.5 49 -110.5 49t-111 -48.5t-39 -126.5t39 -126.5t111 -48.5t110.5 49t38.5 126t-38.5 126zM335 705
l106 -158h-82l-80 108l-81 -108h-83l106 158h114z" />
    <glyph glyph-name="odieresis" unicode="&#xf6;" horiz-adv-x="557" 
d="M70 371q29 57 83 89.5t126 32.5t125.5 -32.5t82.5 -89.5t29 -130q0 -72 -29.5 -130t-83 -91t-124.5 -33q-72 0 -126 32.5t-83 90.5t-29 131t29 130zM389.5 367q-38.5 49 -110.5 49t-111 -48.5t-39 -126.5t39 -126.5t111 -48.5t110.5 49t38.5 126t-38.5 126zM137.5 573.5
q-15.5 15.5 -15.5 38.5q0 22 15 37t38 15q22 0 37.5 -15t15.5 -37t-15.5 -38t-37.5 -16t-37.5 15.5zM344.5 574q-15.5 16 -15.5 38t15.5 37t37.5 15t38 -15t16 -37t-16 -38t-38 -16t-37.5 16z" />
    <glyph glyph-name="ograve" unicode="&#xf2;" horiz-adv-x="557" 
d="M70 371q29 57 83 89.5t126 32.5t125.5 -32.5t82.5 -89.5t29 -130q0 -72 -29.5 -130t-83 -91t-124.5 -33q-72 0 -126 32.5t-83 90.5t-29 131t29 130zM389.5 367q-38.5 49 -110.5 49t-111 -48.5t-39 -126.5t39 -126.5t111 -48.5t110.5 49t38.5 126t-38.5 126zM247 705
l103 -158h-85l-122 158h104z" />
    <glyph glyph-name="ohungarumlaut" unicode="&#x151;" horiz-adv-x="557" 
d="M70 371q29 57 83 89.5t126 32.5t125.5 -32.5t82.5 -89.5t29 -130q0 -72 -29.5 -130t-83 -91t-124.5 -33q-72 0 -126 32.5t-83 90.5t-29 131t29 130zM389.5 367q-38.5 49 -110.5 49t-111 -48.5t-39 -126.5t39 -126.5t111 -48.5t110.5 49t38.5 126t-38.5 126zM221 547h-69
l102 158h83zM376 547h-70l103 158h83z" />
    <glyph glyph-name="omacron" unicode="&#x14d;" horiz-adv-x="557" 
d="M70 371q29 57 83 89.5t126 32.5t125.5 -32.5t82.5 -89.5t29 -130q0 -72 -29.5 -130t-83 -91t-124.5 -33q-72 0 -126 32.5t-83 90.5t-29 131t29 130zM389.5 367q-38.5 49 -110.5 49t-111 -48.5t-39 -126.5t39 -126.5t111 -48.5t110.5 49t38.5 126t-38.5 126zM417 566h-278
v69h278v-69z" />
    <glyph glyph-name="oslash" unicode="&#xf8;" horiz-adv-x="571" 
d="M537 474l-62 -71q48 -67 48 -162q0 -72 -29.5 -130t-83.5 -91t-125 -33q-80 0 -138 41l-56 -65l-56 50l59 68q-46 66 -46 160q0 73 29 130t83 89.5t125 32.5q78 0 135 -38l60 69zM174.5 367.5q-38.5 -48.5 -38.5 -126.5q0 -54 20 -97l214 248q-37 24 -85 24
q-72 0 -110.5 -48.5zM396 114.5q39 48.5 39 126.5q0 58 -22 101l-215 -250q36 -26 87 -26q72 0 111 48.5z" />
    <glyph glyph-name="oslashacute" unicode="&#x1ff;" horiz-adv-x="571" 
d="M537 474l-62 -71q48 -67 48 -162q0 -72 -29.5 -130t-83.5 -91t-125 -33q-80 0 -138 41l-56 -65l-56 50l59 68q-46 66 -46 160q0 73 29 130t83 89.5t125 32.5q78 0 135 -38l60 69zM174.5 367.5q-38.5 -48.5 -38.5 -126.5q0 -54 20 -97l214 248q-37 24 -85 24
q-72 0 -110.5 -48.5zM396 114.5q39 48.5 39 126.5q0 58 -22 101l-215 -250q36 -26 87 -26q72 0 111 48.5zM300 547h-87l104 158h105z" />
    <glyph glyph-name="otilde" unicode="&#xf5;" horiz-adv-x="557" 
d="M70 371q29 57 83 89.5t126 32.5t125.5 -32.5t82.5 -89.5t29 -130q0 -72 -29.5 -130t-83 -91t-124.5 -33q-72 0 -126 32.5t-83 90.5t-29 131t29 130zM389.5 367q-38.5 49 -110.5 49t-111 -48.5t-39 -126.5t39 -126.5t111 -48.5t110.5 49t38.5 126t-38.5 126zM393 699
q3 -76 -33 -76q-11 0 -20.5 4.5t-16.5 10t-9 6.5l-54 37q-19 13 -33.5 19.5t-36.5 6.5q-40 0 -64.5 -30.5t-24.5 -92.5q0 -18 1 -28h61q-1 7 -1 19q0 57 34 57q9 0 17.5 -4.5t16 -9.5l10.5 -7l54 -37q19 -13 35.5 -19.5t38.5 -6.5q39 0 62.5 31t23.5 94q0 17 -1 26h-60z" />
    <glyph glyph-name="oe" unicode="&#x153;" horiz-adv-x="874" 
d="M832 214h-334q3 -64 40 -106.5t108 -42.5q42 0 76.5 16t59.5 41l42 -62q-31 -34 -75.5 -53.5t-97.5 -19.5q-71 0 -121 30t-75 86h-3q-23 -55 -69.5 -85.5t-114.5 -30.5q-70 0 -121.5 32.5t-78.5 90.5t-27 131t27 130.5t79 89.5t122 32q69 0 115 -29.5t68 -84.5h3
q24 54 70.5 84t108.5 30q61 0 106 -30.5t69 -85t24 -125.5q0 -26 -1 -38zM536.5 378.5q-33.5 -40.5 -38.5 -97.5h252q-7 64 -38 101t-84 37q-58 0 -91.5 -40.5zM379 114q35 48 35 127t-35 127t-107 48t-107.5 -48t-35.5 -127t35.5 -127t107.5 -48t107 48z" />
    <glyph glyph-name="p" unicode="p" horiz-adv-x="580" 
d="M437.5 461.5q49.5 -31.5 75.5 -87.5t26 -129t-28.5 -132t-81.5 -92.5t-123 -33.5q-85 0 -141 45v-218h-86v456l-19 210h76l9 -96h3q21 51 64.5 80t107.5 29q68 0 117.5 -31.5zM411.5 115.5q39.5 50.5 39.5 127.5q0 78 -39 125.5t-110 47.5q-58 0 -97.5 -39.5
t-39.5 -100.5v-149q21 -29 55.5 -45.5t79.5 -16.5q72 0 111.5 50.5z" />
    <glyph glyph-name="thorn" unicode="&#xfe;" horiz-adv-x="577" 
d="M436 461q48 -32 74 -88t26 -127q0 -73 -28.5 -132t-81.5 -92.5t-123 -33.5q-86 0 -142 46v-220h-86v884h86v-287h4q23 35 61.5 58.5t96.5 23.5q65 0 113 -32zM408 116.5q40 50.5 40 128.5q0 77 -38 124.5t-108 47.5q-38 0 -70.5 -18.5t-51.5 -50.5t-19 -71v-149
q20 -29 54.5 -45.5t80.5 -16.5q72 0 112 50.5z" />
    <glyph glyph-name="q" unicode="q" horiz-adv-x="586" 
d="M451 480h76l-19 -199v-467h-85v266h-3q-20 -46 -63.5 -69.5t-98.5 -23.5q-64 0 -113 32t-76.5 89.5t-27.5 130.5q0 75 28 132.5t79 89.5t116 32q60 0 105.5 -27.5t69.5 -81.5h2zM383 113.5q40 47.5 40 127.5t-40 128t-106 48q-67 0 -107.5 -48.5t-40.5 -127.5
q0 -80 40.5 -127.5t107.5 -47.5q66 0 106 47.5z" />
    <glyph glyph-name="r" unicode="r" horiz-adv-x="348" 
d="M333 488l-7 -83q-22 6 -44 6q-51 0 -84 -35.5t-33 -92.5v-283h-86v281l-20 199h79l8 -90h2q13 46 50.5 74.5t89.5 28.5q23 0 45 -5z" />
    <glyph glyph-name="racute" unicode="&#x155;" horiz-adv-x="348" 
d="M333 488l-7 -83q-22 6 -44 6q-51 0 -84 -35.5t-33 -92.5v-283h-86v281l-20 199h79l8 -90h2q13 46 50.5 74.5t89.5 28.5q23 0 45 -5zM206 547h-87l104 158h105z" />
    <glyph glyph-name="rcaron" unicode="&#x159;" horiz-adv-x="348" 
d="M333 488l-7 -83q-22 6 -44 6q-51 0 -84 -35.5t-33 -92.5v-283h-86v281l-20 199h79l8 -90h2q13 46 50.5 74.5t89.5 28.5q23 0 45 -5zM191 597l80 108h82l-105 -158h-115l-105 158h82z" />
    <glyph glyph-name="uni0157" unicode="&#x157;" horiz-adv-x="348" 
d="M333 488l-7 -83q-22 6 -44 6q-51 0 -84 -35.5t-33 -92.5v-283h-86v281l-20 199h79l8 -90h2q13 46 50.5 74.5t89.5 28.5q23 0 45 -5zM155.5 -190q-26.5 -34 -68.5 -51l-22 27q26 15 40 35.5t16 42.5q-21 0 -37 12t-16 34q0 20 14.5 33.5t38.5 13.5q28 0 44.5 -18t16.5 -50
q0 -45 -26.5 -79z" />
    <glyph glyph-name="s" unicode="s" horiz-adv-x="431" 
d="M69 113q61 -49 145 -49q43 0 66 17t23 47q0 24 -14.5 39.5t-44.5 27.5l-82 31q-57 23 -84.5 53.5t-27.5 79.5q0 58 43 96t118 38q55 0 100.5 -15.5t76.5 -42.5l-34 -64q-27 21 -64.5 34t-78.5 13q-37 0 -55.5 -15.5t-18.5 -39.5t13.5 -37t48.5 -26l78 -31
q60 -23 87 -54.5t27 -83.5q0 -66 -48 -105t-129 -39q-57 0 -104.5 16t-80.5 43z" />
    <glyph glyph-name="sacute" unicode="&#x15b;" horiz-adv-x="431" 
d="M69 113q61 -49 145 -49q43 0 66 17t23 47q0 24 -14.5 39.5t-44.5 27.5l-82 31q-57 23 -84.5 53.5t-27.5 79.5q0 58 43 96t118 38q55 0 100.5 -15.5t76.5 -42.5l-34 -64q-27 21 -64.5 34t-78.5 13q-37 0 -55.5 -15.5t-18.5 -39.5t13.5 -37t48.5 -26l78 -31
q60 -23 87 -54.5t27 -83.5q0 -66 -48 -105t-129 -39q-57 0 -104.5 16t-80.5 43zM229 547h-87l104 158h105z" />
    <glyph glyph-name="scaron" unicode="&#x161;" horiz-adv-x="431" 
d="M69 113q61 -49 145 -49q43 0 66 17t23 47q0 24 -14.5 39.5t-44.5 27.5l-82 31q-57 23 -84.5 53.5t-27.5 79.5q0 58 43 96t118 38q55 0 100.5 -15.5t76.5 -42.5l-34 -64q-27 21 -64.5 34t-78.5 13q-37 0 -55.5 -15.5t-18.5 -39.5t13.5 -37t48.5 -26l78 -31
q60 -23 87 -54.5t27 -83.5q0 -66 -48 -105t-129 -39q-57 0 -104.5 16t-80.5 43zM214 597l80 108h82l-105 -158h-115l-105 158h82z" />
    <glyph glyph-name="scedilla" unicode="&#x15f;" horiz-adv-x="431" 
d="M69 113q61 -49 145 -49q43 0 66 17t23 47q0 24 -14.5 39.5t-44.5 27.5l-82 31q-57 23 -84.5 53.5t-27.5 79.5q0 58 43 96t118 38q55 0 100.5 -15.5t76.5 -42.5l-34 -64q-27 21 -64.5 34t-78.5 13q-37 0 -55.5 -15.5t-18.5 -39.5t13.5 -37t48.5 -26l78 -31
q60 -23 87 -54.5t27 -83.5q0 -66 -48 -105t-129 -39q-57 0 -104.5 16t-80.5 43zM299 -69.5q29 -20.5 29 -57.5q0 -42 -34.5 -66.5t-87.5 -24.5q-62 0 -99 26l21 49q31 -22 74 -22q28 0 44.5 9t16.5 26t-16.5 25t-40.5 8q-40 0 -65 -11l-13 29l70 105h63l-50 -75h18
q41 0 70 -20.5z" />
    <glyph glyph-name="scircumflex" unicode="&#x15d;" horiz-adv-x="431" 
d="M69 113q61 -49 145 -49q43 0 66 17t23 47q0 24 -14.5 39.5t-44.5 27.5l-82 31q-57 23 -84.5 53.5t-27.5 79.5q0 58 43 96t118 38q55 0 100.5 -15.5t76.5 -42.5l-34 -64q-27 21 -64.5 34t-78.5 13q-37 0 -55.5 -15.5t-18.5 -39.5t13.5 -37t48.5 -26l78 -31
q60 -23 87 -54.5t27 -83.5q0 -66 -48 -105t-129 -39q-57 0 -104.5 16t-80.5 43zM270 705l106 -158h-82l-80 108l-81 -108h-83l106 158h114z" />
    <glyph glyph-name="uni0219" unicode="&#x219;" horiz-adv-x="431" 
d="M69 113q61 -49 145 -49q43 0 66 17t23 47q0 24 -14.5 39.5t-44.5 27.5l-82 31q-57 23 -84.5 53.5t-27.5 79.5q0 58 43 96t118 38q55 0 100.5 -15.5t76.5 -42.5l-34 -64q-27 21 -64.5 34t-78.5 13q-37 0 -55.5 -15.5t-18.5 -39.5t13.5 -37t48.5 -26l78 -31
q60 -23 87 -54.5t27 -83.5q0 -66 -48 -105t-129 -39q-57 0 -104.5 16t-80.5 43zM240.5 -190q-26.5 -34 -68.5 -51l-22 27q26 15 40 35.5t16 42.5q-21 0 -37 12t-16 34q0 20 14.5 33.5t38.5 13.5q28 0 44.5 -18t16.5 -50q0 -45 -26.5 -79z" />
    <glyph glyph-name="germandbls" unicode="&#xdf;" horiz-adv-x="595" 
d="M75 483q0 102 58.5 164t168.5 62q62 0 107.5 -24t70 -66t24.5 -96q0 -65 -29.5 -111.5t-72.5 -68.5v-3q63 -8 109 -52.5t46 -118.5q0 -84 -54.5 -133t-141.5 -49q-69 0 -116 24l22 76q20 -12 40.5 -17t46.5 -5q53 0 84.5 28.5t31.5 77.5q0 54 -46 86.5t-123 33.5v69
q55 17 86.5 59.5t31.5 98.5q0 49 -31 81.5t-88 32.5q-71 0 -105 -42.5t-34 -117.5v-472h-86v483z" />
    <glyph glyph-name="t" unicode="t" horiz-adv-x="366" 
d="M347 403h-161v-256q0 -38 19 -59t56 -21q32 0 64 16l22 -72q-44 -22 -97 -22q-70 0 -110 38t-40 108v268h-81v77h81v138h86v-138h161v-77z" />
    <glyph glyph-name="tbar" unicode="&#x167;" horiz-adv-x="371" 
d="M351 403h-161v-104h139v-63h-139v-89q0 -38 19 -59t56 -21q30 0 64 16l22 -72q-44 -22 -97 -22q-70 0 -110 38t-40 108v101h-67v63h67v104h-82v77h82v138h86v-138h161v-77z" />
    <glyph glyph-name="tcaron" unicode="&#x165;" horiz-adv-x="367" 
d="M347 403h-161v-256q0 -38 19 -59t56 -21q32 0 64 16l22 -72q-44 -22 -97 -22q-70 0 -110 38t-40 108v268h-81v77h81v138h86v-138h161v-77zM279 717h87l-57 -184h-60z" />
    <glyph glyph-name="uni0163" unicode="&#x163;" horiz-adv-x="366" 
d="M347 403h-161v-256q0 -38 19 -59t56 -21q32 0 64 16l22 -72q-44 -22 -97 -22q-70 0 -110 38t-40 108v268h-81v77h81v138h86v-138h161v-77zM246.5 -190q-26.5 -34 -68.5 -51l-22 27q26 15 40 35.5t16 42.5q-21 0 -37 12t-16 34q0 20 14.5 33.5t38.5 13.5q28 0 44.5 -18
t16.5 -50q0 -45 -26.5 -79z" />
    <glyph glyph-name="uni021B" unicode="&#x21b;" horiz-adv-x="366" 
d="M347 403h-161v-256q0 -38 19 -59t56 -21q32 0 64 16l22 -72q-44 -22 -97 -22q-70 0 -110 38t-40 108v268h-81v77h81v138h86v-138h161v-77zM246.5 -190q-26.5 -34 -68.5 -51l-22 27q26 15 40 35.5t16 42.5q-21 0 -37 12t-16 34q0 20 14.5 33.5t38.5 13.5q28 0 44.5 -18
t16.5 -50q0 -45 -26.5 -79z" />
    <glyph glyph-name="u" unicode="u" horiz-adv-x="548" 
d="M488 0h-77l-8 81h-2q-21 -46 -61.5 -70t-96.5 -24q-78 0 -126.5 51t-48.5 132v310h86v-302q0 -49 31.5 -80.5t82.5 -31.5q49 0 81.5 32t32.5 80v302h86v-280z" />
    <glyph glyph-name="uacute" unicode="&#xfa;" horiz-adv-x="548" 
d="M488 0h-77l-8 81h-2q-21 -46 -61.5 -70t-96.5 -24q-78 0 -126.5 51t-48.5 132v310h86v-302q0 -49 31.5 -80.5t82.5 -31.5q49 0 81.5 32t32.5 80v302h86v-280zM283 547h-87l104 158h105z" />
    <glyph glyph-name="ubreve" unicode="&#x16d;" horiz-adv-x="548" 
d="M488 0h-77l-8 81h-2q-21 -46 -61.5 -70t-96.5 -24q-78 0 -126.5 51t-48.5 132v310h86v-302q0 -49 31.5 -80.5t82.5 -31.5q49 0 81.5 32t32.5 80v302h86v-280zM178 710q0 -45 24 -71.5t67 -26.5t67 27t24 71h69q0 -74 -42.5 -118.5t-117.5 -44.5q-76 0 -118 44.5
t-42 118.5h69z" />
    <glyph glyph-name="ucircumflex" unicode="&#xfb;" horiz-adv-x="548" 
d="M488 0h-77l-8 81h-2q-21 -46 -61.5 -70t-96.5 -24q-78 0 -126.5 51t-48.5 132v310h86v-302q0 -49 31.5 -80.5t82.5 -31.5q49 0 81.5 32t32.5 80v302h86v-280zM325 705l106 -158h-82l-80 108l-81 -108h-83l106 158h114z" />
    <glyph glyph-name="udieresis" unicode="&#xfc;" horiz-adv-x="548" 
d="M488 0h-77l-8 81h-2q-21 -46 -61.5 -70t-96.5 -24q-78 0 -126.5 51t-48.5 132v310h86v-302q0 -49 31.5 -80.5t82.5 -31.5q49 0 81.5 32t32.5 80v302h86v-280zM127.5 573.5q-15.5 15.5 -15.5 38.5q0 22 15 37t38 15q22 0 37.5 -15t15.5 -37t-15.5 -38t-37.5 -16
t-37.5 15.5zM334.5 574q-15.5 16 -15.5 38t15.5 37t37.5 15t38 -15t16 -37t-16 -38t-38 -16t-37.5 16z" />
    <glyph glyph-name="ugrave" unicode="&#xf9;" horiz-adv-x="548" 
d="M488 0h-77l-8 81h-2q-21 -46 -61.5 -70t-96.5 -24q-78 0 -126.5 51t-48.5 132v310h86v-302q0 -49 31.5 -80.5t82.5 -31.5q49 0 81.5 32t32.5 80v302h86v-280zM236 705l103 -158h-85l-122 158h104z" />
    <glyph glyph-name="uhungarumlaut" unicode="&#x171;" horiz-adv-x="548" 
d="M488 0h-77l-8 81h-2q-21 -46 -61.5 -70t-96.5 -24q-78 0 -126.5 51t-48.5 132v310h86v-302q0 -49 31.5 -80.5t82.5 -31.5q49 0 81.5 32t32.5 80v302h86v-280zM211 547h-69l102 158h83zM366 547h-70l103 158h83z" />
    <glyph glyph-name="umacron" unicode="&#x16b;" horiz-adv-x="548" 
d="M488 0h-77l-8 81h-2q-21 -46 -61.5 -70t-96.5 -24q-78 0 -126.5 51t-48.5 132v310h86v-302q0 -49 31.5 -80.5t82.5 -31.5q49 0 81.5 32t32.5 80v302h86v-280zM407 566h-278v69h278v-69z" />
    <glyph glyph-name="uogonek" unicode="&#x173;" horiz-adv-x="548" 
d="M488 0h-77l-8 81h-2q-21 -46 -61.5 -70t-96.5 -24q-78 0 -126.5 51t-48.5 132v310h86v-302q0 -49 31.5 -80.5t82.5 -31.5q49 0 81.5 32t32.5 80v302h86v-280zM482 0q-43 0 -74 -23t-31 -59q0 -23 13.5 -36t34.5 -13q19 0 32 8t25 21l35 -47q-40 -49 -104 -49
q-46 0 -74.5 27.5t-28.5 74.5q0 44 32.5 77t86.5 43z" />
    <glyph glyph-name="uring" unicode="&#x16f;" horiz-adv-x="548" 
d="M488 0h-77l-8 81h-2q-21 -46 -61.5 -70t-96.5 -24q-78 0 -126.5 51t-48.5 132v310h86v-302q0 -49 31.5 -80.5t82.5 -31.5q49 0 81.5 32t32.5 80v302h86v-280zM167.5 573.5q-39.5 31.5 -39.5 78.5q0 49 39 81t103 32q62 0 101 -32t39 -81q0 -47 -38.5 -78.5t-101.5 -31.5
t-102.5 31.5zM326 613q20 15 20 40t-20 41t-56 16q-37 0 -57.5 -16t-20.5 -41t20.5 -40t57.5 -15q36 0 56 15z" />
    <glyph glyph-name="utilde" unicode="&#x169;" horiz-adv-x="548" 
d="M488 0h-77l-8 81h-2q-21 -46 -61.5 -70t-96.5 -24q-78 0 -126.5 51t-48.5 132v310h86v-302q0 -49 31.5 -80.5t82.5 -31.5q49 0 81.5 32t32.5 80v302h86v-280zM382 699q3 -76 -33 -76q-11 0 -20.5 4.5t-16.5 10t-9 6.5l-54 37q-19 13 -33.5 19.5t-36.5 6.5
q-40 0 -64.5 -30.5t-24.5 -92.5q0 -18 1 -28h61q-1 7 -1 19q0 57 34 57q9 0 17.5 -4.5t16 -9.5l10.5 -7l54 -37q19 -13 35.5 -19.5t38.5 -6.5q39 0 62.5 31t23.5 94q0 17 -1 26h-60z" />
    <glyph glyph-name="v" unicode="v" horiz-adv-x="507" 
d="M255 89l149 391h90l-190 -480h-100l-191 480h95l143 -391h4z" />
    <glyph glyph-name="w" unicode="w" horiz-adv-x="774" 
d="M565 96l99 384h89l-138 -480h-97l-129 391h-3l-128 -391h-99l-139 480h92l98 -384h3l123 384h106l120 -384h3z" />
    <glyph glyph-name="wacute" unicode="&#x1e83;" horiz-adv-x="774" 
d="M565 96l99 384h89l-138 -480h-97l-129 391h-3l-128 -391h-99l-139 480h92l98 -384h3l123 384h106l120 -384h3zM404 547h-87l104 158h105z" />
    <glyph glyph-name="wcircumflex" unicode="&#x175;" horiz-adv-x="774" 
d="M565 96l99 384h89l-138 -480h-97l-129 391h-3l-128 -391h-99l-139 480h92l98 -384h3l123 384h106l120 -384h3zM446 705l106 -158h-82l-80 108l-81 -108h-83l106 158h114z" />
    <glyph glyph-name="wdieresis" unicode="&#x1e85;" horiz-adv-x="774" 
d="M565 96l99 384h89l-138 -480h-97l-129 391h-3l-128 -391h-99l-139 480h92l98 -384h3l123 384h106l120 -384h3zM248.5 573.5q-15.5 15.5 -15.5 38.5q0 22 15 37t38 15q22 0 37.5 -15t15.5 -37t-15.5 -38t-37.5 -16t-37.5 15.5zM455.5 574q-15.5 16 -15.5 38t15.5 37
t37.5 15t38 -15t16 -37t-16 -38t-38 -16t-37.5 16z" />
    <glyph glyph-name="wgrave" unicode="&#x1e81;" horiz-adv-x="774" 
d="M565 96l99 384h89l-138 -480h-97l-129 391h-3l-128 -391h-99l-139 480h92l98 -384h3l123 384h106l120 -384h3zM357 705l103 -158h-85l-122 158h104z" />
    <glyph glyph-name="x" unicode="x" horiz-adv-x="479" 
d="M294 249l176 -249h-100l-130 192h-3l-130 -192h-96l175 248l-165 232h99l121 -177h2l118 177h96z" />
    <glyph glyph-name="uni1E8B" unicode="&#x1e8b;" horiz-adv-x="479" 
d="M294 249l176 -249h-100l-130 192h-3l-130 -192h-96l175 248l-165 232h99l121 -177h2l118 177h96zM197.5 579q-17.5 17 -17.5 42t17.5 42.5t42.5 17.5t43 -17.5t18 -42.5t-18 -42t-43 -17t-42.5 17z" />
    <glyph glyph-name="y" unicode="y" horiz-adv-x="504" 
d="M402 480h89l-215 -531q-30 -74 -70.5 -110t-111.5 -36q-60 0 -98 28l23 70q32 -21 71 -21q40 0 64 21t41 63l14 35l-198 481h94l145 -384h4z" />
    <glyph glyph-name="yacute" unicode="&#xfd;" horiz-adv-x="504" 
d="M402 480h89l-215 -531q-30 -74 -70.5 -110t-111.5 -36q-60 0 -98 28l23 70q32 -21 71 -21q40 0 64 21t41 63l14 35l-198 481h94l145 -384h4zM268 547h-87l104 158h105z" />
    <glyph glyph-name="ycircumflex" unicode="&#x177;" horiz-adv-x="504" 
d="M402 480h89l-215 -531q-30 -74 -70.5 -110t-111.5 -36q-60 0 -98 28l23 70q32 -21 71 -21q40 0 64 21t41 63l14 35l-198 481h94l145 -384h4zM310 705l106 -158h-82l-80 108l-81 -108h-83l106 158h114z" />
    <glyph glyph-name="ydieresis" unicode="&#xff;" horiz-adv-x="504" 
d="M402 480h89l-215 -531q-30 -74 -70.5 -110t-111.5 -36q-60 0 -98 28l23 70q32 -21 71 -21q40 0 64 21t41 63l14 35l-198 481h94l145 -384h4zM112.5 573.5q-15.5 15.5 -15.5 38.5q0 22 15 37t38 15q22 0 37.5 -15t15.5 -37t-15.5 -38t-37.5 -16t-37.5 15.5zM319.5 574
q-15.5 16 -15.5 38t15.5 37t37.5 15t38 -15t16 -37t-16 -38t-38 -16t-37.5 16z" />
    <glyph glyph-name="ygrave" unicode="&#x1ef3;" horiz-adv-x="504" 
d="M402 480h89l-215 -531q-30 -74 -70.5 -110t-111.5 -36q-60 0 -98 28l23 70q32 -21 71 -21q40 0 64 21t41 63l14 35l-198 481h94l145 -384h4zM221 705l103 -158h-85l-122 158h104z" />
    <glyph glyph-name="z" unicode="z" horiz-adv-x="441" 
d="M35 0v71l248 329v3h-236v77h348v-69l-244 -329v-3h252v-79h-368z" />
    <glyph glyph-name="zacute" unicode="&#x17a;" horiz-adv-x="441" 
d="M35 0v71l248 329v3h-236v77h348v-69l-244 -329v-3h252v-79h-368zM236 547h-87l104 158h105z" />
    <glyph glyph-name="zcaron" unicode="&#x17e;" horiz-adv-x="441" 
d="M35 0v71l248 329v3h-236v77h348v-69l-244 -329v-3h252v-79h-368zM222 597l80 108h82l-105 -158h-115l-105 158h82z" />
    <glyph glyph-name="zdotaccent" unicode="&#x17c;" horiz-adv-x="441" 
d="M35 0v71l248 329v3h-236v77h348v-69l-244 -329v-3h252v-79h-368zM178.5 579q-17.5 17 -17.5 42t17.5 42.5t42.5 17.5t43 -17.5t18 -42.5t-18 -42t-43 -17t-42.5 17z" />
    <glyph glyph-name="uni01B6" unicode="&#x1b6;" horiz-adv-x="450" 
d="M155 82v-3h252v-79h-367v71l109 145h-90v60h136l93 124v3h-236v77h348v-69l-101 -135h95v-60h-139z" />
    <glyph glyph-name="uniFB01" unicode="&#xfb01;" horiz-adv-x="586" 
d="M208 609.5q-19 -22.5 -19 -65.5v-64h147v-77h-147v-403h-86v403h-77v77h77v73q0 73 42.5 114.5t110.5 41.5q75 0 116 -41l-35 -65q-32 29 -73 29q-37 0 -56 -22.5zM425.5 591.5q-17.5 17.5 -17.5 42.5t17 42t43 17t43 -17t17 -42t-17 -42.5t-43 -17.5q-25 0 -42.5 17.5z
M511 0h-86v480h86v-480z" />
    <glyph glyph-name="uniFB02" unicode="&#xfb02;" horiz-adv-x="649" 
d="M208 609.5q-19 -22.5 -19 -65.5v-64h147v-77h-147v-403h-86v403h-77v77h77v73q0 73 42.5 114.5t110.5 41.5q75 0 116 -41l-35 -65q-32 29 -73 29q-37 0 -56 -22.5zM421 698h86v-545q0 -41 19.5 -63.5t56.5 -22.5q28 0 49 9l10 -73q-33 -14 -75 -14q-67 0 -106.5 40.5
t-39.5 111.5v557z" />
    <glyph glyph-name="ordfeminine" unicode="&#xaa;" horiz-adv-x="414" 
d="M361 312h-63l-7 69h-1q-16 -37 -49 -57.5t-77 -20.5q-53 0 -85 28.5t-32 76.5q0 54 38 84t104 30q45 0 87 -10v24q0 37 -21.5 60t-56.5 23q-31 0 -52.5 -13.5t-35.5 -41.5l-56 32q19 41 57 63t90 22q68 0 107 -38t39 -105v-73zM249 390q27 26 27 68q-29 10 -82 10
q-36 0 -57 -14.5t-21 -38.5q0 -25 16.5 -38t46.5 -13q43 0 70 26z" />
    <glyph glyph-name="ordmasculine" unicode="&#xba;" horiz-adv-x="438" 
d="M63 590q22 43 62.5 67t93.5 24q81 0 129.5 -53t48.5 -135q0 -84 -49 -137.5t-129 -53.5q-81 0 -129.5 53.5t-48.5 137.5q0 54 22 97zM297 583.5q-27 34.5 -78 34.5t-78 -34.5t-27 -90.5t27 -91t78 -35t78 35t27 91t-27 90.5z" />
    <glyph glyph-name="uni0394" unicode="&#x394;" horiz-adv-x="643" 
d="M270 670h102l248 -598v-72h-596v72zM528 84l-208 501l-205 -501h413z" />
    <glyph glyph-name="uni03A9" unicode="&#x3a9;" horiz-adv-x="734" 
d="M507 77h158v-77h-239v125q76 18 123 83t47 160q0 68 -29.5 121t-81.5 82t-118 29t-118 -29.5t-81.5 -82t-29.5 -120.5q0 -94 47 -160t123 -82v-126h-239v77h157v8q-82 33 -129 109.5t-47 179.5q0 92 41.5 162t113.5 108.5t162 38.5t162.5 -38.5t113.5 -108.5t41 -162
q0 -102 -47.5 -178t-129.5 -110v-9z" />
    <glyph glyph-name="uni03BC" unicode="&#x3bc;" horiz-adv-x="555" 
d="M495 0h-78l-8 81h-1q-19 -45 -54.5 -68.5t-82.5 -23.5q-74 0 -107 49h-3v-224h-86v666h86v-300q0 -50 31.5 -81.5t82.5 -31.5q49 0 81.5 32.5t32.5 80.5v300h86v-280z" />
    <glyph glyph-name="pi" unicode="&#x3c0;" horiz-adv-x="554" 
d="M71 0q21 85 34 195t13 208h-92v77h508v-77h-91v-403h-85v403h-154q0 -98 -13 -208t-34 -195h-86z" />
    <glyph glyph-name="mu" unicode="&#xb5;" horiz-adv-x="559" 
d="M497 0h-78l-8 81h-1q-19 -45 -54.5 -68.5t-82.5 -23.5q-74 0 -107 49h-3v-224h-86v666h86v-300q0 -50 31.5 -81.5t82.5 -31.5q49 0 81.5 32.5t32.5 80.5v300h86v-280z" />
    <glyph glyph-name="zero" unicode="0" 
d="M99.5 588.5q57.5 94.5 180.5 94.5q125 0 181.5 -94t56.5 -254t-57 -254t-181 -94q-125 0 -181.5 94t-56.5 255q0 158 57.5 252.5zM395.5 526.5q-31.5 72.5 -115.5 72.5t-115 -72.5t-31 -192.5q0 -119 31 -190.5t115 -71.5t115.5 72.5t31.5 191.5q0 118 -31.5 190.5z" />
    <glyph glyph-name="one" unicode="1" 
d="M361 670v-586h164v-84h-451v84h196v485l-178 -66l-29 75l229 92h69z" />
    <glyph glyph-name="two" unicode="2" 
d="M304 312q51 49 74.5 86t23.5 84q0 55 -33 86t-90 31q-61 0 -99.5 -39t-52.5 -94l-80 31q20 80 82 133t154 53q60 0 108 -23.5t75.5 -67.5t27.5 -104q0 -62 -27 -110.5t-83 -101.5l-194 -189v-3h313v-84h-448v69z" />
    <glyph glyph-name="three" unicode="3" 
d="M408.5 358q46.5 -23 73 -66t26.5 -100q0 -63 -31.5 -109.5t-88.5 -71t-131 -24.5q-70 0 -130.5 27t-94.5 71l54 70q71 -83 173 -83q70 0 113.5 32t43.5 85q0 55 -39 85.5t-107 30.5q-33 0 -65.5 -7t-56.5 -18l-31 76l241 232h-282v82h405v-76l-233 -218q25 5 56 5
q58 0 104.5 -23z" />
    <glyph glyph-name="four" unicode="4" 
d="M444 260h93v-82h-93v-178h-90v178h-316v63l86 429h88l-80 -410h222v282h90v-282z" />
    <glyph glyph-name="five" unicode="5" 
d="M405.5 376.5q49.5 -25.5 77.5 -72t28 -108.5t-31.5 -109.5t-87 -73.5t-127.5 -26q-76 0 -135.5 27t-91.5 67l55 70q32 -37 72.5 -58t96.5 -21q71 0 114.5 33.5t43.5 90.5q0 60 -42.5 93.5t-112.5 33.5q-37 0 -73 -7.5t-60 -20.5l-42 46v329h391v-82h-304v-206
q48 20 117 20q62 0 111.5 -25.5z" />
    <glyph glyph-name="six" unicode="6" 
d="M423 383.5q50 -25.5 77.5 -72.5t27.5 -108q0 -64 -30 -113t-83.5 -76t-121.5 -27q-72 0 -129 36t-90 106.5t-33 171.5q0 117 39 203.5t113 132.5t176 46q39 0 70 -5.5t65 -16.5l-18 -81q-54 19 -117 19q-105 0 -167.5 -65t-68.5 -183q76 58 175 58q65 0 115 -25.5z
M397.5 107.5q38.5 35.5 38.5 95.5q0 59 -38.5 94t-99.5 35q-50 0 -90 -16t-76 -48q4 -96 46.5 -146t118.5 -50q62 0 100.5 35.5z" />
    <glyph glyph-name="seven" unicode="7" 
d="M37 670h478v-75l-312 -595h-103l314 588h-377v82z" />
    <glyph glyph-name="eight" unicode="8" 
d="M394 345q63 -21 96 -64t33 -102q0 -55 -31 -99t-86 -68.5t-126 -24.5q-72 0 -127 24.5t-85.5 68t-30.5 99.5q0 58 32 101t95 64v3q-52 22 -79.5 61.5t-27.5 91.5q0 53 28 94.5t79 65t116 23.5q66 0 117 -23.5t78.5 -65t27.5 -94.5t-28.5 -93t-80.5 -60v-2zM181.5 572
q-36.5 -29 -36.5 -77q0 -51 36.5 -81.5t98.5 -30.5q63 0 99 30.5t36 81.5q0 49 -36 77.5t-99 28.5q-62 0 -98.5 -29zM392 102q41 32 41 86q0 53 -41 85t-112 32t-112 -32t-41 -85q0 -54 41 -86t112 -32t112 32z" />
    <glyph glyph-name="nine" unicode="9" 
d="M397 647q57 -36 89.5 -107t32.5 -172q0 -179 -84.5 -280t-242.5 -101q-80 0 -133 20l17 86q28 -11 54.5 -16t61.5 -5q106 0 168.5 64t67.5 178q-33 -29 -78.5 -45t-98.5 -16q-65 0 -114.5 26.5t-77 74t-27.5 109.5q0 65 30 115t84 77.5t122 27.5q72 0 129 -36zM163.5 367
q38.5 -36 99.5 -36q50 0 89.5 15.5t75.5 47.5q-3 100 -45.5 152.5t-118.5 52.5q-62 0 -100.5 -36.5t-38.5 -99.5q0 -60 38.5 -96z" />
    <glyph glyph-name="uni2080" unicode="&#x2080;" horiz-adv-x="356" 
d="M70 214.5q39 49.5 109 49.5q69 0 108 -49.5t39 -142.5t-39 -142t-108 -49q-71 0 -109.5 49t-38.5 142t39 142.5zM179 204q-77 0 -77 -132q0 -130 77 -130q75 0 75 131t-75 131z" />
    <glyph glyph-name="uni2081" unicode="&#x2081;" horiz-adv-x="308" 
d="M210 256v-306h85v-62h-263v62h107v233l-95 -34l-22 57l133 50h55z" />
    <glyph glyph-name="uni2082" unicode="&#x2082;" horiz-adv-x="319" 
d="M161 61q29 25 41 44.5t12 42.5q0 27 -15.5 41.5t-42.5 14.5q-55 0 -77 -68l-57 23q13 48 50 76.5t90 28.5q54 0 89 -31t35 -77q0 -35 -18 -66t-54 -63l-87 -76v-1h160v-62h-259v54z" />
    <glyph glyph-name="uni2083" unicode="&#x2083;" horiz-adv-x="318" 
d="M254.5 70.5q35.5 -27.5 35.5 -75.5q0 -52 -39.5 -83t-102.5 -31q-89 0 -133 51l39 48q35 -38 93 -38q32 0 52.5 14.5t20.5 38.5q0 25 -21.5 38.5t-54.5 13.5q-27 0 -59 -9l-23 45l124 113h-146v60h236v-57l-117 -100v-1h4q56 0 91.5 -27.5z" />
    <glyph glyph-name="uni2084" unicode="&#x2084;" horiz-adv-x="343" 
d="M272 38h47v-60h-47v-90h-70v90h-173v50l49 228h67l-45 -218h102v144h70v-144z" />
    <glyph glyph-name="uni2085" unicode="&#x2085;" horiz-adv-x="319" 
d="M257.5 79.5q35.5 -30.5 35.5 -80.5q0 -53 -40 -85.5t-102 -32.5q-40 0 -74.5 13t-58.5 36l37 49q39 -37 92 -37q33 0 54 15.5t21 41.5t-20.5 41t-51.5 15q-35 0 -71 -15l-30 33v183h228v-60h-162v-94q22 8 53 8q54 0 89.5 -30.5z" />
    <glyph glyph-name="uni2086" unicode="&#x2086;" horiz-adv-x="340" 
d="M279.5 84.5q35.5 -31.5 35.5 -83.5q0 -53 -39 -86.5t-99 -33.5q-63 0 -105 43t-42 129q0 97 51.5 154t141.5 57q43 0 76 -11l-10 -57q-36 8 -66 8q-55 0 -87 -29.5t-36 -86.5q37 28 87 28q57 0 92.5 -31.5zM225.5 -42q18.5 16 18.5 43q0 26 -19 42.5t-45 16.5
q-45 0 -81 -29q3 -43 24 -66t55 -23q29 0 47.5 16z" />
    <glyph glyph-name="uni2087" unicode="&#x2087;" horiz-adv-x="308" 
d="M291 199l-163 -311h-78l162 308h-199v60h278v-57z" />
    <glyph glyph-name="uni2088" unicode="&#x2088;" horiz-adv-x="343" 
d="M242 77q35 -11 53 -34.5t18 -55.5q0 -47 -39.5 -76.5t-103.5 -29.5q-62 0 -101 29.5t-39 76.5q0 32 18 55.5t52 35.5v1q-29 11 -44 32.5t-15 49.5q0 45 36.5 74t92.5 29q59 0 95.5 -29t36.5 -74q0 -28 -15.5 -49t-44.5 -32v-3zM124 192q-18 -14 -18 -36t17.5 -36
t46.5 -14q31 0 49 13.5t18 36.5t-18 36.5t-49 13.5q-28 0 -46 -14zM226 -44.5q21 14.5 21 40.5q0 24 -21 38.5t-56 14.5q-33 0 -53.5 -14.5t-20.5 -38.5q0 -26 20.5 -40.5t53.5 -14.5q35 0 56 14.5z" />
    <glyph glyph-name="uni2089" unicode="&#x2089;" horiz-adv-x="339" 
d="M267.5 221q42.5 -43 42.5 -129q0 -99 -48.5 -155t-142.5 -56q-48 0 -76 10l12 61q15 -5 28.5 -7.5t35.5 -2.5q53 0 85 29t36 82q-39 -28 -89 -28q-57 0 -92 32t-35 84q0 54 39.5 88.5t99.5 34.5q62 0 104.5 -43zM114 98q18 -17 46 -17q46 0 80 29q-3 46 -24 70t-54 24
q-29 0 -47.5 -17t-18.5 -45q0 -27 18 -44z" />
    <glyph glyph-name="zero.pnum" horiz-adv-x="626" 
d="M116.5 587.5q64.5 95.5 196.5 95.5q133 0 197.5 -95.5t64.5 -252.5t-65 -252.5t-197 -95.5q-133 0 -197 95t-64 254q0 156 64.5 251.5zM443.5 525q-38.5 74 -130.5 74q-91 0 -129.5 -74.5t-38.5 -190.5q0 -115 38.5 -188.5t129.5 -73.5q92 0 130.5 74t38.5 190
q0 115 -38.5 189z" />
    <glyph glyph-name="one.pnum" horiz-adv-x="406" 
d="M5 574l246 96h70v-670h-91v569l-199 -72z" />
    <glyph glyph-name="two.pnum" horiz-adv-x="536" 
d="M292 312q51 50 74.5 86.5t23.5 83.5q0 54 -32.5 85.5t-88.5 31.5q-61 0 -99 -39t-52 -94l-80 31q19 79 81 132.5t154 53.5q59 0 106.5 -23.5t75 -67.5t27.5 -104q0 -61 -27 -110t-83 -102l-193 -189v-3h307v-84h-442v69z" />
    <glyph glyph-name="three.pnum" horiz-adv-x="533" 
d="M392.5 358q44.5 -23 70.5 -66t26 -100q0 -95 -67.5 -150t-178.5 -55q-69 0 -128.5 27t-92.5 70l55 71q69 -83 165 -83q69 0 111.5 32t42.5 85q0 56 -37 86t-102 30q-61 0 -119 -25l-31 76l234 232h-275v82h398v-76l-226 -218q25 5 54 5q56 0 100.5 -23z" />
    <glyph glyph-name="four.pnum" horiz-adv-x="577" 
d="M454 260h91v-82h-91v-178h-90v178h-318v63l86 429h88l-80 -410h224v282h90v-282z" />
    <glyph glyph-name="five.pnum" horiz-adv-x="532" 
d="M388.5 376q47.5 -25 74 -71.5t26.5 -108.5t-30.5 -109.5t-85.5 -73.5t-125 -26q-72 0 -129.5 27t-88.5 67l55 68q32 -36 71 -56.5t92 -20.5q67 0 108.5 33.5t41.5 90.5q0 59 -40 93t-106 34q-34 0 -69 -8t-59 -20l-42 46v329h379v-82h-292v-206q48 19 113 19
q59 0 106.5 -25z" />
    <glyph glyph-name="six.pnum" horiz-adv-x="568" 
d="M426 383.5q48 -25.5 74.5 -72.5t26.5 -108q0 -64 -29 -113t-80.5 -76t-117.5 -27q-72 0 -128.5 36t-89 106.5t-32.5 171.5q0 117 38 203.5t110 132.5t172 46q38 0 68.5 -5.5t63.5 -16.5l-18 -81q-52 19 -114 19q-102 0 -162 -65t-66 -183q76 58 173 58q63 0 111 -25.5z
M398.5 107.5q36.5 35.5 36.5 95.5q0 59 -36 94t-94 35q-49 0 -88.5 -16t-75.5 -48q4 -96 46 -146t117 -50q58 0 94.5 35.5z" />
    <glyph glyph-name="seven.pnum" horiz-adv-x="512" 
d="M16 670h472v-75l-306 -595h-103l308 588h-371v82z" />
    <glyph glyph-name="eight.pnum" horiz-adv-x="578" 
d="M404 344q61 -21 93 -64t32 -101q0 -55 -30.5 -99t-85 -68.5t-124.5 -24.5q-71 0 -125.5 24.5t-84.5 68t-30 99.5q0 59 31.5 102t93.5 63v4q-51 21 -78 60.5t-27 91.5q0 53 27.5 94.5t77.5 65t115 23.5t115 -23.5t77.5 -65t27.5 -94.5q0 -52 -27 -91.5t-78 -60.5v-4z
M192 572q-36 -29 -36 -77q0 -51 35.5 -81.5t97.5 -30.5t97.5 30.5t35.5 81.5q0 49 -35.5 77.5t-97.5 28.5q-61 0 -97 -29zM399 102q40 32 40 86q0 53 -40 85t-110 32q-69 0 -110 -32t-41 -85q0 -54 40.5 -86t110.5 -32t110 32z" />
    <glyph glyph-name="nine.pnum" horiz-adv-x="567" 
d="M396.5 647.5q55.5 -35.5 87.5 -106t32 -173.5q0 -178 -82.5 -279.5t-235.5 -101.5q-80 0 -131 22l17 84q24 -11 49.5 -16t62.5 -5q101 0 162 64t66 178q-32 -29 -75.5 -45t-94.5 -16q-62 0 -110 26.5t-74.5 74t-26.5 109.5q0 65 28.5 115t80.5 77.5t118 27.5
q71 0 126.5 -35.5zM171.5 367q36.5 -36 94.5 -36q48 0 85 15t73 47q-2 100 -43.5 153t-115.5 53q-58 0 -94 -36.5t-36 -99.5q0 -60 36.5 -96z" />
    <glyph glyph-name="zero.ss01" 
d="M99 588.5q57 94.5 181 94.5q125 0 181.5 -94t56.5 -254t-57 -254t-181 -94q-125 0 -181.5 94t-56.5 255q0 158 57 252.5zM396 527.5q-32 72.5 -116 72.5t-115.5 -73t-31.5 -193q0 -118 31.5 -190t115.5 -72t116 72.5t32 191.5t-32 191.5zM238.5 295.5
q-17.5 17.5 -17.5 42.5q0 26 17 43.5t43 17.5q25 0 42 -17.5t17 -43.5q0 -25 -17 -42.5t-42 -17.5t-42.5 17.5z" />
    <glyph glyph-name="uni2070" unicode="&#x2070;" horiz-adv-x="356" 
d="M70 739.5q39 49.5 109 49.5q69 0 108 -49.5t39 -142.5t-39 -142t-108 -49q-71 0 -109.5 49t-38.5 142t39 142.5zM179 729q-77 0 -77 -132q0 -130 77 -130q75 0 75 131t-75 131z" />
    <glyph glyph-name="uni00B9" unicode="&#xb9;" horiz-adv-x="306" 
d="M210 781v-306h85v-62h-263v62h107v233l-95 -34l-22 57l133 50h55z" />
    <glyph glyph-name="uni00B2" unicode="&#xb2;" horiz-adv-x="319" 
d="M161 586q29 25 41 44.5t12 42.5q0 27 -15.5 41.5t-42.5 14.5q-55 0 -77 -68l-57 23q13 48 50 76.5t90 28.5q54 0 89 -31t35 -77q0 -35 -18 -66t-54 -63l-87 -76v-1h160v-62h-259v54z" />
    <glyph glyph-name="uni00B3" unicode="&#xb3;" horiz-adv-x="318" 
d="M254.5 595.5q35.5 -27.5 35.5 -75.5q0 -52 -39.5 -83t-102.5 -31q-89 0 -133 51l39 48q35 -38 93 -38q32 0 52.5 14.5t20.5 38.5q0 25 -21.5 38.5t-54.5 13.5q-27 0 -59 -9l-23 45l124 113h-146v60h236v-57l-117 -100v-1h4q56 0 91.5 -27.5z" />
    <glyph glyph-name="uni2074" unicode="&#x2074;" horiz-adv-x="340" 
d="M271 563h47v-60h-47v-90h-70v90h-173v50l49 228h67l-45 -218h102v144h70v-144z" />
    <glyph glyph-name="uni2075" unicode="&#x2075;" horiz-adv-x="319" 
d="M257.5 604.5q35.5 -30.5 35.5 -80.5q0 -53 -40 -85.5t-102 -32.5q-40 0 -74.5 13t-58.5 36l37 49q39 -37 92 -37q33 0 54 15.5t21 41.5t-20.5 41t-51.5 15q-35 0 -71 -15l-30 33v183h228v-60h-162v-94q22 8 53 8q54 0 89.5 -30.5z" />
    <glyph glyph-name="uni2076" unicode="&#x2076;" horiz-adv-x="340" 
d="M279.5 609.5q35.5 -31.5 35.5 -83.5q0 -53 -39 -86.5t-99 -33.5q-63 0 -105 43t-42 129q0 97 51.5 154t141.5 57q43 0 76 -11l-10 -57q-36 8 -66 8q-55 0 -87 -29.5t-36 -86.5q37 28 87 28q57 0 92.5 -31.5zM225.5 483q18.5 16 18.5 43q0 26 -19 42.5t-45 16.5
q-45 0 -81 -29q3 -43 24 -66t55 -23q29 0 47.5 16z" />
    <glyph glyph-name="uni2077" unicode="&#x2077;" horiz-adv-x="308" 
d="M291 724l-163 -311h-78l162 308h-199v60h278v-57z" />
    <glyph glyph-name="uni2078" unicode="&#x2078;" horiz-adv-x="343" 
d="M242 602q35 -11 53 -34.5t18 -55.5q0 -47 -39.5 -76.5t-103.5 -29.5q-62 0 -101 29.5t-39 76.5q0 32 18 55.5t52 35.5v1q-29 11 -44 32.5t-15 49.5q0 45 36.5 74t92.5 29q59 0 95.5 -29t36.5 -74q0 -28 -15.5 -49t-44.5 -32v-3zM124 717q-18 -14 -18 -36t17.5 -36
t46.5 -14q31 0 49 13.5t18 36.5t-18 36.5t-49 13.5q-28 0 -46 -14zM226 480.5q21 14.5 21 40.5q0 24 -21 38.5t-56 14.5q-33 0 -53.5 -14.5t-20.5 -38.5q0 -26 20.5 -40.5t53.5 -14.5q35 0 56 14.5z" />
    <glyph glyph-name="uni2079" unicode="&#x2079;" horiz-adv-x="340" 
d="M267.5 746q42.5 -43 42.5 -129q0 -99 -48.5 -155t-142.5 -56q-48 0 -76 10l12 61q15 -5 28.5 -7.5t35.5 -2.5q53 0 85 29t36 82q-39 -28 -89 -28q-57 0 -92 32t-35 84q0 54 39.5 88.5t99.5 34.5q62 0 104.5 -43zM114 623q18 -17 46 -17q46 0 80 29q-3 46 -24 70t-54 24
q-29 0 -47.5 -17t-18.5 -45q0 -27 18 -44z" />
    <glyph glyph-name="zero.dnom" horiz-adv-x="356" 
d="M70 326.5q39 49.5 109 49.5q69 0 108 -49.5t39 -142.5t-39 -142t-108 -49q-71 0 -109.5 49t-38.5 142t39 142.5zM179 316q-77 0 -77 -132q0 -130 77 -130q75 0 75 131t-75 131z" />
    <glyph glyph-name="one.dnom" horiz-adv-x="308" 
d="M210 368v-306h85v-62h-263v62h107v233l-95 -34l-22 57l133 50h55z" />
    <glyph glyph-name="two.dnom" horiz-adv-x="318" 
d="M161 173q29 25 41 44.5t12 42.5q0 27 -15.5 41.5t-42.5 14.5q-55 0 -77 -68l-57 23q13 48 50 76.5t90 28.5q54 0 89 -31t35 -77q0 -35 -18 -66t-54 -63l-87 -76v-1h160v-62h-259v54z" />
    <glyph glyph-name="three.dnom" horiz-adv-x="317" 
d="M253.5 182.5q35.5 -27.5 35.5 -75.5q0 -52 -39.5 -83t-102.5 -31q-89 0 -133 51l39 48q35 -38 93 -38q32 0 52.5 14.5t20.5 38.5q0 25 -21.5 38.5t-54.5 13.5q-27 0 -59 -9l-23 45l124 113h-146v60h236v-57l-117 -100v-1h4q56 0 91.5 -27.5z" />
    <glyph glyph-name="four.dnom" horiz-adv-x="341" 
d="M272 150h47v-60h-47v-90h-70v90h-173v50l49 228h67l-45 -218h102v144h70v-144z" />
    <glyph glyph-name="five.dnom" horiz-adv-x="318" 
d="M256.5 191.5q35.5 -30.5 35.5 -80.5q0 -53 -40 -85.5t-102 -32.5q-40 0 -74.5 13t-58.5 36l37 49q39 -37 92 -37q33 0 54 15.5t21 41.5t-20.5 41t-51.5 15q-35 0 -71 -15l-30 33v183h228v-60h-162v-94q22 8 53 8q54 0 89.5 -30.5z" />
    <glyph glyph-name="six.dnom" horiz-adv-x="340" 
d="M279.5 196.5q35.5 -31.5 35.5 -83.5q0 -53 -39 -86.5t-99 -33.5q-63 0 -105 43t-42 129q0 97 51.5 154t141.5 57q43 0 76 -11l-10 -57q-36 8 -66 8q-55 0 -87 -29.5t-36 -86.5q37 28 87 28q57 0 92.5 -31.5zM225.5 70q18.5 16 18.5 43q0 26 -19 42.5t-45 16.5
q-45 0 -81 -29q3 -43 24 -66t55 -23q29 0 47.5 16z" />
    <glyph glyph-name="seven.dnom" horiz-adv-x="307" 
d="M290 311l-163 -311h-78l162 308h-199v60h278v-57z" />
    <glyph glyph-name="eight.dnom" horiz-adv-x="341" 
d="M241 189q35 -11 53 -34.5t18 -55.5q0 -47 -39.5 -76.5t-103.5 -29.5q-62 0 -101 29.5t-39 76.5q0 32 18 55.5t52 35.5v1q-29 11 -44 32.5t-15 49.5q0 45 36.5 74t92.5 29q59 0 95.5 -29t36.5 -74q0 -28 -15.5 -49t-44.5 -32v-3zM123 304q-18 -14 -18 -36t17.5 -36
t46.5 -14q31 0 49 13.5t18 36.5t-18 36.5t-49 13.5q-28 0 -46 -14zM225 67.5q21 14.5 21 40.5q0 24 -21 38.5t-56 14.5q-33 0 -53.5 -14.5t-20.5 -38.5q0 -26 20.5 -40.5t53.5 -14.5q35 0 56 14.5z" />
    <glyph glyph-name="nine.dnom" horiz-adv-x="339" 
d="M267.5 333q42.5 -43 42.5 -129q0 -99 -48.5 -155t-142.5 -56q-48 0 -76 10l12 61q15 -5 28.5 -7.5t35.5 -2.5q53 0 85 29t36 82q-39 -28 -89 -28q-57 0 -92 32t-35 84q0 54 39.5 88.5t99.5 34.5q62 0 104.5 -43zM114 210q18 -17 46 -17q46 0 80 29q-3 46 -24 70t-54 24
q-29 0 -47.5 -17t-18.5 -45q0 -27 18 -44z" />
    <glyph glyph-name="zero.numr" horiz-adv-x="356" 
d="M70 628.5q39 49.5 109 49.5q69 0 108 -49.5t39 -142.5t-39 -142t-108 -49q-71 0 -109.5 49t-38.5 142t39 142.5zM179 618q-77 0 -77 -132q0 -130 77 -130q75 0 75 131t-75 131z" />
    <glyph glyph-name="one.numr" horiz-adv-x="306" 
d="M210 670v-306h85v-62h-263v62h107v233l-95 -34l-22 57l133 50h55z" />
    <glyph glyph-name="two.numr" horiz-adv-x="319" 
d="M161 475q29 25 41 44.5t12 42.5q0 27 -15.5 41.5t-42.5 14.5q-55 0 -77 -68l-57 23q13 48 50 76.5t90 28.5q54 0 89 -31t35 -77q0 -35 -18 -66t-54 -63l-87 -76v-1h160v-62h-259v54z" />
    <glyph glyph-name="three.numr" horiz-adv-x="317" 
d="M253.5 484.5q35.5 -27.5 35.5 -75.5q0 -52 -39.5 -83t-102.5 -31q-89 0 -133 51l39 48q35 -38 93 -38q32 0 52.5 14.5t20.5 38.5q0 25 -21.5 38.5t-54.5 13.5q-27 0 -59 -9l-23 45l124 113h-146v60h236v-57l-117 -100v-1h4q56 0 91.5 -27.5z" />
    <glyph glyph-name="four.numr" horiz-adv-x="340" 
d="M271 452h47v-60h-47v-90h-70v90h-173v50l49 228h67l-45 -218h102v144h70v-144z" />
    <glyph glyph-name="five.numr" horiz-adv-x="318" 
d="M256.5 493.5q35.5 -30.5 35.5 -80.5q0 -53 -40 -85.5t-102 -32.5q-40 0 -74.5 13t-58.5 36l37 49q39 -37 92 -37q33 0 54 15.5t21 41.5t-20.5 41t-51.5 15q-35 0 -71 -15l-30 33v183h228v-60h-162v-94q22 8 53 8q54 0 89.5 -30.5z" />
    <glyph glyph-name="six.numr" horiz-adv-x="340" 
d="M279.5 498.5q35.5 -31.5 35.5 -83.5q0 -53 -39 -86.5t-99 -33.5q-63 0 -105 43t-42 129q0 97 51.5 154t141.5 57q43 0 76 -11l-10 -57q-36 8 -66 8q-55 0 -87 -29.5t-36 -86.5q37 28 87 28q57 0 92.5 -31.5zM225.5 372q18.5 16 18.5 43q0 26 -19 42.5t-45 16.5
q-45 0 -81 -29q3 -43 24 -66t55 -23q29 0 47.5 16z" />
    <glyph glyph-name="seven.numr" horiz-adv-x="309" 
d="M291 613l-163 -311h-78l162 308h-199v60h278v-57z" />
    <glyph glyph-name="eight.numr" horiz-adv-x="341" 
d="M241 491q35 -11 53 -34.5t18 -55.5q0 -47 -39.5 -76.5t-103.5 -29.5q-62 0 -101 29.5t-39 76.5q0 32 18 55.5t52 35.5v1q-29 11 -44 32.5t-15 49.5q0 45 36.5 74t92.5 29q59 0 95.5 -29t36.5 -74q0 -28 -15.5 -49t-44.5 -32v-3zM123 606q-18 -14 -18 -36t17.5 -36
t46.5 -14q31 0 49 13.5t18 36.5t-18 36.5t-49 13.5q-28 0 -46 -14zM225 369.5q21 14.5 21 40.5q0 24 -21 38.5t-56 14.5q-33 0 -53.5 -14.5t-20.5 -38.5q0 -26 20.5 -40.5t53.5 -14.5q35 0 56 14.5z" />
    <glyph glyph-name="nine.numr" horiz-adv-x="339" 
d="M267.5 635q42.5 -43 42.5 -129q0 -99 -48.5 -155t-142.5 -56q-48 0 -76 10l12 61q15 -5 28.5 -7.5t35.5 -2.5q53 0 85 29t36 82q-39 -28 -89 -28q-57 0 -92 32t-35 84q0 54 39.5 88.5t99.5 34.5q62 0 104.5 -43zM114 512q18 -17 46 -17q46 0 80 29q-3 46 -24 70t-54 24
q-29 0 -47.5 -17t-18.5 -45q0 -27 18 -44z" />
    <glyph glyph-name="fraction" unicode="&#x2044;" horiz-adv-x="200" 
d="M-104 0h-73l481 670h73z" />
    <glyph glyph-name="onehalf" unicode="&#xbd;" horiz-adv-x="829" 
d="M221 670v-306h85v-62h-263v62h107v233l-95 -34l-22 57l133 50h55zM235 0h-73l481 670h73zM665 173q29 25 41 44.5t12 42.5q0 27 -15.5 41.5t-42.5 14.5q-55 0 -77 -68l-57 23q13 48 50 76.5t90 28.5q54 0 89 -31t35 -77q0 -35 -18 -66t-54 -63l-87 -76v-1h160v-62h-259
v54z" />
    <glyph glyph-name="onequarter" unicode="&#xbc;" horiz-adv-x="835" 
d="M221 670v-306h85v-62h-263v62h107v233l-95 -34l-22 57l133 50h55zM233 0h-73l481 670h73zM766 150h47v-60h-47v-90h-70v90h-173v50l49 228h67l-45 -218h102v144h70v-144z" />
    <glyph glyph-name="threequarters" unicode="&#xbe;" horiz-adv-x="816" 
d="M274.5 484.5q35.5 -27.5 35.5 -75.5q0 -52 -39.5 -83t-102.5 -31q-89 0 -133 51l39 48q35 -38 93 -38q32 0 52.5 14.5t20.5 38.5q0 25 -21.5 38.5t-54.5 13.5q-27 0 -59 -9l-23 45l124 113h-146v60h236v-57l-117 -100v-1h4q56 0 91.5 -27.5zM210 0h-73l481 670h73z
M742 150h47v-60h-47v-90h-70v90h-173v50l49 228h67l-45 -218h102v144h70v-144z" />
    <glyph glyph-name="period" unicode="." horiz-adv-x="222" 
d="M66 11q-18 18 -18 44q0 27 18 45.5t45 18.5t45.5 -18.5t18.5 -45.5q0 -26 -18.5 -44t-45.5 -18t-45 18z" />
    <glyph glyph-name="comma" unicode="," horiz-adv-x="237" 
d="M154.5 -77q-32.5 -47 -84.5 -71l-26 35q35 21 54 51.5t19 61.5q-25 0 -45.5 16.5t-20.5 44.5q0 27 18 44.5t46 17.5q31 0 51.5 -24t20.5 -67q0 -62 -32.5 -109z" />
    <glyph glyph-name="colon" unicode=":" horiz-adv-x="250" 
d="M80 381q-18 18 -18 44q0 27 18 45.5t45 18.5t45.5 -18.5t18.5 -45.5q0 -26 -18.5 -44t-45.5 -18t-45 18zM80 11q-18 18 -18 44q0 27 18 45.5t45 18.5t45.5 -18.5t18.5 -45.5q0 -26 -18.5 -44t-45.5 -18t-45 18z" />
    <glyph glyph-name="semicolon" unicode=";" horiz-adv-x="267" 
d="M170.5 -77q-32.5 -47 -84.5 -71l-26 35q35 21 54 51.5t19 61.5q-25 0 -45.5 16.5t-20.5 44.5q0 27 18 44.5t46 17.5q31 0 51.5 -24t20.5 -67q0 -62 -32.5 -109zM87 380q-18 18 -18 44q0 27 18 45.5t45 18.5t45.5 -18.5t18.5 -45.5q0 -26 -18.5 -44t-45.5 -18t-45 18z" />
    <glyph glyph-name="ellipsis" unicode="&#x2026;" horiz-adv-x="678" 
d="M64.5 10.5q-17.5 17.5 -17.5 42.5t17.5 42.5t43.5 17.5t43.5 -17t17.5 -43t-17.5 -43t-43.5 -17t-43.5 17.5zM295.5 10.5q-17.5 17.5 -17.5 42.5t17.5 42.5t43.5 17.5t43.5 -17.5t17.5 -42.5t-17.5 -42.5t-43.5 -17.5t-43.5 17.5zM526.5 10q-17.5 17 -17.5 43t17.5 43
t43.5 17t43 -17t17 -43q0 -25 -17 -42.5t-43 -17.5t-43.5 17z" />
    <glyph glyph-name="exclam" unicode="!" horiz-adv-x="254" 
d="M167 196h-80l-6 474h92zM82 11q-18 18 -18 44q0 27 18 45.5t45 18.5t45.5 -18.5t18.5 -45.5q0 -26 -18.5 -44t-45.5 -18t-45 18z" />
    <glyph glyph-name="exclamdown" unicode="&#xa1;" horiz-adv-x="242" 
d="M166.5 475q18.5 -18 18.5 -44q0 -27 -18.5 -45t-45.5 -18t-45 18t-18 45q0 26 18 44t45 18t45.5 -18zM81 290h80l6 -474h-92z" />
    <glyph glyph-name="question" unicode="?" horiz-adv-x="425" 
d="M243 196h-83l-7 79q-1 6 -1 16q0 42 20 67t61 54q38 27 57 49.5t19 59.5q0 35 -28 58.5t-69 23.5q-50 0 -79.5 -24.5t-45.5 -79.5l-73 26q18 76 70.5 117t130.5 41q54 0 95.5 -20.5t64.5 -56t23 -79.5q0 -41 -13.5 -70t-33 -47t-49.5 -39q-37 -25 -53 -44.5t-13 -51.5z
M159.5 11q-18.5 18 -18.5 44q0 27 18.5 45.5t45.5 18.5t45 -18.5t18 -45.5q0 -26 -18 -44t-45 -18t-45.5 18z" />
    <glyph glyph-name="questiondown" unicode="&#xbf;" horiz-adv-x="421" 
d="M262 475q19 -18 19 -44q0 -27 -18.5 -45t-46.5 -18q-26 0 -44 18t-18 45q0 26 18 44t44 18q27 0 46 -18zM179 290h83l7 -79q1 -6 1 -16q0 -42 -20.5 -67t-61.5 -54q-39 -27 -57.5 -49t-18.5 -59q0 -35 28 -59t69 -24q50 0 80 25t45 79l74 -25q-18 -77 -70.5 -118
t-130.5 -41q-54 0 -95.5 20.5t-64.5 56.5t-23 80q0 41 13.5 69.5t32.5 46.5t50 40q36 25 52.5 45t13.5 51z" />
    <glyph glyph-name="periodcentered" unicode="&#xb7;" horiz-adv-x="238" 
d="M74 296q-18 18 -18 44q0 27 18 45.5t45 18.5t45.5 -18.5t18.5 -45.5q0 -26 -18.5 -44t-45.5 -18t-45 18z" />
    <glyph glyph-name="bullet" unicode="&#x2022;" horiz-adv-x="340" 
d="M106.5 272.5q-25.5 25.5 -25.5 62.5q0 38 25.5 63t63.5 25t63.5 -25.5t25.5 -62.5t-26 -62.5t-63 -25.5q-38 0 -63.5 25.5z" />
    <glyph glyph-name="asterisk" unicode="*" horiz-adv-x="520" 
d="M315 432l106 -141l-60 -45l-100 143l-101 -142l-61 44l107 139l-169 51l24 72l166 -58l-4 175h75l-4 -175l166 58l23 -72z" />
    <glyph glyph-name="numbersign" unicode="#" horiz-adv-x="625" 
d="M592 503v-64h-114l-22 -200h105v-63h-112l-20 -176h-70l20 176h-167l-20 -176h-70l20 176h-108v63h115l22 200h-106v64h113l19 167h70l-19 -167h167l19 167h70l-19 -167h107zM219 239h167l22 200h-167z" />
    <glyph glyph-name="slash" unicode="/" horiz-adv-x="372" 
d="M81 -93h-69l279 856h69z" />
    <glyph glyph-name="backslash" unicode="\" horiz-adv-x="372" 
d="M81 763l279 -856h-69l-279 856h69z" />
    <glyph glyph-name="parenleft" unicode="(" horiz-adv-x="243" 
d="M147 -112q-99 220 -99 450q0 237 99 443l63 -24q-88 -192 -88 -419q0 -228 88 -425z" />
    <glyph glyph-name="parenright" unicode=")" horiz-adv-x="243" 
d="M33 -87q88 194 88 425q0 230 -88 419l64 24q98 -204 98 -443q0 -232 -98 -450z" />
    <glyph glyph-name="braceleft" unicode="{" horiz-adv-x="294" 
d="M262 763v-65h-53q-15 0 -22 -8t-7 -26v-224q0 -35 -3.5 -53t-15 -28.5t-36.5 -15.5v-4q35 -10 45 -30t10 -69v-233q0 -18 6.5 -26t20.5 -8h53v-66h-58q-49 0 -71 22.5t-22 71.5v249q0 32 -9.5 45t-32.5 13h-35v65h35q23 0 32.5 13.5t9.5 44.5v237q0 95 96 95h57z" />
    <glyph glyph-name="braceright" unicode="}" horiz-adv-x="294" 
d="M90 763q96 0 96 -95v-237q0 -31 9 -44.5t32 -13.5h35v-65h-35q-23 0 -32 -13t-9 -45v-249q0 -50 -22 -72t-72 -22h-57v66h52q14 0 21 8t7 26v233q0 34 3.5 52t15 29t35.5 18v4q-25 5 -36 15.5t-14.5 28t-3.5 53.5v224q0 34 -30 34h-53v65h58z" />
    <glyph glyph-name="bracketleft" unicode="[" horiz-adv-x="292" 
d="M269 -93h-186v856h186v-65h-114v-725h114v-66z" />
    <glyph glyph-name="bracketright" unicode="]" horiz-adv-x="292" 
d="M209 763v-856h-186v66h114v725h-114v65h186z" />
    <glyph glyph-name="hyphen" unicode="-" horiz-adv-x="453" 
d="M399 296h-346v86h346v-86z" />
    <glyph glyph-name="uni00AD" unicode="&#xad;" horiz-adv-x="454" 
d="M399 296h-346v86h346v-86z" />
    <glyph glyph-name="endash" unicode="&#x2013;" horiz-adv-x="555" 
d="M501 296h-448v86h448v-86z" />
    <glyph glyph-name="emdash" unicode="&#x2014;" horiz-adv-x="741" 
d="M687 296h-634v86h634v-86z" />
    <glyph glyph-name="underscore" unicode="_" horiz-adv-x="528" 
d="M474 -89h-420v89h420v-89z" />
    <glyph glyph-name="quotesinglbase" unicode="&#x201a;" horiz-adv-x="218" 
d="M140.5 -69.5q-28.5 -42.5 -75.5 -62.5l-22 32q32 19 48 45.5t16 54.5q-22 0 -39.5 14.5t-17.5 38.5t15.5 40t39.5 16q28 0 46 -21.5t18 -59.5q0 -55 -28.5 -97.5z" />
    <glyph glyph-name="quotedblbase" unicode="&#x201e;" horiz-adv-x="372" 
d="M140.5 -69.5q-28.5 -42.5 -75.5 -62.5l-22 32q32 19 48 45.5t16 54.5q-22 0 -39.5 14.5t-17.5 38.5t15.5 40t39.5 16q28 0 46 -21.5t18 -59.5q0 -55 -28.5 -97.5zM294.5 -69.5q-28.5 -42.5 -75.5 -62.5l-22 32q32 19 48 45.5t16 54.5q-22 0 -39.5 14.5t-17.5 38.5
t15.5 40t39.5 16q28 0 46 -21.5t18 -59.5q0 -55 -28.5 -97.5z" />
    <glyph glyph-name="quotedblleft" unicode="&#x201c;" horiz-adv-x="369" 
d="M73 620.5q29 42.5 75 62.5l22 -32q-32 -19 -48 -45.5t-16 -54.5q22 0 40 -14.5t18 -38.5t-15 -39.5t-40 -15.5q-28 0 -46.5 21t-18.5 59q0 55 29 97.5zM226 620.5q29 42.5 75 62.5l22 -32q-31 -19 -47 -45.5t-16 -54.5q21 0 39 -14.5t18 -38.5t-15 -39.5t-40 -15.5
q-28 0 -46.5 21t-18.5 59q0 55 29 97.5z" />
    <glyph glyph-name="quotedblright" unicode="&#x201d;" horiz-adv-x="368" 
d="M145.5 500.5q-28.5 -42.5 -75.5 -62.5l-22 32q32 19 48 45.5t16 54.5q-22 0 -39.5 14.5t-17.5 38.5t15.5 40t39.5 16q28 0 46 -21.5t18 -59.5q0 -55 -28.5 -97.5zM298.5 500.5q-28.5 -42.5 -75.5 -62.5l-22 32q32 19 48 45.5t16 54.5q-22 0 -39.5 14.5t-17.5 38.5
t15.5 40t39.5 16q28 0 46 -21.5t18 -59.5q0 -55 -28.5 -97.5z" />
    <glyph glyph-name="quoteleft" unicode="&#x2018;" horiz-adv-x="215" 
d="M73 620.5q29 42.5 75 62.5l22 -32q-32 -19 -48 -45.5t-16 -54.5q22 0 40 -14.5t18 -38.5t-15 -39.5t-40 -15.5q-28 0 -46.5 21t-18.5 59q0 55 29 97.5z" />
    <glyph glyph-name="quoteright" unicode="&#x2019;" horiz-adv-x="214" 
d="M145.5 500.5q-28.5 -42.5 -75.5 -62.5l-22 32q32 19 48 45.5t16 54.5q-22 0 -39.5 14.5t-17.5 38.5t15.5 40t39.5 16q28 0 46 -21.5t18 -59.5q0 -55 -28.5 -97.5z" />
    <glyph glyph-name="guillemotleft" unicode="&#xab;" horiz-adv-x="513" 
d="M43 279l153 223l58 -38l-127 -185l127 -185l-58 -38zM410 502l58 -38l-127 -185l127 -185l-58 -38l-153 223z" />
    <glyph glyph-name="guillemotright" unicode="&#xbb;" horiz-adv-x="513" 
d="M172 279l-127 185l58 38l153 -223l-153 -223l-58 38zM259 464l58 38l153 -223l-153 -223l-58 38l127 185z" />
    <glyph glyph-name="guilsinglleft" unicode="&#x2039;" horiz-adv-x="299" 
d="M196 502l58 -38l-127 -185l127 -185l-58 -38l-153 223z" />
    <glyph glyph-name="guilsinglright" unicode="&#x203a;" horiz-adv-x="299" 
d="M45 464l58 38l153 -223l-153 -223l-58 38l127 185z" />
    <glyph glyph-name="quotedbl" unicode="&#x22;" horiz-adv-x="348" 
d="M132 405h-66l-6 265h78zM283 405h-67l-6 265h78z" />
    <glyph glyph-name="quotesingle" unicode="'" horiz-adv-x="206" 
d="M139 405h-73l-6 265h86z" />
    <glyph glyph-name="uni2007" unicode="&#x2007;" horiz-adv-x="558" 
 />
    <glyph glyph-name="uni2008" unicode="&#x2008;" horiz-adv-x="222" 
 />
    <glyph glyph-name="uni00A0" unicode="&#xa0;" horiz-adv-x="222" 
 />
    <glyph glyph-name="uni2009" unicode="&#x2009;" horiz-adv-x="125" 
 />
    <glyph glyph-name="Euro" unicode="&#x20ac;" horiz-adv-x="637" 
d="M517 193l78 -30q-23 -83 -78 -129.5t-145 -46.5q-105 0 -164 66t-77 179h-77v67h71q-1 12 -1 37q0 32 1 48h-71v65h79q18 109 77 171.5t163 62.5q90 0 145 -47t78 -131l-80 -28q-32 122 -144 122q-122 0 -148 -150h204v-65h-212q-1 -16 -1 -48q0 -25 1 -37h212v-67h-206
q12 -74 47 -117t103 -43q111 0 145 121z" />
    <glyph glyph-name="uni20BF" unicode="&#x20bf;" horiz-adv-x="579" 
d="M496 92q-40 -46 -114 -61v-115h-69v110h-62v-110h-70v110h-97v617h99v110h70v-110h61v110h71v-116q64 -15 98.5 -56.5t34.5 -98.5q0 -44 -21.5 -79.5t-61.5 -57.5q50 -19 75.5 -56.5t25.5 -86.5q0 -64 -40 -110zM173 563v-185h147q55 0 83 26t28 66q0 41 -27.5 67
t-83.5 26h-147zM319 107q63 0 94.5 27.5t31.5 71.5q0 43 -31.5 70.5t-94.5 27.5h-146v-197h146z" />
    <glyph glyph-name="cent" unicode="&#xa2;" horiz-adv-x="512" 
d="M475 154q-63 -68 -183 -71l-10 -97h-69l11 104q-81 19 -127 85.5t-46 161.5q0 68 27.5 123t79 89t119.5 40l10 95h69l-10 -97q73 -13 124 -68l-45 -58q-38 41 -87 50l-37 -350q84 4 128 53zM161.5 230q23.5 -44 70.5 -60l37 341q-63 -11 -97 -58t-34 -116
q0 -63 23.5 -107z" />
    <glyph glyph-name="currency" unicode="&#xa4;" horiz-adv-x="588" 
d="M462 211l73 -73l-46 -47l-73 74q-53 -39 -122 -39q-68 0 -120 38l-74 -74l-47 46l74 76q-38 52 -38 120t38 122l-74 74l46 46l74 -74q54 38 121 38q69 0 121 -38l73 74l47 -47l-73 -74q38 -54 38 -121t-38 -121zM382 243q35 36 35 89q0 55 -35 90.5t-88 35.5
q-51 0 -86 -36t-36 -90q0 -53 35 -89t87 -36q53 0 88 36z" />
    <glyph glyph-name="dollar" unicode="$" horiz-adv-x="487" 
d="M394.5 69q-53.5 -48 -145.5 -51l-11 -102h-69l11 106q-46 7 -85 24.5t-66 42.5l43 69q49 -45 116 -58l23 216l-36 14q-63 25 -94.5 62t-31.5 98q0 45 23 82t68 59t107 23l10 99h69l-11 -105q77 -13 128 -58l-36 -68q-44 38 -100 50l-21 -197l33 -12q66 -24 97.5 -64.5
t31.5 -101.5q0 -80 -53.5 -128zM220 400l19 177q-53 -3 -79.5 -25t-26.5 -56q0 -35 18 -55.5t62 -37.5zM257 97q52 4 79 29t27 67q0 35 -19.5 56.5t-59.5 37.5l-7 3z" />
    <glyph glyph-name="florin" unicode="&#x192;" horiz-adv-x="395" 
d="M248.5 581q-22.5 -22 -26.5 -75l-11 -155h126v-64h-131l-33 -473h-90l34 473h-68v64h73l11 157q5 85 47.5 130t120.5 45q19 0 39.5 -4t34.5 -10l-18 -74q-21 8 -42 8q-44 0 -66.5 -22z" />
    <glyph glyph-name="sterling" unicode="&#xa3;" horiz-adv-x="509" 
d="M227 266q-1 -98 -75 -182h310v-84h-414v84q90 74 90 173v9h-77v64h65q-10 30 -16 45q-16 42 -23.5 69.5t-7.5 58.5q0 50 23.5 91t68 65t103.5 24q65 0 114 -29.5t78 -76.5l-62 -51q-19 33 -50 55t-73 22q-57 0 -85 -31t-28 -81q0 -22 7 -45t22 -65q14 -34 19 -51h206v-64
h-195z" />
    <glyph glyph-name="uni20BA" unicode="&#x20ba;" horiz-adv-x="595" 
d="M560 280q0 -132 -63 -206t-175 -74h-192v215l-79 -36v67l79 36v90l-79 -36v67l79 36v231h90v-190l223 101v-67l-223 -101v-91l223 101v-67l-223 -101v-171h97q72 0 112.5 50.5t40.5 145.5h90z" />
    <glyph glyph-name="yen" unicode="&#xa5;" horiz-adv-x="565" 
d="M449 670h96l-189 -340h130v-65h-159v-78h159v-65h-159v-122h-89v122h-159v65h159v78h-159v65h130l-188 340h101l158 -319h5z" />
    <glyph glyph-name="uni2219" unicode="&#x2219;" 
d="M216.5 272.5q-25.5 25.5 -25.5 62.5q0 38 25.5 63t63.5 25t63.5 -25.5t25.5 -62.5t-26 -62.5t-63 -25.5q-38 0 -63.5 25.5z" />
    <glyph glyph-name="uni2052" unicode="&#x2052;" 
d="M154 570.5q-18 18.5 -18 44.5q0 27 18 45t45 18t45.5 -18t18.5 -45q0 -26 -18.5 -44.5t-45.5 -18.5t-45 18.5zM171 0h-76l293 670h76zM314 10.5q-18 18.5 -18 44.5t18 44.5t45 18.5t45.5 -18.5t18.5 -44.5t-18.5 -44.5t-45.5 -18.5t-45 18.5z" />
    <glyph glyph-name="congruent" unicode="&#x2245;" 
d="M452.5 568q29.5 8 45.5 28v-75q-28 -34 -106 -34q-27 0 -50 6.5t-61 20.5q-37 14 -61 21t-52 7q-71 0 -107 -33v74q35 32 107 32q31 0 57 -7.5t63 -21.5q35 -13 57 -19.5t47 -6.5q31 0 60.5 8zM498 321h-437v71h437v-71zM498 126h-437v71h437v-71z" />
    <glyph glyph-name="dotmath" unicode="&#x22c5;" 
d="M235 296q-18 18 -18 44q0 27 18 45.5t45 18.5t45.5 -18.5t18.5 -45.5q0 -26 -18.5 -44t-45.5 -18t-45 18z" />
    <glyph glyph-name="plus" unicode="+" 
d="M499 379v-81h-174v-186h-88v186h-175v81h175v186h88v-186h174z" />
    <glyph glyph-name="minus" unicode="&#x2212;" 
d="M499 298h-437v81h437v-81z" />
    <glyph glyph-name="multiply" unicode="&#xd7;" 
d="M494 182l-58 -58l-156 156l-156 -156l-58 58l156 156l-156 155l58 59l156 -155l156 155l58 -59l-156 -155z" />
    <glyph glyph-name="divide" unicode="&#xf7;" 
d="M240 492q-16 16 -16 39t16 38.5t40 15.5t39.5 -15.5t15.5 -38.5t-15.5 -39t-39.5 -16t-40 16zM498 288h-437v81h437v-81zM240 89q-16 16 -16 39t16 38.5t40 15.5t39.5 -15.5t15.5 -38.5t-15.5 -39t-39.5 -16t-40 16z" />
    <glyph glyph-name="equal" unicode="=" 
d="M498 412h-437v77h437v-77zM498 189h-437v78h437v-78z" />
    <glyph glyph-name="notequal" unicode="&#x2260;" 
d="M499 489v-77h-145l-82 -145h227v-78h-271l-70 -124h-67l70 124h-99v78h143l82 145h-225v77h268l71 126h67l-71 -126h102z" />
    <glyph glyph-name="greater" unicode="&#x3e;" 
d="M503 301l-437 -174v79l328 131l-328 131v80l437 -176v-71z" />
    <glyph glyph-name="less" unicode="&#x3c;" 
d="M494 207v-79l-437 174v71l437 176v-80l-328 -131z" />
    <glyph glyph-name="greaterequal" unicode="&#x2265;" 
d="M501 377l-437 -160v75l329 121l-329 118v74l437 -159v-69zM501 146v-72h-437v72h437z" />
    <glyph glyph-name="lessequal" unicode="&#x2264;" 
d="M496 292v-75l-437 160v69l437 159v-74l-329 -118zM496 74h-437v72h437v-72z" />
    <glyph glyph-name="plusminus" unicode="&#xb1;" 
d="M499 464v-81h-174v-173h-89v173h-174v81h174v173h89v-173h174zM499 34h-437v81h437v-81z" />
    <glyph glyph-name="approxequal" unicode="&#x2248;" 
d="M453.5 456.5q29.5 8.5 45.5 28.5v-75q-27 -34 -106 -34q-28 0 -53 7t-58 20q-37 14 -61 20.5t-52 6.5q-72 0 -107 -32v74q38 31 107 31q30 0 56 -7t65 -22q36 -14 57 -20t46 -6q31 0 60.5 8.5zM453.5 257q29.5 8 45.5 28v-76q-16 -18 -45 -25t-61 -7q-28 0 -53 7t-58 20
q-37 14 -61 20.5t-52 6.5q-71 0 -107 -33v74q34 31 107 31q30 0 56 -7t65 -22q33 -13 55.5 -19t47.5 -6q31 0 60.5 8z" />
    <glyph glyph-name="asciitilde" unicode="~" 
d="M498 434q1 -12 1 -33q0 -84 -29 -127t-79 -43q-29 0 -49 11t-46 34l-62 56q-4 4 -16 15t-23 16.5t-22 5.5q-28 0 -39 -31.5t-8 -95.5h-63q-1 12 -1 35q0 83 29.5 125.5t80.5 42.5q27 0 46.5 -11t45.5 -35l61 -54q20 -19 33 -28t30 -9q24 0 35.5 23.5t11.5 70.5
q0 20 -1 32h64z" />
    <glyph glyph-name="logicalnot" unicode="&#xac;" 
d="M494 374v-240h-77v165h-360v75h437z" />
    <glyph glyph-name="asciicircum" unicode="^" 
d="M277 595l-112 -214h-84l155 289h85l158 -289h-87z" />
    <glyph glyph-name="infinity" unicode="&#x221e;" horiz-adv-x="977" 
d="M565 468q32 33 70 51t86 18q56 0 102 -25.5t72 -71t26 -103.5q0 -59 -26 -104.5t-71.5 -71t-101.5 -25.5q-49 0 -87.5 18.5t-71.5 52.5l-74 78l-75 -77q-35 -35 -72.5 -53.5t-88.5 -18.5q-55 0 -100 25.5t-71 71t-26 104.5q0 58 26 103.5t71 71t100 25.5q51 0 87.5 -17.5
t71.5 -51.5l77 -78zM314.5 223.5q24.5 13.5 49.5 38.5l73 76l-74 74q-24 25 -48.5 38t-57.5 13q-52 0 -86.5 -36t-34.5 -90q0 -55 34 -91t87 -36q33 0 57.5 13.5zM806 246.5q34 35.5 34 90.5q0 54 -34.5 90t-86.5 36q-33 0 -57.5 -13t-49.5 -37l-72 -74l72 -77
q25 -25 49 -38t58 -13q53 0 87 35.5z" />
    <glyph glyph-name="integral" unicode="&#x222b;" horiz-adv-x="378" 
d="M55 -98.5q-21 7.5 -39 23.5l28 65q13 -10 24.5 -14t27.5 -4q23 0 36 13.5t13 37.5v526q0 65 34.5 99.5t89.5 34.5q56 0 95 -31l-27 -67q-15 11 -27.5 16t-28.5 5q-24 0 -37 -13.5t-13 -39.5v-529q0 -63 -34.5 -96.5t-89.5 -33.5q-31 0 -52 7.5z" />
    <glyph glyph-name="Omega" unicode="&#x2126;" horiz-adv-x="738" 
d="M509 77h158v-77h-239v125q76 18 123 83t47 160q0 68 -29.5 121t-81.5 82t-118 29t-118 -29.5t-81.5 -82t-29.5 -120.5q0 -94 47 -160t123 -82v-126h-239v77h157v8q-82 33 -129 109.5t-47 179.5q0 92 41.5 162t113.5 108.5t162 38.5t162.5 -38.5t113.5 -108.5t41 -162
q0 -102 -47.5 -178t-129.5 -110v-9z" />
    <glyph glyph-name="Delta" unicode="&#x2206;" horiz-adv-x="644" 
d="M270 670h102l248 -598v-72h-596v72zM528 84l-208 501l-205 -501h413z" />
    <glyph glyph-name="product" unicode="&#x220f;" horiz-adv-x="620" 
d="M206 -93h-86v681h-92v82h565v-82h-92v-681h-87v681h-208v-681z" />
    <glyph glyph-name="summation" unicode="&#x2211;" horiz-adv-x="469" 
d="M436 -93h-406v64l228 317l-221 319v63h391v-75h-288l211 -308l-220 -303h305v-77z" />
    <glyph glyph-name="radical" unicode="&#x221a;" horiz-adv-x="637" 
d="M387 -93h-87l-134 336h-118v76h183l75 -208q27 -79 30 -104h4q6 47 29 124l159 539h88z" />
    <glyph glyph-name="partialdiff" unicode="&#x2202;" horiz-adv-x="561" 
d="M375.5 651q62.5 -32 99.5 -101.5t37 -176.5q0 -113 -32 -200.5t-91.5 -136.5t-140.5 -49q-66 0 -115.5 26.5t-76.5 74.5t-27 110q0 58 27 103.5t75.5 70.5t110.5 25q79 0 124.5 -41t50.5 -105h3q9 56 9 122q0 114 -52.5 173.5t-150.5 59.5q-53 0 -103 -18l-18 75
q64 20 131 20q77 0 139.5 -32zM342 102.5q36 36.5 36 94.5q0 53 -36.5 88.5t-93.5 35.5q-60 0 -96 -35.5t-36 -88.5q0 -58 36.5 -94.5t95.5 -36.5q58 0 94 36.5z" />
    <glyph glyph-name="percent" unicode="%" horiz-adv-x="687" 
d="M74 634q38 44 103 44q63 0 99.5 -44t36.5 -124t-36.5 -124.5t-99.5 -44.5q-66 0 -103.5 44t-37.5 125q0 80 38 124zM142 0h-77l481 670h77zM227.5 590.5q-17.5 27.5 -50.5 27.5q-35 0 -53.5 -27.5t-18.5 -80.5q0 -108 72 -108q33 0 50.5 27.5t17.5 81.5q0 52 -17.5 79.5z
M412 284q38 44 101 44q64 0 101 -43.5t37 -124.5t-37 -124.5t-101 -43.5q-65 0 -102 43.5t-37 124.5q0 80 38 124zM564.5 241.5q-17.5 27.5 -51.5 27.5t-52 -28t-18 -81q0 -108 70 -108q69 0 69 109q0 53 -17.5 80.5z" />
    <glyph glyph-name="perthousand" unicode="&#x2030;" horiz-adv-x="975" 
d="M74.5 634q36.5 44 99.5 44t97.5 -43.5t34.5 -124.5t-34.5 -125t-97.5 -44q-65 0 -100.5 44t-35.5 125q0 80 36.5 124zM135 0h-77l480 670h78zM221.5 591q-16.5 27 -47.5 27q-33 0 -50 -27.5t-17 -80.5q0 -108 67 -108q64 0 64 109q0 53 -16.5 80zM402 284q36 44 100 44
q63 0 97.5 -43.5t34.5 -124.5t-34.5 -124.5t-97.5 -43.5q-65 0 -100.5 43.5t-35.5 124.5q0 80 36 124zM717.5 284q35.5 44 98.5 44q64 0 99 -43.5t35 -124.5t-35.5 -124.5t-98.5 -43.5q-64 0 -99 43.5t-35 124.5q0 80 35.5 124zM549 241.5q-16 27.5 -47 27.5q-32 0 -49 -28
t-17 -81q0 -108 66 -108q63 0 63 109q0 53 -16 80.5zM864.5 241.5q-16.5 27.5 -48.5 27.5t-49 -28t-17 -81q0 -108 66 -108q65 0 65 109q0 53 -16.5 80.5z" />
    <glyph glyph-name="arrowup" unicode="&#x2191;" horiz-adv-x="643" 
d="M321 690l299 -299l-59 -60l-196 202h-2v-531h-83v531h-2l-196 -201l-59 60z" />
    <glyph glyph-name="uni2197" unicode="&#x2197;" horiz-adv-x="638" 
d="M564 611v-423h-84l4 281l-1 1l-376 -375l-58 59l375 375l-2 1l-280 -3l1 84h421z" />
    <glyph glyph-name="uni2198" unicode="&#x2198;" horiz-adv-x="638" 
d="M565 58h-423l-1 84l282 -4l1 2l-375 375l58 59l376 -376l1 2l-3 280l84 -1v-421z" />
    <glyph glyph-name="arrowdown" unicode="&#x2193;" horiz-adv-x="643" 
d="M322 -20l-299 299l59 60l196 -202h2v531h83v-531h2l196 201l59 -60z" />
    <glyph glyph-name="uni2199" unicode="&#x2199;" horiz-adv-x="638" 
d="M74 59v423h83l-3 -281l1 -1l375 375l59 -59l-375 -375l1 -1l281 3l-1 -84h-421z" />
    <glyph glyph-name="arrowleft" unicode="&#x2190;" horiz-adv-x="763" 
d="M48 335l299 299l60 -59l-202 -196v-2h531v-83h-531v-2l201 -196l-60 -59z" />
    <glyph glyph-name="uni2196" unicode="&#x2196;" horiz-adv-x="638" 
d="M74 612h422l1 -84l-281 4l-2 -2l376 -375l-59 -59l-375 376l-2 -2l3 -280l-83 1v421z" />
    <glyph glyph-name="lozenge" unicode="&#x25ca;" horiz-adv-x="597" 
d="M345 670l209 -382l-210 -381h-90l-211 381l211 382h91zM299 -9l162 297l-163 297l-162 -297z" />
    <glyph glyph-name="filledbox" unicode="&#x25a0;" horiz-adv-x="760" 
d="M75 610h610v-610h-610v610z" />
    <glyph glyph-name="H22073" unicode="&#x25a1;" horiz-adv-x="760" 
d="M75 610h610v-610h-610v610zM606 80v451h-451v-451h451z" />
    <glyph glyph-name="H18543" unicode="&#x25aa;" horiz-adv-x="438" 
d="M378 464v-318h-318v318h318z" />
    <glyph glyph-name="H18551" unicode="&#x25ab;" horiz-adv-x="438" 
d="M378 464v-318h-318v318h318zM118 204h203v203h-203v-203z" />
    <glyph glyph-name="uni25B6" unicode="&#x25b6;" horiz-adv-x="735" 
d="M75 628l610 -323l-610 -323v646z" />
    <glyph glyph-name="uni25B7" unicode="&#x25b7;" horiz-adv-x="735" 
d="M75 628l610 -323l-610 -323v646zM154 112l370 193l-370 193v-386z" />
    <glyph glyph-name="uni25B8" unicode="&#x25b8;" horiz-adv-x="451" 
d="M60 499l366 -194l-366 -194v388z" />
    <glyph glyph-name="uni25B9" unicode="&#x25b9;" horiz-adv-x="451" 
d="M60 499l366 -194l-366 -194v388zM118 205l192 100l-192 100v-200z" />
    <glyph glyph-name="uni2610" unicode="&#x2610;" horiz-adv-x="880" 
d="M75 670h730v-730h-730v730zM721 25v561h-561v-561h561z" />
    <glyph glyph-name="uni2611" unicode="&#x2611;" horiz-adv-x="880" 
d="M426 126l-209 209l62 61l139 -140l329 425l69 -52zM75 670h525v-83h-441v-563h563v356h83v-440h-730v730z" />
    <glyph glyph-name="uni274C" unicode="&#x274c;" horiz-adv-x="758" 
d="M632 651l63 -63l-253 -253l253 -253l-63 -63l-253 253l-253 -253l-63 63l253 253l-253 253l63 63l253 -253z" />
    <glyph glyph-name="uni2713" unicode="&#x2713;" horiz-adv-x="758" 
d="M312 18l-269 269l63 63l194 -194l349 495l72 -51z" />
    <glyph glyph-name="uni2714" unicode="&#x2714;" horiz-adv-x="802" 
d="M726 709.5q20 -4.5 33 -12.5q12 -7 19.5 -25t7.5 -38q0 -18 -15 -41.5t-46 -55.5q-10 -11 -22 -32q-4 -5 -6.5 -9.5t-5.5 -7.5q-8 -11 -19 -25t-19 -21q-31 -29 -109 -144q-14 -21 -17 -29l-12 -19q-5 -7 -16 -17t-13 -13t-5 -10t-6 -11q-14 -14 -24.5 -30t-24.5 -41
q-11 -20 -14 -24q-6 -9 -22 -25q-13 -12 -28 -35q-7 -8 -16 -22q-34 -45 -60.5 -65.5t-55.5 -20.5q-11 0 -23 3q-48 12 -70 48q-13 22 -22 57t-19 97q-7 41 -22 90q-17 57 -17 87q0 24 10.5 38.5t34.5 23.5q28 10 45 10q23 0 48 -16q14 -9 20 -22.5t14 -45.5q5 -22 7 -29
q2 -9 6.5 -24.5t4.5 -23.5q0 -5 6 -15.5t9 -10.5q4 1 8.5 9t6.5 11q8 16 13 23q8 10 26 30q36 41 69 83q3 4 13.5 19.5t20.5 27.5q27 31 101 130q18 23 44 52q35 38 55 63q39 49 78 61q9 2 29 -2.5z" />
    <glyph glyph-name="uni2718" unicode="&#x2718;" horiz-adv-x="802" 
d="M708 715q16 0 34 -9.5t30.5 -26.5t12.5 -39q0 -29 -15.5 -57.5t-59.5 -75.5q-32 -35 -31 -34q-45 -47 -56 -62q-13 -17 -32 -34t-22 -20q-16 -16 -62 -56q-5 -5 -15.5 -14t-13.5 -18q-2 -8 -2 -12t4 -30q1 -9 1.5 -24.5t2.5 -29.5q1 -9 9 -43q1 -6 3 -13t3 -14
q3 -20 3.5 -37t0.5 -24q0 -9 3 -20t4 -15t4 -16.5t3 -21.5q0 -15 -33 -29.5t-67 -14.5q-14 0 -29.5 21.5t-21.5 42.5l-3 21q-2 20 -4 28q-6 22 -6 62q0 11 -2.5 19.5t-6.5 8.5q-5 0 -16 -10.5t-24 -25.5q-6 -6 -12 -13.5t-13 -15.5q-18 -22 -40 -46q-47 -45 -72 -75
q-23 -29 -38.5 -38t-42.5 -9q-16 0 -22.5 2.5t-18.5 11.5q-28 21 -28 50q0 20 15 46q25 43 47 71.5t35 37.5q8 5 16.5 17t10.5 15q14 16 33.5 36.5t33.5 33.5q42 38 60 57t22 28t2 19q0 4 -0.5 20t-3.5 31l-8 34q-3 9 -10 38q-2 8 -4 32q-2 23 -5 32l-17 57q-7 24 -7 42
q0 17 7 27t22 23q19 13 44 13q19 0 29 -1.5t17 -8.5q13 -13 27 -56.5t14 -86.5q0 -4 4 -16t4 -17q0 -4 7 -18t7 -22q-2 -12 -2 -18q0 -15 24 11t34 42q1 1 23 22q57 54 78 75q45 45 64.5 70.5t20.5 26.5q2 3 14 20.5t22 20.5q6 2 11 2z" />
    <glyph glyph-name="at" unicode="@" horiz-adv-x="762" 
d="M227.5 329q21.5 46 59 71t82.5 25q82 0 113 -64h3l7 55h64l-27 -219q4 -68 45 -68q29 0 50 40.5t21 111.5t-32 128t-91.5 90t-138.5 33q-76 0 -136 -36.5t-94 -101.5t-34 -147q0 -83 33 -147t92 -100t135 -36q67 0 118 32l29 -64q-55 -37 -151 -37q-100 0 -175.5 45
t-116 124.5t-40.5 182.5q0 102 43.5 181.5t121 124.5t175.5 45q99 0 174.5 -41.5t116.5 -114t41 -161.5q0 -66 -19 -115.5t-52 -76.5t-75 -27q-38 0 -60.5 21.5t-30.5 58.5h-3q-18 -37 -49 -58t-77 -21q-65 0 -104 45.5t-39 114.5q0 60 21.5 106zM303.5 155.5
q21.5 -26.5 58.5 -26.5q46 0 74 36.5t28 100.5q0 45 -21.5 69.5t-60.5 24.5q-45 0 -72.5 -36t-27.5 -100q0 -42 21.5 -68.5z" />
    <glyph glyph-name="ampersand" unicode="&#x26;" horiz-adv-x="617" 
d="M564 -12q-72 49 -119 86q-79 -87 -203 -87q-89 0 -145 49t-56 136q0 64 33.5 108t88.5 77q-55 86 -55 154q0 79 46 125.5t118 46.5q66 0 106.5 -40.5t40.5 -108.5q0 -61 -38.5 -110t-103.5 -85q58 -70 153 -149q18 43 25.5 92.5t5.5 96.5h80q3 -62 -9.5 -124t-40.5 -114
q62 -47 120 -86zM212.5 585q-20.5 -25 -20.5 -71q0 -52 43 -118q53 27 78 59.5t25 75.5q0 37 -19.5 58t-49.5 21q-36 0 -56.5 -25zM386 120q-112 93 -181 180q-38 -24 -58 -50t-20 -70q0 -53 34 -85.5t92 -32.5q80 0 133 58z" />
    <glyph glyph-name="paragraph" unicode="&#xb6;" horiz-adv-x="597" 
d="M57.5 553.5q31.5 53.5 88 85t126.5 31.5h289v-67h-63v-696h-74v696h-85v-696h-73v294q-66 0 -121 31.5t-87 85t-32 117.5q0 65 31.5 118.5zM124 353q21 -38 58 -60.5t84 -22.5v333q-47 0 -84 -22t-58 -60t-21 -85q0 -45 21 -83z" />
    <glyph glyph-name="section" unicode="&#xa7;" horiz-adv-x="532" 
d="M454.5 174.5q-30.5 -30.5 -81.5 -34.5v-2q65 -43 65 -112q0 -62 -46.5 -99t-121.5 -37q-62 0 -113 24t-96 70l48 58q74 -79 162 -79q39 0 62.5 16.5t23.5 46.5q0 24 -18.5 42t-56.5 40l-141 81q-45 26 -69 54t-24 81q0 47 30.5 78.5t80.5 36.5v2q-31 21 -47 47t-16 66
q0 34 18 63.5t53.5 47.5t84.5 18q61 0 114.5 -27t94.5 -79l-49 -50q-77 86 -160 86q-35 0 -55 -17t-20 -45q0 -27 18 -45.5t55 -39.5l147 -83q42 -24 65 -54t23 -75q0 -49 -30.5 -79.5zM391.5 287q-11.5 17 -36.5 31l-105 62q-24 14 -51 14q-30 0 -50 -17.5t-20 -45.5
q0 -25 11 -41.5t37 -30.5l107 -64q21 -12 47 -12q30 0 51 17.5t21 46.5q0 23 -11.5 40z" />
    <glyph glyph-name="copyright" unicode="&#xa9;" horiz-adv-x="799" 
d="M701.5 156.5q-44.5 -79.5 -123.5 -124.5t-179 -45t-178.5 45t-123 124.5t-44.5 179.5t44.5 179t123 123.5t178.5 44.5t179 -44.5t123.5 -123.5t44.5 -179t-44.5 -179.5zM643 481.5q-36 64.5 -100 101t-144 36.5t-144 -36.5t-99.5 -101t-35.5 -145.5q0 -82 35.5 -146.5
t99 -101t144.5 -36.5q80 0 144 36.5t100 101t36 146.5q0 81 -36 145.5zM499 407q-12 29 -38.5 46t-59.5 17q-51 0 -81 -36.5t-30 -96.5t30 -95.5t81 -35.5q34 0 60 16t39 47l54 -36q-19 -45 -59.5 -68.5t-94.5 -23.5q-84 0 -133.5 54t-49.5 142q0 58 23 102.5t64.5 69.5
t95.5 25q53 0 94 -24.5t61 -66.5z" />
    <glyph glyph-name="registered" unicode="&#xae;" horiz-adv-x="797" 
d="M578 638.5q79 -44.5 123.5 -123.5t44.5 -179t-44.5 -179.5t-123.5 -124.5t-179 -45t-178.5 45t-123 124.5t-44.5 179.5t44.5 179t123 123.5t178.5 44.5t179 -44.5zM543 88.5q64 36.5 100 101t36 146.5q0 81 -36 145.5t-100 101t-144 36.5t-144 -36.5t-99.5 -101
t-35.5 -145.5q0 -82 35.5 -146.5t99 -101t144.5 -36.5q80 0 144 36.5zM528.5 338.5q-20.5 -29.5 -58.5 -43.5l88 -147h-84l-80 138h-55v-138h-74v379h145q67 0 103 -35t36 -87q0 -37 -20.5 -66.5zM339 463v-115h66q36 0 53.5 16.5t17.5 40.5q0 25 -17.5 41.5t-53.5 16.5h-66
z" />
    <glyph glyph-name="trademark" unicode="&#x2122;" horiz-adv-x="761" 
d="M23 670h285v-64h-107v-294h-70v294h-108v64zM677 670l21 -358h-70l-10 246h-2l-71 -202h-60l-70 202h-3l-10 -246h-68l20 358h85l76 -222h3l77 222h82z" />
    <glyph glyph-name="degree" unicode="&#xb0;" horiz-adv-x="450" 
d="M136 358q-40 22 -62.5 61.5t-22.5 90.5q0 49 22.5 88.5t62.5 62t90 22.5t90 -22t62.5 -61.5t22.5 -89.5q0 -51 -22.5 -90.5t-62 -61.5t-90.5 -22q-50 0 -90 22zM301 432.5q29 30.5 29 77.5q0 46 -29.5 76t-74.5 30q-46 0 -75 -30t-29 -76q0 -47 29 -77.5t75 -30.5
t75 30.5z" />
    <glyph glyph-name="bar" unicode="|" horiz-adv-x="235" 
d="M150 -93h-66v856h66v-856z" />
    <glyph glyph-name="brokenbar" unicode="&#xa6;" horiz-adv-x="235" 
d="M150 763v-347h-66v347h66zM150 -93h-66v360h66v-360z" />
    <glyph glyph-name="dagger" unicode="&#x2020;" horiz-adv-x="396" 
d="M235 242h-72v232h-124v66h124v130h72v-130h122v-66h-122v-232z" />
    <glyph glyph-name="daggerdbl" unicode="&#x2021;" horiz-adv-x="421" 
d="M247 322h123v-66h-123v-130h-72v130h-123v66h123v152h-123v66h123v130h72v-130h123v-66h-123v-152z" />
    <glyph glyph-name="uni02BB" unicode="&#x2bb;" horiz-adv-x="215" 
d="M73 620.5q29 42.5 75 62.5l22 -32q-32 -19 -48 -45.5t-16 -54.5q22 0 40 -14.5t18 -38.5t-15 -39.5t-40 -15.5q-28 0 -46.5 21t-18.5 59q0 55 29 97.5z" />
    <glyph glyph-name="uni0308" unicode="&#x308;" horiz-adv-x="0" 
d="M-140.5 573.5q-15.5 15.5 -15.5 38.5q0 22 15 37t38 15q22 0 37.5 -15t15.5 -37t-15.5 -38t-37.5 -16t-37.5 15.5zM66.5 574q-15.5 16 -15.5 38t15.5 37t37.5 15t38 -15t16 -37t-16 -38t-38 -16t-37.5 16z" />
    <glyph glyph-name="uni0307" unicode="&#x307;" horiz-adv-x="0" 
d="M-42.5 579q-17.5 17 -17.5 42t17.5 42.5t42.5 17.5t43 -17.5t18 -42.5t-18 -42t-43 -17t-42.5 17z" />
    <glyph glyph-name="gravecomb" unicode="&#x300;" horiz-adv-x="0" 
d="M-32 705l103 -158h-85l-122 158h104z" />
    <glyph glyph-name="acutecomb" unicode="&#x301;" horiz-adv-x="0" 
d="M15 547h-87l104 158h105z" />
    <glyph glyph-name="uni030B" unicode="&#x30b;" horiz-adv-x="0" 
d="M-57 547h-69l102 158h83zM98 547h-70l103 158h83z" />
    <glyph glyph-name="uni0302" unicode="&#x302;" horiz-adv-x="0" 
d="M56 705l106 -158h-82l-80 108l-81 -108h-83l106 158h114z" />
    <glyph glyph-name="uni030C" unicode="&#x30c;" horiz-adv-x="0" 
d="M0 597l80 108h82l-105 -158h-115l-105 158h82z" />
    <glyph glyph-name="uni0306" unicode="&#x306;" horiz-adv-x="0" 
d="M-91 710q0 -45 24 -71.5t67 -26.5t67 27t24 71h69q0 -74 -42.5 -118.5t-117.5 -44.5q-76 0 -118 44.5t-42 118.5h69z" />
    <glyph glyph-name="uni030A" unicode="&#x30a;" horiz-adv-x="0" 
d="M-101.5 573.5q-39.5 31.5 -39.5 78.5q0 49 39 81t103 32q62 0 101 -32t39 -81q0 -47 -38.5 -78.5t-101.5 -31.5t-102.5 31.5zM57 613q20 15 20 40t-20 41t-56 16q-37 0 -57.5 -16t-20.5 -41t20.5 -40t57.5 -15q36 0 56 15z" />
    <glyph glyph-name="tildecomb" unicode="&#x303;" horiz-adv-x="0" 
d="M114 699q3 -76 -33 -76q-11 0 -20.5 4.5t-16.5 10t-9 6.5l-54 37q-19 13 -33.5 19.5t-36.5 6.5q-40 0 -64.5 -30.5t-24.5 -92.5q0 -18 1 -28h61q-1 7 -1 19q0 57 34 57q9 0 17.5 -4.5t16 -9.5l10.5 -7l54 -37q19 -13 35.5 -19.5t38.5 -6.5q39 0 62.5 31t23.5 94
q0 17 -1 26h-60z" />
    <glyph glyph-name="uni0304" unicode="&#x304;" horiz-adv-x="0" 
d="M139 566h-278v69h278v-69z" />
    <glyph glyph-name="uni0312" unicode="&#x312;" horiz-adv-x="0" 
d="M-31 691q26 32 69 48l22 -27q-26 -15 -40 -33.5t-15 -37.5q21 0 37 -12t16 -34q0 -20 -14.5 -33.5t-38.5 -13.5q-28 0 -45 17.5t-17 49.5q0 44 26 76z" />
    <glyph glyph-name="uni0326" unicode="&#x326;" horiz-adv-x="0" 
d="M32.5 -190q-26.5 -34 -68.5 -51l-22 27q26 15 40 35.5t16 42.5q-21 0 -37 12t-16 34q0 20 14.5 33.5t38.5 13.5q28 0 44.5 -18t16.5 -50q0 -45 -26.5 -79z" />
    <glyph glyph-name="uni0327" unicode="&#x327;" horiz-adv-x="0" 
d="M91 -69.5q29 -20.5 29 -57.5q0 -42 -34.5 -66.5t-87.5 -24.5q-62 0 -99 26l21 49q31 -22 74 -22q28 0 44.5 9t16.5 26t-16.5 25t-40.5 8q-40 0 -65 -11l-13 29l70 105h63l-50 -75h18q41 0 70 -20.5z" />
    <glyph glyph-name="uni0328" unicode="&#x328;" horiz-adv-x="0" 
d="M0 0q-43 0 -74 -23t-31 -59q0 -23 13.5 -36t34.5 -13q19 0 32 8t25 21l35 -47q-40 -49 -104 -49q-46 0 -74.5 27.5t-28.5 74.5q0 44 32.5 77t86.5 43z" />
    <glyph glyph-name="dieresis" unicode="&#xa8;" horiz-adv-x="418" 
d="M68.5 573.5q-15.5 15.5 -15.5 38.5q0 22 15 37t38 15q22 0 37.5 -15t15.5 -37t-15.5 -38t-37.5 -16t-37.5 15.5zM275.5 574q-15.5 16 -15.5 38t15.5 37t37.5 15t38 -15t16 -37t-16 -38t-38 -16t-37.5 16z" />
    <glyph glyph-name="dotaccent" unicode="&#x2d9;" horiz-adv-x="227" 
d="M70.5 579q-17.5 17 -17.5 42t17.5 42.5t42.5 17.5t43 -17.5t18 -42.5t-18 -42t-43 -17t-42.5 17z" />
    <glyph glyph-name="grave" unicode="`" horiz-adv-x="290" 
d="M142 705l103 -158h-85l-122 158h104z" />
    <glyph glyph-name="acute" unicode="&#xb4;" horiz-adv-x="290" 
d="M128 547h-87l104 158h105z" />
    <glyph glyph-name="hungarumlaut" unicode="&#x2dd;" horiz-adv-x="411" 
d="M106 547h-69l102 158h83zM261 547h-70l103 158h83z" />
    <glyph glyph-name="circumflex" unicode="&#x2c6;" horiz-adv-x="396" 
d="M255 705l106 -158h-82l-80 108l-81 -108h-83l106 158h114z" />
    <glyph glyph-name="caron" unicode="&#x2c7;" horiz-adv-x="396" 
d="M199 597l80 108h82l-105 -158h-115l-105 158h82z" />
    <glyph glyph-name="breve" unicode="&#x2d8;" horiz-adv-x="392" 
d="M106 710q0 -45 24 -71.5t67 -26.5t67 27t24 71h69q0 -74 -42.5 -118.5t-117.5 -44.5q-76 0 -118 44.5t-42 118.5h69z" />
    <glyph glyph-name="ring" unicode="&#x2da;" horiz-adv-x="347" 
d="M71.5 573.5q-39.5 31.5 -39.5 78.5q0 49 39 81t103 32q62 0 101 -32t39 -81q0 -47 -38.5 -78.5t-101.5 -31.5t-102.5 31.5zM230 613q20 15 20 40t-20 41t-56 16q-37 0 -57.5 -16t-20.5 -41t20.5 -40t57.5 -15q36 0 56 15z" />
    <glyph glyph-name="tilde" unicode="&#x2dc;" horiz-adv-x="440" 
d="M334 699q3 -76 -33 -76q-11 0 -20.5 4.5t-16.5 10t-9 6.5l-54 37q-19 13 -33.5 19.5t-36.5 6.5q-40 0 -64.5 -30.5t-24.5 -92.5q0 -18 1 -28h61q-1 7 -1 19q0 57 34 57q9 0 17.5 -4.5t16 -9.5l10.5 -7l54 -37q19 -13 35.5 -19.5t38.5 -6.5q39 0 62.5 31t23.5 94
q0 17 -1 26h-60z" />
    <glyph glyph-name="macron" unicode="&#xaf;" horiz-adv-x="338" 
d="M308 566h-278v69h278v-69z" />
    <glyph glyph-name="cedilla" unicode="&#xb8;" horiz-adv-x="282" 
d="M226 -69.5q29 -20.5 29 -57.5q0 -42 -34.5 -66.5t-87.5 -24.5q-62 0 -99 26l21 49q31 -22 74 -22q28 0 44.5 9t16.5 26t-16.5 25t-40.5 8q-40 0 -65 -11l-13 29l70 105h63l-50 -75h18q41 0 70 -20.5z" />
    <glyph glyph-name="ogonek" unicode="&#x2db;" horiz-adv-x="282" 
d="M209 0q-43 0 -74 -23t-31 -59q0 -23 13.5 -36t34.5 -13q19 0 32 8t25 21l35 -47q-40 -49 -104 -49q-46 0 -74.5 27.5t-28.5 74.5q0 44 32.5 77t86.5 43z" />
    <glyph glyph-name="glyph484" horiz-adv-x="197" 
d="M77 698h87l-57 -184h-60z" />
    <glyph glyph-name="glyph485" horiz-adv-x="281" 
d="M176 12q-38 -25 -57.5 -47t-19.5 -48q0 -25 15.5 -38.5t39.5 -13.5q36 0 64 32l35 -49q-42 -49 -108 -49q-49 0 -80.5 27.5t-31.5 74.5q0 36 21 61t65 52z" />
    <glyph glyph-name="glyph486" horiz-adv-x="0" 
d="M-141 747.5q-15 14.5 -15 37.5q0 21 15.5 35.5t37.5 14.5t37.5 -14.5t15.5 -35.5q0 -23 -15.5 -37.5t-37.5 -14.5q-23 0 -38 14.5zM66.5 747.5q-15.5 14.5 -15.5 37.5q0 21 15.5 35.5t37.5 14.5t38 -14.5t16 -35.5q0 -23 -16 -37.5t-38 -14.5t-37.5 14.5z" />
    <glyph glyph-name="glyph487" horiz-adv-x="0" 
d="M-43.5 746.5q-17.5 15.5 -17.5 39.5t17.5 39.5t43.5 15.5q25 0 43 -15.5t18 -39.5t-18 -39.5t-43 -15.5q-26 0 -43.5 15.5z" />
    <glyph glyph-name="glyph488" horiz-adv-x="0" 
d="M-32 860l103 -131h-90l-123 131h110z" />
    <glyph glyph-name="glyph489" horiz-adv-x="0" 
d="M20 729h-92l103 131h110z" />
    <glyph glyph-name="glyph490" horiz-adv-x="0" 
d="M-56 729h-72l101 131h87zM101 729h-73l104 131h85z" />
    <glyph glyph-name="glyph491" horiz-adv-x="0" 
d="M59 860l106 -131h-85l-81 89l-80 -89h-85l106 131h119z" />
    <glyph glyph-name="glyph492" horiz-adv-x="0" 
d="M0 771l80 89h85l-106 -131h-119l-105 131h84z" />
    <glyph glyph-name="glyph493" horiz-adv-x="0" 
d="M-87 865q0 -34 22.5 -54t64.5 -20q40 0 62.5 20t22.5 54h75q0 -63 -42.5 -99.5t-117.5 -36.5q-77 0 -118.5 36.5t-41.5 99.5h73z" />
    <glyph glyph-name="glyph494" horiz-adv-x="0" 
d="M112 855q2 -33 -5 -50t-25 -17q-9 0 -18 4t-17 8.5t-11 6.5l-51 33q-16 11 -33 17t-41 6q-40 0 -64.5 -28t-24.5 -83q0 -15 1 -23h62l-1 18q0 49 31 49q18 0 46 -18l50 -32q19 -13 36.5 -19.5t40.5 -6.5q39 0 63 28t24 84q0 15 -1 23h-62z" />
    <glyph glyph-name="glyph495" horiz-adv-x="0" 
d="M139 739h-278v68h278v-68z" />
    <glyph glyph-name="glyph496" horiz-adv-x="418" 
d="M68 747.5q-15 14.5 -15 37.5q0 21 15.5 35.5t37.5 14.5t37.5 -14.5t15.5 -35.5q0 -23 -15.5 -37.5t-37.5 -14.5q-23 0 -38 14.5zM275.5 747.5q-15.5 14.5 -15.5 37.5q0 21 15.5 35.5t37.5 14.5t38 -14.5t16 -35.5q0 -23 -16 -37.5t-38 -14.5t-37.5 14.5z" />
    <glyph glyph-name="glyph497" horiz-adv-x="227" 
d="M69.5 746.5q-17.5 15.5 -17.5 39.5t17.5 39.5t43.5 15.5q25 0 43 -15.5t18 -39.5t-18 -39.5t-43 -15.5q-26 0 -43.5 15.5z" />
    <glyph glyph-name="glyph498" horiz-adv-x="290" 
d="M145 860l103 -131h-90l-123 131h110z" />
    <glyph glyph-name="glyph499" horiz-adv-x="290" 
d="M131 729h-92l103 131h110z" />
    <glyph glyph-name="glyph500" horiz-adv-x="411" 
d="M106 729h-72l101 131h87zM263 729h-73l104 131h85z" />
    <glyph glyph-name="glyph501" horiz-adv-x="396" 
d="M258 860l106 -131h-85l-81 89l-80 -89h-85l106 131h119z" />
    <glyph glyph-name="glyph502" horiz-adv-x="396" 
d="M199 771l80 89h85l-106 -131h-119l-105 131h84z" />
    <glyph glyph-name="glyph503" horiz-adv-x="392" 
d="M110 865q0 -34 22.5 -54t64.5 -20q40 0 62.5 20t22.5 54h75q0 -63 -42.5 -99.5t-117.5 -36.5q-77 0 -118.5 36.5t-41.5 99.5h73z" />
    <glyph glyph-name="glyph504" horiz-adv-x="347" 
d="M70 742.5q-38 26.5 -38 68.5q0 43 38 70t104 27q64 0 102 -27t38 -70q0 -42 -38 -68.5t-102 -26.5q-66 0 -104 26.5zM230 780q20 12 20 31q0 20 -20 33t-56 13q-37 0 -57.5 -13t-20.5 -33q0 -19 20.5 -31t57.5 -12q36 0 56 12z" />
    <glyph glyph-name="glyph505" horiz-adv-x="440" 
d="M332 855q2 -33 -5 -50t-25 -17q-9 0 -18 4t-17 8.5t-11 6.5l-51 33q-16 11 -33 17t-41 6q-40 0 -64.5 -28t-24.5 -83q0 -15 1 -23h62l-1 18q0 49 31 49q18 0 46 -18l50 -32q19 -13 36.5 -19.5t40.5 -6.5q39 0 63 28t24 84q0 15 -1 23h-62z" />
    <glyph glyph-name="glyph506" horiz-adv-x="338" 
d="M308 739h-278v68h278v-68z" />
    <glyph glyph-name="glyph509" horiz-adv-x="0" 
d="M-103 742.5q-38 26.5 -38 68.5q0 43 38 70t104 27q64 0 102 -27t38 -70q0 -42 -38 -68.5t-102 -26.5q-66 0 -104 26.5zM57 780q20 12 20 31q0 20 -20 33t-56 13q-37 0 -57.5 -13t-20.5 -33q0 -19 20.5 -31t57.5 -12q36 0 56 12z" />
    <glyph glyph-name="glyph510" horiz-adv-x="199" 
d="M131.5 -190q-26.5 -34 -68.5 -51l-22 27q26 15 40 35.5t16 42.5q-21 0 -37 12t-16 34q0 20 14.5 33.5t38.5 13.5q28 0 44.5 -18t16.5 -50q0 -45 -26.5 -79z" />
    <glyph glyph-name="glyph511" horiz-adv-x="202" 
d="M68 691q26 32 69 48l22 -27q-26 -15 -40 -33.5t-15 -37.5q21 0 37 -12t16 -34q0 -20 -14.5 -33.5t-38.5 -13.5q-28 0 -45 17.5t-17 49.5q0 44 26 76z" />
    </font>
</defs>
</svg>
