<?xml version="1.0" standalone="no"?>
<!DOCTYPE svg PUBLIC "-//W3C//DTD SVG 1.1//EN" "http://www.w3.org/Graphics/SVG/1.1/DTD/svg11.dtd" >
<svg xmlns="http://www.w3.org/2000/svg" xmlns:xlink="http://www.w3.org/1999/xlink" version="1.1">
<metadata>
Created by Christoph Koeberlin (http://christoph.koe.berlin)
Copyright supertype 2022, Juergen Huber and Martin Wenzel. All rights reserved.
</metadata>
<defs>
<font id="Font" horiz-adv-x="446" >
  <font-face 
    font-family="Font"
    font-weight="400"
    font-stretch="condensed"
    units-per-em="1000"
    panose-1="2 11 5 6 4 0 0 0 0 4"
    ascent="800"
    descent="-200"
    x-height="497"
    cap-height="670"
    bbox="-148 -238 816 906"
    underline-thickness="66"
    underline-position="-125"
    unicode-range="U+0020-FB02"
  />
<missing-glyph horiz-adv-x="323" 
d="M31 670h261v-670h-261v670zM222 64v543h-121v-543h121z" />
    <glyph glyph-name="arrowright" unicode="&#x2d;&#x3e;" horiz-adv-x="763" 
d="M715 336l-299 -299l-60 59l202 196v2h-531v83h531v2l-201 196l60 59z" />
    <glyph glyph-name="uniE008" unicode="[Hermann]" horiz-adv-x="805" 
d="M720 500q0 -25 -6 -69l-3 -26l-3 -26q-6 -1 -12 19q-1 2 -4.5 11t-7.5 9q-2 0 -7 -6q-3 -5 -12 -16t-10 -19q2 -15 8 -15q5 0 9 10q7 16 14 16q6 0 6 -13q0 -14 -8 -33q-4 -9 -7 -21t-7 -18t-12 -7v1q0 7 -2.5 15t-8.5 8q0 -20 -6.5 -29t-16.5 -8q1 4 1 10q0 15 -7 26.5
t-20 24.5q-10 11 -14.5 17.5t-4.5 14.5q0 10 5 17q-3 14 -26 52q-16 27 -24.5 45t-8.5 33t12 24q9 -18 20.5 -30t22.5 -12t18 11q6 8 11.5 -2t9.5 -29q8 10 8 32q0 5 -2 21q34 -27 34 -59q0 -16 -7 -33q7 0 12 4t13 13.5t12 3.5q8 -10 14 -30v1q3 21 3 46q0 75 -28 103
q-5 4 -18 17.5t-20 16.5t-8 -4q-4 -20 -11 -41.5t-15 -21.5q-19 33 -41.5 51.5t-38 24t-35.5 9.5q-12 3 -12 17q0 20 17 39q9 9 -18.5 17t-64.5 8q-53 0 -80 -17q-7 -5 -1.5 -10.5t20.5 -13.5q3 -2 10 -6.5t7 -7.5t-9 -4q-25 -2 -41 -9.5t-16 -16.5q0 -7 14 -15
q8 -4 -14.5 -12t-44.5 -13q-45 -12 -66.5 -20.5t-41.5 -27.5q15 -2 24 -5t-1 -9q-44 -26 -44 -83q0 -9 2 -25h24q35 0 58.5 -15t54.5 -43q3 -2 1 -4q-8 -15 -8 -34l1 -26q0 -24 -12 -38q-11 -14 -11 -28q0 -12 9.5 -17t21 -7t17.5 -4h3q30 15 48 15q14 0 10 -12
q-1 -2 -25 -13.5t-30 -22.5q-9 -1 -20.5 3.5t-18.5 5.5q-3 1 -9 1q-23 0 -36 -23.5t-13 -48.5q9 20 29 33.5t50 13.5q11 0 17 -1q3 -8 14.5 -12.5t27.5 -4.5q17 0 36 7q8 3 17 3q15 0 30.5 -6.5t26.5 -15.5l1 -2q0 -1 -5.5 -3t-4.5 -4q0 -2 9 -4t16 -4.5t7 -8.5q0 -5 -7 -13
q-2 -2 -11 -11.5t-19.5 -15.5t-20.5 -6q-8 0 -15 4q-5 4 -12 4q-8 0 -17 -9.5t-12 -9.5q-6 -1 -11 1.5t-9 5.5q-10 8 -20 8q-15 0 -33 -16q7 -17 26 -25.5t44 -8.5q28 0 44 -11q-6 -24 -29 -40.5t-53 -23.5q15 -6 36 -6q41 0 76 30q17 14 17 26t-26 26q-11 6 -11 12
q0 8 13 15t27 7q7 0 10 -1q6 -2 15 -2q10 0 13.5 5.5t6.5 17.5q4 23 17 35l20 16q35 24 61 52.5t45 80.5h5q19 0 24 11q6 11 17.5 21.5t16.5 9.5q-2 -6 -16 -38q-10 -20 -25 -20q-5 0 -11 2q4 -39 -25.5 -92t-99.5 -136q-35 -42 -82.5 -71t-92.5 -29q-8 0 -22 2
q-58 13 -98.5 75t-49.5 169q-1 19 -20 55q-12 26 -16 38q-9 29 -17.5 88t-7.5 105q-10 -4 -16 -29q-21 49 -21 96q0 19 4 32q15 59 46.5 102.5t81.5 76.5q46 30 90.5 47.5t103.5 17.5q35 0 70 -7q86 -17 148.5 -61.5t90.5 -144.5q10 -36 10 -72zM381.5 344.5l-0.5 -0.5
q0 -2 3.5 -5t4.5 -4q11 -7 25 -12q-5 -5 -11 -10t-9 -3q-49 25 -71 30q-9 3 -12 8.5t-5 16.5t-5 15q19 24 54 33q12 3 45 3q24 0 44 -2.5t26 -8.5q-4 -1 -9.5 -1.5t-7.5 -1.5q-1 -1 -7 -3t-5 -5q0 -7 -0.5 -9.5t-4.5 -2.5q-17 0 -26 0.5t-14 0.5q-8 0 -12 -5l84 -15
q6 -1 9 -4.5t2 -6.5q-11 1 -17 -1.5t-17 -11.5q-7 -6 -16 -6q-7 0 -14.5 3t-10.5 8l-6 11l-16 -10zM157 370.5q1 -2.5 4 -1.5q9 3 26 3t25 -1q3 -1 3.5 1.5t-1.5 4.5q-10 6 -25 6q-17 0 -31 -8q-2 -2 -1 -4.5zM145 309q0 -14 4 -33.5t9 -30.5q8 -16 19 -31t20 -23
q15 12 23 26q8 13 18.5 52.5t12.5 70.5q0 4 -4 4q-12 0 -22 8q-2 3 -4 1q-17 -14 -28 -14q-10 0 -23 13q-1 1 -4 1q-6 -1 -6 -9q0 -5 1.5 -11t0.5 -8.5t-7 0.5q-10 4 -10 -16z" />
    <glyph glyph-name="uniE018" unicode="[Friedrich]" horiz-adv-x="805" 
d="M730 319q0 -29 -6.5 -59.5t-12.5 -38.5q-14 -18 -25 -18t-19 12q5 8 20 10q11 3 16 6.5t6 12.5q-4 3 -10 3q-9 0 -19 -5t-16 -13q-19 -26 -21 -53q-4 -36 -23.5 -91t-36.5 -81q-33 -48 -73.5 -71t-84.5 -23q-53 0 -105 30t-93.5 81.5t-63.5 113.5q-5 11 -9.5 16t-15.5 5
q-24 2 -41 55t-17 101q0 21 5 33q10 -10 18.5 -16.5t17.5 -6.5q8 0 15 7q-21 8 -33 25q2 31 -3 76q-1 10 -2 24t-1 33q0 5 0.5 20.5t-5 25.5t-17.5 14q4 29 18.5 62t37.5 48q7 4 27 6t36 7q9 3 13 3q9 0 5 -9t-16.5 -20.5t-25.5 -17.5q15 -3 26 4t27 22q21 21 38 28
q-17 10 -51 10q-25 0 -59 -7q18 27 53 50.5t76 25.5q40 1 64 -4.5t54 -23.5l-22 -9q27 -2 42.5 -7t36 -22.5t58.5 -58.5q-65 -30 -105 -30q-25 0 -40 9q-32 17 -56 17q-26 0 -38 -18q-20 -26 -45.5 -39t-42.5 -13q-8 0 -10 2q25 -25 64 -21q1 -7 -14 -24.5t-32 -22.5
q5 -5 20 -5q9 0 17 2q-8 -25 -25 -41q7 0 21 -2q-11 -16 -11 -33q0 -12 6 -24q1 -1 19 4.5t36 5.5q11 0 16 -1q6 -1 18 -1q36 0 74 23q16 -17 40 -25t47 -8q10 0 22 2q16 3 42 3q48 0 70 -8l-1 -14q0 -6 2 -16q6 -9 8 -23q18 -5 20 -2q15 15 28 40q-19 23 -19 47q0 20 15 47
q6 -7 20 -17.5t23 -15.5q-2 12 -18 40q-2 5 -8.5 17.5t-8.5 20.5q-1 25 -6.5 46.5t-14.5 29.5l-32 8q-32 8 -46 16t-31 30q-44 58 -103.5 91t-115.5 41q32 13 79 13q59 0 121 -25q104 -42 156.5 -119t52.5 -175q0 -43 -11 -93q-12 -13 -16.5 -19.5t-4.5 -14.5q0 -3 2 -11
q22 27 27 34q6 -16 6 -43zM470 323q0 -18 20 -31t46 -13q28 0 48 15t20 35q0 8 -4 18q-11 17 -39 23q31 -21 31 -39q0 -8 -4 -13q-6 0 -8.5 6t-5.5 8.5t-13 2.5q-9 -24 -27 -24q-8 0 -18.5 4t-13.5 5q-22 10 -31 8zM285 89q6 7 11.5 10.5t10.5 5.5l16 -20q0 18 5.5 39.5
t26.5 32.5q-17 16 -17 33q0 10 6.5 21t7.5 13q16 24 17 41q-1 6 -5 8t-13.5 2.5t-13.5 3.5q-19 -11 -44 -11q-32 0 -55 18t-23 43q0 12 4 21q-9 7 -17 7t-8 -9q3 -6 0 -18t-3 -20q-4 -113 94 -221zM667 299q0 19 10 34q-1 6 -3.5 11t-4.5 2q-6 -8 -24 -36q-1 -3 -6 -3
t-14.5 2.5t-14.5 0.5q-8 -18 -28 -30t-46 -12q-28 0 -50 14.5t-27 35.5q-23 28 -49 34q0 -18 -4 -54l-5 -80q-1 -18 1.5 -25t10.5 -14q9 -9 15 -18q6 4 15 12t15 8q10 0 20 -13q-48 -1 -48 -43l1 -19q-39 7 -32 24l-10 5q-4 -3 -17.5 -10t-11.5 -12l72 -23q5 5 37 5t50 -4
q6 3 6 14q0 8 -2.5 17t-2.5 10q42 -13 42 -59q0 -11 -2 -19q-48 24 -94 24q-34 0 -72 -11q2 -9 48 -19q21 -5 34 -10q-16 -21 -41 -21q-17 0 -35.5 7.5t-21.5 8.5q-19 8 -30 11q-9 3 -20 3q-4 0 -17.5 -0.5t-20.5 5.5t-8 20q-11 -14 -11 -25q0 -12 11 -21t30 -13
q0 -9 7 -23.5t27 -25.5q24 -12 43 -12q12 0 23 5t14 5q7 0 15 -14q46 -1 78 21t63 65q-5 4 -5 11t5.5 17.5t12.5 22.5q16 28 25 49t12 47q3 20 8.5 33.5t15.5 28.5q12 18 15 33q-4 10 -4 23zM225.5 332q0.5 -2 0.5 -3q0 -20 19.5 -35t47.5 -15q24 0 42.5 11t23.5 28
q-11 11 -20 14t-23 4q-11 -15 -27 -15q-11 0 -21.5 6.5t-13.5 13.5q-7 -4 -7 -15q0 -9 4 -19q-10 4 -15 12t-7 24l-3 -7q-1 -2 -0.5 -4z" />
    <glyph glyph-name=".notdef" horiz-adv-x="323" 
d="M31 670h261v-670h-261v670zM222 64v543h-121v-543h121z" />
    <glyph glyph-name="space" unicode=" " horiz-adv-x="193" 
 />
    <glyph glyph-name="A" unicode="A" horiz-adv-x="518" 
d="M500 0h-95l-45 177h-205l-44 -177h-92l182 670h116zM255 577l-81 -323h166l-82 323h-3z" />
    <glyph glyph-name="Aacute" unicode="&#xc1;" horiz-adv-x="518" 
d="M500 0h-95l-45 177h-205l-44 -177h-92l182 670h116zM255 577l-81 -323h166l-82 323h-3zM278 729h-85l83 131h102z" />
    <glyph glyph-name="Abreve" unicode="&#x102;" horiz-adv-x="518" 
d="M500 0h-95l-45 177h-205l-44 -177h-92l182 670h116zM255 577l-81 -323h166l-82 323h-3zM193 864q0 -33 17 -53t48 -20q30 0 46.5 20t16.5 53h71q0 -62 -35.5 -98.5t-98.5 -36.5q-65 0 -100 36t-35 99h70z" />
    <glyph glyph-name="Acircumflex" unicode="&#xc2;" horiz-adv-x="518" 
d="M500 0h-95l-45 177h-205l-44 -177h-92l182 670h116zM255 577l-81 -323h166l-82 323h-3zM312 860l84 -131h-78l-60 84l-60 -84h-78l84 131h108z" />
    <glyph glyph-name="Adieresis" unicode="&#xc4;" horiz-adv-x="518" 
d="M500 0h-95l-45 177h-205l-44 -177h-92l182 670h116zM255 577l-81 -323h166l-82 323h-3zM137.5 747.5q-14.5 14.5 -14.5 36.5q0 21 14.5 35t36.5 14q21 0 35.5 -14.5t14.5 -34.5q0 -22 -14.5 -36.5t-35.5 -14.5q-22 0 -36.5 14.5zM305.5 747.5q-14.5 14.5 -14.5 36.5
q0 21 14.5 35t36.5 14t36 -14t14 -35q0 -22 -14 -36.5t-36 -14.5t-36.5 14.5z" />
    <glyph glyph-name="Agrave" unicode="&#xc0;" horiz-adv-x="518" 
d="M500 0h-95l-45 177h-205l-44 -177h-92l182 670h116zM255 577l-81 -323h166l-82 323h-3zM239 860l82 -131h-84l-100 131h102z" />
    <glyph glyph-name="Amacron" unicode="&#x100;" horiz-adv-x="518" 
d="M500 0h-95l-45 177h-205l-44 -177h-92l182 670h116zM255 577l-81 -323h166l-82 323h-3zM369 740h-224v64h224v-64z" />
    <glyph glyph-name="Aogonek" unicode="&#x104;" horiz-adv-x="518" 
d="M500 0h-95l-45 177h-205l-44 -177h-92l182 670h116zM255 577l-81 -323h166l-82 323h-3zM485 0q-34 0 -59.5 -24.5t-25.5 -62.5q0 -22 9.5 -34t26.5 -12q16 0 25.5 7.5t19.5 20.5l31 -41q-30 -51 -84 -51q-40 0 -65 26.5t-25 72.5q0 45 26.5 78.5t68.5 43.5z" />
    <glyph glyph-name="Aring" unicode="&#xc5;" horiz-adv-x="518" 
d="M500 0h-95l-45 177h-205l-44 -177h-92l182 670h116zM255 577l-81 -323h166l-82 323h-3zM181.5 742.5q-29.5 25.5 -29.5 67.5q0 43 29.5 69.5t76.5 26.5t76 -26.5t29 -69.5q0 -42 -29 -67.5t-76 -25.5t-76.5 25.5zM292.5 778.5q12.5 11.5 12.5 31.5q0 22 -12.5 34.5
t-34.5 12.5t-35 -13t-13 -34q0 -19 13 -31t35 -12t34.5 11.5z" />
    <glyph glyph-name="Atilde" unicode="&#xc3;" horiz-adv-x="518" 
d="M500 0h-95l-45 177h-205l-44 -177h-92l182 670h116zM255 577l-81 -323h166l-82 323h-3zM347 855q2 -36 -3 -52.5t-19 -16.5q-7 0 -13.5 4t-12 9t-11.5 9l-37 30q-30 24 -62 24q-40 0 -61.5 -32t-16.5 -101h58q-2 36 3 52.5t19 16.5q8 0 15 -4.5t22 -17.5l36 -30
q27 -24 63 -24q40 0 61.5 32t16.5 101h-58z" />
    <glyph glyph-name="AE" unicode="&#xc6;" horiz-adv-x="709" 
d="M418 302l57 -223h186v-79h-256l-45 176h-205l-44 -176h-92l182 670h454v-77h-313l56 -216h246v-75h-226zM255 577l-81 -323h166l-82 323h-3z" />
    <glyph glyph-name="AEacute" unicode="&#x1fc;" horiz-adv-x="709" 
d="M418 302l57 -223h186v-79h-256l-45 176h-205l-44 -176h-92l182 670h454v-77h-313l56 -216h246v-75h-226zM255 577l-81 -323h166l-82 323h-3zM430 729h-85l83 131h102z" />
    <glyph glyph-name="B" unicode="B" horiz-adv-x="506" 
d="M435.5 286.5q28.5 -40.5 28.5 -97.5q0 -88 -57.5 -138.5t-152.5 -50.5h-180v670h178q86 0 136.5 -45.5t50.5 -128.5q0 -52 -22.5 -90.5t-62.5 -59.5q53 -19 81.5 -59.5zM163 593v-217h84q48 0 75.5 27.5t27.5 80.5q0 109 -103 109h-84zM250 79q59 0 91 28.5t32 84.5
q0 55 -32 83t-91 28h-87v-224h87z" />
    <glyph glyph-name="C" unicode="C" horiz-adv-x="525" 
d="M179.5 138q41.5 -68 117.5 -68q49 0 78 28.5t46 95.5l78 -27q-26 -92 -77 -135t-134 -43q-114 0 -177.5 88.5t-63.5 255.5q0 109 29 187.5t82.5 119.5t125.5 41q79 0 127.5 -42t74.5 -125l-79 -28q-19 59 -46 87.5t-75 28.5q-72 0 -110 -66t-38 -199q0 -131 41.5 -199z
" />
    <glyph glyph-name="Cacute" unicode="&#x106;" horiz-adv-x="525" 
d="M179.5 138q41.5 -68 117.5 -68q49 0 78 28.5t46 95.5l78 -27q-26 -92 -77 -135t-134 -43q-114 0 -177.5 88.5t-63.5 255.5q0 109 29 187.5t82.5 119.5t125.5 41q79 0 127.5 -42t74.5 -125l-79 -28q-19 59 -46 87.5t-75 28.5q-72 0 -110 -66t-38 -199q0 -131 41.5 -199z
M311 744h-85l83 131h102z" />
    <glyph glyph-name="Ccaron" unicode="&#x10c;" horiz-adv-x="525" 
d="M179.5 138q41.5 -68 117.5 -68q49 0 78 28.5t46 95.5l78 -27q-26 -92 -77 -135t-134 -43q-114 0 -177.5 88.5t-63.5 255.5q0 109 29 187.5t82.5 119.5t125.5 41q79 0 127.5 -42t74.5 -125l-79 -28q-19 59 -46 87.5t-75 28.5q-72 0 -110 -66t-38 -199q0 -131 41.5 -199z
M291 792l60 83h78l-84 -131h-108l-83 131h77z" />
    <glyph glyph-name="Ccedilla" unicode="&#xc7;" horiz-adv-x="525" 
d="M179.5 138q41.5 -68 117.5 -68q49 0 78 28.5t46 95.5l78 -27q-26 -92 -77 -135t-134 -43q-114 0 -177.5 88.5t-63.5 255.5q0 109 29 187.5t82.5 119.5t125.5 41q79 0 127.5 -42t74.5 -125l-79 -28q-19 59 -46 87.5t-75 28.5q-72 0 -110 -66t-38 -199q0 -131 41.5 -199z
M360 -70q23 -20 23 -57q0 -41 -28 -65t-72 -24q-47 0 -79 26l18 47q26 -22 56 -22q22 0 34.5 9t12.5 27q0 17 -12.5 25t-31.5 8q-26 0 -50 -11l-12 28l57 105h56l-43 -76h13q35 0 58 -20z" />
    <glyph glyph-name="Ccircumflex" unicode="&#x108;" horiz-adv-x="525" 
d="M179.5 138q41.5 -68 117.5 -68q49 0 78 28.5t46 95.5l78 -27q-26 -92 -77 -135t-134 -43q-114 0 -177.5 88.5t-63.5 255.5q0 109 29 187.5t82.5 119.5t125.5 41q79 0 127.5 -42t74.5 -125l-79 -28q-19 59 -46 87.5t-75 28.5q-72 0 -110 -66t-38 -199q0 -131 41.5 -199z
M345 875l84 -131h-78l-60 84l-60 -84h-78l84 131h108z" />
    <glyph glyph-name="Cdotaccent" unicode="&#x10a;" horiz-adv-x="525" 
d="M179.5 138q41.5 -68 117.5 -68q49 0 78 28.5t46 95.5l78 -27q-26 -92 -77 -135t-134 -43q-114 0 -177.5 88.5t-63.5 255.5q0 109 29 187.5t82.5 119.5t125.5 41q79 0 127.5 -42t74.5 -125l-79 -28q-19 59 -46 87.5t-75 28.5q-72 0 -110 -66t-38 -199q0 -131 41.5 -199z
M250.5 761.5q-16.5 16.5 -16.5 39.5q0 24 16 40t40 16t40 -16t16 -40q0 -23 -16.5 -39.5t-39.5 -16.5t-39.5 16.5z" />
    <glyph glyph-name="D" unicode="D" horiz-adv-x="559" 
d="M478 155q-36 -76 -102 -115.5t-153 -39.5h-149v670h149q87 0 153 -39t102 -114.5t36 -180.5t-36 -181zM368 526.5q-55 66.5 -151 66.5h-54v-514h54q96 0 151 66.5t55 190.5t-55 190.5z" />
    <glyph glyph-name="Eth" unicode="&#xd0;" horiz-adv-x="571" 
d="M235 670q87 0 153 -39t102 -114.5t36 -180.5t-36 -181t-102 -115.5t-153 -39.5h-149v302h-63v75h63v293h149zM229 79q96 0 151 66.5t55 190.5t-55 190.5t-151 66.5h-54v-216h118v-75h-118v-223h54z" />
    <glyph glyph-name="Dcaron" unicode="&#x10e;" horiz-adv-x="559" 
d="M478 155q-36 -76 -102 -115.5t-153 -39.5h-149v670h149q87 0 153 -39t102 -114.5t36 -180.5t-36 -181zM368 526.5q-55 66.5 -151 66.5h-54v-514h54q96 0 151 66.5t55 190.5t-55 190.5zM256 777l60 83h78l-84 -131h-108l-83 131h77z" />
    <glyph glyph-name="Dcroat" unicode="&#x110;" horiz-adv-x="571" 
d="M235 670q87 0 153 -39t102 -114.5t36 -180.5t-36 -181t-102 -115.5t-153 -39.5h-149v302h-63v75h63v293h149zM229 79q96 0 151 66.5t55 190.5t-55 190.5t-151 66.5h-54v-216h118v-75h-118v-223h54z" />
    <glyph glyph-name="E" unicode="E" horiz-adv-x="467" 
d="M163 302v-223h256v-79h-345v670h340v-77h-251v-216h239v-75h-239z" />
    <glyph glyph-name="Eacute" unicode="&#xc9;" horiz-adv-x="467" 
d="M163 302v-223h256v-79h-345v670h340v-77h-251v-216h239v-75h-239zM263 729h-85l83 131h102z" />
    <glyph glyph-name="Ebreve" unicode="&#x114;" horiz-adv-x="467" 
d="M163 302v-223h256v-79h-345v670h340v-77h-251v-216h239v-75h-239zM178 864q0 -33 17 -53t48 -20q30 0 46.5 20t16.5 53h71q0 -62 -35.5 -98.5t-98.5 -36.5q-65 0 -100 36t-35 99h70z" />
    <glyph glyph-name="Ecaron" unicode="&#x11a;" horiz-adv-x="467" 
d="M163 302v-223h256v-79h-345v670h340v-77h-251v-216h239v-75h-239zM243 777l60 83h78l-84 -131h-108l-83 131h77z" />
    <glyph glyph-name="Ecircumflex" unicode="&#xca;" horiz-adv-x="467" 
d="M163 302v-223h256v-79h-345v670h340v-77h-251v-216h239v-75h-239zM297 860l84 -131h-78l-60 84l-60 -84h-78l84 131h108z" />
    <glyph glyph-name="Edieresis" unicode="&#xcb;" horiz-adv-x="467" 
d="M163 302v-223h256v-79h-345v670h340v-77h-251v-216h239v-75h-239zM122.5 747.5q-14.5 14.5 -14.5 36.5q0 21 14.5 35t36.5 14q21 0 35.5 -14.5t14.5 -34.5q0 -22 -14.5 -36.5t-35.5 -14.5q-22 0 -36.5 14.5zM290.5 747.5q-14.5 14.5 -14.5 36.5q0 21 14.5 35t36.5 14
t36 -14t14 -35q0 -22 -14 -36.5t-36 -14.5t-36.5 14.5z" />
    <glyph glyph-name="Edotaccent" unicode="&#x116;" horiz-adv-x="467" 
d="M163 302v-223h256v-79h-345v670h340v-77h-251v-216h239v-75h-239zM202.5 746.5q-16.5 16.5 -16.5 39.5q0 24 16 40t40 16t40 -16t16 -40q0 -23 -16.5 -39.5t-39.5 -16.5t-39.5 16.5z" />
    <glyph glyph-name="Egrave" unicode="&#xc8;" horiz-adv-x="467" 
d="M163 302v-223h256v-79h-345v670h340v-77h-251v-216h239v-75h-239zM224 860l82 -131h-84l-100 131h102z" />
    <glyph glyph-name="Emacron" unicode="&#x112;" horiz-adv-x="467" 
d="M163 302v-223h256v-79h-345v670h340v-77h-251v-216h239v-75h-239zM354 740h-224v64h224v-64z" />
    <glyph glyph-name="Eogonek" unicode="&#x118;" horiz-adv-x="467" 
d="M163 302v-223h256v-79h-345v670h340v-77h-251v-216h239v-75h-239zM383 0q-34 0 -59.5 -24.5t-25.5 -62.5q0 -22 9.5 -34t26.5 -12q16 0 25.5 7.5t19.5 20.5l31 -41q-30 -51 -84 -51q-40 0 -65 26.5t-25 72.5q0 45 26.5 78.5t68.5 43.5z" />
    <glyph glyph-name="F" unicode="F" horiz-adv-x="448" 
d="M410 670v-77h-247v-235h240v-75h-240v-283h-89v670h336z" />
    <glyph glyph-name="G" unicode="G" horiz-adv-x="560" 
d="M516 304q0 -154 -59.5 -234.5t-168.5 -80.5q-114 0 -178 89.5t-64 256.5q0 108 29.5 186t84.5 119t130 41q152 0 203 -170l-80 -28q-19 61 -47 90t-76 29q-75 0 -114 -67t-39 -200q0 -129 40 -197t115 -68q65 0 100.5 53t37.5 155h-149v77h233q2 -28 2 -51z" />
    <glyph glyph-name="Gbreve" unicode="&#x11e;" horiz-adv-x="560" 
d="M516 304q0 -154 -59.5 -234.5t-168.5 -80.5q-114 0 -178 89.5t-64 256.5q0 108 29.5 186t84.5 119t130 41q152 0 203 -170l-80 -28q-19 61 -47 90t-76 29q-75 0 -114 -67t-39 -200q0 -129 40 -197t115 -68q65 0 100.5 53t37.5 155h-149v77h233q2 -28 2 -51zM229 879
q0 -33 17 -53t48 -20q30 0 46.5 20t16.5 53h71q0 -62 -35.5 -98.5t-98.5 -36.5q-65 0 -100 36t-35 99h70z" />
    <glyph glyph-name="Gcircumflex" unicode="&#x11c;" horiz-adv-x="560" 
d="M516 304q0 -154 -59.5 -234.5t-168.5 -80.5q-114 0 -178 89.5t-64 256.5q0 108 29.5 186t84.5 119t130 41q152 0 203 -170l-80 -28q-19 61 -47 90t-76 29q-75 0 -114 -67t-39 -200q0 -129 40 -197t115 -68q65 0 100.5 53t37.5 155h-149v77h233q2 -28 2 -51zM348 875
l84 -131h-78l-60 84l-60 -84h-78l84 131h108z" />
    <glyph glyph-name="uni0122" unicode="&#x122;" horiz-adv-x="560" 
d="M516 304q0 -154 -59.5 -234.5t-168.5 -80.5q-114 0 -178 89.5t-64 256.5q0 108 29.5 186t84.5 119t130 41q152 0 203 -170l-80 -28q-19 61 -47 90t-76 29q-75 0 -114 -67t-39 -200q0 -129 40 -197t115 -68q65 0 100.5 53t37.5 155h-149v77h233q2 -28 2 -51zM336.5 -188.5
q-23.5 -33.5 -59.5 -49.5l-21 26q22 15 34 35.5t14 42.5q-19 0 -34.5 11.5t-15.5 33.5q0 21 13.5 34t36.5 13q27 0 41.5 -17.5t14.5 -50.5q0 -45 -23.5 -78.5z" />
    <glyph glyph-name="Gdotaccent" unicode="&#x120;" horiz-adv-x="560" 
d="M516 304q0 -154 -59.5 -234.5t-168.5 -80.5q-114 0 -178 89.5t-64 256.5q0 108 29.5 186t84.5 119t130 41q152 0 203 -170l-80 -28q-19 61 -47 90t-76 29q-75 0 -114 -67t-39 -200q0 -129 40 -197t115 -68q65 0 100.5 53t37.5 155h-149v77h233q2 -28 2 -51zM253.5 761.5
q-16.5 16.5 -16.5 39.5q0 24 16 40t40 16t40 -16t16 -40q0 -23 -16.5 -39.5t-39.5 -16.5t-39.5 16.5z" />
    <glyph glyph-name="H" unicode="H" horiz-adv-x="572" 
d="M409 378v292h89v-670h-89v301h-246v-301h-89v670h89v-292h246z" />
    <glyph glyph-name="Hbar" unicode="&#x126;" horiz-adv-x="586" 
d="M505 559h54v-59h-54v-500h-89v301h-246v-301h-89v500h-54v59h54v111h89v-111h246v111h89v-111zM170 378h246v122h-246v-122z" />
    <glyph glyph-name="Hcircumflex" unicode="&#x124;" horiz-adv-x="572" 
d="M409 378v292h89v-670h-89v301h-246v-301h-89v670h89v-292h246zM340 860l84 -131h-78l-60 84l-60 -84h-78l84 131h108z" />
    <glyph glyph-name="I" unicode="I" horiz-adv-x="237" 
d="M163 0h-89v670h89v-670z" />
    <glyph glyph-name="IJ" unicode="&#x132;" horiz-adv-x="668" 
d="M163 0h-89v670h89v-670zM247 97l70 46q20 -37 40.5 -55t58.5 -18q45 0 68.5 33t23.5 93v474h89v-484q0 -97 -50 -147t-133 -50q-115 0 -167 108z" />
    <glyph glyph-name="Iacute" unicode="&#xcd;" horiz-adv-x="237" 
d="M163 0h-89v670h89v-670zM139 729h-85l83 131h102z" />
    <glyph glyph-name="Ibreve" unicode="&#x12c;" horiz-adv-x="237" 
d="M163 0h-89v670h89v-670zM54 864q0 -33 17 -53t48 -20q30 0 46.5 20t16.5 53h71q0 -62 -35.5 -98.5t-98.5 -36.5q-65 0 -100 36t-35 99h70z" />
    <glyph glyph-name="Icircumflex" unicode="&#xce;" horiz-adv-x="237" 
d="M163 0h-89v670h89v-670zM173 860l84 -131h-78l-60 84l-60 -84h-78l84 131h108z" />
    <glyph glyph-name="Idieresis" unicode="&#xcf;" horiz-adv-x="237" 
d="M163 0h-89v670h89v-670zM-1.5 747.5q-14.5 14.5 -14.5 36.5q0 21 14.5 35t36.5 14q21 0 35.5 -14.5t14.5 -34.5q0 -22 -14.5 -36.5t-35.5 -14.5q-22 0 -36.5 14.5zM166.5 747.5q-14.5 14.5 -14.5 36.5q0 21 14.5 35t36.5 14t36 -14t14 -35q0 -22 -14 -36.5t-36 -14.5
t-36.5 14.5z" />
    <glyph glyph-name="Idotaccent" unicode="&#x130;" horiz-adv-x="237" 
d="M163 0h-89v670h89v-670zM78.5 746.5q-16.5 16.5 -16.5 39.5q0 24 16 40t40 16t40 -16t16 -40q0 -23 -16.5 -39.5t-39.5 -16.5t-39.5 16.5z" />
    <glyph glyph-name="Igrave" unicode="&#xcc;" horiz-adv-x="237" 
d="M163 0h-89v670h89v-670zM100 860l82 -131h-84l-100 131h102z" />
    <glyph glyph-name="Imacron" unicode="&#x12a;" horiz-adv-x="237" 
d="M163 0h-89v670h89v-670zM230 740h-224v64h224v-64z" />
    <glyph glyph-name="Iogonek" unicode="&#x12e;" horiz-adv-x="239" 
d="M165 0h-89v670h89v-670zM153 0q-34 0 -59.5 -24.5t-25.5 -62.5q0 -22 9.5 -34t26.5 -12q16 0 25.5 7.5t19.5 20.5l31 -41q-30 -51 -84 -51q-40 0 -65 26.5t-25 72.5q0 45 26.5 78.5t68.5 43.5z" />
    <glyph glyph-name="Itilde" unicode="&#x128;" horiz-adv-x="237" 
d="M163 0h-89v670h89v-670zM208 855q2 -36 -3 -52.5t-19 -16.5q-7 0 -13.5 4t-12 9t-11.5 9l-37 30q-30 24 -62 24q-40 0 -61.5 -32t-16.5 -101h58q-2 36 3 52.5t19 16.5q8 0 15 -4.5t22 -17.5l36 -30q27 -24 63 -24q40 0 61.5 32t16.5 101h-58z" />
    <glyph glyph-name="J" unicode="J" horiz-adv-x="431" 
d="M10 97l70 46q20 -37 40.5 -55t58.5 -18q45 0 68.5 33t23.5 93v474h89v-484q0 -97 -50 -147t-133 -50q-115 0 -167 108z" />
    <glyph glyph-name="Jcircumflex" unicode="&#x134;" horiz-adv-x="431" 
d="M10 97l70 46q20 -37 40.5 -55t58.5 -18q45 0 68.5 33t23.5 93v474h89v-484q0 -97 -50 -147t-133 -50q-115 0 -167 108zM369 860l84 -131h-78l-60 84l-60 -84h-78l84 131h108z" />
    <glyph glyph-name="K" unicode="K" horiz-adv-x="495" 
d="M488 0h-103l-171 315l-51 -70v-245h-89v670h89v-302l210 302h102l-202 -284z" />
    <glyph glyph-name="uni0136" unicode="&#x136;" horiz-adv-x="495" 
d="M488 0h-103l-171 315l-51 -70v-245h-89v670h89v-302l210 302h102l-202 -284zM304.5 -188.5q-23.5 -33.5 -59.5 -49.5l-21 26q22 15 34 35.5t14 42.5q-19 0 -34.5 11.5t-15.5 33.5q0 21 13.5 34t36.5 13q27 0 41.5 -17.5t14.5 -50.5q0 -45 -23.5 -78.5z" />
    <glyph glyph-name="L" unicode="L" horiz-adv-x="430" 
d="M163 670v-591h250v-79h-339v670h89z" />
    <glyph glyph-name="Lacute" unicode="&#x139;" horiz-adv-x="430" 
d="M163 670v-591h250v-79h-339v670h89zM133 729h-85l83 131h102z" />
    <glyph glyph-name="Lcaron" unicode="&#x13d;" horiz-adv-x="437" 
d="M163 670v-591h250v-79h-339v670h89zM321 670h80l-50 -184h-55z" />
    <glyph glyph-name="uni013B" unicode="&#x13b;" horiz-adv-x="430" 
d="M163 670v-591h250v-79h-339v670h89zM276.5 -188.5q-23.5 -33.5 -59.5 -49.5l-21 26q22 15 34 35.5t14 42.5q-19 0 -34.5 11.5t-15.5 33.5q0 21 13.5 34t36.5 13q27 0 41.5 -17.5t14.5 -50.5q0 -45 -23.5 -78.5z" />
    <glyph glyph-name="Ldot" unicode="&#x13f;" horiz-adv-x="437" 
d="M163 670v-591h250v-79h-339v670h89zM289.5 326q-16.5 17 -16.5 42q0 26 16 42.5t41 16.5t41 -16.5t16 -42.5q0 -25 -16.5 -42t-40.5 -17t-40.5 17z" />
    <glyph glyph-name="Lslash" unicode="&#x141;" horiz-adv-x="461" 
d="M192 300v-221h250v-79h-339v255l-59 -30l-25 53l84 43v349h89v-304l168 85l25 -53z" />
    <glyph glyph-name="M" unicode="M" horiz-adv-x="660" 
d="M570 670l30 -670h-84l-19 538h-3l-117 -446h-96l-116 446h-3l-20 -538h-83l32 670h117l121 -464h3l124 464h114z" />
    <glyph glyph-name="N" unicode="N" horiz-adv-x="573" 
d="M417 161v509h82v-670h-101l-239 519h-2v-519h-83v670h105l235 -509h3z" />
    <glyph glyph-name="Nacute" unicode="&#x143;" horiz-adv-x="573" 
d="M417 161v509h82v-670h-101l-239 519h-2v-519h-83v670h105l235 -509h3zM308 729h-85l83 131h102z" />
    <glyph glyph-name="Ncaron" unicode="&#x147;" horiz-adv-x="573" 
d="M417 161v509h82v-670h-101l-239 519h-2v-519h-83v670h105l235 -509h3zM287 777l60 83h78l-84 -131h-108l-83 131h77z" />
    <glyph glyph-name="uni0145" unicode="&#x145;" horiz-adv-x="573" 
d="M417 161v509h82v-670h-101l-239 519h-2v-519h-83v670h105l235 -509h3zM320.5 -188.5q-23.5 -33.5 -59.5 -49.5l-21 26q22 15 34 35.5t14 42.5q-19 0 -34.5 11.5t-15.5 33.5q0 21 13.5 34t36.5 13q27 0 41.5 -17.5t14.5 -50.5q0 -45 -23.5 -78.5z" />
    <glyph glyph-name="Eng" unicode="&#x14a;" horiz-adv-x="573" 
d="M499 670v-730q0 -64 -35.5 -100t-94.5 -36q-41 0 -73 18l19 73q20 -15 45 -15q27 0 42 16.5t15 49.5v47l-258 526h-2v-519h-83v670h105l235 -486h3v486h82z" />
    <glyph glyph-name="Ntilde" unicode="&#xd1;" horiz-adv-x="573" 
d="M417 161v509h82v-670h-101l-239 519h-2v-519h-83v670h105l235 -509h3zM376 855q2 -36 -3 -52.5t-19 -16.5q-7 0 -13.5 4t-12 9t-11.5 9l-37 30q-30 24 -62 24q-40 0 -61.5 -32t-16.5 -101h58q-2 36 3 52.5t19 16.5q8 0 15 -4.5t22 -17.5l36 -30q27 -24 63 -24
q40 0 61.5 32t16.5 101h-58z" />
    <glyph glyph-name="O" unicode="O" horiz-adv-x="564" 
d="M108.5 591.5q61.5 89.5 173.5 89.5t173.5 -89.5t61.5 -255.5t-61.5 -256.5t-173.5 -90.5t-173.5 90.5t-61.5 256.5t61.5 255.5zM389 534.5q-37 67.5 -107 67.5t-107 -67.5t-37 -198.5q0 -133 36.5 -199.5t107.5 -66.5t107.5 66.5t36.5 199.5q0 131 -37 198.5z" />
    <glyph glyph-name="Oacute" unicode="&#xd3;" horiz-adv-x="564" 
d="M108.5 591.5q61.5 89.5 173.5 89.5t173.5 -89.5t61.5 -255.5t-61.5 -256.5t-173.5 -90.5t-173.5 90.5t-61.5 256.5t61.5 255.5zM389 534.5q-37 67.5 -107 67.5t-107 -67.5t-37 -198.5q0 -133 36.5 -199.5t107.5 -66.5t107.5 66.5t36.5 199.5q0 131 -37 198.5zM303 744
h-85l83 131h102z" />
    <glyph glyph-name="Obreve" unicode="&#x14e;" horiz-adv-x="564" 
d="M108.5 591.5q61.5 89.5 173.5 89.5t173.5 -89.5t61.5 -255.5t-61.5 -256.5t-173.5 -90.5t-173.5 90.5t-61.5 256.5t61.5 255.5zM389 534.5q-37 67.5 -107 67.5t-107 -67.5t-37 -198.5q0 -133 36.5 -199.5t107.5 -66.5t107.5 66.5t36.5 199.5q0 131 -37 198.5zM217 879
q0 -33 17 -53t48 -20q30 0 46.5 20t16.5 53h71q0 -62 -35.5 -98.5t-98.5 -36.5q-65 0 -100 36t-35 99h70z" />
    <glyph glyph-name="Ocircumflex" unicode="&#xd4;" horiz-adv-x="564" 
d="M108.5 591.5q61.5 89.5 173.5 89.5t173.5 -89.5t61.5 -255.5t-61.5 -256.5t-173.5 -90.5t-173.5 90.5t-61.5 256.5t61.5 255.5zM389 534.5q-37 67.5 -107 67.5t-107 -67.5t-37 -198.5q0 -133 36.5 -199.5t107.5 -66.5t107.5 66.5t36.5 199.5q0 131 -37 198.5zM336 875
l84 -131h-78l-60 84l-60 -84h-78l84 131h108z" />
    <glyph glyph-name="Odieresis" unicode="&#xd6;" horiz-adv-x="564" 
d="M108.5 591.5q61.5 89.5 173.5 89.5t173.5 -89.5t61.5 -255.5t-61.5 -256.5t-173.5 -90.5t-173.5 90.5t-61.5 256.5t61.5 255.5zM389 534.5q-37 67.5 -107 67.5t-107 -67.5t-37 -198.5q0 -133 36.5 -199.5t107.5 -66.5t107.5 66.5t36.5 199.5q0 131 -37 198.5z
M162.5 762.5q-14.5 14.5 -14.5 36.5q0 21 14.5 35t36.5 14q21 0 35.5 -14.5t14.5 -34.5q0 -22 -14.5 -36.5t-35.5 -14.5q-22 0 -36.5 14.5zM330.5 762.5q-14.5 14.5 -14.5 36.5q0 21 14.5 35t36.5 14t36 -14t14 -35q0 -22 -14 -36.5t-36 -14.5t-36.5 14.5z" />
    <glyph glyph-name="Ograve" unicode="&#xd2;" horiz-adv-x="564" 
d="M108.5 591.5q61.5 89.5 173.5 89.5t173.5 -89.5t61.5 -255.5t-61.5 -256.5t-173.5 -90.5t-173.5 90.5t-61.5 256.5t61.5 255.5zM389 534.5q-37 67.5 -107 67.5t-107 -67.5t-37 -198.5q0 -133 36.5 -199.5t107.5 -66.5t107.5 66.5t36.5 199.5q0 131 -37 198.5zM264 875
l82 -131h-84l-100 131h102z" />
    <glyph glyph-name="Ohungarumlaut" unicode="&#x150;" horiz-adv-x="564" 
d="M108.5 591.5q61.5 89.5 173.5 89.5t173.5 -89.5t61.5 -255.5t-61.5 -256.5t-173.5 -90.5t-173.5 90.5t-61.5 256.5t61.5 255.5zM389 534.5q-37 67.5 -107 67.5t-107 -67.5t-37 -198.5q0 -133 36.5 -199.5t107.5 -66.5t107.5 66.5t36.5 199.5q0 131 -37 198.5zM239 744
h-65l80 131h79zM368 744h-67l83 131h78z" />
    <glyph glyph-name="Omacron" unicode="&#x14c;" horiz-adv-x="564" 
d="M108.5 591.5q61.5 89.5 173.5 89.5t173.5 -89.5t61.5 -255.5t-61.5 -256.5t-173.5 -90.5t-173.5 90.5t-61.5 256.5t61.5 255.5zM389 534.5q-37 67.5 -107 67.5t-107 -67.5t-37 -198.5q0 -133 36.5 -199.5t107.5 -66.5t107.5 66.5t36.5 199.5q0 131 -37 198.5zM394 755
h-224v64h224v-64z" />
    <glyph glyph-name="Oslash" unicode="&#xd8;" horiz-adv-x="573" 
d="M533 657l-58 -89q47 -86 47 -232q0 -166 -61.5 -256.5t-173.5 -90.5q-89 0 -147 58l-44 -68l-58 39l58 91q-44 86 -44 227q0 166 61.5 255.5t173.5 89.5q87 0 143 -54l45 68zM180 534.5q-37 -67.5 -37 -198.5q0 -80 14 -139l226 355q-36 50 -96 50q-70 0 -107 -67.5z
M394.5 136.5q36.5 66.5 36.5 199.5q0 83 -15 142l-228 -356q36 -52 99 -52q71 0 107.5 66.5z" />
    <glyph glyph-name="Oslashacute" unicode="&#x1fe;" horiz-adv-x="573" 
d="M533 657l-58 -89q47 -86 47 -232q0 -166 -61.5 -256.5t-173.5 -90.5q-89 0 -147 58l-44 -68l-58 39l58 91q-44 86 -44 227q0 166 61.5 255.5t173.5 89.5q87 0 143 -54l45 68zM180 534.5q-37 -67.5 -37 -198.5q0 -80 14 -139l226 355q-36 50 -96 50q-70 0 -107 -67.5z
M394.5 136.5q36.5 66.5 36.5 199.5q0 83 -15 142l-228 -356q36 -52 99 -52q71 0 107.5 66.5zM307 744h-85l83 131h102z" />
    <glyph glyph-name="Otilde" unicode="&#xd5;" horiz-adv-x="564" 
d="M108.5 591.5q61.5 89.5 173.5 89.5t173.5 -89.5t61.5 -255.5t-61.5 -256.5t-173.5 -90.5t-173.5 90.5t-61.5 256.5t61.5 255.5zM389 534.5q-37 67.5 -107 67.5t-107 -67.5t-37 -198.5q0 -133 36.5 -199.5t107.5 -66.5t107.5 66.5t36.5 199.5q0 131 -37 198.5zM371 870
q2 -36 -3 -52.5t-19 -16.5q-7 0 -13.5 4t-12 9t-11.5 9l-37 30q-30 24 -62 24q-40 0 -61.5 -32t-16.5 -101h58q-2 36 3 52.5t19 16.5q8 0 15 -4.5t22 -17.5l36 -30q27 -24 63 -24q40 0 61.5 32t16.5 101h-58z" />
    <glyph glyph-name="OE" unicode="&#x152;" horiz-adv-x="786" 
d="M737 81v-81h-388q-33 -11 -70 -11q-110 0 -171 90.5t-61 256.5t60.5 255.5t171.5 89.5q36 0 71 -11h382v-78h-282q52 -76 60 -215h211v-76h-211q-6 -141 -59 -220h286zM174 136.5q36 -66.5 105 -66.5q70 0 106.5 66.5t36.5 199.5q0 131 -37 198.5t-106 67.5t-105 -67.5
t-36 -198.5q0 -133 36 -199.5z" />
    <glyph glyph-name="P" unicode="P" horiz-adv-x="493" 
d="M405.5 612q59.5 -58 59.5 -155q0 -61 -28 -109t-79 -74.5t-117 -26.5h-78v-247h-89v670h170q102 0 161.5 -58zM239 324q65 0 100 35t35 98q0 65 -35 100.5t-103 35.5h-73v-269h76z" />
    <glyph glyph-name="Thorn" unicode="&#xde;" horiz-adv-x="504" 
d="M244 550q102 0 161.5 -58t59.5 -155q0 -61 -28 -109t-79 -74.5t-117 -26.5h-78v-127h-89v670h89v-120h81zM239 204q65 0 100 35t35 98q0 65 -35 100.5t-103 35.5h-73v-269h76z" />
    <glyph glyph-name="Q" unicode="Q" horiz-adv-x="564" 
d="M494 162q-23 -74 -67 -117l62 -110l-75 -40l-55 107q-33 -13 -77 -13q-112 0 -173.5 90.5t-61.5 256.5t61.5 255.5t173.5 89.5t173.5 -89.5t61.5 -255.5q0 -100 -23 -174zM174.5 136.5q36.5 -66.5 107.5 -66.5q21 0 39 6l-74 137l71 36l65 -124q43 68 43 211
q0 131 -37 198.5t-107 67.5t-107 -67.5t-37 -198.5q0 -133 36.5 -199.5z" />
    <glyph glyph-name="R" unicode="R" horiz-adv-x="514" 
d="M479 0h-101l-111 260h-10h-94v-260h-89v670h185q95 0 150.5 -56.5t55.5 -150.5q0 -63 -28.5 -110.5t-79.5 -71.5zM163 593v-257h92q58 0 88.5 34t30.5 93q0 62 -31.5 96t-90.5 34h-89z" />
    <glyph glyph-name="Racute" unicode="&#x154;" horiz-adv-x="514" 
d="M479 0h-101l-111 260h-10h-94v-260h-89v670h185q95 0 150.5 -56.5t55.5 -150.5q0 -63 -28.5 -110.5t-79.5 -71.5zM163 593v-257h92q58 0 88.5 34t30.5 93q0 62 -31.5 96t-90.5 34h-89zM280 729h-85l83 131h102z" />
    <glyph glyph-name="Rcaron" unicode="&#x158;" horiz-adv-x="514" 
d="M479 0h-101l-111 260h-10h-94v-260h-89v670h185q95 0 150.5 -56.5t55.5 -150.5q0 -63 -28.5 -110.5t-79.5 -71.5zM163 593v-257h92q58 0 88.5 34t30.5 93q0 62 -31.5 96t-90.5 34h-89zM260 777l60 83h78l-84 -131h-108l-83 131h77z" />
    <glyph glyph-name="uni0156" unicode="&#x156;" horiz-adv-x="514" 
d="M479 0h-101l-111 260h-10h-94v-260h-89v670h185q95 0 150.5 -56.5t55.5 -150.5q0 -63 -28.5 -110.5t-79.5 -71.5zM163 593v-257h92q58 0 88.5 34t30.5 93q0 62 -31.5 96t-90.5 34h-89zM296.5 -188.5q-23.5 -33.5 -59.5 -49.5l-21 26q22 15 34 35.5t14 42.5
q-19 0 -34.5 11.5t-15.5 33.5q0 21 13.5 34t36.5 13q27 0 41.5 -17.5t14.5 -50.5q0 -45 -23.5 -78.5z" />
    <glyph glyph-name="S" unicode="S" horiz-adv-x="454" 
d="M82 141q28 -34 59 -53t73 -19q50 0 79.5 26t29.5 73q0 45 -19.5 69.5t-70.5 55.5l-67 40q-57 34 -86 74.5t-29 103.5q0 75 49 122.5t134 47.5q56 0 100 -21t74 -55l-47 -66q-29 30 -59 47t-69 17q-44 0 -69 -23.5t-25 -62.5q0 -41 20.5 -64.5t73.5 -55.5l69 -41
q56 -33 83.5 -75t27.5 -108q0 -50 -23.5 -92t-68.5 -67t-105 -25q-65 0 -109 22.5t-77 61.5z" />
    <glyph glyph-name="Sacute" unicode="&#x15a;" horiz-adv-x="454" 
d="M82 141q28 -34 59 -53t73 -19q50 0 79.5 26t29.5 73q0 45 -19.5 69.5t-70.5 55.5l-67 40q-57 34 -86 74.5t-29 103.5q0 75 49 122.5t134 47.5q56 0 100 -21t74 -55l-47 -66q-29 30 -59 47t-69 17q-44 0 -69 -23.5t-25 -62.5q0 -41 20.5 -64.5t73.5 -55.5l69 -41
q56 -33 83.5 -75t27.5 -108q0 -50 -23.5 -92t-68.5 -67t-105 -25q-65 0 -109 22.5t-77 61.5zM246 744h-85l83 131h102z" />
    <glyph glyph-name="Scaron" unicode="&#x160;" horiz-adv-x="454" 
d="M82 141q28 -34 59 -53t73 -19q50 0 79.5 26t29.5 73q0 45 -19.5 69.5t-70.5 55.5l-67 40q-57 34 -86 74.5t-29 103.5q0 75 49 122.5t134 47.5q56 0 100 -21t74 -55l-47 -66q-29 30 -59 47t-69 17q-44 0 -69 -23.5t-25 -62.5q0 -41 20.5 -64.5t73.5 -55.5l69 -41
q56 -33 83.5 -75t27.5 -108q0 -50 -23.5 -92t-68.5 -67t-105 -25q-65 0 -109 22.5t-77 61.5zM226 792l60 83h78l-84 -131h-108l-83 131h77z" />
    <glyph glyph-name="Scedilla" unicode="&#x15e;" horiz-adv-x="454" 
d="M82 141q28 -34 59 -53t73 -19q50 0 79.5 26t29.5 73q0 45 -19.5 69.5t-70.5 55.5l-67 40q-57 34 -86 74.5t-29 103.5q0 75 49 122.5t134 47.5q56 0 100 -21t74 -55l-47 -66q-29 30 -59 47t-69 17q-44 0 -69 -23.5t-25 -62.5q0 -41 20.5 -64.5t73.5 -55.5l69 -41
q56 -33 83.5 -75t27.5 -108q0 -50 -23.5 -92t-68.5 -67t-105 -25q-65 0 -109 22.5t-77 61.5zM296 -70q23 -20 23 -57q0 -41 -28 -65t-72 -24q-47 0 -79 26l18 47q26 -22 56 -22q22 0 34.5 9t12.5 27q0 17 -12.5 25t-31.5 8q-26 0 -50 -11l-12 28l57 105h56l-43 -76h13
q35 0 58 -20z" />
    <glyph glyph-name="Scircumflex" unicode="&#x15c;" horiz-adv-x="454" 
d="M82 141q28 -34 59 -53t73 -19q50 0 79.5 26t29.5 73q0 45 -19.5 69.5t-70.5 55.5l-67 40q-57 34 -86 74.5t-29 103.5q0 75 49 122.5t134 47.5q56 0 100 -21t74 -55l-47 -66q-29 30 -59 47t-69 17q-44 0 -69 -23.5t-25 -62.5q0 -41 20.5 -64.5t73.5 -55.5l69 -41
q56 -33 83.5 -75t27.5 -108q0 -50 -23.5 -92t-68.5 -67t-105 -25q-65 0 -109 22.5t-77 61.5zM280 875l84 -131h-78l-60 84l-60 -84h-78l84 131h108z" />
    <glyph glyph-name="uni0218" unicode="&#x218;" horiz-adv-x="454" 
d="M82 141q28 -34 59 -53t73 -19q50 0 79.5 26t29.5 73q0 45 -19.5 69.5t-70.5 55.5l-67 40q-57 34 -86 74.5t-29 103.5q0 75 49 122.5t134 47.5q56 0 100 -21t74 -55l-47 -66q-29 30 -59 47t-69 17q-44 0 -69 -23.5t-25 -62.5q0 -41 20.5 -64.5t73.5 -55.5l69 -41
q56 -33 83.5 -75t27.5 -108q0 -50 -23.5 -92t-68.5 -67t-105 -25q-65 0 -109 22.5t-77 61.5zM255.5 -188.5q-23.5 -33.5 -59.5 -49.5l-21 26q22 15 34 35.5t14 42.5q-19 0 -34.5 11.5t-15.5 33.5q0 21 13.5 34t36.5 13q27 0 41.5 -17.5t14.5 -50.5q0 -45 -23.5 -78.5z" />
    <glyph glyph-name="uni1E9E" unicode="&#x1e9e;" horiz-adv-x="584" 
d="M70 443q0 109 58 168t164 59h202v-69l-76 -235q127 -44 127 -184q0 -90 -51.5 -141.5t-133.5 -51.5q-38 0 -71.5 11t-57.5 29l35 71q19 -16 41 -24t52 -8q43 0 70 30.5t27 83.5q0 64 -34 93.5t-108 42.5l90 275h-107q-71 0 -104.5 -37t-33.5 -114v-442h-89v443z" />
    <glyph glyph-name="uni018F" unicode="&#x18f;" horiz-adv-x="535" 
d="M426.5 597q60.5 -84 60.5 -255q0 -115 -28.5 -194.5t-79 -119t-118.5 -39.5q-105 0 -161 83.5t-56 252.5q0 25 2 43h353q-7 234 -151 234q-88 0 -137 -81l-56 54q33 51 82 78.5t121 27.5q108 0 168.5 -84zM357.5 124.5q35.5 54.5 41.5 170.5h-268q6 -120 38.5 -172.5
t93.5 -52.5q59 0 94.5 54.5z" />
    <glyph glyph-name="T" unicode="T" horiz-adv-x="459" 
d="M441 670v-77h-167v-593h-89v593h-167v77h423z" />
    <glyph glyph-name="Tbar" unicode="&#x166;" horiz-adv-x="475" 
d="M449 670v-77h-167v-236h118v-59h-118v-298h-89v298h-118v59h118v236h-167v77h423z" />
    <glyph glyph-name="Tcaron" unicode="&#x164;" horiz-adv-x="459" 
d="M441 670v-77h-167v-593h-89v593h-167v77h423zM228 777l60 83h78l-84 -131h-108l-83 131h77z" />
    <glyph glyph-name="uni0162" unicode="&#x162;" horiz-adv-x="459" 
d="M441 670v-77h-167v-593h-89v593h-167v77h423zM261.5 -188.5q-23.5 -33.5 -59.5 -49.5l-21 26q22 15 34 35.5t14 42.5q-19 0 -34.5 11.5t-15.5 33.5q0 21 13.5 34t36.5 13q27 0 41.5 -17.5t14.5 -50.5q0 -45 -23.5 -78.5z" />
    <glyph glyph-name="uni021A" unicode="&#x21a;" horiz-adv-x="459" 
d="M441 670v-77h-167v-593h-89v593h-167v77h423zM261.5 -188.5q-23.5 -33.5 -59.5 -49.5l-21 26q22 15 34 35.5t14 42.5q-19 0 -34.5 11.5t-15.5 33.5q0 21 13.5 34t36.5 13q27 0 41.5 -17.5t14.5 -50.5q0 -45 -23.5 -78.5z" />
    <glyph glyph-name="U" unicode="U" horiz-adv-x="573" 
d="M503 224q0 -113 -58 -174t-158 -61q-101 0 -159 60.5t-58 174.5v446h89v-444q0 -76 35 -116t95 -40q59 0 93 39.5t34 114.5v446h87v-446z" />
    <glyph glyph-name="Uacute" unicode="&#xda;" horiz-adv-x="573" 
d="M503 224q0 -113 -58 -174t-158 -61q-101 0 -159 60.5t-58 174.5v446h89v-444q0 -76 35 -116t95 -40q59 0 93 39.5t34 114.5v446h87v-446zM307 729h-85l83 131h102z" />
    <glyph glyph-name="Ubreve" unicode="&#x16c;" horiz-adv-x="573" 
d="M503 224q0 -113 -58 -174t-158 -61q-101 0 -159 60.5t-58 174.5v446h89v-444q0 -76 35 -116t95 -40q59 0 93 39.5t34 114.5v446h87v-446zM222 864q0 -33 17 -53t48 -20q30 0 46.5 20t16.5 53h71q0 -62 -35.5 -98.5t-98.5 -36.5q-65 0 -100 36t-35 99h70z" />
    <glyph glyph-name="Ucircumflex" unicode="&#xdb;" horiz-adv-x="573" 
d="M503 224q0 -113 -58 -174t-158 -61q-101 0 -159 60.5t-58 174.5v446h89v-444q0 -76 35 -116t95 -40q59 0 93 39.5t34 114.5v446h87v-446zM341 860l84 -131h-78l-60 84l-60 -84h-78l84 131h108z" />
    <glyph glyph-name="Udieresis" unicode="&#xdc;" horiz-adv-x="573" 
d="M503 224q0 -113 -58 -174t-158 -61q-101 0 -159 60.5t-58 174.5v446h89v-444q0 -76 35 -116t95 -40q59 0 93 39.5t34 114.5v446h87v-446zM166.5 747.5q-14.5 14.5 -14.5 36.5q0 21 14.5 35t36.5 14q21 0 35.5 -14.5t14.5 -34.5q0 -22 -14.5 -36.5t-35.5 -14.5
q-22 0 -36.5 14.5zM334.5 747.5q-14.5 14.5 -14.5 36.5q0 21 14.5 35t36.5 14t36 -14t14 -35q0 -22 -14 -36.5t-36 -14.5t-36.5 14.5z" />
    <glyph glyph-name="Ugrave" unicode="&#xd9;" horiz-adv-x="573" 
d="M503 224q0 -113 -58 -174t-158 -61q-101 0 -159 60.5t-58 174.5v446h89v-444q0 -76 35 -116t95 -40q59 0 93 39.5t34 114.5v446h87v-446zM268 860l82 -131h-84l-100 131h102z" />
    <glyph glyph-name="Uhungarumlaut" unicode="&#x170;" horiz-adv-x="573" 
d="M503 224q0 -113 -58 -174t-158 -61q-101 0 -159 60.5t-58 174.5v446h89v-444q0 -76 35 -116t95 -40q59 0 93 39.5t34 114.5v446h87v-446zM243 729h-65l80 131h79zM372 729h-67l83 131h78z" />
    <glyph glyph-name="Umacron" unicode="&#x16a;" horiz-adv-x="573" 
d="M503 224q0 -113 -58 -174t-158 -61q-101 0 -159 60.5t-58 174.5v446h89v-444q0 -76 35 -116t95 -40q59 0 93 39.5t34 114.5v446h87v-446zM398 740h-224v64h224v-64z" />
    <glyph glyph-name="Uogonek" unicode="&#x172;" horiz-adv-x="573" 
d="M503 224q0 -113 -58 -174t-158 -61q-101 0 -159 60.5t-58 174.5v446h89v-444q0 -76 35 -116t95 -40q59 0 93 39.5t34 114.5v446h87v-446zM391 12q-29 -25 -44.5 -48t-15.5 -51q0 -24 11 -35t29 -11q28 0 48 33l33 -42q-29 -55 -92 -55q-40 0 -65 24.5t-25 68.5
q0 38 17 65t52 53z" />
    <glyph glyph-name="Uring" unicode="&#x16e;" horiz-adv-x="573" 
d="M503 224q0 -113 -58 -174t-158 -61q-101 0 -159 60.5t-58 174.5v446h89v-444q0 -76 35 -116t95 -40q59 0 93 39.5t34 114.5v446h87v-446zM210.5 742.5q-29.5 25.5 -29.5 67.5q0 43 29.5 69.5t76.5 26.5t76 -26.5t29 -69.5q0 -42 -29 -67.5t-76 -25.5t-76.5 25.5z
M321.5 778.5q12.5 11.5 12.5 31.5q0 22 -12.5 34.5t-34.5 12.5t-35 -13t-13 -34q0 -19 13 -31t35 -12t34.5 11.5z" />
    <glyph glyph-name="Utilde" unicode="&#x168;" horiz-adv-x="573" 
d="M503 224q0 -113 -58 -174t-158 -61q-101 0 -159 60.5t-58 174.5v446h89v-444q0 -76 35 -116t95 -40q59 0 93 39.5t34 114.5v446h87v-446zM375 855q2 -36 -3 -52.5t-19 -16.5q-7 0 -13.5 4t-12 9t-11.5 9l-37 30q-30 24 -62 24q-40 0 -61.5 -32t-16.5 -101h58
q-2 36 3 52.5t19 16.5q8 0 15 -4.5t22 -17.5l36 -30q27 -24 63 -24q40 0 61.5 32t16.5 101h-58z" />
    <glyph glyph-name="V" unicode="V" horiz-adv-x="516" 
d="M261 93l146 577h91l-187 -670h-107l-186 670h94l146 -577h3z" />
    <glyph glyph-name="W" unicode="W" horiz-adv-x="710" 
d="M510 110l74 560h86l-97 -670h-115l-104 572h-3l-104 -572h-110l-99 670h88l71 -560h2l98 560h115l97 -560h1z" />
    <glyph glyph-name="Wacute" unicode="&#x1e82;" horiz-adv-x="710" 
d="M510 110l74 560h86l-97 -670h-115l-104 572h-3l-104 -572h-110l-99 670h88l71 -560h2l98 560h115l97 -560h1zM371 729h-85l83 131h102z" />
    <glyph glyph-name="Wcircumflex" unicode="&#x174;" horiz-adv-x="710" 
d="M510 110l74 560h86l-97 -670h-115l-104 572h-3l-104 -572h-110l-99 670h88l71 -560h2l98 560h115l97 -560h1zM405 860l84 -131h-78l-60 84l-60 -84h-78l84 131h108z" />
    <glyph glyph-name="Wdieresis" unicode="&#x1e84;" horiz-adv-x="710" 
d="M510 110l74 560h86l-97 -670h-115l-104 572h-3l-104 -572h-110l-99 670h88l71 -560h2l98 560h115l97 -560h1zM230.5 747.5q-14.5 14.5 -14.5 36.5q0 21 14.5 35t36.5 14q21 0 35.5 -14.5t14.5 -34.5q0 -22 -14.5 -36.5t-35.5 -14.5q-22 0 -36.5 14.5zM398.5 747.5
q-14.5 14.5 -14.5 36.5q0 21 14.5 35t36.5 14t36 -14t14 -35q0 -22 -14 -36.5t-36 -14.5t-36.5 14.5z" />
    <glyph glyph-name="Wgrave" unicode="&#x1e80;" horiz-adv-x="710" 
d="M510 110l74 560h86l-97 -670h-115l-104 572h-3l-104 -572h-110l-99 670h88l71 -560h2l98 560h115l97 -560h1zM332 860l82 -131h-84l-100 131h102z" />
    <glyph glyph-name="X" unicode="X" horiz-adv-x="475" 
d="M446 670l-157 -317l172 -353h-103l-120 276h-3l-120 -276h-100l170 348l-159 322h102l108 -250h4l107 250h99z" />
    <glyph glyph-name="uni1E8A" unicode="&#x1e8a;" horiz-adv-x="475" 
d="M446 670l-157 -317l172 -353h-103l-120 276h-3l-120 -276h-100l170 348l-159 322h102l108 -250h4l107 250h99zM214.5 746.5q-16.5 16.5 -16.5 39.5q0 24 16 40t40 16t40 -16t16 -40q0 -23 -16.5 -39.5t-39.5 -16.5t-39.5 16.5z" />
    <glyph glyph-name="Y" unicode="Y" horiz-adv-x="489" 
d="M380 670h96l-187 -410v-260h-89v258l-185 412h98l131 -320h4z" />
    <glyph glyph-name="Yacute" unicode="&#xdd;" horiz-adv-x="489" 
d="M380 670h96l-187 -410v-260h-89v258l-185 412h98l131 -320h4zM276 729h-85l83 131h102z" />
    <glyph glyph-name="Ycircumflex" unicode="&#x176;" horiz-adv-x="489" 
d="M380 670h96l-187 -410v-260h-89v258l-185 412h98l131 -320h4zM310 860l84 -131h-78l-60 84l-60 -84h-78l84 131h108z" />
    <glyph glyph-name="Ydieresis" unicode="&#x178;" horiz-adv-x="489" 
d="M380 670h96l-187 -410v-260h-89v258l-185 412h98l131 -320h4zM135.5 747.5q-14.5 14.5 -14.5 36.5q0 21 14.5 35t36.5 14q21 0 35.5 -14.5t14.5 -34.5q0 -22 -14.5 -36.5t-35.5 -14.5q-22 0 -36.5 14.5zM303.5 747.5q-14.5 14.5 -14.5 36.5q0 21 14.5 35t36.5 14t36 -14
t14 -35q0 -22 -14 -36.5t-36 -14.5t-36.5 14.5z" />
    <glyph glyph-name="Ygrave" unicode="&#x1ef2;" horiz-adv-x="489" 
d="M380 670h96l-187 -410v-260h-89v258l-185 412h98l131 -320h4zM237 860l82 -131h-84l-100 131h102z" />
    <glyph glyph-name="Z" unicode="Z" horiz-adv-x="447" 
d="M33 0v69l269 520v4h-258v77h362v-67l-266 -521v-3h272v-79h-379z" />
    <glyph glyph-name="Zacute" unicode="&#x179;" horiz-adv-x="447" 
d="M33 0v69l269 520v4h-258v77h362v-67l-266 -521v-3h272v-79h-379zM246 729h-85l83 131h102z" />
    <glyph glyph-name="Zcaron" unicode="&#x17d;" horiz-adv-x="447" 
d="M33 0v69l269 520v4h-258v77h362v-67l-266 -521v-3h272v-79h-379zM225 777l60 83h78l-84 -131h-108l-83 131h77z" />
    <glyph glyph-name="Zdotaccent" unicode="&#x17b;" horiz-adv-x="447" 
d="M33 0v69l269 520v4h-258v77h362v-67l-266 -521v-3h272v-79h-379zM185.5 746.5q-16.5 16.5 -16.5 39.5q0 24 16 40t40 16t40 -16t16 -40q0 -23 -16.5 -39.5t-39.5 -16.5t-39.5 16.5z" />
    <glyph glyph-name="uni01B5" unicode="&#x1b5;" horiz-adv-x="459" 
d="M146 82v-3h272v-79h-379v69l125 241h-103v59h133l114 220v4h-258v77h362v-67l-119 -234h102v-59h-133z" />
    <glyph glyph-name="a" unicode="a" horiz-adv-x="435" 
d="M382 0h-75l-7 87h-2q-9 -44 -40.5 -71t-83.5 -27q-60 0 -96.5 41t-36.5 108q0 70 45 110.5t120 40.5q38 0 77 -13v53q0 108 -74 108q-35 0 -58 -19t-36 -56l-66 31q19 53 62 84t104 31q73 0 112.5 -45t39.5 -130v-128zM258.5 99q24.5 39 24.5 109q-32 15 -71 15
q-41 0 -64.5 -20.5t-23.5 -58.5q0 -40 17 -62t48 -22q45 0 69.5 39z" />
    <glyph glyph-name="aacute" unicode="&#xe1;" horiz-adv-x="435" 
d="M382 0h-75l-7 87h-2q-9 -44 -40.5 -71t-83.5 -27q-60 0 -96.5 41t-36.5 108q0 70 45 110.5t120 40.5q38 0 77 -13v53q0 108 -74 108q-35 0 -58 -19t-36 -56l-66 31q19 53 62 84t104 31q73 0 112.5 -45t39.5 -130v-128zM258.5 99q24.5 39 24.5 109q-32 15 -71 15
q-41 0 -64.5 -20.5t-23.5 -58.5q0 -40 17 -62t48 -22q45 0 69.5 39zM226 555h-80l83 157h97z" />
    <glyph glyph-name="abreve" unicode="&#x103;" horiz-adv-x="435" 
d="M382 0h-75l-7 87h-2q-9 -44 -40.5 -71t-83.5 -27q-60 0 -96.5 41t-36.5 108q0 70 45 110.5t120 40.5q38 0 77 -13v53q0 108 -74 108q-35 0 -58 -19t-36 -56l-66 31q19 53 62 84t104 31q73 0 112.5 -45t39.5 -130v-128zM258.5 99q24.5 39 24.5 109q-32 15 -71 15
q-41 0 -64.5 -20.5t-23.5 -58.5q0 -40 17 -62t48 -22q45 0 69.5 39zM141 717q0 -43 17.5 -68.5t51.5 -25.5q32 0 50.5 26t18.5 68h65q0 -73 -35.5 -117.5t-98.5 -44.5q-65 0 -100 44t-35 118h66z" />
    <glyph glyph-name="acircumflex" unicode="&#xe2;" horiz-adv-x="435" 
d="M382 0h-75l-7 87h-2q-9 -44 -40.5 -71t-83.5 -27q-60 0 -96.5 41t-36.5 108q0 70 45 110.5t120 40.5q38 0 77 -13v53q0 108 -74 108q-35 0 -58 -19t-36 -56l-66 31q19 53 62 84t104 31q73 0 112.5 -45t39.5 -130v-128zM258.5 99q24.5 39 24.5 109q-32 15 -71 15
q-41 0 -64.5 -20.5t-23.5 -58.5q0 -40 17 -62t48 -22q45 0 69.5 39zM262 712l84 -157h-76l-60 100l-60 -100h-76l84 157h104z" />
    <glyph glyph-name="adieresis" unicode="&#xe4;" horiz-adv-x="435" 
d="M382 0h-75l-7 87h-2q-9 -44 -40.5 -71t-83.5 -27q-60 0 -96.5 41t-36.5 108q0 70 45 110.5t120 40.5q38 0 77 -13v53q0 108 -74 108q-35 0 -58 -19t-36 -56l-66 31q19 53 62 84t104 31q73 0 112.5 -45t39.5 -130v-128zM258.5 99q24.5 39 24.5 109q-32 15 -71 15
q-41 0 -64.5 -20.5t-23.5 -58.5q0 -40 17 -62t48 -22q45 0 69.5 39zM89.5 572.5q-14.5 15.5 -14.5 37.5q0 23 14 38t36 15q21 0 35.5 -15.5t14.5 -37.5t-15 -37.5t-35 -15.5q-21 0 -35.5 15.5zM258.5 572.5q-14.5 15.5 -14.5 37.5q0 23 14 38t36 15q21 0 35.5 -15.5
t14.5 -37.5t-15 -37.5t-35 -15.5q-21 0 -35.5 15.5z" />
    <glyph glyph-name="agrave" unicode="&#xe0;" horiz-adv-x="435" 
d="M382 0h-75l-7 87h-2q-9 -44 -40.5 -71t-83.5 -27q-60 0 -96.5 41t-36.5 108q0 70 45 110.5t120 40.5q38 0 77 -13v53q0 108 -74 108q-35 0 -58 -19t-36 -56l-66 31q19 53 62 84t104 31q73 0 112.5 -45t39.5 -130v-128zM258.5 99q24.5 39 24.5 109q-32 15 -71 15
q-41 0 -64.5 -20.5t-23.5 -58.5q0 -40 17 -62t48 -22q45 0 69.5 39zM188 712l83 -157h-78l-100 157h95z" />
    <glyph glyph-name="amacron" unicode="&#x101;" horiz-adv-x="435" 
d="M382 0h-75l-7 87h-2q-9 -44 -40.5 -71t-83.5 -27q-60 0 -96.5 41t-36.5 108q0 70 45 110.5t120 40.5q38 0 77 -13v53q0 108 -74 108q-35 0 -58 -19t-36 -56l-66 31q19 53 62 84t104 31q73 0 112.5 -45t39.5 -130v-128zM258.5 99q24.5 39 24.5 109q-32 15 -71 15
q-41 0 -64.5 -20.5t-23.5 -58.5q0 -40 17 -62t48 -22q45 0 69.5 39zM321 565h-224v67h224v-67z" />
    <glyph glyph-name="aogonek" unicode="&#x105;" horiz-adv-x="435" 
d="M382 0h-75l-7 87h-2q-9 -44 -40.5 -71t-83.5 -27q-60 0 -96.5 41t-36.5 108q0 70 45 110.5t120 40.5q38 0 77 -13v53q0 108 -74 108q-35 0 -58 -19t-36 -56l-66 31q19 53 62 84t104 31q73 0 112.5 -45t39.5 -130v-128zM258.5 99q24.5 39 24.5 109q-32 15 -71 15
q-41 0 -64.5 -20.5t-23.5 -58.5q0 -40 17 -62t48 -22q45 0 69.5 39zM383 0q-34 0 -59.5 -24.5t-25.5 -62.5q0 -22 9.5 -34t26.5 -12q16 0 25.5 7.5t19.5 20.5l31 -41q-30 -51 -84 -51q-40 0 -65 26.5t-25 72.5q0 45 26.5 78.5t68.5 43.5z" />
    <glyph glyph-name="aring" unicode="&#xe5;" horiz-adv-x="435" 
d="M382 0h-75l-7 87h-2q-9 -44 -40.5 -71t-83.5 -27q-60 0 -96.5 41t-36.5 108q0 70 45 110.5t120 40.5q38 0 77 -13v53q0 108 -74 108q-35 0 -58 -19t-36 -56l-66 31q19 53 62 84t104 31q73 0 112.5 -45t39.5 -130v-128zM258.5 99q24.5 39 24.5 109q-32 15 -71 15
q-41 0 -64.5 -20.5t-23.5 -58.5q0 -40 17 -62t48 -22q45 0 69.5 39zM132.5 579.5q-30.5 28.5 -30.5 73.5q0 46 30.5 75t77.5 29t77 -29t30 -75q0 -45 -30 -73.5t-77 -28.5t-77.5 28.5zM245 618.5q13 13.5 13 35.5q0 23 -13 37t-35 14t-35.5 -14t-13.5 -37q0 -22 13.5 -35.5
t35.5 -13.5t35 13.5z" />
    <glyph glyph-name="atilde" unicode="&#xe3;" horiz-adv-x="435" 
d="M382 0h-75l-7 87h-2q-9 -44 -40.5 -71t-83.5 -27q-60 0 -96.5 41t-36.5 108q0 70 45 110.5t120 40.5q38 0 77 -13v53q0 108 -74 108q-35 0 -58 -19t-36 -56l-66 31q19 53 62 84t104 31q73 0 112.5 -45t39.5 -130v-128zM258.5 99q24.5 39 24.5 109q-32 15 -71 15
q-41 0 -64.5 -20.5t-23.5 -58.5q0 -40 17 -62t48 -22q45 0 69.5 39zM297 705q1 -40 -3 -59t-18 -19q-9 0 -15.5 4.5t-19.5 17.5l-37 38q-26 26 -64 26q-36 0 -57.5 -29.5t-21.5 -88.5q0 -19 1 -30h57q-1 39 3.5 58.5t17.5 19.5q9 0 15 -4t20 -18l38 -38q27 -27 63 -27
t58 29.5t22 87.5q0 10 -2 32h-57z" />
    <glyph glyph-name="ae" unicode="&#xe6;" horiz-adv-x="677" 
d="M634 226h-268q1 -80 30.5 -121t78.5 -41q42 0 63 16.5t39 46.5l55 -42q-51 -96 -155 -96q-112 0 -154 114h-3q-14 -51 -49 -82.5t-95 -31.5q-61 0 -98 41t-37 107q0 71 47.5 112.5t125.5 41.5h68v38q0 108 -77 108q-35 0 -56.5 -19t-34.5 -56l-65 31q19 53 58.5 84
t97.5 31q47 0 78.5 -25t44.5 -66h3q23 45 59.5 68t81.5 23q74 0 119 -60t45 -172q0 -20 -2 -50zM394 400q-28 -37 -28 -109h189q-2 73 -25.5 109.5t-64.5 36.5q-43 0 -71 -37zM257.5 103.5q24.5 43.5 24.5 122.5h-59q-47 0 -73.5 -22.5t-26.5 -62.5q0 -39 17 -60t47 -21
q46 0 70.5 43.5z" />
    <glyph glyph-name="aeacute" unicode="&#x1fd;" horiz-adv-x="677" 
d="M634 226h-268q1 -80 30.5 -121t78.5 -41q42 0 63 16.5t39 46.5l55 -42q-51 -96 -155 -96q-112 0 -154 114h-3q-14 -51 -49 -82.5t-95 -31.5q-61 0 -98 41t-37 107q0 71 47.5 112.5t125.5 41.5h68v38q0 108 -77 108q-35 0 -56.5 -19t-34.5 -56l-65 31q19 53 58.5 84
t97.5 31q47 0 78.5 -25t44.5 -66h3q23 45 59.5 68t81.5 23q74 0 119 -60t45 -172q0 -20 -2 -50zM394 400q-28 -37 -28 -109h189q-2 73 -25.5 109.5t-64.5 36.5q-43 0 -71 -37zM257.5 103.5q24.5 43.5 24.5 122.5h-59q-47 0 -73.5 -22.5t-26.5 -62.5q0 -39 17 -60t47 -21
q46 0 70.5 43.5zM349 555h-80l83 157h97z" />
    <glyph glyph-name="b" unicode="b" horiz-adv-x="473" 
d="M388.5 446.5q41.5 -61.5 41.5 -187.5q0 -135 -56.5 -202.5t-154.5 -67.5q-87 0 -152 54v655h84v-263h3q15 31 46.5 52t76.5 21q70 0 111.5 -61.5zM311.5 112q32.5 48 32.5 145q0 94 -24.5 136t-71.5 42q-41 0 -69 -34.5t-28 -91.5v-224q27 -21 69 -21q59 0 91.5 48z" />
    <glyph glyph-name="c" unicode="c" horiz-adv-x="409" 
d="M302 355q-11 39 -27.5 59.5t-46.5 20.5q-47 0 -73.5 -47t-26.5 -138q0 -186 101 -186q65 0 90 76l66 -26q-15 -56 -55 -90.5t-105 -34.5q-86 0 -134.5 67t-48.5 194q0 123 49.5 190.5t133.5 67.5q118 0 150 -132z" />
    <glyph glyph-name="cacute" unicode="&#x107;" horiz-adv-x="409" 
d="M302 355q-11 39 -27.5 59.5t-46.5 20.5q-47 0 -73.5 -47t-26.5 -138q0 -186 101 -186q65 0 90 76l66 -26q-15 -56 -55 -90.5t-105 -34.5q-86 0 -134.5 67t-48.5 194q0 123 49.5 190.5t133.5 67.5q118 0 150 -132zM246 555h-80l83 157h97z" />
    <glyph glyph-name="ccaron" unicode="&#x10d;" horiz-adv-x="409" 
d="M302 355q-11 39 -27.5 59.5t-46.5 20.5q-47 0 -73.5 -47t-26.5 -138q0 -186 101 -186q65 0 90 76l66 -26q-15 -56 -55 -90.5t-105 -34.5q-86 0 -134.5 67t-48.5 194q0 123 49.5 190.5t133.5 67.5q118 0 150 -132zM230 612l60 100h76l-84 -157h-104l-83 157h75z" />
    <glyph glyph-name="ccedilla" unicode="&#xe7;" horiz-adv-x="409" 
d="M302 355q-11 39 -27.5 59.5t-46.5 20.5q-47 0 -73.5 -47t-26.5 -138q0 -186 101 -186q65 0 90 76l66 -26q-15 -56 -55 -90.5t-105 -34.5q-86 0 -134.5 67t-48.5 194q0 123 49.5 190.5t133.5 67.5q118 0 150 -132zM296 -70q23 -20 23 -57q0 -41 -28 -65t-72 -24
q-47 0 -79 26l18 47q26 -22 56 -22q22 0 34.5 9t12.5 27q0 17 -12.5 25t-31.5 8q-26 0 -50 -11l-12 28l57 105h56l-43 -76h13q35 0 58 -20z" />
    <glyph glyph-name="ccircumflex" unicode="&#x109;" horiz-adv-x="409" 
d="M302 355q-11 39 -27.5 59.5t-46.5 20.5q-47 0 -73.5 -47t-26.5 -138q0 -186 101 -186q65 0 90 76l66 -26q-15 -56 -55 -90.5t-105 -34.5q-86 0 -134.5 67t-48.5 194q0 123 49.5 190.5t133.5 67.5q118 0 150 -132zM282 712l84 -157h-76l-60 100l-60 -100h-76l84 157h104z
" />
    <glyph glyph-name="cdotaccent" unicode="&#x10b;" horiz-adv-x="409" 
d="M302 355q-11 39 -27.5 59.5t-46.5 20.5q-47 0 -73.5 -47t-26.5 -138q0 -186 101 -186q65 0 90 76l66 -26q-15 -56 -55 -90.5t-105 -34.5q-86 0 -134.5 67t-48.5 194q0 123 49.5 190.5t133.5 67.5q118 0 150 -132zM188.5 579q-16.5 17 -16.5 42q0 26 16 42.5t41 16.5
t41 -16.5t16 -42.5q0 -25 -16.5 -42t-40.5 -17t-40.5 17z" />
    <glyph glyph-name="d" unicode="d" horiz-adv-x="477" 
d="M421 0h-75l-7 87h-2q-14 -44 -45 -71t-81 -27q-75 0 -122 64.5t-47 191.5q0 84 25 143t69.5 89.5t101.5 30.5q47 0 84 -27v217h84v-489zM296 98q26 34 26 88v217q-29 32 -75 32q-54 0 -86.5 -47t-32.5 -141q0 -91 26 -137t70 -46q46 0 72 34z" />
    <glyph glyph-name="eth" unicode="&#xf0;" horiz-adv-x="455" 
d="M314 597q45 -63 71 -145t26 -180q0 -139 -50.5 -211t-140.5 -72q-53 0 -93 30t-62.5 87.5t-22.5 136.5q0 77 23 132.5t64 85t95 29.5q40 0 69 -21q-22 57 -52 98l-113 -46l-22 53l97 40q-26 27 -61 56l64 41q35 -26 71 -67l82 34l21 -54zM326 265q0 64 -11 124
q-29 32 -75 32q-53 0 -83 -45t-30 -128q0 -88 26 -136t73 -48q100 0 100 201z" />
    <glyph glyph-name="dcaron" unicode="&#x10f;" horiz-adv-x="500" 
d="M421 0h-75l-7 87h-2q-14 -44 -45 -71t-81 -27q-75 0 -122 64.5t-47 191.5q0 84 25 143t69.5 89.5t101.5 30.5q47 0 84 -27v217h84v-489zM296 98q26 34 26 88v217q-29 32 -75 32q-54 0 -86.5 -47t-32.5 -141q0 -91 26 -137t70 -46q46 0 72 34zM476 698h80l-50 -184h-55z
" />
    <glyph glyph-name="dcroat" unicode="&#x111;" horiz-adv-x="477" 
d="M458 564h-52v-355l15 -209h-75l-7 87h-2q-14 -44 -45 -71t-81 -27q-75 0 -122 64.5t-47 191.5q0 84 25 143t69.5 89.5t101.5 30.5q47 0 84 -27v83h-125v59h125v75h84v-75h52v-59zM296 98q26 34 26 88v217q-29 32 -75 32q-54 0 -86.5 -47t-32.5 -141q0 -91 26 -137t70 -46
q46 0 72 34z" />
    <glyph glyph-name="e" unicode="e" horiz-adv-x="438" 
d="M395 222h-268q1 -76 31 -117t78 -41q43 0 63.5 16.5t37.5 47.5l55 -43q-49 -96 -161 -96q-89 0 -138.5 64t-49.5 197q0 124 51 191t134 67q77 0 123 -59t46 -174q0 -21 -2 -53zM156 399q-28 -38 -29 -111h188q-1 74 -24.5 111.5t-63.5 37.5q-43 0 -71 -38z" />
    <glyph glyph-name="eacute" unicode="&#xe9;" horiz-adv-x="438" 
d="M395 222h-268q1 -76 31 -117t78 -41q43 0 63.5 16.5t37.5 47.5l55 -43q-49 -96 -161 -96q-89 0 -138.5 64t-49.5 197q0 124 51 191t134 67q77 0 123 -59t46 -174q0 -21 -2 -53zM156 399q-28 -38 -29 -111h188q-1 74 -24.5 111.5t-63.5 37.5q-43 0 -71 -38zM243 555h-80
l83 157h97z" />
    <glyph glyph-name="ebreve" unicode="&#x115;" horiz-adv-x="438" 
d="M395 222h-268q1 -76 31 -117t78 -41q43 0 63.5 16.5t37.5 47.5l55 -43q-49 -96 -161 -96q-89 0 -138.5 64t-49.5 197q0 124 51 191t134 67q77 0 123 -59t46 -174q0 -21 -2 -53zM156 399q-28 -38 -29 -111h188q-1 74 -24.5 111.5t-63.5 37.5q-43 0 -71 -38zM157 717
q0 -43 17.5 -68.5t51.5 -25.5q32 0 50.5 26t18.5 68h65q0 -73 -35.5 -117.5t-98.5 -44.5q-65 0 -100 44t-35 118h66z" />
    <glyph glyph-name="ecaron" unicode="&#x11b;" horiz-adv-x="438" 
d="M395 222h-268q1 -76 31 -117t78 -41q43 0 63.5 16.5t37.5 47.5l55 -43q-49 -96 -161 -96q-89 0 -138.5 64t-49.5 197q0 124 51 191t134 67q77 0 123 -59t46 -174q0 -21 -2 -53zM156 399q-28 -38 -29 -111h188q-1 74 -24.5 111.5t-63.5 37.5q-43 0 -71 -38zM226 612
l60 100h76l-84 -157h-104l-83 157h75z" />
    <glyph glyph-name="ecircumflex" unicode="&#xea;" horiz-adv-x="438" 
d="M395 222h-268q1 -76 31 -117t78 -41q43 0 63.5 16.5t37.5 47.5l55 -43q-49 -96 -161 -96q-89 0 -138.5 64t-49.5 197q0 124 51 191t134 67q77 0 123 -59t46 -174q0 -21 -2 -53zM156 399q-28 -38 -29 -111h188q-1 74 -24.5 111.5t-63.5 37.5q-43 0 -71 -38zM278 712
l84 -157h-76l-60 100l-60 -100h-76l84 157h104z" />
    <glyph glyph-name="edieresis" unicode="&#xeb;" horiz-adv-x="438" 
d="M395 222h-268q1 -76 31 -117t78 -41q43 0 63.5 16.5t37.5 47.5l55 -43q-49 -96 -161 -96q-89 0 -138.5 64t-49.5 197q0 124 51 191t134 67q77 0 123 -59t46 -174q0 -21 -2 -53zM156 399q-28 -38 -29 -111h188q-1 74 -24.5 111.5t-63.5 37.5q-43 0 -71 -38zM105.5 572.5
q-14.5 15.5 -14.5 37.5q0 23 14 38t36 15q21 0 35.5 -15.5t14.5 -37.5t-15 -37.5t-35 -15.5q-21 0 -35.5 15.5zM274.5 572.5q-14.5 15.5 -14.5 37.5q0 23 14 38t36 15q21 0 35.5 -15.5t14.5 -37.5t-15 -37.5t-35 -15.5q-21 0 -35.5 15.5z" />
    <glyph glyph-name="edotaccent" unicode="&#x117;" horiz-adv-x="438" 
d="M395 222h-268q1 -76 31 -117t78 -41q43 0 63.5 16.5t37.5 47.5l55 -43q-49 -96 -161 -96q-89 0 -138.5 64t-49.5 197q0 124 51 191t134 67q77 0 123 -59t46 -174q0 -21 -2 -53zM156 399q-28 -38 -29 -111h188q-1 74 -24.5 111.5t-63.5 37.5q-43 0 -71 -38zM185.5 579
q-16.5 17 -16.5 42q0 26 16 42.5t41 16.5t41 -16.5t16 -42.5q0 -25 -16.5 -42t-40.5 -17t-40.5 17z" />
    <glyph glyph-name="egrave" unicode="&#xe8;" horiz-adv-x="438" 
d="M395 222h-268q1 -76 31 -117t78 -41q43 0 63.5 16.5t37.5 47.5l55 -43q-49 -96 -161 -96q-89 0 -138.5 64t-49.5 197q0 124 51 191t134 67q77 0 123 -59t46 -174q0 -21 -2 -53zM156 399q-28 -38 -29 -111h188q-1 74 -24.5 111.5t-63.5 37.5q-43 0 -71 -38zM205 712
l83 -157h-78l-100 157h95z" />
    <glyph glyph-name="emacron" unicode="&#x113;" horiz-adv-x="438" 
d="M395 222h-268q1 -76 31 -117t78 -41q43 0 63.5 16.5t37.5 47.5l55 -43q-49 -96 -161 -96q-89 0 -138.5 64t-49.5 197q0 124 51 191t134 67q77 0 123 -59t46 -174q0 -21 -2 -53zM156 399q-28 -38 -29 -111h188q-1 74 -24.5 111.5t-63.5 37.5q-43 0 -71 -38zM337 565h-224
v67h224v-67z" />
    <glyph glyph-name="eogonek" unicode="&#x119;" horiz-adv-x="438" 
d="M395 222h-268q1 -76 31 -117t78 -41q43 0 63.5 16.5t37.5 47.5l55 -43q-49 -96 -161 -96q-89 0 -138.5 64t-49.5 197q0 124 51 191t134 67q77 0 123 -59t46 -174q0 -21 -2 -53zM156 399q-28 -38 -29 -111h188q-1 74 -24.5 111.5t-63.5 37.5q-43 0 -71 -38zM322 12
q-29 -25 -44.5 -48t-15.5 -51q0 -24 11 -35t29 -11q28 0 48 33l33 -42q-29 -55 -92 -55q-40 0 -65 24.5t-25 68.5q0 38 17 65t52 53z" />
    <glyph glyph-name="uni0259" unicode="&#x259;" horiz-adv-x="437" 
d="M346 443q48 -65 48 -196q0 -128 -50.5 -193t-133.5 -65q-77 0 -123.5 61.5t-46.5 177.5q0 22 3 46h266q0 78 -26 119.5t-71 41.5q-44 0 -68.5 -18.5t-38.5 -47.5l-60 43q22 42 63.5 69t102.5 27q87 0 135 -65zM282.5 95.5q27.5 35.5 26.5 112.5h-187q2 -74 26 -111
t63 -37q44 0 71.5 35.5z" />
    <glyph glyph-name="f" unicode="f" horiz-adv-x="302" 
d="M171 497h116v-71h-116v-426h-84v426h-60v71h60v76q0 65 34.5 100.5t97.5 35.5q66 0 98 -47l-44 -55q-11 14 -22.5 21.5t-25.5 7.5q-27 0 -40.5 -17t-13.5 -53v-69z" />
    <glyph glyph-name="g" unicode="g" horiz-adv-x="482" 
d="M351 497h75l-15 -200v-308q0 -89 -53 -137.5t-146 -48.5q-105 0 -163 87l59 56q23 -36 48 -53.5t64 -17.5q107 0 107 124v92h-2q-14 -40 -43.5 -62t-73.5 -22q-74 0 -119.5 66.5t-45.5 185.5q0 78 22 134t61 85.5t90 29.5q98 0 126 -98h2zM299.5 128.5
q27.5 46.5 27.5 129.5q0 84 -26 130.5t-71 46.5q-47 0 -73.5 -44t-26.5 -130q0 -90 24.5 -134.5t71.5 -44.5q46 0 73.5 46.5z" />
    <glyph glyph-name="gbreve" unicode="&#x11f;" horiz-adv-x="482" 
d="M351 497h75l-15 -200v-308q0 -89 -53 -137.5t-146 -48.5q-105 0 -163 87l59 56q23 -36 48 -53.5t64 -17.5q107 0 107 124v92h-2q-14 -40 -43.5 -62t-73.5 -22q-74 0 -119.5 66.5t-45.5 185.5q0 78 22 134t61 85.5t90 29.5q98 0 126 -98h2zM299.5 128.5
q27.5 46.5 27.5 129.5q0 84 -26 130.5t-71 46.5q-47 0 -73.5 -44t-26.5 -130q0 -90 24.5 -134.5t71.5 -44.5q46 0 73.5 46.5zM161 717q0 -43 17.5 -68.5t51.5 -25.5q32 0 50.5 26t18.5 68h65q0 -73 -35.5 -117.5t-98.5 -44.5q-65 0 -100 44t-35 118h66z" />
    <glyph glyph-name="gcircumflex" unicode="&#x11d;" horiz-adv-x="482" 
d="M351 497h75l-15 -200v-308q0 -89 -53 -137.5t-146 -48.5q-105 0 -163 87l59 56q23 -36 48 -53.5t64 -17.5q107 0 107 124v92h-2q-14 -40 -43.5 -62t-73.5 -22q-74 0 -119.5 66.5t-45.5 185.5q0 78 22 134t61 85.5t90 29.5q98 0 126 -98h2zM299.5 128.5
q27.5 46.5 27.5 129.5q0 84 -26 130.5t-71 46.5q-47 0 -73.5 -44t-26.5 -130q0 -90 24.5 -134.5t71.5 -44.5q46 0 73.5 46.5zM282 712l84 -157h-76l-60 100l-60 -100h-76l84 157h104z" />
    <glyph glyph-name="uni0123" unicode="&#x123;" horiz-adv-x="482" 
d="M351 497h75l-15 -200v-308q0 -89 -53 -137.5t-146 -48.5q-105 0 -163 87l59 56q23 -36 48 -53.5t64 -17.5q107 0 107 124v92h-2q-14 -40 -43.5 -62t-73.5 -22q-74 0 -119.5 66.5t-45.5 185.5q0 78 22 134t61 85.5t90 29.5q98 0 126 -98h2zM299.5 128.5
q27.5 46.5 27.5 129.5q0 84 -26 130.5t-71 46.5q-47 0 -73.5 -44t-26.5 -130q0 -90 24.5 -134.5t71.5 -44.5q46 0 73.5 46.5zM197 698q23 32 60 47l20 -26q-43 -30 -45 -71q18 0 33 -11.5t15 -33.5q0 -21 -13.5 -34t-36.5 -13q-27 0 -41.5 17t-14.5 50q0 43 23 75z" />
    <glyph glyph-name="gdotaccent" unicode="&#x121;" horiz-adv-x="482" 
d="M351 497h75l-15 -200v-308q0 -89 -53 -137.5t-146 -48.5q-105 0 -163 87l59 56q23 -36 48 -53.5t64 -17.5q107 0 107 124v92h-2q-14 -40 -43.5 -62t-73.5 -22q-74 0 -119.5 66.5t-45.5 185.5q0 78 22 134t61 85.5t90 29.5q98 0 126 -98h2zM299.5 128.5
q27.5 46.5 27.5 129.5q0 84 -26 130.5t-71 46.5q-47 0 -73.5 -44t-26.5 -130q0 -90 24.5 -134.5t71.5 -44.5q46 0 73.5 46.5zM189.5 579q-16.5 17 -16.5 42q0 26 16 42.5t41 16.5t41 -16.5t16 -42.5q0 -25 -16.5 -42t-40.5 -17t-40.5 17z" />
    <glyph glyph-name="h" unicode="h" horiz-adv-x="468" 
d="M368.5 462q35.5 -46 35.5 -133v-329h-84v323q0 57 -21 83.5t-58 26.5q-39 0 -64 -27.5t-25 -82.5v-323h-84v698h84v-263h2q14 34 44.5 53.5t74.5 19.5q60 0 95.5 -46z" />
    <glyph glyph-name="hbar" unicode="&#x127;" horiz-adv-x="468" 
d="M368.5 462q35.5 -46 35.5 -133v-329h-84v323q0 57 -21 83.5t-58 26.5q-39 0 -64 -27.5t-25 -82.5v-323h-84v564h-52v59h52v75h84v-75h125v-59h-125v-129h2q14 34 44.5 53.5t74.5 19.5q60 0 95.5 -46z" />
    <glyph glyph-name="hcircumflex" unicode="&#x125;" horiz-adv-x="468" 
d="M368.5 462q35.5 -46 35.5 -133v-329h-84v323q0 57 -21 83.5t-58 26.5q-39 0 -64 -27.5t-25 -82.5v-323h-84v698h84v-263h2q14 34 44.5 53.5t74.5 19.5q60 0 95.5 -46zM163 860l84 -131h-78l-60 84l-60 -84h-78l84 131h108z" />
    <glyph glyph-name="i" unicode="i" horiz-adv-x="220" 
d="M68 590q-17 17 -17 42q0 26 17 42.5t42 16.5q26 0 42.5 -16.5t16.5 -42.5q0 -25 -17 -42t-42 -17t-42 17zM152 0h-84v497h84v-497z" />
    <glyph glyph-name="dotlessi" unicode="&#x131;" horiz-adv-x="220" 
d="M152 0h-84v497h84v-497z" />
    <glyph glyph-name="iacute" unicode="&#xed;" horiz-adv-x="220" 
d="M152 0h-84v497h84v-497zM127 555h-80l83 157h97z" />
    <glyph glyph-name="ibreve" unicode="&#x12d;" horiz-adv-x="220" 
d="M152 0h-84v497h84v-497zM41 717q0 -43 17.5 -68.5t51.5 -25.5q32 0 50.5 26t18.5 68h65q0 -73 -35.5 -117.5t-98.5 -44.5q-65 0 -100 44t-35 118h66z" />
    <glyph glyph-name="icircumflex" unicode="&#xee;" horiz-adv-x="220" 
d="M152 0h-84v497h84v-497zM162 712l84 -157h-76l-60 100l-60 -100h-76l84 157h104z" />
    <glyph glyph-name="idieresis" unicode="&#xef;" horiz-adv-x="220" 
d="M152 0h-84v497h84v-497zM-9.5 572.5q-14.5 15.5 -14.5 37.5q0 23 14 38t36 15q21 0 35.5 -15.5t14.5 -37.5t-15 -37.5t-35 -15.5q-21 0 -35.5 15.5zM159.5 572.5q-14.5 15.5 -14.5 37.5q0 23 14 38t36 15q21 0 35.5 -15.5t14.5 -37.5t-15 -37.5t-35 -15.5
q-21 0 -35.5 15.5z" />
    <glyph glyph-name="igrave" unicode="&#xec;" horiz-adv-x="220" 
d="M152 0h-84v497h84v-497zM89 712l83 -157h-78l-100 157h95z" />
    <glyph glyph-name="ij" unicode="&#x133;" horiz-adv-x="440" 
d="M68 590q-17 17 -17 42q0 26 17 42.5t42 16.5q26 0 42.5 -16.5t16.5 -42.5q0 -25 -17 -42t-42 -17t-42 17zM152 0h-84v497h84v-497zM288 590q-17 17 -17 42q0 26 17 42.5t42 16.5t42 -17t17 -42t-17 -42t-42 -17t-42 17zM372 -57q0 -67 -36 -103t-97 -36q-37 0 -67 17
l17 69q16 -14 42 -14q57 0 57 71v550h84v-554z" />
    <glyph glyph-name="imacron" unicode="&#x12b;" horiz-adv-x="220" 
d="M152 0h-84v497h84v-497zM222 565h-224v67h224v-67z" />
    <glyph glyph-name="iogonek" unicode="&#x12f;" horiz-adv-x="222" 
d="M70 590q-17 17 -17 42q0 26 17 42.5t42 16.5q26 0 42.5 -16.5t16.5 -42.5q0 -25 -17 -42t-42 -17t-42 17zM154 0h-84v497h84v-497zM140 0q-34 0 -59.5 -24.5t-25.5 -62.5q0 -22 9.5 -34t26.5 -12q16 0 25.5 7.5t19.5 20.5l31 -41q-30 -51 -84 -51q-40 0 -65 26.5
t-25 72.5q0 45 26.5 78.5t68.5 43.5z" />
    <glyph glyph-name="itilde" unicode="&#x129;" horiz-adv-x="220" 
d="M152 0h-84v497h84v-497zM198 705q1 -40 -3 -59t-18 -19q-9 0 -15.5 4.5t-19.5 17.5l-37 38q-26 26 -64 26q-36 0 -57.5 -29.5t-21.5 -88.5q0 -19 1 -30h57q-1 39 3.5 58.5t17.5 19.5q9 0 15 -4t20 -18l38 -38q27 -27 63 -27t58 29.5t22 87.5q0 10 -2 32h-57z" />
    <glyph glyph-name="j" unicode="j" horiz-adv-x="220" 
d="M68 590q-17 17 -17 42q0 26 17 42.5t42 16.5t42 -17t17 -42t-17 -42t-42 -17t-42 17zM152 -57q0 -67 -36 -103t-97 -36q-37 0 -67 17l17 69q16 -14 42 -14q57 0 57 71v550h84v-554z" />
    <glyph glyph-name="uni0237" unicode="&#x237;" horiz-adv-x="220" 
d="M152 -57q0 -67 -36 -103t-97 -36q-37 0 -67 17l17 69q16 -14 42 -14q57 0 57 71v550h84v-554z" />
    <glyph glyph-name="jcircumflex" unicode="&#x135;" horiz-adv-x="220" 
d="M152 -57q0 -67 -36 -103t-97 -36q-37 0 -67 17l17 69q16 -14 42 -14q57 0 57 71v550h84v-554zM161 712l84 -157h-76l-60 100l-60 -100h-76l84 157h104z" />
    <glyph glyph-name="k" unicode="k" horiz-adv-x="435" 
d="M325 0l-123 220l-50 -54v-166h-84v698h84v-439q74 78 108 120.5t43.5 65.5t11.5 52h82q0 -36 -7.5 -61.5t-35.5 -63t-88 -99.5l158 -273h-99z" />
    <glyph glyph-name="uni0137" unicode="&#x137;" horiz-adv-x="435" 
d="M325 0l-123 220l-50 -54v-166h-84v698h84v-439q74 78 108 120.5t43.5 65.5t11.5 52h82q0 -36 -7.5 -61.5t-35.5 -63t-88 -99.5l158 -273h-99zM268.5 -188.5q-23.5 -33.5 -59.5 -49.5l-21 26q22 15 34 35.5t14 42.5q-19 0 -34.5 11.5t-15.5 33.5q0 21 13.5 34t36.5 13
q27 0 41.5 -17.5t14.5 -50.5q0 -45 -23.5 -78.5z" />
    <glyph glyph-name="l" unicode="l" horiz-adv-x="278" 
d="M67 698h84v-564q0 -37 11.5 -54.5t34.5 -17.5q27 0 48 19l28 -58q-14 -15 -39 -24.5t-56 -9.5q-51 0 -81 35t-30 101v573z" />
    <glyph glyph-name="lacute" unicode="&#x13a;" horiz-adv-x="278" 
d="M67 698h84v-564q0 -37 11.5 -54.5t34.5 -17.5q27 0 48 19l28 -58q-14 -15 -39 -24.5t-56 -9.5q-51 0 -81 35t-30 101v573zM129 729h-85l83 131h102z" />
    <glyph glyph-name="lcaron" unicode="&#x13e;" horiz-adv-x="278" 
d="M67 698h84v-564q0 -37 11.5 -54.5t34.5 -17.5q27 0 48 19l28 -58q-14 -15 -39 -24.5t-56 -9.5q-51 0 -81 35t-30 101v573zM216 698h80l-50 -184h-55z" />
    <glyph glyph-name="uni013C" unicode="&#x13c;" horiz-adv-x="278" 
d="M67 698h84v-564q0 -37 11.5 -54.5t34.5 -17.5q27 0 48 19l28 -58q-14 -15 -39 -24.5t-56 -9.5q-51 0 -81 35t-30 101v573zM203.5 -188.5q-23.5 -33.5 -59.5 -49.5l-21 26q22 15 34 35.5t14 42.5q-19 0 -34.5 11.5t-15.5 33.5q0 21 13.5 34t36.5 13q27 0 41.5 -17.5
t14.5 -50.5q0 -45 -23.5 -78.5z" />
    <glyph glyph-name="ldot" unicode="&#x140;" horiz-adv-x="277" 
d="M67 698h84v-564q0 -37 11.5 -54.5t34.5 -17.5q27 0 48 19l28 -58q-14 -15 -39 -24.5t-56 -9.5q-51 0 -81 35t-30 101v573zM207.5 330q-16.5 17 -16.5 42q0 26 16 42.5t41 16.5t41 -16.5t16 -42.5q0 -25 -16.5 -42t-40.5 -17t-40.5 17z" />
    <glyph glyph-name="lslash" unicode="&#x142;" horiz-adv-x="318" 
d="M293 23q-14 -15 -39 -24.5t-56 -9.5q-51 0 -81 35t-30 101v198l-46 -19l-22 55l68 28v311h84v-276l96 40l22 -55l-118 -49v-224q0 -37 11.5 -54.5t34.5 -17.5q27 0 48 19z" />
    <glyph glyph-name="m" unicode="m" horiz-adv-x="693" 
d="M593.5 464.5q35.5 -43.5 35.5 -125.5v-339h-84v331q0 102 -74 102q-35 0 -57 -25.5t-22 -76.5v-331h-84v331q0 102 -73 102q-35 0 -57.5 -25.5t-22.5 -76.5v-331h-84v297l-16 200h75l6 -72h3q29 83 125 83q39 0 67.5 -19.5t44.5 -57.5h2q32 77 122 77q58 0 93.5 -43.5z
" />
    <glyph glyph-name="n" unicode="n" horiz-adv-x="472" 
d="M370.5 462q37.5 -46 37.5 -133v-329h-84v323q0 57 -21.5 83.5t-59.5 26.5t-62.5 -27.5t-24.5 -82.5v-323h-84v299l-16 198h75l7 -72h2q13 39 46.5 61t82.5 22q64 0 101.5 -46z" />
    <glyph glyph-name="nacute" unicode="&#x144;" horiz-adv-x="471" 
d="M369.5 462q37.5 -46 37.5 -133v-329h-84v323q0 57 -21.5 83.5t-59.5 26.5t-62.5 -27.5t-24.5 -82.5v-323h-84v299l-16 198h75l7 -72h2q13 39 46.5 61t82.5 22q64 0 101.5 -46zM263 555h-80l83 157h97z" />
    <glyph glyph-name="napostrophe" unicode="&#x149;" horiz-adv-x="472" 
d="M370.5 462q37.5 -46 37.5 -133v-329h-84v323q0 57 -21.5 83.5t-59.5 26.5t-62.5 -27.5t-24.5 -82.5v-323h-84v299l-16 198h75l7 -72h2q13 39 46.5 61t82.5 22q64 0 101.5 -46zM21.5 562.5q-23.5 -33.5 -59.5 -49.5l-21 26q22 15 34 35.5t14 42.5q-19 0 -34.5 11.5
t-15.5 33.5q0 21 13.5 34t36.5 13q27 0 41.5 -17.5t14.5 -50.5q0 -45 -23.5 -78.5z" />
    <glyph glyph-name="ncaron" unicode="&#x148;" horiz-adv-x="471" 
d="M369.5 462q37.5 -46 37.5 -133v-329h-84v323q0 57 -21.5 83.5t-59.5 26.5t-62.5 -27.5t-24.5 -82.5v-323h-84v299l-16 198h75l7 -72h2q13 39 46.5 61t82.5 22q64 0 101.5 -46zM246 612l60 100h76l-84 -157h-104l-83 157h75z" />
    <glyph glyph-name="uni0146" unicode="&#x146;" horiz-adv-x="471" 
d="M369.5 462q37.5 -46 37.5 -133v-329h-84v323q0 57 -21.5 83.5t-59.5 26.5t-62.5 -27.5t-24.5 -82.5v-323h-84v299l-16 198h75l7 -72h2q13 39 46.5 61t82.5 22q64 0 101.5 -46zM271.5 -188.5q-23.5 -33.5 -59.5 -49.5l-21 26q22 15 34 35.5t14 42.5q-19 0 -34.5 11.5
t-15.5 33.5q0 21 13.5 34t36.5 13q27 0 41.5 -17.5t14.5 -50.5q0 -45 -23.5 -78.5z" />
    <glyph glyph-name="eng" unicode="&#x14b;" horiz-adv-x="471" 
d="M369.5 462q37.5 -46 37.5 -133v-386q0 -67 -36 -103t-97 -36q-37 0 -67 17l17 69q16 -14 42 -14q57 0 57 71v376q0 57 -21.5 83.5t-59.5 26.5t-62.5 -27.5t-24.5 -82.5v-323h-84v299l-16 198h75l7 -72h1q14 39 47.5 61t82.5 22q64 0 101.5 -46z" />
    <glyph glyph-name="ntilde" unicode="&#xf1;" horiz-adv-x="471" 
d="M369.5 462q37.5 -46 37.5 -133v-329h-84v323q0 57 -21.5 83.5t-59.5 26.5t-62.5 -27.5t-24.5 -82.5v-323h-84v299l-16 198h75l7 -72h2q13 39 46.5 61t82.5 22q64 0 101.5 -46zM334 705q1 -40 -3 -59t-18 -19q-9 0 -15.5 4.5t-19.5 17.5l-37 38q-26 26 -64 26
q-36 0 -57.5 -29.5t-21.5 -88.5q0 -19 1 -30h57q-1 39 3.5 58.5t17.5 19.5q9 0 15 -4t20 -18l38 -38q27 -27 63 -27t58 29.5t22 87.5q0 10 -2 32h-57z" />
    <glyph glyph-name="o" unicode="o" horiz-adv-x="454" 
d="M92.5 440.5q50.5 67.5 134.5 67.5t134.5 -67.5t50.5 -192.5t-50.5 -192t-134.5 -67q-85 0 -135 67t-50 192t50.5 192.5zM299 388.5q-27 46.5 -72 46.5t-72 -46.5t-27 -140.5t26.5 -139t72.5 -45t72.5 45t26.5 139t-27 140.5z" />
    <glyph glyph-name="oacute" unicode="&#xf3;" horiz-adv-x="454" 
d="M92.5 440.5q50.5 67.5 134.5 67.5t134.5 -67.5t50.5 -192.5t-50.5 -192t-134.5 -67q-85 0 -135 67t-50 192t50.5 192.5zM299 388.5q-27 46.5 -72 46.5t-72 -46.5t-27 -140.5t26.5 -139t72.5 -45t72.5 45t26.5 139t-27 140.5zM244 555h-80l83 157h97z" />
    <glyph glyph-name="obreve" unicode="&#x14f;" horiz-adv-x="454" 
d="M92.5 440.5q50.5 67.5 134.5 67.5t134.5 -67.5t50.5 -192.5t-50.5 -192t-134.5 -67q-85 0 -135 67t-50 192t50.5 192.5zM299 388.5q-27 46.5 -72 46.5t-72 -46.5t-27 -140.5t26.5 -139t72.5 -45t72.5 45t26.5 139t-27 140.5zM158 717q0 -43 17.5 -68.5t51.5 -25.5
q32 0 50.5 26t18.5 68h65q0 -73 -35.5 -117.5t-98.5 -44.5q-65 0 -100 44t-35 118h66z" />
    <glyph glyph-name="ocircumflex" unicode="&#xf4;" horiz-adv-x="454" 
d="M92.5 440.5q50.5 67.5 134.5 67.5t134.5 -67.5t50.5 -192.5t-50.5 -192t-134.5 -67q-85 0 -135 67t-50 192t50.5 192.5zM299 388.5q-27 46.5 -72 46.5t-72 -46.5t-27 -140.5t26.5 -139t72.5 -45t72.5 45t26.5 139t-27 140.5zM279 712l84 -157h-76l-60 100l-60 -100h-76
l84 157h104z" />
    <glyph glyph-name="odieresis" unicode="&#xf6;" horiz-adv-x="454" 
d="M92.5 440.5q50.5 67.5 134.5 67.5t134.5 -67.5t50.5 -192.5t-50.5 -192t-134.5 -67q-85 0 -135 67t-50 192t50.5 192.5zM299 388.5q-27 46.5 -72 46.5t-72 -46.5t-27 -140.5t26.5 -139t72.5 -45t72.5 45t26.5 139t-27 140.5zM106.5 572.5q-14.5 15.5 -14.5 37.5
q0 23 14 38t36 15q21 0 35.5 -15.5t14.5 -37.5t-15 -37.5t-35 -15.5q-21 0 -35.5 15.5zM275.5 572.5q-14.5 15.5 -14.5 37.5q0 23 14 38t36 15q21 0 35.5 -15.5t14.5 -37.5t-15 -37.5t-35 -15.5q-21 0 -35.5 15.5z" />
    <glyph glyph-name="ograve" unicode="&#xf2;" horiz-adv-x="454" 
d="M92.5 440.5q50.5 67.5 134.5 67.5t134.5 -67.5t50.5 -192.5t-50.5 -192t-134.5 -67q-85 0 -135 67t-50 192t50.5 192.5zM299 388.5q-27 46.5 -72 46.5t-72 -46.5t-27 -140.5t26.5 -139t72.5 -45t72.5 45t26.5 139t-27 140.5zM206 712l83 -157h-78l-100 157h95z" />
    <glyph glyph-name="ohungarumlaut" unicode="&#x151;" horiz-adv-x="454" 
d="M92.5 440.5q50.5 67.5 134.5 67.5t134.5 -67.5t50.5 -192.5t-50.5 -192t-134.5 -67q-85 0 -135 67t-50 192t50.5 192.5zM299 388.5q-27 46.5 -72 46.5t-72 -46.5t-27 -140.5t26.5 -139t72.5 -45t72.5 45t26.5 139t-27 140.5zM184 555h-64l82 157h75zM309 555h-63l82 157
h75z" />
    <glyph glyph-name="omacron" unicode="&#x14d;" horiz-adv-x="454" 
d="M92.5 440.5q50.5 67.5 134.5 67.5t134.5 -67.5t50.5 -192.5t-50.5 -192t-134.5 -67q-85 0 -135 67t-50 192t50.5 192.5zM299 388.5q-27 46.5 -72 46.5t-72 -46.5t-27 -140.5t26.5 -139t72.5 -45t72.5 45t26.5 139t-27 140.5zM338 565h-224v67h224v-67z" />
    <glyph glyph-name="oslash" unicode="&#xf8;" horiz-adv-x="466" 
d="M436 493l-53 -77q35 -67 35 -168q0 -125 -50.5 -192t-134.5 -67q-66 0 -113 42l-42 -63l-48 35l53 78q-35 64 -35 167q0 125 50.5 192.5t134.5 67.5q67 0 112 -42l43 62zM161 388.5q-27 -46.5 -27 -140.5q0 -43 7 -83l158 233q-25 37 -66 37q-45 0 -72 -46.5zM305.5 109
q26.5 45 26.5 139q0 47 -8 84l-157 -233q25 -35 66 -35q46 0 72.5 45z" />
    <glyph glyph-name="oslashacute" unicode="&#x1ff;" horiz-adv-x="466" 
d="M436 493l-53 -77q35 -67 35 -168q0 -125 -50.5 -192t-134.5 -67q-66 0 -113 42l-42 -63l-48 35l53 78q-35 64 -35 167q0 125 50.5 192.5t134.5 67.5q67 0 112 -42l43 62zM161 388.5q-27 -46.5 -27 -140.5q0 -43 7 -83l158 233q-25 37 -66 37q-45 0 -72 -46.5zM305.5 109
q26.5 45 26.5 139q0 47 -8 84l-157 -233q25 -35 66 -35q46 0 72.5 45zM248 555h-80l83 157h97z" />
    <glyph glyph-name="otilde" unicode="&#xf5;" horiz-adv-x="454" 
d="M92.5 440.5q50.5 67.5 134.5 67.5t134.5 -67.5t50.5 -192.5t-50.5 -192t-134.5 -67q-85 0 -135 67t-50 192t50.5 192.5zM299 388.5q-27 46.5 -72 46.5t-72 -46.5t-27 -140.5t26.5 -139t72.5 -45t72.5 45t26.5 139t-27 140.5zM315 705q1 -40 -3 -59t-18 -19
q-9 0 -15.5 4.5t-19.5 17.5l-37 38q-26 26 -64 26q-36 0 -57.5 -29.5t-21.5 -88.5q0 -19 1 -30h57q-1 39 3.5 58.5t17.5 19.5q9 0 15 -4t20 -18l38 -38q27 -27 63 -27t58 29.5t22 87.5q0 10 -2 32h-57z" />
    <glyph glyph-name="oe" unicode="&#x153;" horiz-adv-x="724" 
d="M681 222h-270q1 -76 31.5 -117t78.5 -41q43 0 64 16.5t38 47.5l55 -43q-49 -96 -155 -96q-115 0 -156 112h-2q-19 -55 -55.5 -83.5t-85.5 -28.5q-83 0 -132.5 67t-49.5 192t49.5 192.5t132.5 67.5q50 0 86.5 -29.5t55.5 -85.5h2q21 56 60.5 85.5t93.5 29.5
q74 0 117.5 -59t43.5 -174q0 -21 -2 -53zM440 399q-28 -38 -29 -111h190q-1 74 -25 111.5t-64 37.5q-44 0 -72 -38zM301.5 109q26.5 45 26.5 139t-27.5 140.5t-72.5 46.5t-72.5 -46.5t-27.5 -140.5t26.5 -139t73.5 -45t73.5 45z" />
    <glyph glyph-name="p" unicode="p" horiz-adv-x="480" 
d="M391.5 444q45.5 -64 45.5 -186q0 -84 -23.5 -145t-65.5 -92.5t-96 -31.5q-57 0 -97 32v-207h-84v473l-15 210h75l7 -89h2q14 45 48.5 72.5t83.5 27.5q74 0 119.5 -64zM321 111.5q30 47.5 30 141.5q0 91 -26 136.5t-69 45.5t-72 -34.5t-29 -93.5v-202q32 -41 86 -41
q50 0 80 47.5z" />
    <glyph glyph-name="thorn" unicode="&#xfe;" horiz-adv-x="477" 
d="M390 443.5q44 -64.5 44 -185.5q0 -84 -23.5 -144.5t-65 -92t-95.5 -31.5q-57 0 -98 32v-208h-84v884h84v-272h2q11 35 43 58.5t79 23.5q70 0 114 -64.5zM318 111.5q30 47.5 30 142.5q0 90 -26 136t-69 46t-72 -35t-29 -94v-203q32 -40 86 -40q50 0 80 47.5z" />
    <glyph glyph-name="q" unicode="q" horiz-adv-x="485" 
d="M353 497h76l-15 -198v-485h-83v258h-3q-12 -40 -43 -61.5t-78 -21.5q-75 0 -120 68t-45 191q0 82 23 140.5t63.5 89t92.5 30.5q50 0 80.5 -27.5t41.5 -71.5h3zM301.5 111q28.5 47 28.5 139q0 91 -27 138t-72 47q-48 0 -75.5 -46.5t-27.5 -137.5q0 -94 25.5 -140.5
t71.5 -46.5q48 0 76.5 47z" />
    <glyph glyph-name="r" unicode="r" horiz-adv-x="309" 
d="M293 499l-10 -77q-18 9 -40 9q-40 0 -64 -27t-24 -81v-323h-84v299l-16 198h77l6 -77h2q11 38 40 63t69 25q26 0 44 -9z" />
    <glyph glyph-name="racute" unicode="&#x155;" horiz-adv-x="309" 
d="M293 499l-10 -77q-18 9 -40 9q-40 0 -64 -27t-24 -81v-323h-84v299l-16 198h77l6 -77h2q11 38 40 63t69 25q26 0 44 -9zM191 555h-80l83 157h97z" />
    <glyph glyph-name="rcaron" unicode="&#x159;" horiz-adv-x="309" 
d="M293 499l-10 -77q-18 9 -40 9q-40 0 -64 -27t-24 -81v-323h-84v299l-16 198h77l6 -77h2q11 38 40 63t69 25q26 0 44 -9zM175 612l60 100h76l-84 -157h-104l-83 157h75z" />
    <glyph glyph-name="uni0157" unicode="&#x157;" horiz-adv-x="309" 
d="M293 499l-10 -77q-18 9 -40 9q-40 0 -64 -27t-24 -81v-323h-84v299l-16 198h77l6 -77h2q11 38 40 63t69 25q26 0 44 -9zM145.5 -188.5q-23.5 -33.5 -59.5 -49.5l-21 26q22 15 34 35.5t14 42.5q-19 0 -34.5 11.5t-15.5 33.5q0 21 13.5 34t36.5 13q27 0 41.5 -17.5
t14.5 -50.5q0 -45 -23.5 -78.5z" />
    <glyph glyph-name="s" unicode="s" horiz-adv-x="376" 
d="M71 118q24 -27 48.5 -41t60.5 -14q34 0 54.5 16.5t20.5 46.5q0 27 -15 45t-49 38l-47 27q-45 26 -71 57.5t-26 80.5q0 60 42.5 97t106.5 37q48 0 79 -15t58 -43l-38 -61q-26 23 -48 35t-51 12q-28 0 -47 -15t-19 -41q0 -29 15.5 -44.5t56.5 -38.5l46 -26q41 -23 66 -57
t25 -84q0 -64 -44 -102.5t-112 -38.5q-94 0 -156 64z" />
    <glyph glyph-name="sacute" unicode="&#x15b;" horiz-adv-x="376" 
d="M71 118q24 -27 48.5 -41t60.5 -14q34 0 54.5 16.5t20.5 46.5q0 27 -15 45t-49 38l-47 27q-45 26 -71 57.5t-26 80.5q0 60 42.5 97t106.5 37q48 0 79 -15t58 -43l-38 -61q-26 23 -48 35t-51 12q-28 0 -47 -15t-19 -41q0 -29 15.5 -44.5t56.5 -38.5l46 -26q41 -23 66 -57
t25 -84q0 -64 -44 -102.5t-112 -38.5q-94 0 -156 64zM207 555h-80l83 157h97z" />
    <glyph glyph-name="scaron" unicode="&#x161;" horiz-adv-x="376" 
d="M71 118q24 -27 48.5 -41t60.5 -14q34 0 54.5 16.5t20.5 46.5q0 27 -15 45t-49 38l-47 27q-45 26 -71 57.5t-26 80.5q0 60 42.5 97t106.5 37q48 0 79 -15t58 -43l-38 -61q-26 23 -48 35t-51 12q-28 0 -47 -15t-19 -41q0 -29 15.5 -44.5t56.5 -38.5l46 -26q41 -23 66 -57
t25 -84q0 -64 -44 -102.5t-112 -38.5q-94 0 -156 64zM190 612l60 100h76l-84 -157h-104l-83 157h75z" />
    <glyph glyph-name="scedilla" unicode="&#x15f;" horiz-adv-x="376" 
d="M71 118q24 -27 48.5 -41t60.5 -14q34 0 54.5 16.5t20.5 46.5q0 27 -15 45t-49 38l-47 27q-45 26 -71 57.5t-26 80.5q0 60 42.5 97t106.5 37q48 0 79 -15t58 -43l-38 -61q-26 23 -48 35t-51 12q-28 0 -47 -15t-19 -41q0 -29 15.5 -44.5t56.5 -38.5l46 -26q41 -23 66 -57
t25 -84q0 -64 -44 -102.5t-112 -38.5q-94 0 -156 64zM256 -70q23 -20 23 -57q0 -41 -28 -65t-72 -24q-47 0 -79 26l18 47q26 -22 56 -22q22 0 34.5 9t12.5 27q0 17 -12.5 25t-31.5 8q-26 0 -50 -11l-12 28l57 105h56l-43 -76h13q35 0 58 -20z" />
    <glyph glyph-name="scircumflex" unicode="&#x15d;" horiz-adv-x="376" 
d="M71 118q24 -27 48.5 -41t60.5 -14q34 0 54.5 16.5t20.5 46.5q0 27 -15 45t-49 38l-47 27q-45 26 -71 57.5t-26 80.5q0 60 42.5 97t106.5 37q48 0 79 -15t58 -43l-38 -61q-26 23 -48 35t-51 12q-28 0 -47 -15t-19 -41q0 -29 15.5 -44.5t56.5 -38.5l46 -26q41 -23 66 -57
t25 -84q0 -64 -44 -102.5t-112 -38.5q-94 0 -156 64zM242 712l84 -157h-76l-60 100l-60 -100h-76l84 157h104z" />
    <glyph glyph-name="uni0219" unicode="&#x219;" horiz-adv-x="376" 
d="M71 118q24 -27 48.5 -41t60.5 -14q34 0 54.5 16.5t20.5 46.5q0 27 -15 45t-49 38l-47 27q-45 26 -71 57.5t-26 80.5q0 60 42.5 97t106.5 37q48 0 79 -15t58 -43l-38 -61q-26 23 -48 35t-51 12q-28 0 -47 -15t-19 -41q0 -29 15.5 -44.5t56.5 -38.5l46 -26q41 -23 66 -57
t25 -84q0 -64 -44 -102.5t-112 -38.5q-94 0 -156 64zM215.5 -188.5q-23.5 -33.5 -59.5 -49.5l-21 26q22 15 34 35.5t14 42.5q-19 0 -34.5 11.5t-15.5 33.5q0 21 13.5 34t36.5 13q27 0 41.5 -17.5t14.5 -50.5q0 -45 -23.5 -78.5z" />
    <glyph glyph-name="germandbls" unicode="&#xdf;" horiz-adv-x="506" 
d="M68 504q0 96 50 150.5t138 54.5q79 0 123 -50.5t44 -131.5q0 -118 -89 -172v-2q58 -16 96 -61t38 -125q0 -82 -45 -130t-122 -48q-26 0 -50 6.5t-41 17.5l23 72q27 -22 62 -22q45 0 67 25.5t22 80.5q0 64 -38 100t-106 39v62q48 18 74.5 57.5t26.5 94.5q0 54 -23 84
t-66 30q-48 0 -74 -33.5t-26 -98.5v-504h-84v504z" />
    <glyph glyph-name="t" unicode="t" horiz-adv-x="314" 
d="M309 30q-39 -41 -105 -41q-56 0 -89 35.5t-33 102.5v299h-60v71h60v126h84v-126h128v-71h-128v-290q0 -72 53 -72q32 0 58 26z" />
    <glyph glyph-name="tbar" unicode="&#x167;" horiz-adv-x="321" 
d="M313 30q-39 -41 -105 -41q-56 0 -89 35.5t-33 102.5v116h-55v59h55v124h-60v71h60v126h84v-126h128v-71h-128v-124h106v-59h-106v-107q0 -72 53 -72q32 0 58 26z" />
    <glyph glyph-name="tcaron" unicode="&#x165;" horiz-adv-x="318" 
d="M309 30q-39 -41 -105 -41q-56 0 -89 35.5t-33 102.5v299h-60v71h60v126h84v-126h128v-71h-128v-290q0 -72 53 -72q32 0 58 26zM231 718h80l-50 -184h-55z" />
    <glyph glyph-name="uni0163" unicode="&#x163;" horiz-adv-x="314" 
d="M309 30q-39 -41 -105 -41q-56 0 -89 35.5t-33 102.5v299h-60v71h60v126h84v-126h128v-71h-128v-290q0 -72 53 -72q32 0 58 26zM215.5 -188.5q-23.5 -33.5 -59.5 -49.5l-21 26q22 15 34 35.5t14 42.5q-19 0 -34.5 11.5t-15.5 33.5q0 21 13.5 34t36.5 13q27 0 41.5 -17.5
t14.5 -50.5q0 -45 -23.5 -78.5z" />
    <glyph glyph-name="uni021B" unicode="&#x21b;" horiz-adv-x="314" 
d="M309 30q-39 -41 -105 -41q-56 0 -89 35.5t-33 102.5v299h-60v71h60v126h84v-126h128v-71h-128v-290q0 -72 53 -72q32 0 58 26zM215.5 -188.5q-23.5 -33.5 -59.5 -49.5l-21 26q22 15 34 35.5t14 42.5q-19 0 -34.5 11.5t-15.5 33.5q0 21 13.5 34t36.5 13q27 0 41.5 -17.5
t14.5 -50.5q0 -45 -23.5 -78.5z" />
    <glyph glyph-name="u" unicode="u" horiz-adv-x="469" 
d="M413 0h-75l-6 72h-2q-14 -39 -47 -61t-82 -22q-62 0 -99.5 45.5t-37.5 132.5v330h84v-322q0 -109 80 -109q37 0 61 27t24 82v322h84v-299z" />
    <glyph glyph-name="uacute" unicode="&#xfa;" horiz-adv-x="469" 
d="M413 0h-75l-6 72h-2q-14 -39 -47 -61t-82 -22q-62 0 -99.5 45.5t-37.5 132.5v330h84v-322q0 -109 80 -109q37 0 61 27t24 82v322h84v-299zM245 555h-80l83 157h97z" />
    <glyph glyph-name="ubreve" unicode="&#x16d;" horiz-adv-x="469" 
d="M413 0h-75l-6 72h-2q-14 -39 -47 -61t-82 -22q-62 0 -99.5 45.5t-37.5 132.5v330h84v-322q0 -109 80 -109q37 0 61 27t24 82v322h84v-299zM159 717q0 -43 17.5 -68.5t51.5 -25.5q32 0 50.5 26t18.5 68h65q0 -73 -35.5 -117.5t-98.5 -44.5q-65 0 -100 44t-35 118h66z" />
    <glyph glyph-name="ucircumflex" unicode="&#xfb;" horiz-adv-x="469" 
d="M413 0h-75l-6 72h-2q-14 -39 -47 -61t-82 -22q-62 0 -99.5 45.5t-37.5 132.5v330h84v-322q0 -109 80 -109q37 0 61 27t24 82v322h84v-299zM280 712l84 -157h-76l-60 100l-60 -100h-76l84 157h104z" />
    <glyph glyph-name="udieresis" unicode="&#xfc;" horiz-adv-x="469" 
d="M413 0h-75l-6 72h-2q-14 -39 -47 -61t-82 -22q-62 0 -99.5 45.5t-37.5 132.5v330h84v-322q0 -109 80 -109q37 0 61 27t24 82v322h84v-299zM108.5 572.5q-14.5 15.5 -14.5 37.5q0 23 14 38t36 15q21 0 35.5 -15.5t14.5 -37.5t-15 -37.5t-35 -15.5q-21 0 -35.5 15.5z
M277.5 572.5q-14.5 15.5 -14.5 37.5q0 23 14 38t36 15q21 0 35.5 -15.5t14.5 -37.5t-15 -37.5t-35 -15.5q-21 0 -35.5 15.5z" />
    <glyph glyph-name="ugrave" unicode="&#xf9;" horiz-adv-x="469" 
d="M413 0h-75l-6 72h-2q-14 -39 -47 -61t-82 -22q-62 0 -99.5 45.5t-37.5 132.5v330h84v-322q0 -109 80 -109q37 0 61 27t24 82v322h84v-299zM207 712l83 -157h-78l-100 157h95z" />
    <glyph glyph-name="uhungarumlaut" unicode="&#x171;" horiz-adv-x="469" 
d="M413 0h-75l-6 72h-2q-14 -39 -47 -61t-82 -22q-62 0 -99.5 45.5t-37.5 132.5v330h84v-322q0 -109 80 -109q37 0 61 27t24 82v322h84v-299zM186 555h-64l82 157h75zM311 555h-63l82 157h75z" />
    <glyph glyph-name="umacron" unicode="&#x16b;" horiz-adv-x="469" 
d="M413 0h-75l-6 72h-2q-14 -39 -47 -61t-82 -22q-62 0 -99.5 45.5t-37.5 132.5v330h84v-322q0 -109 80 -109q37 0 61 27t24 82v322h84v-299zM340 565h-224v67h224v-67z" />
    <glyph glyph-name="uogonek" unicode="&#x173;" horiz-adv-x="469" 
d="M413 0h-75l-6 72h-2q-14 -39 -47 -61t-82 -22q-62 0 -99.5 45.5t-37.5 132.5v330h84v-322q0 -109 80 -109q37 0 61 27t24 82v322h84v-299zM409 0q-34 0 -59.5 -24.5t-25.5 -62.5q0 -22 9.5 -34t26.5 -12q16 0 25.5 7.5t19.5 20.5l31 -41q-30 -51 -84 -51q-40 0 -65 26.5
t-25 72.5q0 45 26.5 78.5t68.5 43.5z" />
    <glyph glyph-name="uring" unicode="&#x16f;" horiz-adv-x="469" 
d="M413 0h-75l-6 72h-2q-14 -39 -47 -61t-82 -22q-62 0 -99.5 45.5t-37.5 132.5v330h84v-322q0 -109 80 -109q37 0 61 27t24 82v322h84v-299zM150.5 579.5q-30.5 28.5 -30.5 73.5q0 46 30.5 75t77.5 29t77 -29t30 -75q0 -45 -30 -73.5t-77 -28.5t-77.5 28.5zM263 618.5
q13 13.5 13 35.5q0 23 -13 37t-35 14t-35.5 -14t-13.5 -37q0 -22 13.5 -35.5t35.5 -13.5t35 13.5z" />
    <glyph glyph-name="utilde" unicode="&#x169;" horiz-adv-x="469" 
d="M413 0h-75l-6 72h-2q-14 -39 -47 -61t-82 -22q-62 0 -99.5 45.5t-37.5 132.5v330h84v-322q0 -109 80 -109q37 0 61 27t24 82v322h84v-299zM316 705q1 -40 -3 -59t-18 -19q-9 0 -15.5 4.5t-19.5 17.5l-37 38q-26 26 -64 26q-36 0 -57.5 -29.5t-21.5 -88.5q0 -19 1 -30h57
q-1 39 3.5 58.5t17.5 19.5q9 0 15 -4t20 -18l38 -38q27 -27 63 -27t58 29.5t22 87.5q0 10 -2 32h-57z" />
    <glyph glyph-name="v" unicode="v" horiz-adv-x="423" 
d="M213 85l106 412h86l-144 -497h-101l-140 497h90l101 -412h2z" />
    <glyph glyph-name="w" unicode="w" horiz-adv-x="629" 
d="M457 92l64 405h83l-100 -497h-94l-95 412h-1l-87 -412h-102l-100 497h83l71 -405h1l81 405h111l84 -405h1z" />
    <glyph glyph-name="wacute" unicode="&#x1e83;" horiz-adv-x="629" 
d="M457 92l64 405h83l-100 -497h-94l-95 412h-1l-87 -412h-102l-100 497h83l71 -405h1l81 405h111l84 -405h1zM333 555h-80l83 157h97z" />
    <glyph glyph-name="wcircumflex" unicode="&#x175;" horiz-adv-x="629" 
d="M457 92l64 405h83l-100 -497h-94l-95 412h-1l-87 -412h-102l-100 497h83l71 -405h1l81 405h111l84 -405h1zM369 712l84 -157h-76l-60 100l-60 -100h-76l84 157h104z" />
    <glyph glyph-name="wdieresis" unicode="&#x1e85;" horiz-adv-x="629" 
d="M457 92l64 405h83l-100 -497h-94l-95 412h-1l-87 -412h-102l-100 497h83l71 -405h1l81 405h111l84 -405h1zM196.5 572.5q-14.5 15.5 -14.5 37.5q0 23 14 38t36 15q21 0 35.5 -15.5t14.5 -37.5t-15 -37.5t-35 -15.5q-21 0 -35.5 15.5zM365.5 572.5q-14.5 15.5 -14.5 37.5
q0 23 14 38t36 15q21 0 35.5 -15.5t14.5 -37.5t-15 -37.5t-35 -15.5q-21 0 -35.5 15.5z" />
    <glyph glyph-name="wgrave" unicode="&#x1e81;" horiz-adv-x="629" 
d="M457 92l64 405h83l-100 -497h-94l-95 412h-1l-87 -412h-102l-100 497h83l71 -405h1l81 405h111l84 -405h1zM295 712l83 -157h-78l-100 157h95z" />
    <glyph glyph-name="x" unicode="x" horiz-adv-x="403" 
d="M380 497l-130 -238l138 -259h-93l-94 193h-2l-91 -193h-91l136 260l-130 237h91l88 -175h2l85 175h91z" />
    <glyph glyph-name="uni1E8B" unicode="&#x1e8b;" horiz-adv-x="403" 
d="M380 497l-130 -238l138 -259h-93l-94 193h-2l-91 -193h-91l136 260l-130 237h91l88 -175h2l85 175h91zM162.5 579q-16.5 17 -16.5 42q0 26 16 42.5t41 16.5t41 -16.5t16 -42.5q0 -25 -16.5 -42t-40.5 -17t-40.5 17z" />
    <glyph glyph-name="y" unicode="y" horiz-adv-x="426" 
d="M321 497h87l-172 -567q-20 -65 -55.5 -96t-93.5 -31q-48 0 -82 30l29 66q23 -23 51 -23t49 17.5t34 61.5l8 27l-161 515h92l110 -397h1z" />
    <glyph glyph-name="yacute" unicode="&#xfd;" horiz-adv-x="426" 
d="M321 497h87l-172 -567q-20 -65 -55.5 -96t-93.5 -31q-48 0 -82 30l29 66q23 -23 51 -23t49 17.5t34 61.5l8 27l-161 515h92l110 -397h1zM231 555h-80l83 157h97z" />
    <glyph glyph-name="ycircumflex" unicode="&#x177;" horiz-adv-x="426" 
d="M321 497h87l-172 -567q-20 -65 -55.5 -96t-93.5 -31q-48 0 -82 30l29 66q23 -23 51 -23t49 17.5t34 61.5l8 27l-161 515h92l110 -397h1zM266 712l84 -157h-76l-60 100l-60 -100h-76l84 157h104z" />
    <glyph glyph-name="ydieresis" unicode="&#xff;" horiz-adv-x="426" 
d="M321 497h87l-172 -567q-20 -65 -55.5 -96t-93.5 -31q-48 0 -82 30l29 66q23 -23 51 -23t49 17.5t34 61.5l8 27l-161 515h92l110 -397h1zM93.5 572.5q-14.5 15.5 -14.5 37.5q0 23 14 38t36 15q21 0 35.5 -15.5t14.5 -37.5t-15 -37.5t-35 -15.5q-21 0 -35.5 15.5z
M262.5 572.5q-14.5 15.5 -14.5 37.5q0 23 14 38t36 15q21 0 35.5 -15.5t14.5 -37.5t-15 -37.5t-35 -15.5q-21 0 -35.5 15.5z" />
    <glyph glyph-name="ygrave" unicode="&#x1ef3;" horiz-adv-x="426" 
d="M321 497h87l-172 -567q-20 -65 -55.5 -96t-93.5 -31q-48 0 -82 30l29 66q23 -23 51 -23t49 17.5t34 61.5l8 27l-161 515h92l110 -397h1zM194 712l83 -157h-78l-100 157h95z" />
    <glyph glyph-name="z" unicode="z" horiz-adv-x="370" 
d="M34 0v64l191 359v3h-182v71h283v-62l-186 -358v-4h196v-73h-302z" />
    <glyph glyph-name="zacute" unicode="&#x17a;" horiz-adv-x="370" 
d="M34 0v64l191 359v3h-182v71h283v-62l-186 -358v-4h196v-73h-302zM202 555h-80l83 157h97z" />
    <glyph glyph-name="zcaron" unicode="&#x17e;" horiz-adv-x="370" 
d="M34 0v64l191 359v3h-182v71h283v-62l-186 -358v-4h196v-73h-302zM186 612l60 100h76l-84 -157h-104l-83 157h75z" />
    <glyph glyph-name="zdotaccent" unicode="&#x17c;" horiz-adv-x="370" 
d="M34 0v64l191 359v3h-182v71h283v-62l-186 -358v-4h196v-73h-302zM144.5 579q-16.5 17 -16.5 42q0 26 16 42.5t41 16.5t41 -16.5t16 -42.5q0 -25 -16.5 -42t-40.5 -17t-40.5 17z" />
    <glyph glyph-name="uni01B6" unicode="&#x1b6;" horiz-adv-x="378" 
d="M145 77v-4h196v-73h-302v64l82 155h-71v59h103l77 145v3h-182v71h283v-62l-82 -157h73v-59h-103z" />
    <glyph glyph-name="uniFB01" unicode="&#xfb01;" horiz-adv-x="522" 
d="M171 497h116v-71h-116v-426h-84v426h-60v71h60v76q0 65 34.5 100.5t97.5 35.5q66 0 98 -47l-44 -55q-11 14 -22.5 21.5t-25.5 7.5q-27 0 -40.5 -17t-13.5 -53v-69zM370 590q-17 17 -17 42q0 26 17 42.5t42 16.5q26 0 42.5 -16.5t16.5 -42.5q0 -25 -17 -42t-42 -17t-42 17
zM454 0h-84v497h84v-497z" />
    <glyph glyph-name="uniFB02" unicode="&#xfb02;" horiz-adv-x="580" 
d="M171 497h116v-71h-116v-426h-84v426h-60v71h60v76q0 65 34.5 100.5t97.5 35.5q66 0 98 -47l-44 -55q-11 14 -22.5 21.5t-25.5 7.5q-27 0 -40.5 -17t-13.5 -53v-69zM369 698h84v-564q0 -37 11.5 -54.5t34.5 -17.5q27 0 48 19l28 -58q-14 -15 -39 -24.5t-56 -9.5
q-51 0 -81 35t-30 101v573z" />
    <glyph glyph-name="ordfeminine" unicode="&#xaa;" horiz-adv-x="352" 
d="M301 313h-62l-4 63h-2q-6 -32 -29.5 -52.5t-63.5 -20.5q-43 0 -69.5 30.5t-26.5 78.5q0 52 32.5 81.5t85.5 29.5q33 0 60 -12v36q0 75 -54 75q-50 0 -67 -58l-51 27q11 41 42.5 65.5t80.5 24.5q56 0 86.5 -33t30.5 -97v-86zM203 388.5q17 26.5 18 71.5q-27 10 -50 10
q-30 0 -46 -13.5t-16 -40.5q0 -25 12 -39.5t34 -14.5q31 0 48 26.5z" />
    <glyph glyph-name="ordmasculine" unicode="&#xba;" horiz-adv-x="371" 
d="M80.5 631.5q39.5 49.5 104.5 49.5q67 0 106 -49t39 -139t-40 -140.5t-105 -50.5t-104.5 50t-39.5 141q0 89 39.5 138.5zM240.5 588.5q-19.5 31.5 -55.5 31.5q-35 0 -54.5 -32t-19.5 -95q0 -64 19.5 -96t54.5 -32t55 32t20 96t-19.5 95.5z" />
    <glyph glyph-name="uni0394" unicode="&#x394;" horiz-adv-x="532" 
d="M216 670h100l190 -601v-69h-479v69zM416 81l-151 508l-149 -508h300z" />
    <glyph glyph-name="uni03A9" unicode="&#x3a9;" horiz-adv-x="608" 
d="M423 75h122v-75h-198v126q58 15 92.5 78.5t34.5 163.5q0 71 -21.5 124t-60 81.5t-88.5 28.5t-88.5 -28.5t-60 -81.5t-21.5 -124q0 -100 34 -164t91 -77v-127h-197v75h122v13q-64 34 -100 108t-36 177q0 93 32.5 163t90.5 107.5t133 37.5t133 -37.5t90.5 -107.5t32.5 -163
q0 -102 -36 -175.5t-101 -108.5v-14z" />
    <glyph glyph-name="uni03BC" unicode="&#x3bc;" horiz-adv-x="473" 
d="M417 0h-76l-6 72h-2q-26 -83 -103 -83q-52 0 -76 51h-2v-226h-84v683h84v-322q0 -109 80 -109q37 0 61 27t24 82v322h84v-299z" />
    <glyph glyph-name="pi" unicode="&#x3c0;" horiz-adv-x="459" 
d="M59 0q18 90 29.5 206.5t11.5 219.5h-69v71h406v-71h-65v-426h-84v426h-107q0 -105 -11 -221.5t-28 -204.5h-83z" />
    <glyph glyph-name="mu" unicode="&#xb5;" horiz-adv-x="481" 
d="M421 0h-76l-6 72h-2q-26 -83 -103 -83q-52 0 -76 51h-2v-226h-84v683h84v-322q0 -109 80 -109q37 0 61 27t24 82v322h84v-299z" />
    <glyph glyph-name="zero" unicode="0" 
d="M80 596.5q48 84.5 144 84.5t143.5 -84.5t47.5 -261.5t-47.5 -261.5t-143.5 -84.5t-144 85t-48 262q0 176 48 260.5zM301 540.5q-25 63.5 -77 63.5q-53 0 -78 -63.5t-25 -206.5q0 -141 25 -203.5t78 -62.5q52 0 77 63.5t25 204.5t-25 204.5z" />
    <glyph glyph-name="one" unicode="1" 
d="M298 670v-591h122v-79h-363v79h152v488l-132 -61l-33 72l184 92h70z" />
    <glyph glyph-name="two" unicode="2" 
d="M209 286q55 73 77.5 117t22.5 96q0 49 -20.5 76t-57.5 27q-47 0 -75.5 -31.5t-42.5 -99.5l-81 21q20 91 69.5 140t129.5 49q78 0 122.5 -47.5t44.5 -128.5q0 -45 -13.5 -84t-36.5 -75t-65 -93l-127 -170v-2h244v-81h-359v64z" />
    <glyph glyph-name="three" unicode="3" 
d="M356.5 333.5q50.5 -51.5 50.5 -141.5q0 -63 -26.5 -109t-73 -70t-104.5 -24q-63 0 -104.5 24t-74.5 70l61 61q27 -38 53 -56t68 -18q47 0 78.5 31.5t31.5 87.5q0 58 -31 91.5t-81 33.5q-29 0 -50.5 -6t-45.5 -18l-34 53l202 250h-222v77h329v-66l-178 -218v-2q6 1 19 1
q82 0 132.5 -51.5z" />
    <glyph glyph-name="four" unicode="4" 
d="M352 257h78v-77h-78v-180h-89v180h-234v58l69 432h85l-62 -413h142v286h89v-286z" />
    <glyph glyph-name="five" unicode="5" 
d="M326.5 384.5q38.5 -24.5 60.5 -70t22 -106.5q0 -66 -26 -116t-72 -76.5t-106 -26.5q-64 0 -106.5 23.5t-72.5 61.5l59 63q26 -35 51 -51t68 -16q51 0 83 36t32 96q0 62 -30.5 97t-82.5 35q-27 0 -52 -8t-44 -22l-42 39v327h319v-77h-236v-205q34 21 90 21
q47 0 85.5 -24.5z" />
    <glyph glyph-name="six" unicode="6" 
d="M376.5 363.5q47.5 -53.5 47.5 -152.5q0 -69 -25 -119.5t-69 -76.5t-99 -26q-93 0 -147 80t-54 232q0 184 72.5 282t198.5 98q35 0 59 -6.5t49 -19.5l-25 -73q-19 10 -36 15t-44 5q-75 0 -123.5 -57.5t-57.5 -168.5q55 41 129 41q77 0 124.5 -53.5zM308.5 104.5
q26.5 35.5 26.5 102.5t-26.5 100t-71.5 33q-64 0 -116 -42v-9q0 -107 30 -163.5t83 -56.5q48 0 74.5 35.5z" />
    <glyph glyph-name="seven" unicode="7" 
d="M27 670h383v-72l-234 -598h-97l237 593h-289v77z" />
    <glyph glyph-name="eight" unicode="8" 
d="M321 349q47 -22 72.5 -65.5t25.5 -102.5q0 -57 -25 -100.5t-69.5 -67.5t-101.5 -24q-88 0 -141.5 52t-53.5 140q0 60 25.5 103.5t72.5 64.5v2q-40 22 -61.5 61.5t-21.5 91.5q0 51 23 91.5t64 63t93 22.5t93.5 -22.5t64.5 -62.5t23 -92t-21.5 -91.5t-61.5 -61.5v-2z
M154.5 575.5q-25.5 -28.5 -25.5 -75.5q0 -52 25.5 -83.5t68.5 -31.5t69 31t26 84q0 48 -25.5 76t-69.5 28q-43 0 -68.5 -28.5zM302 100.5q29 32.5 29 88.5t-29 88.5t-79 32.5q-49 0 -78 -33t-29 -88q0 -56 29 -88.5t78 -32.5q50 0 79 32.5z" />
    <glyph glyph-name="nine" unicode="9" 
d="M362 602q54 -79 54 -231q0 -200 -72 -291t-200 -91q-61 0 -108 28l23 79q42 -26 87 -26q160 0 177 204q-54 -28 -116 -28q-52 0 -94 26t-66.5 77t-24.5 123q0 65 26 112.5t70 72t98 24.5q92 0 146 -79zM141.5 360.5q30.5 -38.5 82.5 -38.5q56 0 101 28v22
q0 111 -28.5 171t-78.5 60q-49 0 -78 -32.5t-29 -97.5q0 -74 30.5 -112.5z" />
    <glyph glyph-name="uni2080" unicode="&#x2080;" horiz-adv-x="302" 
d="M61 211.5q30 52.5 90 52.5t90 -52t30 -140t-30 -139.5t-90 -51.5q-61 0 -90.5 51.5t-29.5 139.5q0 87 30 139.5zM195.5 170q-11.5 36 -44.5 36q-32 0 -44 -36t-12 -98q0 -61 12 -96.5t44 -35.5q33 0 44.5 35.5t11.5 97.5q0 61 -11.5 97z" />
    <glyph glyph-name="uni2081" unicode="&#x2081;" horiz-adv-x="261" 
d="M180 256v-309h65v-59h-212v59h84v237l-75 -33l-21 53l110 52h49z" />
    <glyph glyph-name="uni2082" unicode="&#x2082;" horiz-adv-x="276" 
d="M123 51q32 39 44.5 61.5t12.5 46.5q0 21 -11 34t-30 13q-46 0 -62 -66l-55 15q11 53 43 81t79 28q44 0 71.5 -28.5t27.5 -74.5q0 -35 -16.5 -65.5t-56.5 -77.5l-58 -69v-2h134v-59h-213v52z" />
    <glyph glyph-name="uni2083" unicode="&#x2083;" horiz-adv-x="272" 
d="M214.5 72.5q27.5 -28.5 27.5 -78.5q0 -52 -34.5 -82.5t-88.5 -30.5q-64 0 -102 52l39 45q14 -20 29 -29.5t35 -9.5q26 0 42.5 14t16.5 42q0 25 -15 40.5t-37 15.5q-27 0 -47 -13l-31 42l106 118h-118v58h193v-53l-93 -100v-2h7q43 0 70.5 -28.5z" />
    <glyph glyph-name="uni2084" unicode="&#x2084;" horiz-adv-x="288" 
d="M223 37h40v-58h-40v-91h-63v91h-130v48l40 229h61l-36 -219h65v146h63v-146z" />
    <glyph glyph-name="uni2085" unicode="&#x2085;" horiz-adv-x="272" 
d="M218.5 87.5q26.5 -28.5 26.5 -83.5q0 -60 -36 -91.5t-87 -31.5q-67 0 -104 51l37 48q15 -20 28.5 -30t36.5 -10q28 0 45 16.5t17 45.5q0 28 -16 44.5t-40 16.5q-30 0 -55 -18l-25 27v184h186v-57h-126v-94q19 11 48 11q38 0 64.5 -28.5z" />
    <glyph glyph-name="uni2086" unicode="&#x2086;" horiz-adv-x="291" 
d="M235.5 90q28.5 -31 28.5 -84q0 -59 -33 -92t-84 -33q-53 0 -84.5 44.5t-31.5 133.5q0 102 45.5 153.5t116.5 51.5q32 0 60 -13l-13 -54q-24 11 -47 11q-41 0 -68 -28t-31 -79q29 20 69 20q44 0 72.5 -31zM188 -46q14 17 14 47q0 32 -14.5 48.5t-40.5 16.5q-31 0 -53 -17
q3 -112 58 -112q22 0 36 17z" />
    <glyph glyph-name="uni2087" unicode="&#x2087;" horiz-adv-x="260" 
d="M240 203l-124 -315h-69l127 311h-158v57h224v-53z" />
    <glyph glyph-name="uni2088" unicode="&#x2088;" horiz-adv-x="291" 
d="M204 80q26 -12 41 -36t15 -56q0 -46 -33 -76.5t-83 -30.5t-81.5 30t-31.5 77q0 32 15 56t41 36v2q-23 12 -36 33.5t-13 49.5q0 43 30 71t76 28q48 0 78 -27.5t30 -71.5q0 -27 -12.5 -48.5t-35.5 -32.5v-4zM110.5 195q-13.5 -14 -13.5 -36q0 -23 13 -37t34 -14
q23 0 36.5 14t13.5 37t-13.5 36.5t-36.5 13.5q-20 0 -33.5 -14zM185 -46q15 16 15 43q0 25 -15.5 40.5t-40.5 15.5q-24 0 -38.5 -15.5t-14.5 -40.5q0 -27 14 -43t39 -16q26 0 41 16z" />
    <glyph glyph-name="uni2089" unicode="&#x2089;" horiz-adv-x="291" 
d="M228 220q32 -44 32 -134q0 -102 -45.5 -153.5t-116.5 -51.5q-34 0 -60 13l13 56q22 -12 46 -12q41 0 68.5 28t31.5 80q-30 -22 -71 -22q-43 0 -71 32t-28 89t32 88t81 31q56 0 88 -44zM144 79q29 0 53 19q-3 111 -60 111q-22 0 -35 -16.5t-13 -45.5q0 -68 55 -68z" />
    <glyph glyph-name="zero.pnum" horiz-adv-x="523" 
d="M105 594q55 87 157 87q101 0 156 -87t55 -258q0 -174 -54.5 -260.5t-156.5 -86.5t-157 87t-55 260q0 171 55 258zM262 602q-122 0 -122 -268q0 -264 122 -264q121 0 121 264q0 268 -121 268z" />
    <glyph glyph-name="one.pnum" horiz-adv-x="349" 
d="M7 574l199 96h65v-670h-89v568l-144 -67z" />
    <glyph glyph-name="two.pnum" 
d="M209 286q55 73 77 117t22 96q0 49 -20 76t-57 27q-46 0 -73.5 -31.5t-41.5 -99.5l-81 21q20 92 69 140.5t128 48.5q77 0 121 -47.5t44 -128.5q0 -45 -13.5 -84.5t-36 -75.5t-64.5 -92l-126 -170v-2h243v-81h-358v64z" />
    <glyph glyph-name="three.pnum" horiz-adv-x="448" 
d="M356 333.5q49 -51.5 49 -141.5q0 -63 -26.5 -109t-73 -70t-104.5 -24q-63 0 -104.5 24t-74.5 70l61 61q27 -38 53 -56t68 -18q47 0 78.5 31.5t31.5 87.5q0 58 -29.5 91.5t-76.5 33.5q-27 0 -47.5 -5.5t-42.5 -17.5l-33 53l196 249h-220v77h326v-66l-172 -218v-2q4 1 13 1
q79 0 128 -51.5z" />
    <glyph glyph-name="four.pnum" horiz-adv-x="475" 
d="M367 257h78v-77h-78v-180h-89v180h-234v58l69 432h85l-62 -413h142v286h89v-286z" />
    <glyph glyph-name="five.pnum" horiz-adv-x="442" 
d="M321 384q37 -24 58.5 -69.5t21.5 -106.5q0 -67 -25.5 -116.5t-71 -76t-103.5 -26.5q-62 0 -102.5 23.5t-70.5 61.5l57 63q26 -34 50 -50.5t64 -16.5q49 0 80.5 36t31.5 96q0 62 -28.5 96.5t-77.5 34.5q-47 0 -85 -29l-46 39v327h305v-77h-222v-205q16 10 34.5 15t45.5 5
q47 0 84 -24z" />
    <glyph glyph-name="six.pnum" horiz-adv-x="474" 
d="M386 362q47 -55 47 -154q0 -104 -50 -161.5t-130 -57.5q-94 0 -149 80t-55 232q0 184 67.5 282t189.5 98q35 0 60.5 -6.5t49.5 -18.5l-20 -73q-21 9 -40.5 14t-45.5 5q-73 0 -116.5 -57t-51.5 -168q24 18 55 29t65 11q77 0 124 -55zM320 103.5q24 34.5 24 99.5
q0 66 -27 101.5t-71 35.5q-58 0 -106 -40v-15q0 -106 30 -161t85 -55q41 0 65 34.5z" />
    <glyph glyph-name="seven.pnum" horiz-adv-x="422" 
d="M18 670h378v-72l-231 -598h-98l236 593h-285v77z" />
    <glyph glyph-name="eight.pnum" horiz-adv-x="485" 
d="M340 349q47 -22 72.5 -65.5t25.5 -102.5q0 -57 -25 -100.5t-69.5 -67.5t-101.5 -24q-88 0 -141.5 52t-53.5 140q0 60 25.5 103.5t72.5 64.5v2q-40 22 -61.5 61.5t-21.5 91.5q0 51 23 91.5t64 63t93 22.5t93.5 -22.5t64.5 -62.5t23 -92t-21.5 -91.5t-61.5 -61.5v-2z
M173.5 575.5q-25.5 -28.5 -25.5 -75.5q0 -52 25.5 -83.5t68.5 -31.5t69 31t26 84q0 48 -25.5 76t-69.5 28q-43 0 -68.5 -28.5zM321 100.5q29 32.5 29 88.5t-29 88.5t-79 32.5q-49 0 -78 -33t-29 -88q0 -56 29 -88.5t78 -32.5q50 0 79 32.5z" />
    <glyph glyph-name="nine.pnum" horiz-adv-x="475" 
d="M372.5 602.5q53.5 -78.5 53.5 -229.5q0 -202 -70 -293t-194 -91q-34 0 -58 7t-47 20l22 80q19 -12 38 -19t46 -7q154 0 170 207q-52 -31 -113 -31q-50 0 -90 25.5t-64 76t-24 121.5q0 66 25 114t67 73t94 25q91 0 144.5 -78.5zM160 360q28 -38 77 -38q30 0 53 7.5
t45 22.5v20q0 110 -29 170.5t-78 60.5q-44 0 -70 -33t-26 -99q0 -73 28 -111z" />
    <glyph glyph-name="zero.ss01" 
d="M80 596.5q48 84.5 144 84.5t143.5 -84.5t47.5 -261.5t-47.5 -261.5t-143.5 -84.5q-97 0 -144.5 84.5t-47.5 262.5q0 176 48 260.5zM302.5 540.5q-25.5 63.5 -78.5 63.5t-79 -64t-26 -206q0 -141 25.5 -203.5t79.5 -62.5q53 0 78.5 63t25.5 205q0 141 -25.5 204.5z
M188.5 298.5q-14.5 15.5 -14.5 41.5t14.5 41.5t36.5 15.5t35.5 -15.5t13.5 -41.5t-14 -41.5t-35 -15.5q-22 0 -36.5 15.5z" />
    <glyph glyph-name="uni2070" unicode="&#x2070;" horiz-adv-x="302" 
d="M61 736.5q30 52.5 90 52.5t90 -52t30 -140t-30 -139.5t-90 -51.5q-61 0 -90.5 51.5t-29.5 139.5q0 87 30 139.5zM195.5 695q-11.5 36 -44.5 36q-32 0 -44 -36t-12 -98q0 -61 12 -96.5t44 -35.5q33 0 44.5 35.5t11.5 97.5q0 61 -11.5 97z" />
    <glyph glyph-name="uni00B9" unicode="&#xb9;" horiz-adv-x="259" 
d="M180 781v-309h65v-59h-212v59h84v237l-75 -33l-21 53l110 52h49z" />
    <glyph glyph-name="uni00B2" unicode="&#xb2;" horiz-adv-x="276" 
d="M123 576q32 39 44.5 61.5t12.5 46.5q0 21 -11 34t-30 13q-46 0 -62 -66l-55 15q11 53 43 81t79 28q44 0 71.5 -28.5t27.5 -74.5q0 -35 -16.5 -65.5t-56.5 -77.5l-58 -69v-2h134v-59h-213v52z" />
    <glyph glyph-name="uni00B3" unicode="&#xb3;" horiz-adv-x="271" 
d="M214.5 597.5q27.5 -28.5 27.5 -78.5q0 -52 -34.5 -82.5t-88.5 -30.5q-64 0 -102 52l39 45q14 -20 29 -29.5t35 -9.5q26 0 42.5 14t16.5 42q0 25 -15 40.5t-37 15.5q-27 0 -47 -13l-31 42l106 118h-118v58h193v-53l-93 -100v-2h7q43 0 70.5 -28.5z" />
    <glyph glyph-name="uni2074" unicode="&#x2074;" horiz-adv-x="285" 
d="M222 562h40v-58h-40v-91h-63v91h-130v48l40 229h61l-36 -219h65v146h63v-146z" />
    <glyph glyph-name="uni2075" unicode="&#x2075;" horiz-adv-x="272" 
d="M218.5 612.5q26.5 -28.5 26.5 -83.5q0 -60 -36 -91.5t-87 -31.5q-67 0 -104 51l37 48q15 -20 28.5 -30t36.5 -10q28 0 45 16.5t17 45.5q0 28 -16 44.5t-40 16.5q-30 0 -55 -18l-25 27v184h186v-57h-126v-94q19 11 48 11q38 0 64.5 -28.5z" />
    <glyph glyph-name="uni2076" unicode="&#x2076;" horiz-adv-x="291" 
d="M235.5 615q28.5 -31 28.5 -84q0 -59 -33 -92t-84 -33q-53 0 -84.5 44.5t-31.5 133.5q0 102 45.5 153.5t116.5 51.5q32 0 60 -13l-13 -54q-24 11 -47 11q-41 0 -68 -28t-31 -79q29 20 69 20q44 0 72.5 -31zM188 479q14 17 14 47q0 32 -14.5 48.5t-40.5 16.5q-31 0 -53 -17
q3 -112 58 -112q22 0 36 17z" />
    <glyph glyph-name="uni2077" unicode="&#x2077;" horiz-adv-x="260" 
d="M240 728l-124 -315h-69l127 311h-158v57h224v-53z" />
    <glyph glyph-name="uni2078" unicode="&#x2078;" horiz-adv-x="291" 
d="M204 605q26 -12 41 -36t15 -56q0 -46 -33 -76.5t-83 -30.5t-81.5 30t-31.5 77q0 32 15 56t41 36v2q-23 12 -36 33.5t-13 49.5q0 43 30 71t76 28q48 0 78 -27.5t30 -71.5q0 -27 -12.5 -48.5t-35.5 -32.5v-4zM110.5 720q-13.5 -14 -13.5 -36q0 -23 13 -37t34 -14
q23 0 36.5 14t13.5 37t-13.5 36.5t-36.5 13.5q-20 0 -33.5 -14zM185 479q15 16 15 43q0 25 -15.5 40.5t-40.5 15.5q-24 0 -38.5 -15.5t-14.5 -40.5q0 -27 14 -43t39 -16q26 0 41 16z" />
    <glyph glyph-name="uni2079" unicode="&#x2079;" horiz-adv-x="291" 
d="M228 745q32 -44 32 -134q0 -102 -45.5 -153.5t-116.5 -51.5q-34 0 -60 13l13 56q22 -12 46 -12q41 0 68.5 28t31.5 80q-30 -22 -71 -22q-43 0 -71 32t-28 89t32 88t81 31q56 0 88 -44zM144 604q29 0 53 19q-3 111 -60 111q-22 0 -35 -16.5t-13 -45.5q0 -68 55 -68z" />
    <glyph glyph-name="zero.dnom" horiz-adv-x="300" 
d="M60 323.5q30 52.5 90 52.5t90 -52t30 -140t-30 -139.5t-90 -51.5q-61 0 -90.5 51.5t-29.5 139.5q0 87 30 139.5zM194.5 282q-11.5 36 -44.5 36q-32 0 -44 -36t-12 -98q0 -61 12 -96.5t44 -35.5q33 0 44.5 35.5t11.5 97.5q0 61 -11.5 97z" />
    <glyph glyph-name="one.dnom" horiz-adv-x="261" 
d="M180 368v-309h65v-59h-212v59h84v237l-75 -33l-21 53l110 52h49z" />
    <glyph glyph-name="two.dnom" horiz-adv-x="274" 
d="M122 163q32 39 44.5 61.5t12.5 46.5q0 21 -11 34t-30 13q-46 0 -62 -66l-55 15q11 53 43 81t79 28q44 0 71.5 -28.5t27.5 -74.5q0 -35 -16.5 -65.5t-56.5 -77.5l-58 -69v-2h134v-59h-213v52z" />
    <glyph glyph-name="three.dnom" horiz-adv-x="271" 
d="M214.5 184.5q27.5 -28.5 27.5 -78.5q0 -52 -34.5 -82.5t-88.5 -30.5q-64 0 -102 52l39 45q14 -20 29 -29.5t35 -9.5q26 0 42.5 14t16.5 42q0 25 -15 40.5t-37 15.5q-27 0 -47 -13l-31 42l106 118h-118v58h193v-53l-93 -100v-2h7q43 0 70.5 -28.5z" />
    <glyph glyph-name="four.dnom" horiz-adv-x="286" 
d="M222 149h40v-58h-40v-91h-63v91h-130v48l40 229h61l-36 -219h65v146h63v-146z" />
    <glyph glyph-name="five.dnom" horiz-adv-x="272" 
d="M218.5 199.5q26.5 -28.5 26.5 -83.5q0 -60 -36 -91.5t-87 -31.5q-67 0 -104 51l37 48q15 -20 28.5 -30t36.5 -10q28 0 45 16.5t17 45.5q0 28 -16 44.5t-40 16.5q-30 0 -55 -18l-25 27v184h186v-57h-126v-94q19 11 48 11q38 0 64.5 -28.5z" />
    <glyph glyph-name="six.dnom" horiz-adv-x="291" 
d="M235.5 202q28.5 -31 28.5 -84q0 -59 -33 -92t-84 -33q-53 0 -84.5 44.5t-31.5 133.5q0 102 45.5 153.5t116.5 51.5q32 0 60 -13l-13 -54q-24 11 -47 11q-41 0 -68 -28t-31 -79q29 20 69 20q44 0 72.5 -31zM188 66q14 17 14 47q0 32 -14.5 48.5t-40.5 16.5q-31 0 -53 -17
q3 -112 58 -112q22 0 36 17z" />
    <glyph glyph-name="seven.dnom" horiz-adv-x="260" 
d="M240 315l-124 -315h-69l127 311h-158v57h224v-53z" />
    <glyph glyph-name="eight.dnom" horiz-adv-x="290" 
d="M204 192q26 -12 41 -36t15 -56q0 -46 -33 -76.5t-83 -30.5t-81.5 30t-31.5 77q0 32 15 56t41 36v2q-23 12 -36 33.5t-13 49.5q0 43 30 71t76 28q48 0 78 -27.5t30 -71.5q0 -27 -12.5 -48.5t-35.5 -32.5v-4zM110.5 307q-13.5 -14 -13.5 -36q0 -23 13 -37t34 -14
q23 0 36.5 14t13.5 37t-13.5 36.5t-36.5 13.5q-20 0 -33.5 -14zM185 66q15 16 15 43q0 25 -15.5 40.5t-40.5 15.5q-24 0 -38.5 -15.5t-14.5 -40.5q0 -27 14 -43t39 -16q26 0 41 16z" />
    <glyph glyph-name="nine.dnom" horiz-adv-x="291" 
d="M228 332q32 -44 32 -134q0 -102 -45.5 -153.5t-116.5 -51.5q-34 0 -60 13l13 56q22 -12 46 -12q41 0 68.5 28t31.5 80q-30 -22 -71 -22q-43 0 -71 32t-28 89t32 88t81 31q56 0 88 -44zM144 191q29 0 53 19q-3 111 -60 111q-22 0 -35 -16.5t-13 -45.5q0 -68 55 -68z" />
    <glyph glyph-name="zero.numr" horiz-adv-x="300" 
d="M60 625.5q30 52.5 90 52.5t90 -52t30 -140t-30 -139.5t-90 -51.5q-61 0 -90.5 51.5t-29.5 139.5q0 87 30 139.5zM194.5 584q-11.5 36 -44.5 36q-32 0 -44 -36t-12 -98q0 -61 12 -96.5t44 -35.5q33 0 44.5 35.5t11.5 97.5q0 61 -11.5 97z" />
    <glyph glyph-name="one.numr" horiz-adv-x="259" 
d="M180 670v-309h65v-59h-212v59h84v237l-75 -33l-21 53l110 52h49z" />
    <glyph glyph-name="two.numr" horiz-adv-x="276" 
d="M123 465q32 39 44.5 61.5t12.5 46.5q0 21 -11 34t-30 13q-46 0 -62 -66l-55 15q11 53 43 81t79 28q44 0 71.5 -28.5t27.5 -74.5q0 -35 -16.5 -65.5t-56.5 -77.5l-58 -69v-2h134v-59h-213v52z" />
    <glyph glyph-name="three.numr" horiz-adv-x="271" 
d="M214.5 486.5q27.5 -28.5 27.5 -78.5q0 -52 -34.5 -82.5t-88.5 -30.5q-64 0 -102 52l39 45q14 -20 29 -29.5t35 -9.5q26 0 42.5 14t16.5 42q0 25 -15 40.5t-37 15.5q-27 0 -47 -13l-31 42l106 118h-118v58h193v-53l-93 -100v-2h7q43 0 70.5 -28.5z" />
    <glyph glyph-name="four.numr" horiz-adv-x="285" 
d="M222 451h40v-58h-40v-91h-63v91h-130v48l40 229h61l-36 -219h65v146h63v-146z" />
    <glyph glyph-name="five.numr" horiz-adv-x="272" 
d="M218.5 501.5q26.5 -28.5 26.5 -83.5q0 -60 -36 -91.5t-87 -31.5q-67 0 -104 51l37 48q15 -20 28.5 -30t36.5 -10q28 0 45 16.5t17 45.5q0 28 -16 44.5t-40 16.5q-30 0 -55 -18l-25 27v184h186v-57h-126v-94q19 11 48 11q38 0 64.5 -28.5z" />
    <glyph glyph-name="six.numr" horiz-adv-x="291" 
d="M235.5 504q28.5 -31 28.5 -84q0 -59 -33 -92t-84 -33q-53 0 -84.5 44.5t-31.5 133.5q0 102 45.5 153.5t116.5 51.5q32 0 60 -13l-13 -54q-24 11 -47 11q-41 0 -68 -28t-31 -79q29 20 69 20q44 0 72.5 -31zM188 368q14 17 14 47q0 32 -14.5 48.5t-40.5 16.5q-31 0 -53 -17
q3 -112 58 -112q22 0 36 17z" />
    <glyph glyph-name="seven.numr" horiz-adv-x="261" 
d="M240 617l-124 -315h-69l127 311h-158v57h224v-53z" />
    <glyph glyph-name="eight.numr" horiz-adv-x="290" 
d="M204 494q26 -12 41 -36t15 -56q0 -46 -33 -76.5t-83 -30.5t-81.5 30t-31.5 77q0 32 15 56t41 36v2q-23 12 -36 33.5t-13 49.5q0 43 30 71t76 28q48 0 78 -27.5t30 -71.5q0 -27 -12.5 -48.5t-35.5 -32.5v-4zM110.5 609q-13.5 -14 -13.5 -36q0 -23 13 -37t34 -14
q23 0 36.5 14t13.5 37t-13.5 36.5t-36.5 13.5q-20 0 -33.5 -14zM185 368q15 16 15 43q0 25 -15.5 40.5t-40.5 15.5q-24 0 -38.5 -15.5t-14.5 -40.5q0 -27 14 -43t39 -16q26 0 41 16z" />
    <glyph glyph-name="nine.numr" horiz-adv-x="291" 
d="M228 634q32 -44 32 -134q0 -102 -45.5 -153.5t-116.5 -51.5q-34 0 -60 13l13 56q22 -12 46 -12q41 0 68.5 28t31.5 80q-30 -22 -71 -22q-43 0 -71 32t-28 89t32 88t81 31q56 0 88 -44zM144 493q29 0 53 19q-3 111 -60 111q-22 0 -35 -16.5t-13 -45.5q0 -68 55 -68z" />
    <glyph glyph-name="fraction" unicode="&#x2044;" horiz-adv-x="160" 
d="M-78 0h-70l385 670h71z" />
    <glyph glyph-name="onehalf" unicode="&#xbd;" horiz-adv-x="679" 
d="M188 670v-309h65v-59h-212v59h84v237l-75 -33l-21 53l110 52h49zM200 0h-70l385 670h71zM520 163q32 39 44.5 61.5t12.5 46.5q0 21 -11 34t-30 13q-46 0 -62 -66l-55 15q11 53 43 81t79 28q44 0 71.5 -28.5t27.5 -74.5q0 -35 -16.5 -65.5t-56.5 -77.5l-58 -69v-2h134v-59
h-213v52z" />
    <glyph glyph-name="onequarter" unicode="&#xbc;" horiz-adv-x="680" 
d="M188 670v-309h65v-59h-212v59h84v237l-75 -33l-21 53l110 52h49zM198 0h-70l385 670h71zM617 149h40v-58h-40v-91h-63v91h-130v48l40 229h61l-36 -219h65v146h63v-146z" />
    <glyph glyph-name="threequarters" unicode="&#xbe;" horiz-adv-x="661" 
d="M227.5 486.5q27.5 -28.5 27.5 -78.5q0 -52 -34.5 -82.5t-88.5 -30.5q-64 0 -102 52l39 45q14 -20 29 -29.5t35 -9.5q26 0 42.5 14t16.5 42q0 25 -15 40.5t-37 15.5q-27 0 -47 -13l-31 42l106 118h-118v58h193v-53l-93 -100v-2h7q43 0 70.5 -28.5zM178 0h-70l385 670h71z
M595 149h40v-58h-40v-91h-63v91h-130v48l40 229h61l-36 -219h65v146h63v-146z" />
    <glyph glyph-name="period" unicode="." horiz-adv-x="206" 
d="M60.5 9.5q-17.5 17.5 -17.5 42.5q0 26 17 43t43 17t43 -17t17 -43q0 -25 -17 -42.5t-43 -17.5q-25 0 -42.5 17.5z" />
    <glyph glyph-name="comma" unicode="," horiz-adv-x="212" 
d="M62 -146l-30 32q31 25 49.5 51.5t24.5 60.5q-25 3 -42.5 19t-17.5 46q0 24 15.5 40t41.5 16q28 0 45.5 -21.5t17.5 -60.5q0 -111 -104 -183z" />
    <glyph glyph-name="colon" unicode=":" horiz-adv-x="236" 
d="M75.5 396.5q-17.5 17.5 -17.5 42.5q0 26 17 43t43 17t43 -17t17 -43q0 -25 -17 -42.5t-43 -17.5q-25 0 -42.5 17.5zM75.5 9.5q-17.5 17.5 -17.5 42.5q0 26 17 43t43 17t43 -17t17 -43q0 -25 -17 -42.5t-43 -17.5q-25 0 -42.5 17.5z" />
    <glyph glyph-name="semicolon" unicode=";" horiz-adv-x="246" 
d="M81 -146l-30 32q31 25 49.5 51.5t24.5 60.5q-25 3 -42.5 19t-17.5 46q0 24 15.5 40t41.5 16q28 0 45.5 -21.5t17.5 -60.5q0 -111 -104 -183zM80.5 396.5q-17.5 17.5 -17.5 42.5q0 26 17 43t43 17t43 -17t17 -43q0 -25 -17 -42.5t-43 -17.5q-25 0 -42.5 17.5z" />
    <glyph glyph-name="ellipsis" unicode="&#x2026;" horiz-adv-x="581" 
d="M60.5 9q-17.5 17 -17.5 42q0 26 17 43t43 17t42.5 -17t16.5 -43q0 -25 -17 -42t-42 -17t-42.5 17zM248.5 9q-17.5 17 -17.5 42q0 26 17 43t43 17t42.5 -17t16.5 -43q0 -25 -17 -42t-42 -17t-42.5 17zM436.5 9q-17.5 17 -17.5 42q0 26 17 43t43 17t42.5 -17t16.5 -43
q0 -25 -17 -42t-42 -17t-42.5 17z" />
    <glyph glyph-name="exclam" unicode="!" horiz-adv-x="236" 
d="M158 193h-80l-6 477h93zM75.5 9.5q-17.5 17.5 -17.5 42.5q0 26 17 43t43 17t43 -17t17 -43q0 -25 -17 -42.5t-43 -17.5q-25 0 -42.5 17.5z" />
    <glyph glyph-name="exclamdown" unicode="&#xa1;" horiz-adv-x="227" 
d="M157 480q17 -17 17 -43t-17 -43t-43 -17t-43 17t-17 43t17.5 43t42.5 17q26 0 43 -17zM74 296h80l6 -477h-93z" />
    <glyph glyph-name="question" unicode="?" horiz-adv-x="365" 
d="M215 193h-81l-8 80q-1 6 -1 17q0 40 16.5 66.5t48.5 57.5q30 31 44 53t14 54q0 38 -18 58t-48 20q-37 0 -57.5 -22.5t-30.5 -76.5l-78 22q13 75 59 117t116 42q66 0 106.5 -40t40.5 -107q0 -54 -19.5 -87t-56.5 -69q-30 -30 -43.5 -51.5t-10.5 -54.5zM134.5 9.5
q-17.5 17.5 -17.5 42.5q0 26 17 43t43 17t43 -17t17 -43q0 -25 -17 -42.5t-43 -17.5q-25 0 -42.5 17.5z" />
    <glyph glyph-name="questiondown" unicode="&#xbf;" horiz-adv-x="360" 
d="M229 480q17 -17 17 -43t-17 -43t-43 -17t-43 17t-17 43t17.5 43t42.5 17q26 0 43 -17zM148 296h81l8 -80q1 -6 1 -17q0 -40 -16.5 -66.5t-48.5 -57.5q-30 -31 -44 -52.5t-14 -54.5q0 -38 18 -58t48 -20q37 0 57.5 22.5t30.5 76.5l78 -22q-13 -75 -59 -117t-116 -42
q-66 0 -106.5 40t-40.5 107q0 54 19.5 87t56.5 69q30 30 43.5 51.5t10.5 54.5z" />
    <glyph glyph-name="periodcentered" unicode="&#xb7;" horiz-adv-x="220" 
d="M67.5 302.5q-17.5 17.5 -17.5 42.5q0 26 17 43t43 17t43 -17t17 -43q0 -25 -17 -42.5t-43 -17.5q-25 0 -42.5 17.5z" />
    <glyph glyph-name="bullet" unicode="&#x2022;" horiz-adv-x="308" 
d="M94.5 276.5q-24.5 24.5 -24.5 59.5q0 37 24 60.5t60 23.5q37 0 60.5 -23.5t23.5 -60.5q0 -35 -24.5 -59.5t-59.5 -24.5t-59.5 24.5z" />
    <glyph glyph-name="asterisk" unicode="*" horiz-adv-x="474" 
d="M286 454l97 -126l-56 -42l-89 130l-92 -129l-55 41l96 124l-153 46l23 66l149 -52l-4 158h70l-5 -158l150 52l22 -66z" />
    <glyph glyph-name="numbersign" unicode="#" horiz-adv-x="512" 
d="M479 502v-61h-89l-18 -203h83v-61h-88l-16 -177h-65l16 177h-121l-16 -177h-65l16 177h-83v61h88l18 203h-82v61h87l15 168h66l-15 -168h120l15 168h66l-15 -168h83zM186 238h121l18 203h-121z" />
    <glyph glyph-name="slash" unicode="/" horiz-adv-x="310" 
d="M76 -93h-65l223 856h65z" />
    <glyph glyph-name="backslash" unicode="\" horiz-adv-x="310" 
d="M76 763l223 -856h-65l-223 856h65z" />
    <glyph glyph-name="parenleft" unicode="(" horiz-adv-x="229" 
d="M138 -112q-47 120 -70 227.5t-23 222.5q0 116 23 222t70 221l57 -23q-76 -199 -76 -420q0 -217 76 -426z" />
    <glyph glyph-name="parenright" unicode=")" horiz-adv-x="229" 
d="M34 -87q76 209 76 426q0 221 -76 420l57 23q47 -115 70 -221t23 -222q0 -115 -23 -222.5t-70 -227.5z" />
    <glyph glyph-name="braceleft" unicode="{" horiz-adv-x="265" 
d="M235 763v-62h-38q-15 0 -21.5 -8.5t-6.5 -26.5v-227q0 -49 -10 -68.5t-41 -28.5v-3q32 -8 41.5 -28t9.5 -70v-236q0 -18 5.5 -26t20.5 -8h39v-64h-49q-46 0 -66.5 22t-20.5 70v252q0 32 -8 45.5t-30 13.5h-27v61h27q21 0 29.5 13.5t8.5 45.5v239q0 94 89 94h48z" />
    <glyph glyph-name="braceright" unicode="}" horiz-adv-x="265" 
d="M78 763q89 0 89 -94v-239q0 -32 8.5 -45.5t29.5 -13.5h27v-61h-27q-22 0 -30 -13.5t-8 -45.5v-252q0 -48 -20.5 -70t-66.5 -22h-49v64h39q15 0 20.5 8t5.5 26v236q0 50 9.5 70t41.5 28v3q-31 9 -41 28.5t-10 68.5v227q0 18 -6.5 26.5t-21.5 8.5h-38v62h48z" />
    <glyph glyph-name="bracketleft" unicode="[" horiz-adv-x="257" 
d="M232 -93h-158v856h158v-62h-86v-730h86v-64z" />
    <glyph glyph-name="bracketright" unicode="]" horiz-adv-x="257" 
d="M183 763v-856h-158v64h86v730h-86v62h158z" />
    <glyph glyph-name="hyphen" unicode="-" horiz-adv-x="381" 
d="M332 297h-283v83h283v-83z" />
    <glyph glyph-name="uni00AD" unicode="&#xad;" horiz-adv-x="381" 
d="M332 297h-283v83h283v-83z" />
    <glyph glyph-name="endash" unicode="&#x2013;" horiz-adv-x="463" 
d="M414 297h-365v83h365v-83z" />
    <glyph glyph-name="emdash" unicode="&#x2014;" horiz-adv-x="612" 
d="M563 297h-514v83h514v-83z" />
    <glyph glyph-name="underscore" unicode="_" horiz-adv-x="438" 
d="M390 -83h-342v83h342v-83z" />
    <glyph glyph-name="quotesinglbase" unicode="&#x201a;" horiz-adv-x="200" 
d="M130.5 -61q-24.5 -39 -68.5 -69l-26 26q28 23 43.5 47.5t19.5 56.5q-21 3 -38 17.5t-17 38.5q0 23 14.5 38t37.5 15q26 0 42.5 -19.5t16.5 -56.5q0 -55 -24.5 -94z" />
    <glyph glyph-name="quotedblbase" unicode="&#x201e;" horiz-adv-x="336" 
d="M130.5 -61q-24.5 -39 -68.5 -69l-26 26q28 23 43.5 47.5t19.5 56.5q-21 3 -38 17.5t-17 38.5q0 23 14.5 38t37.5 15q26 0 42.5 -19.5t16.5 -56.5q0 -55 -24.5 -94zM266.5 -61q-24.5 -39 -68.5 -69l-26 26q28 23 43.5 47.5t19.5 56.5q-21 3 -38 17.5t-17 38.5
q0 23 14.5 38t37.5 15q26 0 42.5 -19.5t16.5 -56.5q0 -55 -24.5 -94z" />
    <glyph glyph-name="quotedblleft" unicode="&#x201c;" horiz-adv-x="335" 
d="M65.5 613q24.5 39 68.5 69l26 -26q-28 -23 -43.5 -47.5t-19.5 -56.5q21 -3 38 -17.5t17 -38.5q0 -23 -14.5 -38t-37.5 -15q-26 0 -42.5 19.5t-16.5 56.5q0 55 24.5 94zM201.5 613q24.5 39 68.5 69l26 -26q-28 -23 -43.5 -47.5t-19.5 -56.5q21 -3 38 -17.5t17 -38.5
q0 -23 -14.5 -38t-37.5 -15q-26 0 -42.5 19.5t-16.5 56.5q0 55 24.5 94z" />
    <glyph glyph-name="quotedblright" unicode="&#x201d;" horiz-adv-x="336" 
d="M138.5 508q-24.5 -39 -68.5 -69l-26 26q28 23 43.5 47.5t19.5 56.5q-21 3 -38 17.5t-17 38.5q0 23 14.5 38t37.5 15q26 0 42.5 -19.5t16.5 -56.5q0 -55 -24.5 -94zM274.5 508q-24.5 -39 -68.5 -69l-26 26q28 23 43.5 47.5t19.5 56.5q-21 3 -38 17.5t-17 38.5
q0 23 14.5 38t37.5 15q26 0 42.5 -19.5t16.5 -56.5q0 -55 -24.5 -94z" />
    <glyph glyph-name="quoteleft" unicode="&#x2018;" horiz-adv-x="199" 
d="M65.5 613q24.5 39 68.5 69l26 -26q-28 -23 -43.5 -47.5t-19.5 -56.5q21 -3 38 -17.5t17 -38.5q0 -23 -14.5 -38t-37.5 -15q-26 0 -42.5 19.5t-16.5 56.5q0 55 24.5 94z" />
    <glyph glyph-name="quoteright" unicode="&#x2019;" horiz-adv-x="200" 
d="M138.5 508q-24.5 -39 -68.5 -69l-26 26q28 23 43.5 47.5t19.5 56.5q-21 3 -38 17.5t-17 38.5q0 23 14.5 38t37.5 15q26 0 42.5 -19.5t16.5 -56.5q0 -55 -24.5 -94z" />
    <glyph glyph-name="guillemotleft" unicode="&#xab;" horiz-adv-x="420" 
d="M158 502l57 -33l-98 -190l98 -190l-57 -33l-118 223zM320 502l57 -33l-98 -190l98 -190l-57 -33l-118 223z" />
    <glyph glyph-name="guillemotright" unicode="&#xbb;" horiz-adv-x="420" 
d="M43 469l57 33l118 -223l-118 -223l-57 33l98 190zM205 469l57 33l118 -223l-118 -223l-57 33l98 190z" />
    <glyph glyph-name="guilsinglleft" unicode="&#x2039;" horiz-adv-x="258" 
d="M158 502l57 -33l-98 -190l98 -190l-57 -33l-118 223z" />
    <glyph glyph-name="guilsinglright" unicode="&#x203a;" horiz-adv-x="258" 
d="M43 469l57 33l118 -223l-118 -223l-57 33l98 190z" />
    <glyph glyph-name="quotedbl" unicode="&#x22;" horiz-adv-x="306" 
d="M122 405h-62l-5 265h72zM245 405h-62l-5 265h73z" />
    <glyph glyph-name="quotesingle" unicode="'" horiz-adv-x="192" 
d="M131 405h-71l-5 265h82z" />
    <glyph glyph-name="uni2007" unicode="&#x2007;" 
 />
    <glyph glyph-name="uni2008" unicode="&#x2008;" horiz-adv-x="206" 
 />
    <glyph glyph-name="uni00A0" unicode="&#xa0;" horiz-adv-x="193" 
 />
    <glyph glyph-name="uni2009" unicode="&#x2009;" horiz-adv-x="125" 
 />
    <glyph glyph-name="Euro" unicode="&#x20ac;" horiz-adv-x="520" 
d="M368 101q25 31 38 88l76 -26q-18 -82 -64.5 -128t-118.5 -46q-80 0 -130 61t-64 183h-57v64h52q-1 13 -1 39q0 33 1 49h-52v64h58q17 115 68.5 173.5t131.5 58.5q70 0 114.5 -47t61.5 -130l-81 -22q-12 57 -34 88t-62 31q-87 0 -108 -152h143v-64h-149q-1 -15 -1 -49
q0 -27 1 -39h149v-64h-145q10 -85 36.5 -124t70.5 -39q41 0 66 31z" />
    <glyph glyph-name="uni20BF" unicode="&#x20bf;" horiz-adv-x="487" 
d="M414.5 93.5q-31.5 -38.5 -88.5 -54.5v-123h-63v112h-18h-31v-112h-63v112h-78v615h78v110h63v-110h29q13 0 20 -1v111h63v-123q49 -17 76.5 -54t27.5 -91q0 -49 -23.5 -85t-66.5 -55q51 -19 78.5 -58.5t27.5 -97.5q0 -57 -31.5 -95.5zM238 567h-78v-189h78
q50 0 78.5 24.5t28.5 70.5q0 94 -107 94zM241 106q117 0 117 86q0 56 -30.5 85t-86.5 29h-81v-200h81z" />
    <glyph glyph-name="cent" unicode="&#xa2;" horiz-adv-x="419" 
d="M390 202q-15 -54 -52.5 -88t-97.5 -37l-5 -90h-62l6 97q-63 18 -97.5 83t-34.5 171q0 115 43.5 182t119.5 75l5 88h62l-6 -91q86 -20 113 -128l-70 -21q-8 31 -19 51t-28 28l-22 -375q34 5 52.5 25.5t29.5 55.5zM183 158l22 366q-75 -25 -75 -186q0 -146 53 -180z" />
    <glyph glyph-name="currency" unicode="&#xa4;" horiz-adv-x="491" 
d="M383 207l59 -75l-42 -41l-56 70q-42 -34 -98 -34q-55 0 -97 34l-56 -71l-44 40l61 77q-30 52 -30 125q0 75 31 126l-62 76l44 40l56 -71q42 34 97 34t97 -34l56 71l43 -41l-59 -76q30 -52 30 -125t-30 -125zM311 237q25 34 25 95t-25.5 95.5t-65.5 34.5q-39 0 -63.5 -35
t-24.5 -98q0 -59 25 -92.5t64 -33.5q40 0 65 34z" />
    <glyph glyph-name="dollar" unicode="$" horiz-adv-x="422" 
d="M344 74.5q-44 -46.5 -119 -54.5l-6 -104h-64l7 105q-82 11 -138 75l48 65q41 -49 94 -61l14 214l-26 16q-56 34 -84.5 70.5t-28.5 94.5q0 64 43.5 107t116.5 50l6 101h64l-6 -103q65 -13 117 -68l-42 -62q-20 20 -39 33.5t-41 18.5l-13 -201l31 -18q54 -32 82 -69.5
t28 -95.5q0 -67 -44 -113.5zM137.5 449q14.5 -19 48.5 -41l10 167q-36 -5 -54.5 -25t-18.5 -52q0 -30 14.5 -49zM230 99q37 6 56 28t19 57q0 32 -14 50.5t-50 41.5z" />
    <glyph glyph-name="florin" unicode="&#x192;" horiz-adv-x="334" 
d="M217 587q-16 -18 -19 -61l-10 -175h96v-62h-99l-26 -475h-88l27 475h-55v62h58l10 176q4 76 39.5 115t101.5 39q15 0 33.5 -4t30.5 -9l-16 -72q-18 9 -37 9q-30 0 -46 -18z" />
    <glyph glyph-name="sterling" unicode="&#xa3;" horiz-adv-x="429" 
d="M214 266q-4 -103 -72 -187h241v-79h-333v79q34 35 54.5 78.5t20.5 105.5v3h-69v63h60q-8 28 -21 59q-15 37 -22.5 65.5t-7.5 62.5q0 74 45 119.5t120 45.5q58 0 99.5 -29.5t61.5 -76.5l-67 -45q-13 30 -36 50.5t-55 20.5q-77 0 -77 -89q0 -29 7 -54t22 -66q16 -38 22 -63
h147v-63h-140z" />
    <glyph glyph-name="uni20BA" unicode="&#x20ba;" horiz-adv-x="493" 
d="M457 279q0 -132 -57 -205.5t-157 -73.5h-136v212l-59 -34v65l59 34v93l-59 -34v65l59 34v235h89v-184l164 94v-65l-164 -94v-93l164 94v-66l-164 -94v-185h44q64 0 96.5 51t32.5 151h88z" />
    <glyph glyph-name="yen" unicode="&#xa5;" horiz-adv-x="464" 
d="M352 670h96l-149 -341h97v-64h-120v-80h120v-63h-120v-122h-88v122h-121v63h121v80h-121v64h98l-148 341h98l113 -303h6z" />
    <glyph glyph-name="uni2219" unicode="&#x2219;" 
d="M163.5 276.5q-24.5 24.5 -24.5 59.5q0 37 24 60.5t60 23.5q37 0 60.5 -23.5t23.5 -60.5q0 -35 -24.5 -59.5t-59.5 -24.5t-59.5 24.5z" />
    <glyph glyph-name="uni2052" unicode="&#x2052;" 
d="M102.5 568.5q-17.5 17.5 -17.5 42.5q0 26 17 43t43 17t43 -17t17 -43q0 -25 -17 -42.5t-43 -17.5q-25 0 -42.5 17.5zM137 0h-76l247 670h76zM256.5 8.5q-17.5 17.5 -17.5 42.5q0 26 17 43t43 17t43 -17t17 -43q0 -25 -17 -42.5t-43 -17.5q-25 0 -42.5 17.5z" />
    <glyph glyph-name="congruent" unicode="&#x2245;" 
d="M398 595v-72q-23 -34 -87 -34q-22 0 -40.5 6.5t-48.5 20.5q-28 14 -47.5 21t-42.5 7q-56 0 -84 -33v71q30 32 87 32q25 0 46 -7t52 -22q28 -13 45.5 -19.5t36.5 -6.5q58 0 83 36zM398 322h-350v70h350v-70zM398 126h-350v70h350v-70z" />
    <glyph glyph-name="dotmath" unicode="&#x22c5;" 
d="M180.5 302.5q-17.5 17.5 -17.5 42.5q0 26 17 43t43 17t43 -17t17 -43q0 -25 -17 -42.5t-43 -17.5q-25 0 -42.5 17.5z" />
    <glyph glyph-name="plus" unicode="+" 
d="M398 377v-77h-133v-188h-84v188h-133v77h133v188h84v-188h133z" />
    <glyph glyph-name="minus" unicode="&#x2212;" 
d="M398 300h-350v77h350v-77z" />
    <glyph glyph-name="multiply" unicode="&#xd7;" 
d="M399 176l-59 -53l-115 156l-115 -156l-63 53l123 159l-123 164l59 53l115 -155l115 155l63 -53l-124 -159z" />
    <glyph glyph-name="divide" unicode="&#xf7;" 
d="M180.5 496.5q-17.5 17.5 -17.5 42.5q0 26 17 43t43 17t43 -17t17 -43q0 -25 -17 -42.5t-43 -17.5q-25 0 -42.5 17.5zM398 300h-350v77h350v-77zM180.5 95.5q-17.5 17.5 -17.5 42.5q0 26 17 43t43 17t43 -17t17 -43q0 -25 -17 -42.5t-43 -17.5q-25 0 -42.5 17.5z" />
    <glyph glyph-name="equal" unicode="=" 
d="M398 411h-350v77h350v-77zM398 191h-350v77h350v-77z" />
    <glyph glyph-name="notequal" unicode="&#x2260;" 
d="M398 488v-77h-114l-64 -143h178v-77h-212l-56 -125h-59l55 125h-78v77h113l63 143h-176v77h210l56 126h61l-56 -126h79z" />
    <glyph glyph-name="greater" unicode="&#x3e;" 
d="M401 304l-350 -176v82l256 129l-256 127v83l350 -178v-67z" />
    <glyph glyph-name="less" unicode="&#x3c;" 
d="M395 210v-82l-350 176v67l350 178v-83l-256 -127z" />
    <glyph glyph-name="greaterequal" unicode="&#x2265;" 
d="M400 377l-350 -160v81l257 114l-257 114v81l350 -162v-68zM400 145v-71h-350v71h350z" />
    <glyph glyph-name="lessequal" unicode="&#x2264;" 
d="M396 298v-81l-350 160v68l350 162v-81l-257 -114zM396 74h-350v71h350v-71z" />
    <glyph glyph-name="plusminus" unicode="&#xb1;" 
d="M398 462v-77h-133v-175h-84v175h-133v77h133v175h84v-175h133zM398 36h-350v77h350v-77z" />
    <glyph glyph-name="approxequal" unicode="&#x2248;" 
d="M398 484v-72q-23 -35 -87 -35q-22 0 -40.5 6.5t-48.5 20.5q-28 14 -47.5 21t-42.5 7q-55 0 -84 -32v71q29 31 87 31q25 0 46 -7t52 -22q26 -12 44.5 -18.5t37.5 -6.5q59 0 83 36zM398 284v-74q-23 -32 -87 -32q-22 0 -42.5 7t-46.5 20q-30 14 -49 20.5t-41 6.5
q-54 0 -84 -33v72q28 31 87 31q25 0 47 -7t51 -21q26 -12 44.5 -18.5t37.5 -6.5q59 0 83 35z" />
    <glyph glyph-name="asciitilde" unicode="~" 
d="M399 434q1 -11 1 -32q0 -92 -27.5 -131.5t-72.5 -39.5q-24 0 -44.5 16t-41.5 45l-16 22q-24 33 -36 44.5t-22 11.5q-27 0 -27 -92q0 -23 1 -36h-65q-1 11 -1 32q0 92 27.5 131.5t72.5 39.5q24 0 44.5 -16t41.5 -45l16 -22q24 -33 36 -44.5t22 -11.5q27 0 27 92
q0 23 -1 36h65z" />
    <glyph glyph-name="logicalnot" unicode="&#xac;" 
d="M394 372v-239h-75v168h-275v71h350z" />
    <glyph glyph-name="asciicircum" unicode="^" 
d="M222 592l-82 -211h-80l122 289h82l122 -289h-82z" />
    <glyph glyph-name="infinity" unicode="&#x221e;" horiz-adv-x="794" 
d="M450 459q27 35 61 51.5t78 16.5q45 0 81.5 -23.5t57.5 -66t21 -98.5q0 -57 -21 -100.5t-57.5 -67t-81.5 -23.5q-87 0 -140 67l-54 66l-51 -64q-29 -35 -62.5 -52t-75.5 -17q-45 0 -81.5 23.5t-58 66.5t-21.5 99q0 57 21.5 100t58 66.5t81.5 23.5q81 0 140 -70l53 -66z
M651 255.5q25 32.5 25 84.5t-25 84t-63 32q-49 0 -90 -52l-53 -65l54 -68q20 -27 42 -37.5t48 -10.5q37 0 62 32.5zM253 229.5q22 10.5 44 37.5l53 65l-54 69q-22 27 -44 39t-47 12q-37 0 -61.5 -32t-24.5 -85q0 -52 24.5 -84t61.5 -32q26 0 48 10.5z" />
    <glyph glyph-name="integral" unicode="&#x222b;" horiz-adv-x="316" 
d="M47 -98.5q-18 7.5 -35 25.5l29 60q11 -10 20 -14.5t20 -4.5q15 0 24.5 14t9.5 39v530q0 63 29.5 97.5t76.5 34.5q48 0 83 -33l-28 -62q-13 12 -22 17t-19 5q-36 0 -36 -56v-532q0 -62 -30 -95t-78 -33q-26 0 -44 7.5z" />
    <glyph glyph-name="Omega" unicode="&#x2126;" horiz-adv-x="613" 
d="M426 75h122v-75h-198v126q58 15 92.5 78.5t34.5 163.5q0 71 -21.5 124t-60 81.5t-88.5 28.5t-88.5 -28.5t-60 -81.5t-21.5 -124q0 -100 34 -164t91 -77v-127h-197v75h122v13q-64 34 -100 108t-36 177q0 93 32.5 163t90.5 107.5t133 37.5t133 -37.5t90.5 -107.5t32.5 -163
q0 -102 -36 -175.5t-101 -108.5v-14z" />
    <glyph glyph-name="Delta" unicode="&#x2206;" horiz-adv-x="533" 
d="M216 670h100l190 -601v-69h-479v69zM416 81l-151 508l-149 -508h300z" />
    <glyph glyph-name="product" unicode="&#x220f;" horiz-adv-x="520" 
d="M187 -93h-84v685h-69v78h453v-78h-70v-685h-84v685h-146v-685z" />
    <glyph glyph-name="summation" unicode="&#x2211;" horiz-adv-x="387" 
d="M355 -93h-325v61l173 320l-167 322v60h312v-71h-217l161 -309l-169 -310h232v-73z" />
    <glyph glyph-name="radical" unicode="&#x221a;" horiz-adv-x="524" 
d="M321 -93h-90l-102 339h-87v72h151l54 -213l8 -32q14 -56 16 -70h4q1 16 15 79l9 43l118 545h85z" />
    <glyph glyph-name="partialdiff" unicode="&#x2202;" horiz-adv-x="472" 
d="M314.5 653q50.5 -30 80.5 -95.5t30 -165.5q0 -122 -26 -213.5t-74.5 -141.5t-113.5 -50q-53 0 -93.5 27t-63 77t-22.5 116q0 61 21 108.5t59.5 73.5t87.5 26q63 0 98 -37t40 -94h4q3 33 3 89q0 117 -39 177t-114 60q-42 0 -83 -15l-17 68q55 20 109 20q63 0 113.5 -30z
M277 101.5q26 39.5 26 104.5q0 64 -25.5 100.5t-66.5 36.5q-42 0 -68 -36.5t-26 -100.5q0 -66 25.5 -105t68.5 -39q40 0 66 39.5z" />
    <glyph glyph-name="percent" unicode="%" horiz-adv-x="579" 
d="M65.5 634.5q29.5 43.5 84.5 43.5t84.5 -43.5t29.5 -124.5q0 -82 -29.5 -125.5t-84.5 -43.5t-84.5 43.5t-29.5 125.5q0 81 29.5 124.5zM132 0h-70l385 670h70zM150 621q-25 0 -38 -28.5t-13 -82.5q0 -55 13 -83t38 -28q51 0 51 112q0 110 -51 110zM344.5 284.5
q29.5 43.5 85.5 43.5q55 0 84 -43t29 -125t-29 -125t-84 -43q-57 0 -86 43t-29 125q0 81 29.5 124.5zM430 271q-52 0 -52 -111q0 -110 52 -110q50 0 50 111q0 110 -50 110z" />
    <glyph glyph-name="perthousand" unicode="&#x2030;" horiz-adv-x="810" 
d="M66 634q29 44 82 44t81.5 -43.5t28.5 -124.5q0 -82 -28.5 -125.5t-81.5 -43.5q-54 0 -82.5 43.5t-28.5 125.5q0 80 29 124zM128 0h-71l385 670h69zM148 622q-24 0 -36.5 -28.5t-12.5 -83.5q0 -112 49 -112q47 0 47 113q0 111 -47 111zM339.5 284.5q28.5 43.5 81.5 43.5
t81.5 -43t28.5 -125q0 -81 -28.5 -124.5t-81.5 -43.5q-54 0 -82 43t-28 125q0 81 28.5 124.5zM592.5 284.5q28.5 43.5 81.5 43.5q54 0 82 -43t28 -125t-28 -125t-82 -43q-53 0 -81.5 43t-28.5 125q0 81 28.5 124.5zM421 272q-24 0 -36.5 -28.5t-12.5 -83.5q0 -111 49 -111
q48 0 48 112q0 111 -48 111zM674 272q-48 0 -48 -112q0 -56 11.5 -83.5t36.5 -27.5q49 0 49 112q0 111 -49 111z" />
    <glyph glyph-name="arrowup" unicode="&#x2191;" horiz-adv-x="643" 
d="M321 690l299 -299l-59 -60l-196 202h-2v-531h-83v531h-2l-196 -201l-59 60z" />
    <glyph glyph-name="uni2197" unicode="&#x2197;" horiz-adv-x="638" 
d="M564 611v-423h-84l4 281l-1 1l-376 -375l-59 59l376 375l-1 2l-281 -4l1 84h421z" />
    <glyph glyph-name="uni2198" unicode="&#x2198;" horiz-adv-x="638" 
d="M565 58h-423v84l281 -4l1 1l-375 376l59 59l375 -376l2 1l-4 281l84 -1v-421z" />
    <glyph glyph-name="arrowdown" unicode="&#x2193;" horiz-adv-x="643" 
d="M322 -20l-299 299l59 60l196 -202h2v531h83v-531h2l196 201l59 -60z" />
    <glyph glyph-name="uni2199" unicode="&#x2199;" horiz-adv-x="638" 
d="M74 59v423h84l-4 -281l1 -1l376 375l59 -59l-376 -375l1 -2l281 4l-1 -84h-421z" />
    <glyph glyph-name="arrowleft" unicode="&#x2190;" horiz-adv-x="763" 
d="M48 335l299 299l60 -59l-202 -196v-2h531v-83h-531v-2l201 -196l-60 -59z" />
    <glyph glyph-name="uni2196" unicode="&#x2196;" horiz-adv-x="638" 
d="M74 612h423v-84l-281 4l-1 -1l375 -376l-59 -59l-375 376l-2 -1l4 -281l-84 1v421z" />
    <glyph glyph-name="lozenge" unicode="&#x25ca;" horiz-adv-x="494" 
d="M294 670l161 -382l-162 -381h-92l-162 381l163 382h92zM246 -10l119 298l-117 298l-119 -298z" />
    <glyph glyph-name="filledbox" unicode="&#x25a0;" horiz-adv-x="760" 
d="M75 610h610v-610h-610v610z" />
    <glyph glyph-name="H22073" unicode="&#x25a1;" horiz-adv-x="760" 
d="M75 610h610v-610h-610v610zM606 80v450h-452v-450h452z" />
    <glyph glyph-name="H18543" unicode="&#x25aa;" horiz-adv-x="438" 
d="M378 464v-318h-318v318h318z" />
    <glyph glyph-name="H18551" unicode="&#x25ab;" horiz-adv-x="438" 
d="M378 464v-318h-318v318h318zM118 204h202v202h-202v-202z" />
    <glyph glyph-name="uni25B6" unicode="&#x25b6;" horiz-adv-x="735" 
d="M75 628l610 -323l-610 -323v646z" />
    <glyph glyph-name="uni25B7" unicode="&#x25b7;" horiz-adv-x="735" 
d="M75 628l610 -323l-610 -323v646zM154 112l370 193l-370 193v-386z" />
    <glyph glyph-name="uni25B8" unicode="&#x25b8;" horiz-adv-x="451" 
d="M60 499l366 -194l-366 -194v388z" />
    <glyph glyph-name="uni25B9" unicode="&#x25b9;" horiz-adv-x="451" 
d="M60 499l366 -194l-366 -194v388zM118 205l192 100l-192 100v-200z" />
    <glyph glyph-name="uni2610" unicode="&#x2610;" horiz-adv-x="880" 
d="M75 670h730v-730h-730v730zM720 24v562h-560v-562h560z" />
    <glyph glyph-name="uni2611" unicode="&#x2611;" horiz-adv-x="880" 
d="M426 126l-209 209l61 61l140 -140l329 425l69 -52zM75 670h525v-84h-442v-562h564v356h83v-440h-730v730z" />
    <glyph glyph-name="uni274C" unicode="&#x274c;" horiz-adv-x="758" 
d="M632 651l63 -63l-253 -253l253 -253l-63 -63l-253 253l-253 -253l-63 63l253 253l-253 253l63 63l253 -253z" />
    <glyph glyph-name="uni2713" unicode="&#x2713;" horiz-adv-x="758" 
d="M312 18l-269 269l63 63l194 -194l348 495l73 -51z" />
    <glyph glyph-name="uni2714" unicode="&#x2714;" horiz-adv-x="802" 
d="M726 709.5q20 -4.5 33 -12.5q12 -7 19.5 -25t7.5 -38q0 -18 -15 -41.5t-46 -55.5q-10 -11 -22 -32q-4 -5 -6.5 -9.5t-5.5 -7.5q-8 -11 -19 -25t-19 -21q-31 -29 -109 -144q-14 -21 -17 -29l-12 -19q-5 -7 -16 -17t-13 -13t-5 -10t-6 -11q-14 -14 -24.5 -30t-24.5 -41
q-11 -20 -14 -24q-6 -9 -22 -25q-13 -12 -28 -35q-7 -8 -16 -22q-34 -45 -60.5 -65.5t-55.5 -20.5q-11 0 -23 3q-48 12 -70 48q-13 22 -22 57t-19 97q-7 41 -22 90q-17 57 -17 87q0 24 10.5 38.5t34.5 23.5q28 10 45 10q23 0 48 -16q14 -9 20 -22.5t14 -45.5q5 -22 7 -29
q2 -9 6.5 -24.5t4.5 -23.5q0 -5 6 -15.5t9 -10.5q4 1 8.5 9t6.5 11q8 16 13 23q8 10 26 30q36 41 69 83q3 4 13.5 19.5t20.5 27.5q27 31 101 130q18 23 44 52q35 38 55 63q39 49 78 61q9 2 29 -2.5z" />
    <glyph glyph-name="uni2718" unicode="&#x2718;" horiz-adv-x="802" 
d="M708 715q16 0 34 -9.5t30.5 -26.5t12.5 -39q0 -29 -15.5 -57.5t-59.5 -75.5q-32 -35 -31 -34q-45 -47 -56 -62q-13 -17 -32 -34t-22 -20q-16 -16 -62 -56q-5 -5 -15.5 -14t-13.5 -18q-2 -8 -2 -12t4 -30q1 -9 1.5 -24.5t2.5 -29.5q1 -9 9 -43q1 -6 3 -13t3 -14
q3 -20 3.5 -37t0.5 -24q0 -9 3 -20t4 -15t4 -16.5t3 -21.5q0 -15 -33 -29.5t-67 -14.5q-14 0 -29.5 21.5t-21.5 42.5l-3 21q-2 20 -4 28q-6 22 -6 62q0 11 -2.5 19.5t-6.5 8.5q-5 0 -16 -10.5t-24 -25.5q-6 -6 -12 -13.5t-13 -15.5q-18 -22 -40 -46q-47 -45 -72 -75
q-23 -29 -38.5 -38t-42.5 -9q-16 0 -22.5 2.5t-18.5 11.5q-28 21 -28 50q0 20 15 46q25 43 47 71.5t35 37.5q8 5 16.5 17t10.5 15q14 16 33.5 36.5t33.5 33.5q42 38 60 57t22 28t2 19q0 4 -0.5 20t-3.5 31l-8 34q-3 9 -10 38q-2 8 -4 32q-2 23 -5 32l-17 57q-7 24 -7 42
q0 17 7 27t22 23q19 13 44 13q19 0 29 -1.5t17 -8.5q13 -13 27 -56.5t14 -86.5q0 -4 4 -16t4 -17q0 -4 7 -18t7 -22q-2 -12 -2 -18q0 -15 24 11t34 42q1 1 23 22q57 54 78 75q45 45 64.5 70.5t20.5 26.5q2 3 14 20.5t22 20.5q6 2 11 2z" />
    <glyph glyph-name="at" unicode="@" horiz-adv-x="638" 
d="M192 333.5q17 45.5 47 70.5t68 25q34 0 53.5 -17.5t30.5 -46.5h2l5 55h59l-21 -219q2 -70 38 -70q21 0 35.5 43.5t14.5 108.5q0 75 -24.5 131.5t-69.5 87.5t-105 31q-62 0 -109.5 -34t-74 -98.5t-26.5 -153.5t25 -153.5t69 -98t100 -33.5q70 0 121 31l20 -59
q-25 -16 -65 -27t-80 -11q-79 0 -138 41.5t-91.5 120.5t-32.5 189q0 107 36 186t101 121.5t148 42.5q78 0 138 -40t93 -111.5t33 -162.5q0 -64 -15.5 -113t-43.5 -76.5t-65 -27.5q-32 0 -49.5 20t-26.5 57h-3q-31 -76 -99 -76q-50 0 -82.5 44t-32.5 117q0 60 17 105.5z
M304 132q33 0 52.5 36t19.5 102q0 47 -15 71t-42 24q-34 0 -52.5 -34t-18.5 -103q0 -96 56 -96z" />
    <glyph glyph-name="ampersand" unicode="&#x26;" horiz-adv-x="530" 
d="M472 -12q-45 38 -96 86q-32 -41 -75 -63t-92 -22q-77 0 -123 49t-46 131q0 63 28 103.5t76 77.5q-45 87 -45 173q0 72 41 115t107 43q58 0 90.5 -38.5t32.5 -107.5q0 -68 -33 -115t-91 -89q43 -63 114 -131q18 62 18 145q0 22 -1 34h76l1 -31q0 -114 -37 -202
q29 -28 107 -95zM196 586.5q-16 -21.5 -16 -66.5q0 -66 32 -132q40 31 60.5 62.5t20.5 75.5q0 82 -52 82q-29 0 -45 -21.5zM324 123q-97 95 -145 168q-26 -22 -40 -49t-14 -67q0 -51 22 -81t66 -30q69 0 111 59z" />
    <glyph glyph-name="paragraph" unicode="&#xb6;" horiz-adv-x="504" 
d="M53.5 557.5q24.5 53.5 69 83t101.5 29.5h241v-63h-48v-700h-67v700h-64v-700h-67v294q-55 0 -98 29.5t-67.5 82t-24.5 120.5q0 71 24.5 124.5zM130.5 309.5q32.5 -45.5 88.5 -45.5v343q-56 0 -88.5 -46t-32.5 -127q0 -79 32.5 -124.5z" />
    <glyph glyph-name="section" unicode="&#xa7;" 
d="M376.5 171q-28.5 -29 -64.5 -33v-2q28 -25 41.5 -52.5t13.5 -68.5q0 -56 -41 -90.5t-105 -34.5q-60 0 -101 27t-69 75l52 48q49 -80 120 -80q33 0 50 16t17 44q0 27 -14 45.5t-45 43.5l-108 85q-30 24 -45.5 40t-25 38.5t-9.5 55.5q0 45 27.5 74t67.5 35v2
q-29 26 -42.5 52t-13.5 68q0 55 39.5 88.5t101.5 33.5q56 0 93.5 -26t70.5 -77l-51 -44q-25 37 -53 58.5t-63 21.5q-31 0 -47.5 -16.5t-16.5 -42.5q0 -29 13.5 -47t45.5 -43l110 -85q44 -33 62 -60t18 -75q0 -45 -28.5 -74zM324.5 280.5q-9.5 16.5 -30.5 33.5l-58 46
q-21 17 -33.5 23t-28.5 6q-24 0 -42 -17t-18 -42q0 -20 9 -36.5t30 -33.5l57 -46q21 -17 33.5 -23t29.5 -6q25 0 43 15.5t18 43.5q0 20 -9.5 36.5z" />
    <glyph glyph-name="copyright" unicode="&#xa9;" horiz-adv-x="646" 
d="M564 156q-35 -79 -98 -123t-143 -44t-142.5 44.5t-98 123.5t-35.5 179t35.5 178.5t98 122.5t142.5 44t143 -44t98 -122.5t35 -178.5q0 -101 -35 -180zM507.5 482q-27.5 65 -75.5 101.5t-109 36.5t-109.5 -36.5t-75.5 -101t-27 -146.5q0 -83 27 -148t75.5 -101t109.5 -36
t109.5 36.5t75.5 101.5t27 147q0 81 -27.5 146zM392 411q-16 61 -62 61q-37 0 -57.5 -35t-20.5 -100q0 -64 21 -99.5t58 -35.5q23 0 41 16.5t29 46.5l50 -25q-14 -47 -48 -73.5t-79 -26.5q-65 0 -102 53t-37 144q0 89 40.5 143t107.5 54q42 0 71.5 -26.5t42.5 -76.5z" />
    <glyph glyph-name="registered" unicode="&#xae;" horiz-adv-x="646" 
d="M466 637q63 -44 98 -122.5t35 -178.5q0 -101 -35 -180t-98 -123t-143 -44t-142.5 44.5t-98 123.5t-35.5 179t35.5 178.5t98 122.5t142.5 44t143 -44zM432.5 87.5q48.5 36.5 75.5 101.5t27 147q0 81 -27.5 146t-75.5 101.5t-109 36.5t-109.5 -36.5t-75.5 -101t-27 -146.5
q0 -83 27 -148t75.5 -101t109.5 -36t109.5 36.5zM428 342q-16 -28 -45 -42l62 -154h-70l-56 142h-35v-142h-65v382h102q57 0 90 -33t33 -88q0 -37 -16 -65zM284 468v-122h34q30 0 45.5 16t15.5 45t-16 45t-46 16h-33z" />
    <glyph glyph-name="trademark" unicode="&#x2122;" horiz-adv-x="635" 
d="M27 670h230v-61h-82v-297h-66v297h-82v61zM560 670l17 -358h-63l-8 250h-2l-47 -206h-62l-47 206h-2l-8 -250h-61l17 358h80l50 -226h3l56 226h77z" />
    <glyph glyph-name="degree" unicode="&#xb0;" horiz-adv-x="372" 
d="M85.5 385.5q-39.5 47.5 -39.5 124.5q0 50 18 89t50 60.5t72 21.5q39 0 71 -21.5t50.5 -60.5t18.5 -89q0 -51 -18.5 -90t-50.5 -60.5t-71 -21.5q-61 0 -100.5 47.5zM239.5 430.5q20.5 28.5 20.5 79.5q0 50 -20.5 78.5t-53.5 28.5t-53.5 -28.5t-20.5 -78.5
q0 -51 20.5 -79.5t53.5 -28.5t53.5 28.5z" />
    <glyph glyph-name="bar" unicode="|" horiz-adv-x="217" 
d="M140 -93h-63v856h63v-856z" />
    <glyph glyph-name="brokenbar" unicode="&#xa6;" horiz-adv-x="217" 
d="M140 763v-347h-63v347h63zM140 -93h-63v360h63v-360z" />
    <glyph glyph-name="dagger" unicode="&#x2020;" horiz-adv-x="343" 
d="M206 242h-68v234h-94v64h94v130h68v-130h93v-64h-93v-234z" />
    <glyph glyph-name="daggerdbl" unicode="&#x2021;" horiz-adv-x="349" 
d="M209 321h93v-63h-93v-132h-68v132h-94v63h94v155h-94v64h94v130h68v-130h93v-64h-93v-155z" />
    <glyph glyph-name="uni02BB" unicode="&#x2bb;" horiz-adv-x="199" 
d="M65.5 613q24.5 39 68.5 69l26 -26q-28 -23 -43.5 -47.5t-19.5 -56.5q21 -3 38 -17.5t17 -38.5q0 -23 -14.5 -38t-37.5 -15q-26 0 -42.5 19.5t-16.5 56.5q0 55 24.5 94z" />
    <glyph glyph-name="uni0308" unicode="&#x308;" horiz-adv-x="0" 
d="M-119.5 572.5q-14.5 15.5 -14.5 37.5q0 23 14 38t36 15q21 0 35.5 -15.5t14.5 -37.5t-15 -37.5t-35 -15.5q-21 0 -35.5 15.5zM49.5 572.5q-14.5 15.5 -14.5 37.5q0 23 14 38t36 15q21 0 35.5 -15.5t14.5 -37.5t-15 -37.5t-35 -15.5q-21 0 -35.5 15.5z" />
    <glyph glyph-name="uni0307" unicode="&#x307;" horiz-adv-x="0" 
d="M-40.5 579q-16.5 17 -16.5 42q0 26 16 42.5t41 16.5t41 -16.5t16 -42.5q0 -25 -16.5 -42t-40.5 -17t-40.5 17z" />
    <glyph glyph-name="gravecomb" unicode="&#x300;" horiz-adv-x="0" 
d="M-21 712l83 -157h-78l-100 157h95z" />
    <glyph glyph-name="acutecomb" unicode="&#x301;" horiz-adv-x="0" 
d="M17 555h-80l83 157h97z" />
    <glyph glyph-name="uni030B" unicode="&#x30b;" horiz-adv-x="0" 
d="M-42 555h-64l82 157h75zM83 555h-63l82 157h75z" />
    <glyph glyph-name="uni0302" unicode="&#x302;" horiz-adv-x="0" 
d="M52 712l84 -157h-76l-60 100l-60 -100h-76l84 157h104z" />
    <glyph glyph-name="uni030C" unicode="&#x30c;" horiz-adv-x="0" 
d="M0 612l60 100h76l-84 -157h-104l-83 157h75z" />
    <glyph glyph-name="uni0306" unicode="&#x306;" horiz-adv-x="0" 
d="M-69 717q0 -43 17.5 -68.5t51.5 -25.5q32 0 50.5 26t18.5 68h65q0 -73 -35.5 -117.5t-98.5 -44.5q-65 0 -100 44t-35 118h66z" />
    <glyph glyph-name="uni030A" unicode="&#x30a;" horiz-adv-x="0" 
d="M-77.5 579.5q-30.5 28.5 -30.5 73.5q0 46 30.5 75t77.5 29t77 -29t30 -75q0 -45 -30 -73.5t-77 -28.5t-77.5 28.5zM35 618.5q13 13.5 13 35.5q0 23 -13 37t-35 14t-35.5 -14t-13.5 -37q0 -22 13.5 -35.5t35.5 -13.5t35 13.5z" />
    <glyph glyph-name="tildecomb" unicode="&#x303;" horiz-adv-x="0" 
d="M88 705q1 -40 -3 -59t-18 -19q-9 0 -15.5 4.5t-19.5 17.5l-37 38q-26 26 -64 26q-36 0 -57.5 -29.5t-21.5 -88.5q0 -19 1 -30h57q-1 39 3.5 58.5t17.5 19.5q9 0 15 -4t20 -18l38 -38q27 -27 63 -27t58 29.5t22 87.5q0 10 -2 32h-57z" />
    <glyph glyph-name="uni0304" unicode="&#x304;" horiz-adv-x="0" 
d="M112 565h-224v67h224v-67z" />
    <glyph glyph-name="uni0312" unicode="&#x312;" horiz-adv-x="0" 
d="M-33 698q23 32 60 47l20 -26q-43 -30 -45 -71q18 0 33 -11.5t15 -33.5q0 -21 -13.5 -34t-36.5 -13q-27 0 -41.5 17t-14.5 50q0 43 23 75z" />
    <glyph glyph-name="uni0326" unicode="&#x326;" horiz-adv-x="0" 
d="M33.5 -188.5q-23.5 -33.5 -59.5 -49.5l-21 26q22 15 34 35.5t14 42.5q-19 0 -34.5 11.5t-15.5 33.5q0 21 13.5 34t36.5 13q27 0 41.5 -17.5t14.5 -50.5q0 -45 -23.5 -78.5z" />
    <glyph glyph-name="uni0327" unicode="&#x327;" horiz-adv-x="0" 
d="M74 -70q23 -20 23 -57q0 -41 -28 -65t-72 -24q-47 0 -79 26l18 47q26 -22 56 -22q22 0 34.5 9t12.5 27q0 17 -12.5 25t-31.5 8q-26 0 -50 -11l-12 28l57 105h56l-43 -76h13q35 0 58 -20z" />
    <glyph glyph-name="uni0328" unicode="&#x328;" horiz-adv-x="0" 
d="M0 0q-34 0 -59.5 -24.5t-25.5 -62.5q0 -22 9.5 -34t26.5 -12q16 0 25.5 7.5t19.5 20.5l31 -41q-30 -51 -84 -51q-40 0 -65 26.5t-25 72.5q0 45 26.5 78.5t68.5 43.5z" />
    <glyph glyph-name="dieresis" unicode="&#xa8;" horiz-adv-x="332" 
d="M45.5 572.5q-14.5 15.5 -14.5 37.5q0 23 14 38t36 15q21 0 35.5 -15.5t14.5 -37.5t-15 -37.5t-35 -15.5q-21 0 -35.5 15.5zM214.5 572.5q-14.5 15.5 -14.5 37.5q0 23 14 38t36 15q21 0 35.5 -15.5t14.5 -37.5t-15 -37.5t-35 -15.5q-21 0 -35.5 15.5z" />
    <glyph glyph-name="dotaccent" unicode="&#x2d9;" horiz-adv-x="180" 
d="M49.5 579q-16.5 17 -16.5 42q0 26 16 42.5t41 16.5t41 -16.5t16 -42.5q0 -25 -16.5 -42t-40.5 -17t-40.5 17z" />
    <glyph glyph-name="grave" unicode="`" horiz-adv-x="234" 
d="M121 712l83 -157h-78l-100 157h95z" />
    <glyph glyph-name="acute" unicode="&#xb4;" horiz-adv-x="234" 
d="M107 555h-80l83 157h97z" />
    <glyph glyph-name="hungarumlaut" unicode="&#x2dd;" horiz-adv-x="331" 
d="M89 555h-64l82 157h75zM214 555h-63l82 157h75z" />
    <glyph glyph-name="circumflex" unicode="&#x2c6;" horiz-adv-x="319" 
d="M212 712l84 -157h-76l-60 100l-60 -100h-76l84 157h104z" />
    <glyph glyph-name="caron" unicode="&#x2c7;" horiz-adv-x="319" 
d="M160 612l60 100h76l-84 -157h-104l-83 157h75z" />
    <glyph glyph-name="breve" unicode="&#x2d8;" horiz-adv-x="315" 
d="M90 717q0 -43 17.5 -68.5t51.5 -25.5q32 0 50.5 26t18.5 68h65q0 -73 -35.5 -117.5t-98.5 -44.5q-65 0 -100 44t-35 118h66z" />
    <glyph glyph-name="ring" unicode="&#x2da;" horiz-adv-x="279" 
d="M62.5 579.5q-30.5 28.5 -30.5 73.5q0 46 30.5 75t77.5 29t77 -29t30 -75q0 -45 -30 -73.5t-77 -28.5t-77.5 28.5zM175 618.5q13 13.5 13 35.5q0 23 -13 37t-35 14t-35.5 -14t-13.5 -37q0 -22 13.5 -35.5t35.5 -13.5t35 13.5z" />
    <glyph glyph-name="tilde" unicode="&#x2dc;" horiz-adv-x="355" 
d="M266 705q1 -40 -3 -59t-18 -19q-9 0 -15.5 4.5t-19.5 17.5l-37 38q-26 26 -64 26q-36 0 -57.5 -29.5t-21.5 -88.5q0 -19 1 -30h57q-1 39 3.5 58.5t17.5 19.5q9 0 15 -4t20 -18l38 -38q27 -27 63 -27t58 29.5t22 87.5q0 10 -2 32h-57z" />
    <glyph glyph-name="macron" unicode="&#xaf;" horiz-adv-x="273" 
d="M248 565h-224v67h224v-67z" />
    <glyph glyph-name="cedilla" unicode="&#xb8;" horiz-adv-x="226" 
d="M182 -70q23 -20 23 -57q0 -41 -28 -65t-72 -24q-47 0 -79 26l18 47q26 -22 56 -22q22 0 34.5 9t12.5 27q0 17 -12.5 25t-31.5 8q-26 0 -50 -11l-12 28l57 105h56l-43 -76h13q35 0 58 -20z" />
    <glyph glyph-name="ogonek" unicode="&#x2db;" horiz-adv-x="226" 
d="M168 0q-34 0 -59.5 -24.5t-25.5 -62.5q0 -22 9.5 -34t26.5 -12q16 0 25.5 7.5t19.5 20.5l31 -41q-30 -51 -84 -51q-40 0 -65 26.5t-25 72.5q0 45 26.5 78.5t68.5 43.5z" />
    <glyph glyph-name="glyph484" horiz-adv-x="165" 
d="M62 698h80l-50 -184h-55z" />
    <glyph glyph-name="glyph485" horiz-adv-x="225" 
d="M141 12q-29 -25 -44.5 -48t-15.5 -51q0 -24 11 -35t29 -11q28 0 48 33l33 -42q-29 -55 -92 -55q-40 0 -65 24.5t-25 68.5q0 38 17 65t52 53z" />
    <glyph glyph-name="glyph486" horiz-adv-x="0" 
d="M-119.5 747.5q-14.5 14.5 -14.5 36.5q0 21 14.5 35t36.5 14q21 0 35.5 -14.5t14.5 -34.5q0 -22 -14.5 -36.5t-35.5 -14.5q-22 0 -36.5 14.5zM48.5 747.5q-14.5 14.5 -14.5 36.5q0 21 14.5 35t36.5 14t36 -14t14 -35q0 -22 -14 -36.5t-36 -14.5t-36.5 14.5z" />
    <glyph glyph-name="glyph487" horiz-adv-x="0" 
d="M-39.5 746.5q-16.5 16.5 -16.5 39.5q0 24 16 40t40 16t40 -16t16 -40q0 -23 -16.5 -39.5t-39.5 -16.5t-39.5 16.5z" />
    <glyph glyph-name="glyph488" horiz-adv-x="0" 
d="M-18 860l82 -131h-84l-100 131h102z" />
    <glyph glyph-name="glyph489" horiz-adv-x="0" 
d="M21 729h-85l83 131h102z" />
    <glyph glyph-name="glyph490" horiz-adv-x="0" 
d="M-43 729h-65l80 131h79zM86 729h-67l83 131h78z" />
    <glyph glyph-name="glyph491" horiz-adv-x="0" 
d="M54 860l84 -131h-78l-60 84l-60 -84h-78l84 131h108z" />
    <glyph glyph-name="glyph492" horiz-adv-x="0" 
d="M0 777l60 83h78l-84 -131h-108l-83 131h77z" />
    <glyph glyph-name="glyph493" horiz-adv-x="0" 
d="M-65 864q0 -33 17 -53t48 -20q30 0 46.5 20t16.5 53h71q0 -62 -35.5 -98.5t-98.5 -36.5q-65 0 -100 36t-35 99h70z" />
    <glyph glyph-name="glyph494" horiz-adv-x="0" 
d="M89 855q2 -36 -3 -52.5t-19 -16.5q-7 0 -13.5 4t-12 9t-11.5 9l-37 30q-30 24 -62 24q-40 0 -61.5 -32t-16.5 -101h58q-2 36 3 52.5t19 16.5q8 0 15 -4.5t22 -17.5l36 -30q27 -24 63 -24q40 0 61.5 32t16.5 101h-58z" />
    <glyph glyph-name="glyph495" horiz-adv-x="0" 
d="M112 740h-224v64h224v-64z" />
    <glyph glyph-name="glyph496" horiz-adv-x="332" 
d="M45.5 747.5q-14.5 14.5 -14.5 36.5q0 21 14.5 35t36.5 14q21 0 35.5 -14.5t14.5 -34.5q0 -22 -14.5 -36.5t-35.5 -14.5q-22 0 -36.5 14.5zM213.5 747.5q-14.5 14.5 -14.5 36.5q0 21 14.5 35t36.5 14t36 -14t14 -35q0 -22 -14 -36.5t-36 -14.5t-36.5 14.5z" />
    <glyph glyph-name="glyph497" horiz-adv-x="182" 
d="M50.5 746.5q-16.5 16.5 -16.5 39.5q0 24 16 40t40 16t40 -16t16 -40q0 -23 -16.5 -39.5t-39.5 -16.5t-39.5 16.5z" />
    <glyph glyph-name="glyph498" horiz-adv-x="234" 
d="M125 860l82 -131h-84l-100 131h102z" />
    <glyph glyph-name="glyph499" horiz-adv-x="234" 
d="M110 729h-85l83 131h102z" />
    <glyph glyph-name="glyph500" horiz-adv-x="331" 
d="M88 729h-65l80 131h79zM217 729h-67l83 131h78z" />
    <glyph glyph-name="glyph501" horiz-adv-x="319" 
d="M214 860l84 -131h-78l-60 84l-60 -84h-78l84 131h108z" />
    <glyph glyph-name="glyph502" horiz-adv-x="319" 
d="M160 777l60 83h78l-84 -131h-108l-83 131h77z" />
    <glyph glyph-name="glyph503" horiz-adv-x="315" 
d="M94 864q0 -33 17 -53t48 -20q30 0 46.5 20t16.5 53h71q0 -62 -35.5 -98.5t-98.5 -36.5q-65 0 -100 36t-35 99h70z" />
    <glyph glyph-name="glyph504" horiz-adv-x="279" 
d="M63.5 742.5q-29.5 25.5 -29.5 67.5q0 43 29.5 69.5t76.5 26.5t76 -26.5t29 -69.5q0 -42 -29 -67.5t-76 -25.5t-76.5 25.5zM174.5 778.5q12.5 11.5 12.5 31.5q0 22 -12.5 34.5t-34.5 12.5t-35 -13t-13 -34q0 -19 13 -31t35 -12t34.5 11.5z" />
    <glyph glyph-name="glyph505" horiz-adv-x="355" 
d="M267 855q2 -36 -3 -52.5t-19 -16.5q-7 0 -13.5 4t-12 9t-11.5 9l-37 30q-30 24 -62 24q-40 0 -61.5 -32t-16.5 -101h58q-2 36 3 52.5t19 16.5q8 0 15 -4.5t22 -17.5l36 -30q27 -24 63 -24q40 0 61.5 32t16.5 101h-58z" />
    <glyph glyph-name="glyph506" horiz-adv-x="273" 
d="M248 740h-224v64h224v-64z" />
    <glyph glyph-name="glyph509" horiz-adv-x="0" 
d="M-76.5 742.5q-29.5 25.5 -29.5 67.5q0 43 29.5 69.5t76.5 26.5t76 -26.5t29 -69.5q0 -42 -29 -67.5t-76 -25.5t-76.5 25.5zM34.5 778.5q12.5 11.5 12.5 31.5q0 22 -12.5 34.5t-34.5 12.5t-35 -13t-13 -34q0 -19 13 -31t35 -12t34.5 11.5z" />
    <glyph glyph-name="glyph510" horiz-adv-x="159" 
d="M111.5 -188.5q-23.5 -33.5 -59.5 -49.5l-21 26q22 15 34 35.5t14 42.5q-19 0 -34.5 11.5t-15.5 33.5q0 21 13.5 34t36.5 13q27 0 41.5 -17.5t14.5 -50.5q0 -45 -23.5 -78.5z" />
    <glyph glyph-name="glyph511" horiz-adv-x="159" 
d="M46 698q23 32 60 47l20 -26q-43 -30 -45 -71q18 0 33 -11.5t15 -33.5q0 -21 -13.5 -34t-36.5 -13q-27 0 -41.5 17t-14.5 50q0 43 23 75z" />
    </font>
</defs>
</svg>
