<?xml version="1.0" standalone="no"?>
<!DOCTYPE svg PUBLIC "-//W3C//DTD SVG 1.1//EN" "http://www.w3.org/Graphics/SVG/1.1/DTD/svg11.dtd" >
<svg xmlns="http://www.w3.org/2000/svg" xmlns:xlink="http://www.w3.org/1999/xlink" version="1.1">
<metadata>
Created by Christoph Koeberlin (http://christoph.koe.berlin)
Copyright supertype 2022, Juergen Huber and Martin Wenzel. All rights reserved.
</metadata>
<defs>
<font id="Font" horiz-adv-x="560" >
  <font-face 
    font-family="Font"
    font-weight="700"
    font-stretch="normal"
    units-per-em="1000"
    panose-1="2 11 8 4 4 0 0 0 0 4"
    ascent="800"
    descent="-200"
    x-height="487"
    cap-height="670"
    bbox="-197 -263 970 920"
    underline-thickness="103"
    underline-position="-125"
    unicode-range="U+0020-FB02"
  />
<missing-glyph horiz-adv-x="397" 
d="M33 670h332v-670h-332v670zM271 92v488h-144v-488h144z" />
    <glyph glyph-name="arrowright" unicode="&#x2d;&#x3e;" horiz-adv-x="763" 
d="M726 336l-310 -310l-91 90l160 154v2h-447v127h447v2l-159 154l91 90z" />
    <glyph glyph-name="uniE008" unicode="[Hermann]" horiz-adv-x="805" 
d="M720 500q0 -25 -6 -69l-3 -26l-3 -26q-6 -1 -12 19q-1 2 -4.5 11t-7.5 9q-2 0 -7 -6q-3 -5 -12 -16t-10 -19q2 -15 8 -15q5 0 9 10q7 16 14 16q6 0 6 -13q0 -14 -8 -33q-4 -9 -7 -21t-7 -18t-12 -7v1q0 7 -2.5 15t-8.5 8q0 -20 -6.5 -29t-16.5 -8q1 4 1 10q0 15 -7 26.5
t-20 24.5q-10 11 -14.5 17.5t-4.5 14.5q0 10 5 17q-3 14 -26 52q-16 27 -24.5 45t-8.5 33t12 24q9 -18 20.5 -30t22.5 -12t18 11q6 8 11.5 -2t9.5 -29q8 10 8 32q0 5 -2 21q34 -27 34 -59q0 -16 -7 -33q7 0 12 4t13 13.5t12 3.5q8 -10 14 -30v1q3 21 3 46q0 75 -28 103
q-5 4 -18 17.5t-20 16.5t-8 -4q-4 -20 -11 -41.5t-15 -21.5q-19 33 -41.5 51.5t-38 24t-35.5 9.5q-12 3 -12 17q0 20 17 39q9 9 -18.5 17t-64.5 8q-53 0 -80 -17q-7 -5 -1.5 -10.5t20.5 -13.5q3 -2 10 -6.5t7 -7.5t-9 -4q-25 -2 -41 -9.5t-16 -16.5q0 -7 14 -15
q8 -4 -14.5 -12t-44.5 -13q-45 -12 -66.5 -20.5t-41.5 -27.5q15 -2 24 -5t-1 -9q-44 -26 -44 -83q0 -9 2 -25h24q35 0 58.5 -15t54.5 -43q3 -2 1 -4q-8 -15 -8 -34l1 -26q0 -24 -12 -38q-11 -14 -11 -28q0 -12 9.5 -17t21 -7t17.5 -4h3q30 15 48 15q14 0 10 -12
q-1 -2 -25 -13.5t-30 -22.5q-9 -1 -20.5 3.5t-18.5 5.5q-3 1 -9 1q-23 0 -36 -23.5t-13 -48.5q9 20 29 33.5t50 13.5q11 0 17 -1q3 -8 14.5 -12.5t27.5 -4.5q17 0 36 7q8 3 17 3q15 0 30.5 -6.5t26.5 -15.5l1 -2q0 -1 -5.5 -3t-4.5 -4q0 -2 9 -4t16 -4.5t7 -8.5q0 -5 -7 -13
q-2 -2 -11 -11.5t-19.5 -15.5t-20.5 -6q-8 0 -15 4q-5 4 -12 4q-8 0 -17 -9.5t-12 -9.5q-6 -1 -11 1.5t-9 5.5q-10 8 -20 8q-15 0 -33 -16q7 -17 26 -25.5t44 -8.5q28 0 44 -11q-6 -24 -29 -40.5t-53 -23.5q15 -6 36 -6q41 0 76 30q17 14 17 26t-26 26q-11 6 -11 12
q0 8 13 15t27 7q7 0 10 -1q6 -2 15 -2q10 0 13.5 5.5t6.5 17.5q4 23 17 35l20 16q35 24 61 52.5t45 80.5h5q19 0 24 11q6 11 17.5 21.5t16.5 9.5q-2 -6 -16 -38q-10 -20 -25 -20q-5 0 -11 2q4 -39 -25.5 -92t-99.5 -136q-35 -42 -82.5 -71t-92.5 -29q-8 0 -22 2
q-58 13 -98.5 75t-49.5 169q-1 19 -20 55q-12 26 -16 38q-9 29 -17.5 88t-7.5 105q-10 -4 -16 -29q-21 49 -21 96q0 19 4 32q15 59 46.5 102.5t81.5 76.5q46 30 90.5 47.5t103.5 17.5q35 0 70 -7q86 -17 148.5 -61.5t90.5 -144.5q10 -36 10 -72zM381.5 344.5l-0.5 -0.5
q0 -2 3.5 -5t4.5 -4q11 -7 25 -12q-5 -5 -11 -10t-9 -3q-49 25 -71 30q-9 3 -12 8.5t-5 16.5t-5 15q19 24 54 33q12 3 45 3q24 0 44 -2.5t26 -8.5q-4 -1 -9.5 -1.5t-7.5 -1.5q-1 -1 -7 -3t-5 -5q0 -7 -0.5 -9.5t-4.5 -2.5q-17 0 -26 0.5t-14 0.5q-8 0 -12 -5l84 -15
q6 -1 9 -4.5t2 -6.5q-11 1 -17 -1.5t-17 -11.5q-7 -6 -16 -6q-7 0 -14.5 3t-10.5 8l-6 11l-16 -10zM157 370.5q1 -2.5 4 -1.5q9 3 26 3t25 -1q3 -1 3.5 1.5t-1.5 4.5q-10 6 -25 6q-17 0 -31 -8q-2 -2 -1 -4.5zM145 309q0 -14 4 -33.5t9 -30.5q8 -16 19 -31t20 -23
q15 12 23 26q8 13 18.5 52.5t12.5 70.5q0 4 -4 4q-12 0 -22 8q-2 3 -4 1q-17 -14 -28 -14q-10 0 -23 13q-1 1 -4 1q-6 -1 -6 -9q0 -5 1.5 -11t0.5 -8.5t-7 0.5q-10 4 -10 -16z" />
    <glyph glyph-name="uniE018" unicode="[Friedrich]" horiz-adv-x="805" 
d="M730 319q0 -29 -6.5 -59.5t-12.5 -38.5q-14 -18 -25 -18t-19 12q5 8 20 10q11 3 16 6.5t6 12.5q-4 3 -10 3q-9 0 -19 -5t-16 -13q-19 -26 -21 -53q-4 -36 -23.5 -91t-36.5 -81q-33 -48 -73.5 -71t-84.5 -23q-53 0 -105 30t-93.5 81.5t-63.5 113.5q-5 11 -9.5 16t-15.5 5
q-24 2 -41 55t-17 101q0 21 5 33q10 -10 18.5 -16.5t17.5 -6.5q8 0 15 7q-21 8 -33 25q2 31 -3 76q-1 10 -2 24t-1 33q0 5 0.5 20.5t-5 25.5t-17.5 14q4 29 18.5 62t37.5 48q7 4 27 6t36 7q9 3 13 3q9 0 5 -9t-16.5 -20.5t-25.5 -17.5q15 -3 26 4t27 22q21 21 38 28
q-17 10 -51 10q-25 0 -59 -7q18 27 53 50.5t76 25.5q40 1 64 -4.5t54 -23.5l-22 -9q27 -2 42.5 -7t36 -22.5t58.5 -58.5q-65 -30 -105 -30q-25 0 -40 9q-32 17 -56 17q-26 0 -38 -18q-20 -26 -45.5 -39t-42.5 -13q-8 0 -10 2q25 -25 64 -21q1 -7 -14 -24.5t-32 -22.5
q5 -5 20 -5q9 0 17 2q-8 -25 -25 -41q7 0 21 -2q-11 -16 -11 -33q0 -12 6 -24q1 -1 19 4.5t36 5.5q11 0 16 -1q6 -1 18 -1q36 0 74 23q16 -17 40 -25t47 -8q10 0 22 2q16 3 42 3q48 0 70 -8l-1 -14q0 -6 2 -16q6 -9 8 -23q18 -5 20 -2q15 15 28 40q-19 23 -19 47q0 20 15 47
q6 -7 20 -17.5t23 -15.5q-2 12 -18 40q-2 5 -8.5 17.5t-8.5 20.5q-1 25 -6.5 46.5t-14.5 29.5l-32 8q-32 8 -46 16t-31 30q-44 58 -103.5 91t-115.5 41q32 13 79 13q59 0 121 -25q104 -42 156.5 -119t52.5 -175q0 -43 -11 -93q-12 -13 -16.5 -19.5t-4.5 -14.5q0 -3 2 -11
q22 27 27 34q6 -16 6 -43zM470 323q0 -18 20 -31t46 -13q28 0 48 15t20 35q0 8 -4 18q-11 17 -39 23q31 -21 31 -39q0 -8 -4 -13q-6 0 -8.5 6t-5.5 8.5t-13 2.5q-9 -24 -27 -24q-8 0 -18.5 4t-13.5 5q-22 10 -31 8zM285 89q6 7 11.5 10.5t10.5 5.5l16 -20q0 18 5.5 39.5
t26.5 32.5q-17 16 -17 33q0 10 6.5 21t7.5 13q16 24 17 41q-1 6 -5 8t-13.5 2.5t-13.5 3.5q-19 -11 -44 -11q-32 0 -55 18t-23 43q0 12 4 21q-9 7 -17 7t-8 -9q3 -6 0 -18t-3 -20q-4 -113 94 -221zM667 299q0 19 10 34q-1 6 -3.5 11t-4.5 2q-6 -8 -24 -36q-1 -3 -6 -3
t-14.5 2.5t-14.5 0.5q-8 -18 -28 -30t-46 -12q-28 0 -50 14.5t-27 35.5q-23 28 -49 34q0 -18 -4 -54l-5 -80q-1 -18 1.5 -25t10.5 -14q9 -9 15 -18q6 4 15 12t15 8q10 0 20 -13q-48 -1 -48 -43l1 -19q-39 7 -32 24l-10 5q-4 -3 -17.5 -10t-11.5 -12l72 -23q5 5 37 5t50 -4
q6 3 6 14q0 8 -2.5 17t-2.5 10q42 -13 42 -59q0 -11 -2 -19q-48 24 -94 24q-34 0 -72 -11q2 -9 48 -19q21 -5 34 -10q-16 -21 -41 -21q-17 0 -35.5 7.5t-21.5 8.5q-19 8 -30 11q-9 3 -20 3q-4 0 -17.5 -0.5t-20.5 5.5t-8 20q-11 -14 -11 -25q0 -12 11 -21t30 -13
q0 -9 7 -23.5t27 -25.5q24 -12 43 -12q12 0 23 5t14 5q7 0 15 -14q46 -1 78 21t63 65q-5 4 -5 11t5.5 17.5t12.5 22.5q16 28 25 49t12 47q3 20 8.5 33.5t15.5 28.5q12 18 15 33q-4 10 -4 23zM225.5 332q0.5 -2 0.5 -3q0 -20 19.5 -35t47.5 -15q24 0 42.5 11t23.5 28
q-11 11 -20 14t-23 4q-11 -15 -27 -15q-11 0 -21.5 6.5t-13.5 13.5q-7 -4 -7 -15q0 -9 4 -19q-10 4 -15 12t-7 24l-3 -7q-1 -2 -0.5 -4z" />
    <glyph glyph-name=".notdef" horiz-adv-x="397" 
d="M33 670h332v-670h-332v670zM271 92v488h-144v-488h144z" />
    <glyph glyph-name="space" unicode=" " horiz-adv-x="208" 
 />
    <glyph glyph-name="A" unicode="A" horiz-adv-x="633" 
d="M631 0h-150l-44 148h-246l-46 -148h-143l229 670h170zM313 543l-85 -274h172l-82 274h-5z" />
    <glyph glyph-name="Aacute" unicode="&#xc1;" horiz-adv-x="633" 
d="M631 0h-150l-44 148h-246l-46 -148h-143l229 670h170zM313 543l-85 -274h172l-82 274h-5zM351 725h-124l102 133h148z" />
    <glyph glyph-name="Abreve" unicode="&#x102;" horiz-adv-x="633" 
d="M631 0h-150l-44 148h-246l-46 -148h-143l229 670h170zM313 543l-85 -274h172l-82 274h-5zM243 868q0 -30 19 -48.5t54 -18.5q34 0 53 18.5t19 48.5h98q0 -67 -44.5 -105t-125.5 -38q-82 0 -126 38t-44 105h97z" />
    <glyph glyph-name="Acircumflex" unicode="&#xc2;" horiz-adv-x="633" 
d="M631 0h-150l-44 148h-246l-46 -148h-143l229 670h170zM313 543l-85 -274h172l-82 274h-5zM396 858l101 -133h-113l-68 78l-69 -78h-114l103 133h160z" />
    <glyph glyph-name="Adieresis" unicode="&#xc4;" horiz-adv-x="633" 
d="M631 0h-150l-44 148h-246l-46 -148h-143l229 670h170zM313 543l-85 -274h172l-82 274h-5zM161 746.5q-20 18.5 -20 46.5t20 46t49 18t48 -18t19 -46t-19 -46.5t-48 -18.5t-49 18.5zM374 746.5q-20 18.5 -20 46.5q0 27 20 45.5t48 18.5q29 0 49 -18.5t20 -45.5
q0 -28 -20 -46.5t-49 -18.5q-28 0 -48 18.5z" />
    <glyph glyph-name="Agrave" unicode="&#xc0;" horiz-adv-x="633" 
d="M631 0h-150l-44 148h-246l-46 -148h-143l229 670h170zM313 543l-85 -274h172l-82 274h-5zM303 858l101 -133h-122l-128 133h149z" />
    <glyph glyph-name="Amacron" unicode="&#x100;" horiz-adv-x="633" 
d="M631 0h-150l-44 148h-246l-46 -148h-143l229 670h170zM313 543l-85 -274h172l-82 274h-5zM458 735h-283v90h283v-90z" />
    <glyph glyph-name="Aogonek" unicode="&#x104;" horiz-adv-x="633" 
d="M631 0h-150l-44 148h-246l-46 -148h-143l229 670h170zM313 543l-85 -274h172l-82 274h-5zM609 0q-44 0 -76 -19.5t-32 -50.5q0 -19 11 -29.5t29 -10.5q17 0 28 7.5t22 19.5l45 -62q-39 -52 -113 -52q-48 0 -79.5 29t-31.5 77q0 41 32 73t83 43z" />
    <glyph glyph-name="Aring" unicode="&#xc5;" horiz-adv-x="633" 
d="M631 0h-150l-44 148h-246l-46 -148h-143l229 670h170zM313 543l-85 -274h172l-82 274h-5zM208 742q-40 29 -40 74t40 74.5t108 29.5q67 0 107.5 -29.5t40.5 -74.5t-40 -74t-108 -29t-108 29zM364 788.5q16 10.5 16 27.5t-16 28t-48 11t-48.5 -11t-16.5 -28t16.5 -27.5
t48.5 -10.5t48 10.5z" />
    <glyph glyph-name="Atilde" unicode="&#xc3;" horiz-adv-x="633" 
d="M631 0h-150l-44 148h-246l-46 -148h-143l229 670h170zM313 543l-85 -274h172l-82 274h-5zM427 858q1 -28 -5 -42t-22 -14t-40 13l-56 31q-37 22 -80 22q-49 0 -76 -36t-21 -107h78q-2 29 3.5 43t23.5 14q9 0 20.5 -4.5t20.5 -9.5l54 -30q20 -10 38.5 -16t44.5 -6
q48 0 74.5 35.5t20.5 106.5h-78z" />
    <glyph glyph-name="AE" unicode="&#xc6;" horiz-adv-x="876" 
d="M534 279l50 -154h248v-125h-351l-45 148h-245l-46 -148h-143l229 670h594v-122h-377l48 -150h315v-119h-277zM313 543l-85 -274h172l-83 274h-4z" />
    <glyph glyph-name="AEacute" unicode="&#x1fc;" horiz-adv-x="876" 
d="M534 279l50 -154h248v-125h-351l-45 148h-245l-46 -148h-143l229 670h594v-122h-377l48 -150h315v-119h-277zM313 543l-85 -274h172l-83 274h-4zM537 725h-124l102 133h148z" />
    <glyph glyph-name="B" unicode="B" horiz-adv-x="605" 
d="M543.5 288.5q27.5 -40.5 27.5 -92.5q0 -56 -28.5 -100.5t-80.5 -70t-122 -25.5h-271v670h263q66 0 115 -22.5t75 -62.5t26 -92q0 -44 -21.5 -81t-60.5 -60q50 -23 77.5 -63.5zM206 553v-160h120q44 0 67.5 22t23.5 57q0 37 -23.5 59t-67.5 22h-120zM334 120
q48 0 73.5 22.5t25.5 59.5t-25.5 60.5t-73.5 23.5h-128v-166h128z" />
    <glyph glyph-name="C" unicode="C" horiz-adv-x="657" 
d="M224.5 172.5q49.5 -60.5 132.5 -60.5q57 0 99.5 28t61.5 79l118 -62q-31 -80 -104.5 -125t-174.5 -45q-99 0 -171.5 43.5t-111 122.5t-38.5 182q0 101 40.5 180.5t113.5 123.5t167 44q99 0 173.5 -45t105.5 -123l-118 -59q-20 48 -62.5 76.5t-98.5 28.5q-83 0 -132.5 -61
t-49.5 -164t49.5 -163.5z" />
    <glyph glyph-name="Cacute" unicode="&#x106;" horiz-adv-x="657" 
d="M224.5 172.5q49.5 -60.5 132.5 -60.5q57 0 99.5 28t61.5 79l118 -62q-31 -80 -104.5 -125t-174.5 -45q-99 0 -171.5 43.5t-111 122.5t-38.5 182q0 101 40.5 180.5t113.5 123.5t167 44q99 0 173.5 -45t105.5 -123l-118 -59q-20 48 -62.5 76.5t-98.5 28.5q-83 0 -132.5 -61
t-49.5 -164t49.5 -163.5zM392 740h-124l102 133h148z" />
    <glyph glyph-name="Ccaron" unicode="&#x10c;" horiz-adv-x="657" 
d="M224.5 172.5q49.5 -60.5 132.5 -60.5q57 0 99.5 28t61.5 79l118 -62q-31 -80 -104.5 -125t-174.5 -45q-99 0 -171.5 43.5t-111 122.5t-38.5 182q0 101 40.5 180.5t113.5 123.5t167 44q99 0 173.5 -45t105.5 -123l-118 -59q-20 48 -62.5 76.5t-98.5 28.5q-83 0 -132.5 -61
t-49.5 -164t49.5 -163.5zM357 796l68 77h113l-101 -133h-160l-102 133h113z" />
    <glyph glyph-name="Ccedilla" unicode="&#xc7;" horiz-adv-x="657" 
d="M224.5 172.5q49.5 -60.5 132.5 -60.5q57 0 99.5 28t61.5 79l118 -62q-31 -80 -104.5 -125t-174.5 -45q-99 0 -171.5 43.5t-111 122.5t-38.5 182q0 101 40.5 180.5t113.5 123.5t167 44q99 0 173.5 -45t105.5 -123l-118 -59q-20 48 -62.5 76.5t-98.5 28.5q-83 0 -132.5 -61
t-49.5 -164t49.5 -163.5zM448 -66q30 -24 30 -62q0 -47 -36.5 -74.5t-92.5 -27.5q-63 0 -99 24l23 60q27 -17 68 -17q24 0 38 7.5t14 21.5q0 15 -13.5 22.5t-36.5 7.5q-32 0 -62 -11l-18 39l75 105h80l-50 -71h4q46 0 76 -24z" />
    <glyph glyph-name="Ccircumflex" unicode="&#x108;" horiz-adv-x="657" 
d="M224.5 172.5q49.5 -60.5 132.5 -60.5q57 0 99.5 28t61.5 79l118 -62q-31 -80 -104.5 -125t-174.5 -45q-99 0 -171.5 43.5t-111 122.5t-38.5 182q0 101 40.5 180.5t113.5 123.5t167 44q99 0 173.5 -45t105.5 -123l-118 -59q-20 48 -62.5 76.5t-98.5 28.5q-83 0 -132.5 -61
t-49.5 -164t49.5 -163.5zM437 873l101 -133h-113l-68 78l-69 -78h-114l103 133h160z" />
    <glyph glyph-name="Cdotaccent" unicode="&#x10a;" horiz-adv-x="657" 
d="M224.5 172.5q49.5 -60.5 132.5 -60.5q57 0 99.5 28t61.5 79l118 -62q-31 -80 -104.5 -125t-174.5 -45q-99 0 -171.5 43.5t-111 122.5t-38.5 182q0 101 40.5 180.5t113.5 123.5t167 44q99 0 173.5 -45t105.5 -123l-118 -59q-20 48 -62.5 76.5t-98.5 28.5q-83 0 -132.5 -61
t-49.5 -164t49.5 -163.5zM300.5 760q-22.5 18 -22.5 48t22.5 48t56.5 18q33 0 56.5 -18t23.5 -48t-23.5 -48t-56.5 -18q-34 0 -56.5 18z" />
    <glyph glyph-name="D" unicode="D" horiz-adv-x="668" 
d="M592 158.5q-40 -75.5 -116 -117t-180 -41.5h-227v670h227q105 0 180.5 -40t115.5 -115.5t40 -179.5q0 -101 -40 -176.5zM441.5 491q-51.5 57 -145.5 57h-90v-423h90q94 0 145.5 56.5t51.5 154.5t-51.5 155z" />
    <glyph glyph-name="Eth" unicode="&#xd0;" horiz-adv-x="687" 
d="M315 670q105 0 180.5 -40t115.5 -115.5t40 -179.5q0 -101 -40 -176.5t-116 -117t-180 -41.5h-226v280h-73v117h73v273h226zM315 125q94 0 145.5 56.5t51.5 154.5t-51.5 155t-145.5 57h-90v-151h129v-117h-129v-155h90z" />
    <glyph glyph-name="Dcaron" unicode="&#x10e;" horiz-adv-x="668" 
d="M592 158.5q-40 -75.5 -116 -117t-180 -41.5h-227v670h227q105 0 180.5 -40t115.5 -115.5t40 -179.5q0 -101 -40 -176.5zM441.5 491q-51.5 57 -145.5 57h-90v-423h90q94 0 145.5 56.5t51.5 154.5t-51.5 155zM319 780l68 77h113l-101 -133h-160l-102 133h113z" />
    <glyph glyph-name="Dcroat" unicode="&#x110;" horiz-adv-x="687" 
d="M315 670q105 0 180.5 -40t115.5 -115.5t40 -179.5q0 -101 -40 -176.5t-116 -117t-180 -41.5h-226v280h-73v117h73v273h226zM315 125q94 0 145.5 56.5t51.5 154.5t-51.5 155t-145.5 57h-90v-151h129v-117h-129v-155h90z" />
    <glyph glyph-name="E" unicode="E" 
d="M206 279v-154h310v-125h-447v670h441v-122h-304v-150h290v-119h-290z" />
    <glyph glyph-name="Eacute" unicode="&#xc9;" 
d="M206 279v-154h310v-125h-447v670h441v-122h-304v-150h290v-119h-290zM326 725h-124l102 133h148z" />
    <glyph glyph-name="Ebreve" unicode="&#x114;" 
d="M206 279v-154h310v-125h-447v670h441v-122h-304v-150h290v-119h-290zM218 868q0 -30 19 -48.5t54 -18.5q34 0 53 18.5t19 48.5h98q0 -67 -44.5 -105t-125.5 -38q-82 0 -126 38t-44 105h97z" />
    <glyph glyph-name="Ecaron" unicode="&#x11a;" 
d="M206 279v-154h310v-125h-447v670h441v-122h-304v-150h290v-119h-290zM291 781l68 77h113l-101 -133h-160l-102 133h113z" />
    <glyph glyph-name="Ecircumflex" unicode="&#xca;" 
d="M206 279v-154h310v-125h-447v670h441v-122h-304v-150h290v-119h-290zM371 858l101 -133h-113l-68 78l-69 -78h-114l103 133h160z" />
    <glyph glyph-name="Edieresis" unicode="&#xcb;" 
d="M206 279v-154h310v-125h-447v670h441v-122h-304v-150h290v-119h-290zM136 746.5q-20 18.5 -20 46.5t20 46t49 18t48 -18t19 -46t-19 -46.5t-48 -18.5t-49 18.5zM349 746.5q-20 18.5 -20 46.5q0 27 20 45.5t48 18.5q29 0 49 -18.5t20 -45.5q0 -28 -20 -46.5t-49 -18.5
q-28 0 -48 18.5z" />
    <glyph glyph-name="Edotaccent" unicode="&#x116;" 
d="M206 279v-154h310v-125h-447v670h441v-122h-304v-150h290v-119h-290zM234.5 745q-22.5 18 -22.5 48t22.5 48t56.5 18q33 0 56.5 -18t23.5 -48t-23.5 -48t-56.5 -18q-34 0 -56.5 18z" />
    <glyph glyph-name="Egrave" unicode="&#xc8;" 
d="M206 279v-154h310v-125h-447v670h441v-122h-304v-150h290v-119h-290zM278 858l101 -133h-122l-128 133h149z" />
    <glyph glyph-name="Emacron" unicode="&#x112;" 
d="M206 279v-154h310v-125h-447v670h441v-122h-304v-150h290v-119h-290zM433 735h-283v90h283v-90z" />
    <glyph glyph-name="Eogonek" unicode="&#x118;" 
d="M206 279v-154h310v-125h-447v670h441v-122h-304v-150h290v-119h-290zM479 0q-44 0 -76 -19.5t-32 -50.5q0 -19 11 -29.5t29 -10.5q17 0 28 7.5t22 19.5l45 -62q-39 -52 -113 -52q-48 0 -79.5 29t-31.5 77q0 41 32 73t83 43z" />
    <glyph glyph-name="F" unicode="F" horiz-adv-x="539" 
d="M505 670v-122h-299v-178h291v-119h-291v-251h-137v670h436z" />
    <glyph glyph-name="G" unicode="G" horiz-adv-x="697" 
d="M664 324q0 -102 -36.5 -178t-106 -117.5t-165.5 -41.5q-97 0 -169.5 43.5t-111.5 122t-39 182.5q0 101 40.5 180.5t113.5 123.5t166 44q100 0 174 -45t105 -123l-118 -59q-19 48 -62 76.5t-99 28.5q-83 0 -132 -61t-49 -164q0 -105 50 -164.5t138 -59.5q76 0 118.5 41
t48.5 103h-189v115h322q1 -15 1 -47z" />
    <glyph glyph-name="Gbreve" unicode="&#x11e;" horiz-adv-x="697" 
d="M664 324q0 -102 -36.5 -178t-106 -117.5t-165.5 -41.5q-97 0 -169.5 43.5t-111.5 122t-39 182.5q0 101 40.5 180.5t113.5 123.5t166 44q100 0 174 -45t105 -123l-118 -59q-19 48 -62 76.5t-99 28.5q-83 0 -132 -61t-49 -164q0 -105 50 -164.5t138 -59.5q76 0 118.5 41
t48.5 103h-189v115h322q1 -15 1 -47zM283 883q0 -30 19 -48.5t54 -18.5q34 0 53 18.5t19 48.5h98q0 -67 -44.5 -105t-125.5 -38q-82 0 -126 38t-44 105h97z" />
    <glyph glyph-name="Gcircumflex" unicode="&#x11c;" horiz-adv-x="697" 
d="M664 324q0 -102 -36.5 -178t-106 -117.5t-165.5 -41.5q-97 0 -169.5 43.5t-111.5 122t-39 182.5q0 101 40.5 180.5t113.5 123.5t166 44q100 0 174 -45t105 -123l-118 -59q-19 48 -62 76.5t-99 28.5q-83 0 -132 -61t-49 -164q0 -105 50 -164.5t138 -59.5q76 0 118.5 41
t48.5 103h-189v115h322q1 -15 1 -47zM436 873l101 -133h-113l-68 78l-69 -78h-114l103 133h160z" />
    <glyph glyph-name="uni0122" unicode="&#x122;" horiz-adv-x="697" 
d="M664 324q0 -102 -36.5 -178t-106 -117.5t-165.5 -41.5q-97 0 -169.5 43.5t-111.5 122t-39 182.5q0 101 40.5 180.5t113.5 123.5t166 44q100 0 174 -45t105 -123l-118 -59q-19 48 -62 76.5t-99 28.5q-83 0 -132 -61t-49 -164q0 -105 50 -164.5t138 -59.5q76 0 118.5 41
t48.5 103h-189v115h322q1 -15 1 -47zM400.5 -207.5q-30.5 -37.5 -80.5 -55.5l-30 34q27 13 42 32t17 38q-25 0 -45 14.5t-20 43.5q0 25 18.5 41.5t50.5 16.5q37 0 57.5 -21t20.5 -55q0 -51 -30.5 -88.5z" />
    <glyph glyph-name="Gdotaccent" unicode="&#x120;" horiz-adv-x="697" 
d="M664 324q0 -102 -36.5 -178t-106 -117.5t-165.5 -41.5q-97 0 -169.5 43.5t-111.5 122t-39 182.5q0 101 40.5 180.5t113.5 123.5t166 44q100 0 174 -45t105 -123l-118 -59q-19 48 -62 76.5t-99 28.5q-83 0 -132 -61t-49 -164q0 -105 50 -164.5t138 -59.5q76 0 118.5 41
t48.5 103h-189v115h322q1 -15 1 -47zM299.5 760q-22.5 18 -22.5 48t22.5 48t56.5 18q33 0 56.5 -18t23.5 -48t-23.5 -48t-56.5 -18q-34 0 -56.5 18z" />
    <glyph glyph-name="H" unicode="H" horiz-adv-x="675" 
d="M468 400v270h137v-670h-137v277h-262v-277h-137v670h137v-270h262z" />
    <glyph glyph-name="Hbar" unicode="&#x126;" horiz-adv-x="696" 
d="M616 562h64v-77h-64v-485h-137v277h-262v-277h-137v485h-63v77h63v108h137v-108h262v108h137v-108zM217 400h262v85h-262v-85z" />
    <glyph glyph-name="Hcircumflex" unicode="&#x124;" horiz-adv-x="675" 
d="M468 400v270h137v-670h-137v277h-262v-277h-137v670h137v-270h262zM417 858l101 -133h-113l-68 78l-69 -78h-114l103 133h160z" />
    <glyph glyph-name="I" unicode="I" horiz-adv-x="276" 
d="M206 0h-137v670h137v-670z" />
    <glyph glyph-name="IJ" unicode="&#x132;" horiz-adv-x="781" 
d="M206 0h-137v670h137v-670zM272 84l84 92q22 -29 47.5 -44.5t66.5 -15.5q50 0 80.5 33t30.5 97v424h136v-434q0 -120 -65.5 -184.5t-181.5 -64.5q-130 0 -198 97z" />
    <glyph glyph-name="Iacute" unicode="&#xcd;" horiz-adv-x="276" 
d="M206 0h-137v670h137v-670zM173 725h-124l102 133h148z" />
    <glyph glyph-name="Ibreve" unicode="&#x12c;" horiz-adv-x="276" 
d="M206 0h-137v670h137v-670zM65 868q0 -30 19 -48.5t54 -18.5q34 0 53 18.5t19 48.5h98q0 -67 -44.5 -105t-125.5 -38q-82 0 -126 38t-44 105h97z" />
    <glyph glyph-name="Icircumflex" unicode="&#xce;" horiz-adv-x="276" 
d="M206 0h-137v670h137v-670zM218 858l101 -133h-113l-68 78l-69 -78h-114l103 133h160z" />
    <glyph glyph-name="Idieresis" unicode="&#xcf;" horiz-adv-x="276" 
d="M206 0h-137v670h137v-670zM-17 746.5q-20 18.5 -20 46.5t20 46t49 18t48 -18t19 -46t-19 -46.5t-48 -18.5t-49 18.5zM196 746.5q-20 18.5 -20 46.5q0 27 20 45.5t48 18.5q29 0 49 -18.5t20 -45.5q0 -28 -20 -46.5t-49 -18.5q-28 0 -48 18.5z" />
    <glyph glyph-name="Idotaccent" unicode="&#x130;" horiz-adv-x="276" 
d="M206 0h-137v670h137v-670zM81.5 745q-22.5 18 -22.5 48t22.5 48t56.5 18q33 0 56.5 -18t23.5 -48t-23.5 -48t-56.5 -18q-34 0 -56.5 18z" />
    <glyph glyph-name="Igrave" unicode="&#xcc;" horiz-adv-x="276" 
d="M206 0h-137v670h137v-670zM125 858l101 -133h-122l-128 133h149z" />
    <glyph glyph-name="Imacron" unicode="&#x12a;" horiz-adv-x="276" 
d="M206 0h-137v670h137v-670zM280 735h-283v90h283v-90z" />
    <glyph glyph-name="Iogonek" unicode="&#x12e;" horiz-adv-x="276" 
d="M207 0h-137v670h137v-670zM193 0q-44 0 -76 -19.5t-32 -50.5q0 -19 11 -29.5t29 -10.5q17 0 28 7.5t22 19.5l45 -62q-39 -52 -113 -52q-48 0 -79.5 29t-31.5 77q0 41 32 73t83 43z" />
    <glyph glyph-name="Itilde" unicode="&#x128;" horiz-adv-x="276" 
d="M206 0h-137v670h137v-670zM249 858q1 -28 -5 -42t-22 -14t-40 13l-56 31q-37 22 -80 22q-49 0 -76 -36t-21 -107h78q-2 29 3.5 43t23.5 14q9 0 20.5 -4.5t20.5 -9.5l54 -30q20 -10 38.5 -16t44.5 -6q48 0 74.5 35.5t20.5 106.5h-78z" />
    <glyph glyph-name="J" unicode="J" horiz-adv-x="505" 
d="M-4 84l84 92q22 -29 47.5 -44.5t66.5 -15.5q50 0 80.5 33t30.5 97v424h136v-434q0 -120 -65.5 -184.5t-181.5 -64.5q-130 0 -198 97z" />
    <glyph glyph-name="Jcircumflex" unicode="&#x134;" horiz-adv-x="505" 
d="M-4 84l84 92q22 -29 47.5 -44.5t66.5 -15.5q50 0 80.5 33t30.5 97v424h136v-434q0 -120 -65.5 -184.5t-181.5 -64.5q-130 0 -198 97zM454 858l101 -133h-113l-68 78l-69 -78h-114l103 133h160z" />
    <glyph glyph-name="K" unicode="K" horiz-adv-x="629" 
d="M640 0h-170l-197 279l-67 -76v-203h-137v670h137v-290l246 290h168l-250 -297z" />
    <glyph glyph-name="uni0136" unicode="&#x136;" horiz-adv-x="629" 
d="M640 0h-170l-197 279l-67 -76v-203h-137v670h137v-290l246 290h168l-250 -297zM376.5 -207.5q-30.5 -37.5 -80.5 -55.5l-30 34q27 13 42 32t17 38q-25 0 -45 14.5t-20 43.5q0 25 18.5 41.5t50.5 16.5q37 0 57.5 -21t20.5 -55q0 -51 -30.5 -88.5z" />
    <glyph glyph-name="L" unicode="L" horiz-adv-x="524" 
d="M206 670v-545h304v-125h-441v670h137z" />
    <glyph glyph-name="Lacute" unicode="&#x139;" horiz-adv-x="524" 
d="M206 670v-545h304v-125h-441v670h137zM173 725h-124l102 133h148z" />
    <glyph glyph-name="Lcaron" unicode="&#x13d;" horiz-adv-x="531" 
d="M206 670v-545h304v-125h-441v670h137zM386 670h115l-68 -193h-79z" />
    <glyph glyph-name="uni013B" unicode="&#x13b;" horiz-adv-x="524" 
d="M206 670v-545h304v-125h-441v670h137zM333.5 -207.5q-30.5 -37.5 -80.5 -55.5l-30 34q27 13 42 32t17 38q-25 0 -45 14.5t-20 43.5q0 25 18.5 41.5t50.5 16.5q37 0 57.5 -21t20.5 -55q0 -51 -30.5 -88.5z" />
    <glyph glyph-name="Ldot" unicode="&#x13f;" horiz-adv-x="532" 
d="M206 670v-545h304v-125h-441v670h137zM335.5 319q-23.5 23 -23.5 56t23.5 56t55.5 23q33 0 56.5 -23t23.5 -56t-23.5 -56t-56.5 -23q-32 0 -55.5 23z" />
    <glyph glyph-name="Lslash" unicode="&#x141;" horiz-adv-x="571" 
d="M253 300v-175h304v-125h-441v243l-74 -31l-29 71l103 43v344h137v-287l195 81l29 -71z" />
    <glyph glyph-name="M" unicode="M" horiz-adv-x="800" 
d="M709 670l40 -670h-137l-20 462h-3l-134 -378h-112l-133 377h-3l-21 -461h-135l40 670h168l140 -403h5l142 403h163z" />
    <glyph glyph-name="N" unicode="N" horiz-adv-x="686" 
d="M491 234v436h126v-670h-148l-271 451h-2v-451h-127v670h156l263 -436h3z" />
    <glyph glyph-name="Nacute" unicode="&#x143;" horiz-adv-x="686" 
d="M491 234v436h126v-670h-148l-271 451h-2v-451h-127v670h156l263 -436h3zM379 725h-124l102 133h148z" />
    <glyph glyph-name="Ncaron" unicode="&#x147;" horiz-adv-x="686" 
d="M491 234v436h126v-670h-148l-271 451h-2v-451h-127v670h156l263 -436h3zM344 781l68 77h113l-101 -133h-160l-102 133h113z" />
    <glyph glyph-name="uni0145" unicode="&#x145;" horiz-adv-x="686" 
d="M491 234v436h126v-670h-148l-271 451h-2v-451h-127v670h156l263 -436h3zM387.5 -207.5q-30.5 -37.5 -80.5 -55.5l-30 34q27 13 42 32t17 38q-25 0 -45 14.5t-20 43.5q0 25 18.5 41.5t50.5 16.5q37 0 57.5 -21t20.5 -55q0 -51 -30.5 -88.5z" />
    <glyph glyph-name="Eng" unicode="&#x14a;" horiz-adv-x="686" 
d="M617 670v-687q0 -81 -46 -128.5t-124 -47.5q-57 0 -96 16l27 110q19 -10 49 -10t47 20.5t17 55.5v12l-293 440h-2v-451h-127v670h156l263 -403h3v403h126z" />
    <glyph glyph-name="Ntilde" unicode="&#xd1;" horiz-adv-x="686" 
d="M491 234v436h126v-670h-148l-271 451h-2v-451h-127v670h156l263 -436h3zM455 858q1 -28 -5 -42t-22 -14t-40 13l-56 31q-37 22 -80 22q-49 0 -76 -36t-21 -107h78q-2 29 3.5 43t23.5 14q9 0 20.5 -4.5t20.5 -9.5l54 -30q20 -10 38.5 -16t44.5 -6q48 0 74.5 35.5
t20.5 106.5h-78z" />
    <glyph glyph-name="O" unicode="O" horiz-adv-x="709" 
d="M76 517q40 79 112.5 122.5t166.5 43.5t166 -43.5t112 -122.5t40 -182q0 -104 -39.5 -183t-111.5 -122t-167 -43q-96 0 -168 43t-111.5 122t-39.5 183q0 103 40 182zM485 500q-48 61 -130 61t-131 -61t-49 -164t48.5 -163.5t131.5 -60.5q82 0 130 60.5t48 163.5t-48 164z
" />
    <glyph glyph-name="Oacute" unicode="&#xd3;" horiz-adv-x="709" 
d="M76 517q40 79 112.5 122.5t166.5 43.5t166 -43.5t112 -122.5t40 -182q0 -104 -39.5 -183t-111.5 -122t-167 -43q-96 0 -168 43t-111.5 122t-39.5 183q0 103 40 182zM485 500q-48 61 -130 61t-131 -61t-49 -164t48.5 -163.5t131.5 -60.5q82 0 130 60.5t48 163.5t-48 164z
M390 740h-124l102 133h148z" />
    <glyph glyph-name="Obreve" unicode="&#x14e;" horiz-adv-x="709" 
d="M76 517q40 79 112.5 122.5t166.5 43.5t166 -43.5t112 -122.5t40 -182q0 -104 -39.5 -183t-111.5 -122t-167 -43q-96 0 -168 43t-111.5 122t-39.5 183q0 103 40 182zM485 500q-48 61 -130 61t-131 -61t-49 -164t48.5 -163.5t131.5 -60.5q82 0 130 60.5t48 163.5t-48 164z
M282 883q0 -30 19 -48.5t54 -18.5q34 0 53 18.5t19 48.5h98q0 -67 -44.5 -105t-125.5 -38q-82 0 -126 38t-44 105h97z" />
    <glyph glyph-name="Ocircumflex" unicode="&#xd4;" horiz-adv-x="709" 
d="M76 517q40 79 112.5 122.5t166.5 43.5t166 -43.5t112 -122.5t40 -182q0 -104 -39.5 -183t-111.5 -122t-167 -43q-96 0 -168 43t-111.5 122t-39.5 183q0 103 40 182zM485 500q-48 61 -130 61t-131 -61t-49 -164t48.5 -163.5t131.5 -60.5q82 0 130 60.5t48 163.5t-48 164z
M435 873l101 -133h-113l-68 78l-69 -78h-114l103 133h160z" />
    <glyph glyph-name="Odieresis" unicode="&#xd6;" horiz-adv-x="709" 
d="M76 517q40 79 112.5 122.5t166.5 43.5t166 -43.5t112 -122.5t40 -182q0 -104 -39.5 -183t-111.5 -122t-167 -43q-96 0 -168 43t-111.5 122t-39.5 183q0 103 40 182zM485 500q-48 61 -130 61t-131 -61t-49 -164t48.5 -163.5t131.5 -60.5q82 0 130 60.5t48 163.5t-48 164z
M199 761.5q-20 18.5 -20 46.5t20 46t49 18t48 -18t19 -46t-19 -46.5t-48 -18.5t-49 18.5zM412 761.5q-20 18.5 -20 46.5q0 27 20 45.5t48 18.5q29 0 49 -18.5t20 -45.5q0 -28 -20 -46.5t-49 -18.5q-28 0 -48 18.5z" />
    <glyph glyph-name="Ograve" unicode="&#xd2;" horiz-adv-x="709" 
d="M76 517q40 79 112.5 122.5t166.5 43.5t166 -43.5t112 -122.5t40 -182q0 -104 -39.5 -183t-111.5 -122t-167 -43q-96 0 -168 43t-111.5 122t-39.5 183q0 103 40 182zM485 500q-48 61 -130 61t-131 -61t-49 -164t48.5 -163.5t131.5 -60.5q82 0 130 60.5t48 163.5t-48 164z
M342 873l101 -133h-122l-128 133h149z" />
    <glyph glyph-name="Ohungarumlaut" unicode="&#x150;" horiz-adv-x="709" 
d="M76 517q40 79 112.5 122.5t166.5 43.5t166 -43.5t112 -122.5t40 -182q0 -104 -39.5 -183t-111.5 -122t-167 -43q-96 0 -168 43t-111.5 122t-39.5 183q0 103 40 182zM485 500q-48 61 -130 61t-131 -61t-49 -164t48.5 -163.5t131.5 -60.5q82 0 130 60.5t48 163.5t-48 164z
M305 740h-95l100 133h114zM471 740h-95l101 133h113z" />
    <glyph glyph-name="Omacron" unicode="&#x14c;" horiz-adv-x="709" 
d="M76 517q40 79 112.5 122.5t166.5 43.5t166 -43.5t112 -122.5t40 -182q0 -104 -39.5 -183t-111.5 -122t-167 -43q-96 0 -168 43t-111.5 122t-39.5 183q0 103 40 182zM485 500q-48 61 -130 61t-131 -61t-49 -164t48.5 -163.5t131.5 -60.5q82 0 130 60.5t48 163.5t-48 164z
M497 750h-283v90h283v-90z" />
    <glyph glyph-name="Oslash" unicode="&#xd8;" horiz-adv-x="716" 
d="M685 619l-66 -71q58 -89 58 -213q0 -104 -39.5 -183t-111.5 -122t-167 -43q-107 0 -184 54l-62 -69l-84 81l66 72q-54 88 -54 210q0 103 39.5 182t112 122.5t166.5 43.5q103 0 181 -53l59 69zM228.5 500q-48.5 -61 -48.5 -164q0 -56 16 -104l262 298q-42 31 -99 31
q-82 0 -130.5 -61zM489 172.5q48 60.5 48 163.5q0 59 -17 107l-260 -300q42 -31 99 -31q82 0 130 60.5z" />
    <glyph glyph-name="Oslashacute" unicode="&#x1fe;" horiz-adv-x="716" 
d="M685 619l-66 -71q58 -89 58 -213q0 -104 -39.5 -183t-111.5 -122t-167 -43q-107 0 -184 54l-62 -69l-84 81l66 72q-54 88 -54 210q0 103 39.5 182t112 122.5t166.5 43.5q103 0 181 -53l59 69zM228.5 500q-48.5 -61 -48.5 -164q0 -56 16 -104l262 298q-42 31 -99 31
q-82 0 -130.5 -61zM489 172.5q48 60.5 48 163.5q0 59 -17 107l-260 -300q42 -31 99 -31q82 0 130 60.5zM393 740h-124l102 133h148z" />
    <glyph glyph-name="Otilde" unicode="&#xd5;" horiz-adv-x="709" 
d="M76 517q40 79 112.5 122.5t166.5 43.5t166 -43.5t112 -122.5t40 -182q0 -104 -39.5 -183t-111.5 -122t-167 -43q-96 0 -168 43t-111.5 122t-39.5 183q0 103 40 182zM485 500q-48 61 -130 61t-131 -61t-49 -164t48.5 -163.5t131.5 -60.5q82 0 130 60.5t48 163.5t-48 164z
M465 873q1 -28 -5 -42t-22 -14t-40 13l-56 31q-37 22 -80 22q-49 0 -76 -36t-21 -107h78q-2 29 3.5 43t23.5 14q9 0 20.5 -4.5t20.5 -9.5l54 -30q20 -10 38.5 -16t44.5 -6q48 0 74.5 35.5t20.5 106.5h-78z" />
    <glyph glyph-name="OE" unicode="&#x152;" horiz-adv-x="975" 
d="M931 125v-125h-495q-40 -13 -91 -13q-93 0 -163 43t-108 122t-38 183q0 103 39 182t109 122.5t161 43.5q51 0 91 -13h489v-122h-333q41 -68 51 -150h268v-119h-267q-11 -87 -50 -154h337zM221.5 172.5q45.5 -60.5 123.5 -60.5t123.5 60.5t45.5 163.5t-45.5 164t-123.5 61
t-123.5 -61t-45.5 -164t45.5 -163.5z" />
    <glyph glyph-name="P" unicode="P" horiz-adv-x="598" 
d="M470 639.5q56 -30.5 83.5 -82t27.5 -113.5q0 -59 -29 -109.5t-85 -80.5t-133 -30h-128v-224h-137v670h265q80 0 136 -30.5zM324 340q61 0 90.5 30t29.5 74q0 46 -29.5 76t-90.5 30h-118v-210h118z" />
    <glyph glyph-name="Thorn" unicode="&#xde;" horiz-adv-x="611" 
d="M334 561q80 0 136 -30.5t83.5 -82t27.5 -112.5q0 -60 -29 -110t-85 -80t-133 -30h-128v-116h-137v670h137v-109h128zM324 231q61 0 90.5 30t29.5 75t-29.5 74.5t-90.5 29.5h-118v-209h118z" />
    <glyph glyph-name="Q" unicode="Q" horiz-adv-x="709" 
d="M645 178q-28 -70 -80 -116l77 -105l-106 -68l-70 115q-53 -17 -111 -17q-96 0 -168 43t-111.5 122t-39.5 183q0 103 40 182t112.5 122.5t166.5 43.5t166 -43.5t112 -122.5t40 -182q0 -87 -28 -157zM223.5 172.5q48.5 -60.5 131.5 -60.5q23 0 40 4l-76 110l100 67l69 -116
q45 59 45 159q0 103 -48 164t-130 61t-131 -61t-49 -164t48.5 -163.5z" />
    <glyph glyph-name="R" unicode="R" horiz-adv-x="628" 
d="M447 0l-151 241h-90v-241h-137v670h265q80 0 136 -29.5t83.5 -79.5t27.5 -109q0 -64 -36 -115.5t-101 -76.5l166 -260h-163zM206 550v-194h118q61 0 90.5 28t29.5 69t-29.5 69t-90.5 28h-118z" />
    <glyph glyph-name="Racute" unicode="&#x154;" horiz-adv-x="628" 
d="M447 0l-151 241h-90v-241h-137v670h265q80 0 136 -29.5t83.5 -79.5t27.5 -109q0 -64 -36 -115.5t-101 -76.5l166 -260h-163zM206 550v-194h118q61 0 90.5 28t29.5 69t-29.5 69t-90.5 28h-118zM349 725h-124l102 133h148z" />
    <glyph glyph-name="Rcaron" unicode="&#x158;" horiz-adv-x="628" 
d="M447 0l-151 241h-90v-241h-137v670h265q80 0 136 -29.5t83.5 -79.5t27.5 -109q0 -64 -36 -115.5t-101 -76.5l166 -260h-163zM206 550v-194h118q61 0 90.5 28t29.5 69t-29.5 69t-90.5 28h-118zM315 781l68 77h113l-101 -133h-160l-102 133h113z" />
    <glyph glyph-name="uni0156" unicode="&#x156;" horiz-adv-x="628" 
d="M447 0l-151 241h-90v-241h-137v670h265q80 0 136 -29.5t83.5 -79.5t27.5 -109q0 -64 -36 -115.5t-101 -76.5l166 -260h-163zM206 550v-194h118q61 0 90.5 28t29.5 69t-29.5 69t-90.5 28h-118zM361.5 -207.5q-30.5 -37.5 -80.5 -55.5l-30 34q27 13 42 32t17 38
q-25 0 -45 14.5t-20 43.5q0 25 18.5 41.5t50.5 16.5q37 0 57.5 -21t20.5 -55q0 -51 -30.5 -88.5z" />
    <glyph glyph-name="S" unicode="S" horiz-adv-x="538" 
d="M86 176q33 -29 79.5 -46.5t95.5 -17.5q50 0 77 18.5t27 56.5q0 47 -61 70l-115 47q-74 30 -109.5 73.5t-35.5 111.5q0 55 27.5 99.5t78 69.5t117.5 25q70 0 131 -20t101 -54l-53 -107q-32 26 -80.5 42.5t-92.5 16.5t-67.5 -17t-23.5 -49q0 -24 15 -40.5t47 -28.5l111 -44
q78 -30 113.5 -75t35.5 -115q0 -94 -64 -149.5t-171 -55.5q-73 0 -139 21.5t-109 57.5z" />
    <glyph glyph-name="Sacute" unicode="&#x15a;" horiz-adv-x="538" 
d="M86 176q33 -29 79.5 -46.5t95.5 -17.5q50 0 77 18.5t27 56.5q0 47 -61 70l-115 47q-74 30 -109.5 73.5t-35.5 111.5q0 55 27.5 99.5t78 69.5t117.5 25q70 0 131 -20t101 -54l-53 -107q-32 26 -80.5 42.5t-92.5 16.5t-67.5 -17t-23.5 -49q0 -24 15 -40.5t47 -28.5l111 -44
q78 -30 113.5 -75t35.5 -115q0 -94 -64 -149.5t-171 -55.5q-73 0 -139 21.5t-109 57.5zM301 740h-124l102 133h148z" />
    <glyph glyph-name="Scaron" unicode="&#x160;" horiz-adv-x="538" 
d="M86 176q33 -29 79.5 -46.5t95.5 -17.5q50 0 77 18.5t27 56.5q0 47 -61 70l-115 47q-74 30 -109.5 73.5t-35.5 111.5q0 55 27.5 99.5t78 69.5t117.5 25q70 0 131 -20t101 -54l-53 -107q-32 26 -80.5 42.5t-92.5 16.5t-67.5 -17t-23.5 -49q0 -24 15 -40.5t47 -28.5l111 -44
q78 -30 113.5 -75t35.5 -115q0 -94 -64 -149.5t-171 -55.5q-73 0 -139 21.5t-109 57.5zM266 796l68 77h113l-101 -133h-160l-102 133h113z" />
    <glyph glyph-name="Scedilla" unicode="&#x15e;" horiz-adv-x="538" 
d="M86 176q33 -29 79.5 -46.5t95.5 -17.5q50 0 77 18.5t27 56.5q0 47 -61 70l-115 47q-74 30 -109.5 73.5t-35.5 111.5q0 55 27.5 99.5t78 69.5t117.5 25q70 0 131 -20t101 -54l-53 -107q-32 26 -80.5 42.5t-92.5 16.5t-67.5 -17t-23.5 -49q0 -24 15 -40.5t47 -28.5l111 -44
q78 -30 113.5 -75t35.5 -115q0 -94 -64 -149.5t-171 -55.5q-73 0 -139 21.5t-109 57.5zM357 -66q30 -24 30 -62q0 -47 -36.5 -74.5t-92.5 -27.5q-63 0 -99 24l23 60q27 -17 68 -17q24 0 38 7.5t14 21.5q0 15 -13.5 22.5t-36.5 7.5q-32 0 -62 -11l-18 39l75 105h80l-50 -71h4
q46 0 76 -24z" />
    <glyph glyph-name="Scircumflex" unicode="&#x15c;" horiz-adv-x="538" 
d="M86 176q33 -29 79.5 -46.5t95.5 -17.5q50 0 77 18.5t27 56.5q0 47 -61 70l-115 47q-74 30 -109.5 73.5t-35.5 111.5q0 55 27.5 99.5t78 69.5t117.5 25q70 0 131 -20t101 -54l-53 -107q-32 26 -80.5 42.5t-92.5 16.5t-67.5 -17t-23.5 -49q0 -24 15 -40.5t47 -28.5l111 -44
q78 -30 113.5 -75t35.5 -115q0 -94 -64 -149.5t-171 -55.5q-73 0 -139 21.5t-109 57.5zM346 873l101 -133h-113l-68 78l-69 -78h-114l103 133h160z" />
    <glyph glyph-name="uni0218" unicode="&#x218;" horiz-adv-x="538" 
d="M86 176q33 -29 79.5 -46.5t95.5 -17.5q50 0 77 18.5t27 56.5q0 47 -61 70l-115 47q-74 30 -109.5 73.5t-35.5 111.5q0 55 27.5 99.5t78 69.5t117.5 25q70 0 131 -20t101 -54l-53 -107q-32 26 -80.5 42.5t-92.5 16.5t-67.5 -17t-23.5 -49q0 -24 15 -40.5t47 -28.5l111 -44
q78 -30 113.5 -75t35.5 -115q0 -94 -64 -149.5t-171 -55.5q-73 0 -139 21.5t-109 57.5zM308.5 -207.5q-30.5 -37.5 -80.5 -55.5l-30 34q27 13 42 32t17 38q-25 0 -45 14.5t-20 43.5q0 25 18.5 41.5t50.5 16.5q37 0 57.5 -21t20.5 -55q0 -51 -30.5 -88.5z" />
    <glyph glyph-name="uni1E9E" unicode="&#x1e9e;" horiz-adv-x="701" 
d="M63 412q0 78 34.5 136.5t97.5 90t146 31.5h270v-108l-69 -193q58 -19 92.5 -66.5t34.5 -108.5q0 -62 -27.5 -109t-77.5 -72.5t-115 -25.5q-46 0 -88.5 9t-72.5 24l41 117q54 -27 103 -27t76 23t27 64q0 45 -40 71.5t-109 33.5l81 248h-122q-70 0 -107.5 -37.5
t-37.5 -108.5v-404h-137v412z" />
    <glyph glyph-name="uni018F" unicode="&#x18f;" horiz-adv-x="677" 
d="M491 640q74 -43 112 -121t38 -183q0 -102 -38.5 -181t-108.5 -123.5t-161 -44.5q-94 0 -161 42.5t-102 120t-35 180.5q0 37 5 59h462q-6 75 -54.5 123.5t-136.5 48.5q-112 0 -197 -78l-63 97q44 45 113 74t147 29q106 0 180 -43zM453.5 158q42.5 46 48.5 118h-331
q9 -78 49.5 -121t115.5 -43t117.5 46z" />
    <glyph glyph-name="T" unicode="T" horiz-adv-x="557" 
d="M546 670v-123h-199v-547h-137v547h-198v123h534z" />
    <glyph glyph-name="Tbar" unicode="&#x166;" horiz-adv-x="573" 
d="M553 670v-123h-198v-198h137v-76h-137v-273h-137v273h-137v76h137v198h-198v123h533z" />
    <glyph glyph-name="Tcaron" unicode="&#x164;" horiz-adv-x="557" 
d="M546 670v-123h-199v-547h-137v547h-198v123h534zM278 781l68 77h113l-101 -133h-160l-102 133h113z" />
    <glyph glyph-name="uni0162" unicode="&#x162;" horiz-adv-x="557" 
d="M546 670v-123h-199v-547h-137v547h-198v123h534zM322.5 -207.5q-30.5 -37.5 -80.5 -55.5l-30 34q27 13 42 32t17 38q-25 0 -45 14.5t-20 43.5q0 25 18.5 41.5t50.5 16.5q37 0 57.5 -21t20.5 -55q0 -51 -30.5 -88.5z" />
    <glyph glyph-name="uni021A" unicode="&#x21a;" horiz-adv-x="557" 
d="M546 670v-123h-199v-547h-137v547h-198v123h534zM322.5 -207.5q-30.5 -37.5 -80.5 -55.5l-30 34q27 13 42 32t17 38q-25 0 -45 14.5t-20 43.5q0 25 18.5 41.5t50.5 16.5q37 0 57.5 -21t20.5 -55q0 -51 -30.5 -88.5z" />
    <glyph glyph-name="U" unicode="U" horiz-adv-x="683" 
d="M620 269q0 -85 -33 -148.5t-96 -98.5t-150 -35t-150 35t-96 98.5t-33 148.5v401h139v-401q0 -72 38 -114.5t102 -42.5q65 0 103 42.5t38 114.5v401h138v-401z" />
    <glyph glyph-name="Uacute" unicode="&#xda;" horiz-adv-x="683" 
d="M620 269q0 -85 -33 -148.5t-96 -98.5t-150 -35t-150 35t-96 98.5t-33 148.5v401h139v-401q0 -72 38 -114.5t102 -42.5q65 0 103 42.5t38 114.5v401h138v-401zM376 725h-124l102 133h148z" />
    <glyph glyph-name="Ubreve" unicode="&#x16c;" horiz-adv-x="683" 
d="M620 269q0 -85 -33 -148.5t-96 -98.5t-150 -35t-150 35t-96 98.5t-33 148.5v401h139v-401q0 -72 38 -114.5t102 -42.5q65 0 103 42.5t38 114.5v401h138v-401zM268 868q0 -30 19 -48.5t54 -18.5q34 0 53 18.5t19 48.5h98q0 -67 -44.5 -105t-125.5 -38q-82 0 -126 38
t-44 105h97z" />
    <glyph glyph-name="Ucircumflex" unicode="&#xdb;" horiz-adv-x="683" 
d="M620 269q0 -85 -33 -148.5t-96 -98.5t-150 -35t-150 35t-96 98.5t-33 148.5v401h139v-401q0 -72 38 -114.5t102 -42.5q65 0 103 42.5t38 114.5v401h138v-401zM421 858l101 -133h-113l-68 78l-69 -78h-114l103 133h160z" />
    <glyph glyph-name="Udieresis" unicode="&#xdc;" horiz-adv-x="683" 
d="M620 269q0 -85 -33 -148.5t-96 -98.5t-150 -35t-150 35t-96 98.5t-33 148.5v401h139v-401q0 -72 38 -114.5t102 -42.5q65 0 103 42.5t38 114.5v401h138v-401zM186 746.5q-20 18.5 -20 46.5t20 46t49 18t48 -18t19 -46t-19 -46.5t-48 -18.5t-49 18.5zM399 746.5
q-20 18.5 -20 46.5q0 27 20 45.5t48 18.5q29 0 49 -18.5t20 -45.5q0 -28 -20 -46.5t-49 -18.5q-28 0 -48 18.5z" />
    <glyph glyph-name="Ugrave" unicode="&#xd9;" horiz-adv-x="683" 
d="M620 269q0 -85 -33 -148.5t-96 -98.5t-150 -35t-150 35t-96 98.5t-33 148.5v401h139v-401q0 -72 38 -114.5t102 -42.5q65 0 103 42.5t38 114.5v401h138v-401zM328 858l101 -133h-122l-128 133h149z" />
    <glyph glyph-name="Uhungarumlaut" unicode="&#x170;" horiz-adv-x="683" 
d="M620 269q0 -85 -33 -148.5t-96 -98.5t-150 -35t-150 35t-96 98.5t-33 148.5v401h139v-401q0 -72 38 -114.5t102 -42.5q65 0 103 42.5t38 114.5v401h138v-401zM291 725h-95l100 133h114zM457 725h-95l101 133h113z" />
    <glyph glyph-name="Umacron" unicode="&#x16a;" horiz-adv-x="683" 
d="M620 269q0 -85 -33 -148.5t-96 -98.5t-150 -35t-150 35t-96 98.5t-33 148.5v401h139v-401q0 -72 38 -114.5t102 -42.5q65 0 103 42.5t38 114.5v401h138v-401zM483 735h-283v90h283v-90z" />
    <glyph glyph-name="Uogonek" unicode="&#x172;" horiz-adv-x="683" 
d="M620 269q0 -85 -33 -148.5t-96 -98.5t-150 -35t-150 35t-96 98.5t-33 148.5v401h139v-401q0 -72 38 -114.5t102 -42.5q65 0 103 42.5t38 114.5v401h138v-401zM468 13q-37 -23 -56 -44t-19 -44q0 -21 12 -31.5t33 -10.5q33 0 55 28l46 -64q-42 -51 -115 -51
q-52 0 -85 28.5t-33 76.5q0 38 21 62t65 51z" />
    <glyph glyph-name="Uring" unicode="&#x16e;" horiz-adv-x="683" 
d="M620 269q0 -85 -33 -148.5t-96 -98.5t-150 -35t-150 35t-96 98.5t-33 148.5v401h139v-401q0 -72 38 -114.5t102 -42.5q65 0 103 42.5t38 114.5v401h138v-401zM233 742q-40 29 -40 74t40 74.5t108 29.5q67 0 107.5 -29.5t40.5 -74.5t-40 -74t-108 -29t-108 29zM389 788.5
q16 10.5 16 27.5t-16 28t-48 11t-48.5 -11t-16.5 -28t16.5 -27.5t48.5 -10.5t48 10.5z" />
    <glyph glyph-name="Utilde" unicode="&#x168;" horiz-adv-x="683" 
d="M620 269q0 -85 -33 -148.5t-96 -98.5t-150 -35t-150 35t-96 98.5t-33 148.5v401h139v-401q0 -72 38 -114.5t102 -42.5q65 0 103 42.5t38 114.5v401h138v-401zM452 858q1 -28 -5 -42t-22 -14t-40 13l-56 31q-37 22 -80 22q-49 0 -76 -36t-21 -107h78q-2 29 3.5 43t23.5 14
q9 0 20.5 -4.5t20.5 -9.5l54 -30q20 -10 38.5 -16t44.5 -6q48 0 74.5 35.5t20.5 106.5h-78z" />
    <glyph glyph-name="V" unicode="V" horiz-adv-x="631" 
d="M318 130l162 540h148l-225 -670h-176l-224 670h152l159 -540h4z" />
    <glyph glyph-name="W" unicode="W" horiz-adv-x="851" 
d="M613 186l71 484h138l-114 -670h-168l-118 495h-4l-117 -495h-157l-116 670h138l69 -484h5l108 484h150l109 -484h6z" />
    <glyph glyph-name="Wacute" unicode="&#x1e82;" horiz-adv-x="851" 
d="M613 186l71 484h138l-114 -670h-168l-118 495h-4l-117 -495h-157l-116 670h138l69 -484h5l108 484h150l109 -484h6zM457 725h-124l102 133h148z" />
    <glyph glyph-name="Wcircumflex" unicode="&#x174;" horiz-adv-x="851" 
d="M613 186l71 484h138l-114 -670h-168l-118 495h-4l-117 -495h-157l-116 670h138l69 -484h5l108 484h150l109 -484h6zM502 858l101 -133h-113l-68 78l-69 -78h-114l103 133h160z" />
    <glyph glyph-name="Wdieresis" unicode="&#x1e84;" horiz-adv-x="851" 
d="M613 186l71 484h138l-114 -670h-168l-118 495h-4l-117 -495h-157l-116 670h138l69 -484h5l108 484h150l109 -484h6zM267 746.5q-20 18.5 -20 46.5t20 46t49 18t48 -18t19 -46t-19 -46.5t-48 -18.5t-49 18.5zM480 746.5q-20 18.5 -20 46.5q0 27 20 45.5t48 18.5
q29 0 49 -18.5t20 -45.5q0 -28 -20 -46.5t-49 -18.5q-28 0 -48 18.5z" />
    <glyph glyph-name="Wgrave" unicode="&#x1e80;" horiz-adv-x="851" 
d="M613 186l71 484h138l-114 -670h-168l-118 495h-4l-117 -495h-157l-116 670h138l69 -484h5l108 484h150l109 -484h6zM409 858l101 -133h-122l-128 133h149z" />
    <glyph glyph-name="X" unicode="X" horiz-adv-x="630" 
d="M614 670l-209 -320l228 -350h-166l-152 251h-4l-151 -251h-161l224 348l-210 322h164l136 -226h3l138 226h160z" />
    <glyph glyph-name="uni1E8A" unicode="&#x1e8a;" horiz-adv-x="630" 
d="M614 670l-209 -320l228 -350h-166l-152 251h-4l-151 -251h-161l224 348l-210 322h164l136 -226h3l138 226h160zM258.5 745q-22.5 18 -22.5 48t22.5 48t56.5 18q33 0 56.5 -18t23.5 -48t-23.5 -48t-56.5 -18q-34 0 -56.5 18z" />
    <glyph glyph-name="Y" unicode="Y" horiz-adv-x="612" 
d="M467 670h149l-241 -395v-275h-137v275l-243 395h154l154 -281h6z" />
    <glyph glyph-name="Yacute" unicode="&#xdd;" horiz-adv-x="612" 
d="M467 670h149l-241 -395v-275h-137v275l-243 395h154l154 -281h6zM342 725h-124l102 133h148z" />
    <glyph glyph-name="Ycircumflex" unicode="&#x176;" horiz-adv-x="612" 
d="M467 670h149l-241 -395v-275h-137v275l-243 395h154l154 -281h6zM387 858l101 -133h-113l-68 78l-69 -78h-114l103 133h160z" />
    <glyph glyph-name="Ydieresis" unicode="&#x178;" horiz-adv-x="612" 
d="M467 670h149l-241 -395v-275h-137v275l-243 395h154l154 -281h6zM152 746.5q-20 18.5 -20 46.5t20 46t49 18t48 -18t19 -46t-19 -46.5t-48 -18.5t-49 18.5zM365 746.5q-20 18.5 -20 46.5q0 27 20 45.5t48 18.5q29 0 49 -18.5t20 -45.5q0 -28 -20 -46.5t-49 -18.5
q-28 0 -48 18.5z" />
    <glyph glyph-name="Ygrave" unicode="&#x1ef2;" horiz-adv-x="612" 
d="M467 670h149l-241 -395v-275h-137v275l-243 395h154l154 -281h6zM294 858l101 -133h-122l-128 133h149z" />
    <glyph glyph-name="Z" unicode="Z" horiz-adv-x="542" 
d="M31 0v115l307 428v4h-293v123h456v-112l-296 -429v-3h303v-126h-477z" />
    <glyph glyph-name="Zacute" unicode="&#x179;" horiz-adv-x="542" 
d="M31 0v115l307 428v4h-293v123h456v-112l-296 -429v-3h303v-126h-477zM308 725h-124l102 133h148z" />
    <glyph glyph-name="Zcaron" unicode="&#x17d;" horiz-adv-x="542" 
d="M31 0v115l307 428v4h-293v123h456v-112l-296 -429v-3h303v-126h-477zM273 781l68 77h113l-101 -133h-160l-102 133h113z" />
    <glyph glyph-name="Zdotaccent" unicode="&#x17b;" horiz-adv-x="542" 
d="M31 0v115l307 428v4h-293v123h456v-112l-296 -429v-3h303v-126h-477zM216.5 745q-22.5 18 -22.5 48t22.5 48t56.5 18q33 0 56.5 -18t23.5 -48t-23.5 -48t-56.5 -18q-34 0 -56.5 18z" />
    <glyph glyph-name="uni01B5" unicode="&#x1b5;" horiz-adv-x="551" 
d="M210 129v-3h302v-126h-476v115l131 182h-106v77h161l121 169v4h-294v123h457v-112l-127 -184h100v-77h-153z" />
    <glyph glyph-name="a" unicode="a" horiz-adv-x="505" 
d="M464 0h-115l-8 79h-3q-17 -43 -58 -67.5t-96 -24.5q-69 0 -111 39.5t-42 103.5q0 71 50.5 111.5t139.5 40.5q50 0 95 -13v34q0 41 -21.5 64.5t-59.5 23.5q-67 0 -96 -63l-98 51q24 58 76 89.5t125 31.5q96 0 150 -52t54 -145v-97zM287.5 114q28.5 28 28.5 72
q-39 11 -82 11q-38 0 -59.5 -15t-21.5 -42q0 -26 16 -40t46 -14q44 0 72.5 28z" />
    <glyph glyph-name="aacute" unicode="&#xe1;" horiz-adv-x="505" 
d="M464 0h-115l-8 79h-3q-17 -43 -58 -67.5t-96 -24.5q-69 0 -111 39.5t-42 103.5q0 71 50.5 111.5t139.5 40.5q50 0 95 -13v34q0 41 -21.5 64.5t-59.5 23.5q-67 0 -96 -63l-98 51q24 58 76 89.5t125 31.5q96 0 150 -52t54 -145v-97zM287.5 114q28.5 28 28.5 72
q-39 11 -82 11q-38 0 -59.5 -15t-21.5 -42q0 -26 16 -40t46 -14q44 0 72.5 28zM273 544h-116l102 162h141z" />
    <glyph glyph-name="abreve" unicode="&#x103;" horiz-adv-x="505" 
d="M464 0h-115l-8 79h-3q-17 -43 -58 -67.5t-96 -24.5q-69 0 -111 39.5t-42 103.5q0 71 50.5 111.5t139.5 40.5q50 0 95 -13v34q0 41 -21.5 64.5t-59.5 23.5q-67 0 -96 -63l-98 51q24 58 76 89.5t125 31.5q96 0 150 -52t54 -145v-97zM287.5 114q28.5 28 28.5 72
q-39 11 -82 11q-38 0 -59.5 -15t-21.5 -42q0 -26 16 -40t46 -14q44 0 72.5 28zM164 714q0 -38 20.5 -61t59.5 -23q38 0 58.5 23t20.5 61h91q0 -78 -45 -124t-125 -46q-81 0 -125.5 46t-44.5 124h90z" />
    <glyph glyph-name="acircumflex" unicode="&#xe2;" horiz-adv-x="505" 
d="M464 0h-115l-8 79h-3q-17 -43 -58 -67.5t-96 -24.5q-69 0 -111 39.5t-42 103.5q0 71 50.5 111.5t139.5 40.5q50 0 95 -13v34q0 41 -21.5 64.5t-59.5 23.5q-67 0 -96 -63l-98 51q24 58 76 89.5t125 31.5q96 0 150 -52t54 -145v-97zM287.5 114q28.5 28 28.5 72
q-39 11 -82 11q-38 0 -59.5 -15t-21.5 -42q0 -26 16 -40t46 -14q44 0 72.5 28zM320 706l102 -162h-110l-68 94l-69 -94h-110l103 162h152z" />
    <glyph glyph-name="adieresis" unicode="&#xe4;" horiz-adv-x="505" 
d="M464 0h-115l-8 79h-3q-17 -43 -58 -67.5t-96 -24.5q-69 0 -111 39.5t-42 103.5q0 71 50.5 111.5t139.5 40.5q50 0 95 -13v34q0 41 -21.5 64.5t-59.5 23.5q-67 0 -96 -63l-98 51q24 58 76 89.5t125 31.5q96 0 150 -52t54 -145v-97zM287.5 114q28.5 28 28.5 72
q-39 11 -82 11q-38 0 -59.5 -15t-21.5 -42q0 -26 16 -40t46 -14q44 0 72.5 28zM89 564q-20 20 -20 49t20 48.5t49 19.5q28 0 47.5 -19.5t19.5 -48.5t-19.5 -49t-47.5 -20q-29 0 -49 20zM302 564q-20 20 -20 49q0 28 20 48t48 20q29 0 49 -20t20 -48q0 -29 -20 -49t-49 -20
q-28 0 -48 20z" />
    <glyph glyph-name="agrave" unicode="&#xe0;" horiz-adv-x="505" 
d="M464 0h-115l-8 79h-3q-17 -43 -58 -67.5t-96 -24.5q-69 0 -111 39.5t-42 103.5q0 71 50.5 111.5t139.5 40.5q50 0 95 -13v34q0 41 -21.5 64.5t-59.5 23.5q-67 0 -96 -63l-98 51q24 58 76 89.5t125 31.5q96 0 150 -52t54 -145v-97zM287.5 114q28.5 28 28.5 72
q-39 11 -82 11q-38 0 -59.5 -15t-21.5 -42q0 -26 16 -40t46 -14q44 0 72.5 28zM231 706l101 -162h-116l-127 162h142z" />
    <glyph glyph-name="amacron" unicode="&#x101;" horiz-adv-x="505" 
d="M464 0h-115l-8 79h-3q-17 -43 -58 -67.5t-96 -24.5q-69 0 -111 39.5t-42 103.5q0 71 50.5 111.5t139.5 40.5q50 0 95 -13v34q0 41 -21.5 64.5t-59.5 23.5q-67 0 -96 -63l-98 51q24 58 76 89.5t125 31.5q96 0 150 -52t54 -145v-97zM287.5 114q28.5 28 28.5 72
q-39 11 -82 11q-38 0 -59.5 -15t-21.5 -42q0 -26 16 -40t46 -14q44 0 72.5 28zM386 557h-283v91h283v-91z" />
    <glyph glyph-name="aogonek" unicode="&#x105;" horiz-adv-x="505" 
d="M464 0h-115l-8 79h-3q-17 -43 -58 -67.5t-96 -24.5q-69 0 -111 39.5t-42 103.5q0 71 50.5 111.5t139.5 40.5q50 0 95 -13v34q0 41 -21.5 64.5t-59.5 23.5q-67 0 -96 -63l-98 51q24 58 76 89.5t125 31.5q96 0 150 -52t54 -145v-97zM287.5 114q28.5 28 28.5 72
q-39 11 -82 11q-38 0 -59.5 -15t-21.5 -42q0 -26 16 -40t46 -14q44 0 72.5 28zM459 0q-44 0 -76 -19.5t-32 -50.5q0 -19 11 -29.5t29 -10.5q17 0 28 7.5t22 19.5l45 -62q-39 -52 -113 -52q-48 0 -79.5 29t-31.5 77q0 41 32 73t83 43z" />
    <glyph glyph-name="aring" unicode="&#xe5;" horiz-adv-x="505" 
d="M464 0h-115l-8 79h-3q-17 -43 -58 -67.5t-96 -24.5q-69 0 -111 39.5t-42 103.5q0 71 50.5 111.5t139.5 40.5q50 0 95 -13v34q0 41 -21.5 64.5t-59.5 23.5q-67 0 -96 -63l-98 51q24 58 76 89.5t125 31.5q96 0 150 -52t54 -145v-97zM287.5 114q28.5 28 28.5 72
q-39 11 -82 11q-38 0 -59.5 -15t-21.5 -42q0 -26 16 -40t46 -14q44 0 72.5 28zM136.5 569q-40.5 34 -40.5 86q0 51 40.5 85.5t107.5 34.5q66 0 107 -34.5t41 -85.5q0 -52 -40.5 -86t-107.5 -34t-107.5 34zM291.5 622q16.5 13 16.5 33q0 22 -16.5 35t-47.5 13
q-32 0 -48.5 -13t-16.5 -35q0 -20 16.5 -33t48.5 -13q31 0 47.5 13z" />
    <glyph glyph-name="atilde" unicode="&#xe3;" horiz-adv-x="505" 
d="M464 0h-115l-8 79h-3q-17 -43 -58 -67.5t-96 -24.5q-69 0 -111 39.5t-42 103.5q0 71 50.5 111.5t139.5 40.5q50 0 95 -13v34q0 41 -21.5 64.5t-59.5 23.5q-67 0 -96 -63l-98 51q24 58 76 89.5t125 31.5q96 0 150 -52t54 -145v-97zM287.5 114q28.5 28 28.5 72
q-39 11 -82 11q-38 0 -59.5 -15t-21.5 -42q0 -26 16 -40t46 -14q44 0 72.5 28zM354 709q3 -66 -28 -66q-14 0 -26.5 7.5t-14.5 8.5l-59 36q-18 11 -34.5 16.5t-39.5 5.5q-45 0 -71.5 -34t-26.5 -103q0 -19 1 -29h79q-2 32 4.5 49t24.5 17q9 0 19.5 -5.5t19.5 -11.5l60 -34
q19 -12 36 -18t40 -6q44 0 70 34.5t26 103.5q0 19 -1 29h-79z" />
    <glyph glyph-name="ae" unicode="&#xe6;" horiz-adv-x="794" 
d="M759 201h-312q5 -46 35 -74t81 -28q77 0 132 52l58 -88q-31 -36 -80.5 -56t-106.5 -20q-64 0 -111.5 27t-74.5 77h-1q-19 -43 -68.5 -73.5t-117.5 -30.5q-74 0 -118 40t-44 108q0 71 51.5 112t142.5 41h91v16q0 40 -22 63.5t-59 23.5q-66 0 -95 -63l-99 51
q24 58 74.5 89.5t118.5 31.5q61 -1 100 -26t54 -62h3q28 42 70 65t96 23q62 0 108.5 -30.5t71.5 -86t25 -128.5q0 -27 -3 -54zM478 364q-25 -29 -31 -76h191q-4 51 -27.5 78t-64.5 27q-43 0 -68 -29zM288.5 117q27.5 31 27.5 84h-76q-39 0 -61.5 -15.5t-22.5 -44.5
q0 -26 16 -40.5t44 -14.5q45 0 72.5 31z" />
    <glyph glyph-name="aeacute" unicode="&#x1fd;" horiz-adv-x="794" 
d="M759 201h-312q5 -46 35 -74t81 -28q77 0 132 52l58 -88q-31 -36 -80.5 -56t-106.5 -20q-64 0 -111.5 27t-74.5 77h-1q-19 -43 -68.5 -73.5t-117.5 -30.5q-74 0 -118 40t-44 108q0 71 51.5 112t142.5 41h91v16q0 40 -22 63.5t-59 23.5q-66 0 -95 -63l-99 51
q24 58 74.5 89.5t118.5 31.5q61 -1 100 -26t54 -62h3q28 42 70 65t96 23q62 0 108.5 -30.5t71.5 -86t25 -128.5q0 -27 -3 -54zM478 364q-25 -29 -31 -76h191q-4 51 -27.5 78t-64.5 27q-43 0 -68 -29zM288.5 117q27.5 31 27.5 84h-76q-39 0 -61.5 -15.5t-22.5 -44.5
q0 -26 16 -40.5t44 -14.5q45 0 72.5 31zM417 544h-116l102 162h141z" />
    <glyph glyph-name="b" unicode="b" horiz-adv-x="571" 
d="M442 468q47 -32 72.5 -88.5t25.5 -127.5q0 -80 -31 -140t-89.5 -92.5t-137.5 -32.5q-126 0 -224 65v646h130v-266h2q20 31 56 49.5t86 18.5q63 0 110 -32zM373.5 141.5q32.5 38.5 32.5 106.5q0 65 -29.5 102.5t-83.5 37.5q-43 0 -74 -28.5t-31 -70.5v-160q35 -26 92 -26
q61 0 93.5 38.5z" />
    <glyph glyph-name="c" unicode="c" horiz-adv-x="484" 
d="M401 339q-45 47 -109 47q-60 0 -94.5 -38.5t-34.5 -103.5q0 -64 33.5 -102t93.5 -38q73 0 112 45l65 -91q-63 -71 -183 -71q-76 0 -134 32.5t-89.5 91.5t-31.5 134t32 133t90 90t134 32q111 0 179 -73z" />
    <glyph glyph-name="cacute" unicode="&#x107;" horiz-adv-x="484" 
d="M401 339q-45 47 -109 47q-60 0 -94.5 -38.5t-34.5 -103.5q0 -64 33.5 -102t93.5 -38q73 0 112 45l65 -91q-63 -71 -183 -71q-76 0 -134 32.5t-89.5 91.5t-31.5 134t32 133t90 90t134 32q111 0 179 -73zM305 544h-116l102 162h141z" />
    <glyph glyph-name="ccaron" unicode="&#x10d;" horiz-adv-x="484" 
d="M401 339q-45 47 -109 47q-60 0 -94.5 -38.5t-34.5 -103.5q0 -64 33.5 -102t93.5 -38q73 0 112 45l65 -91q-63 -71 -183 -71q-76 0 -134 32.5t-89.5 91.5t-31.5 134t32 133t90 90t134 32q111 0 179 -73zM277 612l68 94h110l-102 -162h-152l-102 162h109z" />
    <glyph glyph-name="ccedilla" unicode="&#xe7;" horiz-adv-x="484" 
d="M401 339q-45 47 -109 47q-60 0 -94.5 -38.5t-34.5 -103.5q0 -64 33.5 -102t93.5 -38q73 0 112 45l65 -91q-63 -71 -183 -71q-76 0 -134 32.5t-89.5 91.5t-31.5 134t32 133t90 90t134 32q111 0 179 -73zM359 -66q30 -24 30 -62q0 -47 -36.5 -74.5t-92.5 -27.5
q-63 0 -99 24l23 60q27 -17 68 -17q24 0 38 7.5t14 21.5q0 15 -13.5 22.5t-36.5 7.5q-32 0 -62 -11l-18 39l75 105h80l-50 -71h4q46 0 76 -24z" />
    <glyph glyph-name="ccircumflex" unicode="&#x109;" horiz-adv-x="484" 
d="M401 339q-45 47 -109 47q-60 0 -94.5 -38.5t-34.5 -103.5q0 -64 33.5 -102t93.5 -38q73 0 112 45l65 -91q-63 -71 -183 -71q-76 0 -134 32.5t-89.5 91.5t-31.5 134t32 133t90 90t134 32q111 0 179 -73zM353 706l102 -162h-110l-68 94l-69 -94h-110l103 162h152z" />
    <glyph glyph-name="cdotaccent" unicode="&#x10b;" horiz-adv-x="484" 
d="M401 339q-45 47 -109 47q-60 0 -94.5 -38.5t-34.5 -103.5q0 -64 33.5 -102t93.5 -38q73 0 112 45l65 -91q-63 -71 -183 -71q-76 0 -134 32.5t-89.5 91.5t-31.5 134t32 133t90 90t134 32q111 0 179 -73zM221.5 573q-23.5 23 -23.5 56t23.5 56t55.5 23q33 0 56.5 -23
t23.5 -56t-23.5 -56t-56.5 -23q-32 0 -55.5 23z" />
    <glyph glyph-name="d" unicode="d" horiz-adv-x="579" 
d="M536 0h-116l-8 82h-3q-19 -46 -59.5 -70.5t-99.5 -24.5q-67 0 -116.5 31t-76 87.5t-26.5 131.5q0 76 30 135.5t84.5 93.5t125.5 34q65 0 115 -28v226h130v-480zM355.5 131q30.5 28 30.5 71v150q-36 36 -98 36q-58 0 -90.5 -40t-32.5 -105q0 -64 30.5 -102t85.5 -38
q44 0 74.5 28z" />
    <glyph glyph-name="eth" unicode="&#xf0;" horiz-adv-x="553" 
d="M401 586q54 -68 86 -152t32 -181q0 -76 -28 -136t-84.5 -95t-138.5 -35q-73 0 -126.5 30t-82.5 84t-29 126q0 70 30 125t84.5 86t125.5 31q30 0 63 -7q-23 45 -52 83l-125 -43l-25 71l96 33q-29 28 -60 50l96 57q45 -28 84 -66l101 34l25 -70zM355 137q31 34 31 102
q0 54 -12 109q-34 18 -86 18q-57 0 -90.5 -37t-33.5 -96t30 -94.5t84 -35.5q46 0 77 34z" />
    <glyph glyph-name="dcaron" unicode="&#x10f;" horiz-adv-x="619" 
d="M536 0h-116l-8 82h-3q-19 -46 -59.5 -70.5t-99.5 -24.5q-67 0 -116.5 31t-76 87.5t-26.5 131.5q0 76 30 135.5t84.5 93.5t125.5 34q65 0 115 -28v226h130v-480zM355.5 131q30.5 28 30.5 71v150q-36 36 -98 36q-58 0 -90.5 -40t-32.5 -105q0 -64 30.5 -102t85.5 -38
q44 0 74.5 28zM596 698h115l-68 -193h-79z" />
    <glyph glyph-name="dcroat" unicode="&#x111;" horiz-adv-x="579" 
d="M573 552h-57v-334l20 -218h-116l-8 82h-3q-19 -46 -59.5 -70.5t-99.5 -24.5q-67 0 -116.5 31t-76 87.5t-26.5 131.5q0 76 30 135.5t84.5 93.5t125.5 34q65 0 115 -28v80h-149v75h149v71h130v-71h57v-75zM355.5 131q30.5 28 30.5 71v150q-36 36 -98 36q-58 0 -90.5 -40
t-32.5 -105q0 -64 30.5 -102t85.5 -38q44 0 74.5 28z" />
    <glyph glyph-name="e" unicode="e" horiz-adv-x="520" 
d="M486 201h-327q5 -46 36.5 -74t85.5 -28q81 0 142 52l58 -88q-34 -35 -86.5 -55.5t-115.5 -20.5q-118 0 -183 69t-65 189q0 74 30 132t83.5 90.5t122.5 32.5q67 0 117.5 -31t78 -88t27.5 -132q0 -25 -4 -48zM192.5 364.5q-27.5 -28.5 -33.5 -76.5h209q-5 50 -31.5 77.5
t-70.5 27.5q-46 0 -73.5 -28.5z" />
    <glyph glyph-name="eacute" unicode="&#xe9;" horiz-adv-x="520" 
d="M486 201h-327q5 -46 36.5 -74t85.5 -28q81 0 142 52l58 -88q-34 -35 -86.5 -55.5t-115.5 -20.5q-118 0 -183 69t-65 189q0 74 30 132t83.5 90.5t122.5 32.5q67 0 117.5 -31t78 -88t27.5 -132q0 -25 -4 -48zM192.5 364.5q-27.5 -28.5 -33.5 -76.5h209q-5 50 -31.5 77.5
t-70.5 27.5q-46 0 -73.5 -28.5zM294 544h-116l102 162h141z" />
    <glyph glyph-name="ebreve" unicode="&#x115;" horiz-adv-x="520" 
d="M486 201h-327q5 -46 36.5 -74t85.5 -28q81 0 142 52l58 -88q-34 -35 -86.5 -55.5t-115.5 -20.5q-118 0 -183 69t-65 189q0 74 30 132t83.5 90.5t122.5 32.5q67 0 117.5 -31t78 -88t27.5 -132q0 -25 -4 -48zM192.5 364.5q-27.5 -28.5 -33.5 -76.5h209q-5 50 -31.5 77.5
t-70.5 27.5q-46 0 -73.5 -28.5zM185 714q0 -38 20.5 -61t59.5 -23q38 0 58.5 23t20.5 61h91q0 -78 -45 -124t-125 -46q-81 0 -125.5 46t-44.5 124h90z" />
    <glyph glyph-name="ecaron" unicode="&#x11b;" horiz-adv-x="520" 
d="M486 201h-327q5 -46 36.5 -74t85.5 -28q81 0 142 52l58 -88q-34 -35 -86.5 -55.5t-115.5 -20.5q-118 0 -183 69t-65 189q0 74 30 132t83.5 90.5t122.5 32.5q67 0 117.5 -31t78 -88t27.5 -132q0 -25 -4 -48zM192.5 364.5q-27.5 -28.5 -33.5 -76.5h209q-5 50 -31.5 77.5
t-70.5 27.5q-46 0 -73.5 -28.5zM265 612l68 94h110l-102 -162h-152l-102 162h109z" />
    <glyph glyph-name="ecircumflex" unicode="&#xea;" horiz-adv-x="520" 
d="M486 201h-327q5 -46 36.5 -74t85.5 -28q81 0 142 52l58 -88q-34 -35 -86.5 -55.5t-115.5 -20.5q-118 0 -183 69t-65 189q0 74 30 132t83.5 90.5t122.5 32.5q67 0 117.5 -31t78 -88t27.5 -132q0 -25 -4 -48zM192.5 364.5q-27.5 -28.5 -33.5 -76.5h209q-5 50 -31.5 77.5
t-70.5 27.5q-46 0 -73.5 -28.5zM341 706l102 -162h-110l-68 94l-69 -94h-110l103 162h152z" />
    <glyph glyph-name="edieresis" unicode="&#xeb;" horiz-adv-x="520" 
d="M486 201h-327q5 -46 36.5 -74t85.5 -28q81 0 142 52l58 -88q-34 -35 -86.5 -55.5t-115.5 -20.5q-118 0 -183 69t-65 189q0 74 30 132t83.5 90.5t122.5 32.5q67 0 117.5 -31t78 -88t27.5 -132q0 -25 -4 -48zM192.5 364.5q-27.5 -28.5 -33.5 -76.5h209q-5 50 -31.5 77.5
t-70.5 27.5q-46 0 -73.5 -28.5zM110 564q-20 20 -20 49t20 48.5t49 19.5q28 0 47.5 -19.5t19.5 -48.5t-19.5 -49t-47.5 -20q-29 0 -49 20zM323 564q-20 20 -20 49q0 28 20 48t48 20q29 0 49 -20t20 -48q0 -29 -20 -49t-49 -20q-28 0 -48 20z" />
    <glyph glyph-name="edotaccent" unicode="&#x117;" horiz-adv-x="520" 
d="M486 201h-327q5 -46 36.5 -74t85.5 -28q81 0 142 52l58 -88q-34 -35 -86.5 -55.5t-115.5 -20.5q-118 0 -183 69t-65 189q0 74 30 132t83.5 90.5t122.5 32.5q67 0 117.5 -31t78 -88t27.5 -132q0 -25 -4 -48zM192.5 364.5q-27.5 -28.5 -33.5 -76.5h209q-5 50 -31.5 77.5
t-70.5 27.5q-46 0 -73.5 -28.5zM209.5 573q-23.5 23 -23.5 56t23.5 56t55.5 23q33 0 56.5 -23t23.5 -56t-23.5 -56t-56.5 -23q-32 0 -55.5 23z" />
    <glyph glyph-name="egrave" unicode="&#xe8;" horiz-adv-x="520" 
d="M486 201h-327q5 -46 36.5 -74t85.5 -28q81 0 142 52l58 -88q-34 -35 -86.5 -55.5t-115.5 -20.5q-118 0 -183 69t-65 189q0 74 30 132t83.5 90.5t122.5 32.5q67 0 117.5 -31t78 -88t27.5 -132q0 -25 -4 -48zM192.5 364.5q-27.5 -28.5 -33.5 -76.5h209q-5 50 -31.5 77.5
t-70.5 27.5q-46 0 -73.5 -28.5zM252 706l101 -162h-116l-127 162h142z" />
    <glyph glyph-name="emacron" unicode="&#x113;" horiz-adv-x="520" 
d="M486 201h-327q5 -46 36.5 -74t85.5 -28q81 0 142 52l58 -88q-34 -35 -86.5 -55.5t-115.5 -20.5q-118 0 -183 69t-65 189q0 74 30 132t83.5 90.5t122.5 32.5q67 0 117.5 -31t78 -88t27.5 -132q0 -25 -4 -48zM192.5 364.5q-27.5 -28.5 -33.5 -76.5h209q-5 50 -31.5 77.5
t-70.5 27.5q-46 0 -73.5 -28.5zM407 557h-283v91h283v-91z" />
    <glyph glyph-name="eogonek" unicode="&#x119;" horiz-adv-x="520" 
d="M486 201h-327q5 -46 36.5 -74t85.5 -28q81 0 142 52l58 -88q-34 -35 -86.5 -55.5t-115.5 -20.5q-118 0 -183 69t-65 189q0 74 30 132t83.5 90.5t122.5 32.5q67 0 117.5 -31t78 -88t27.5 -132q0 -25 -4 -48zM192.5 364.5q-27.5 -28.5 -33.5 -76.5h209q-5 50 -31.5 77.5
t-70.5 27.5q-46 0 -73.5 -28.5zM416 18q-37 -23 -56 -44t-19 -44q0 -21 12 -31.5t33 -10.5q33 0 55 28l46 -64q-42 -51 -115 -51q-52 0 -85 28.5t-33 76.5q0 38 21 62t65 51z" />
    <glyph glyph-name="uni0259" unicode="&#x259;" horiz-adv-x="519" 
d="M425 431q64 -69 64 -189q0 -74 -29.5 -132t-83 -90.5t-122.5 -32.5q-68 0 -118.5 31.5t-78 88.5t-27.5 132q0 26 4 47h328q-5 46 -36.5 76t-85.5 30q-83 0 -144 -56l-57 85q35 36 88.5 57.5t118.5 21.5q115 0 179 -69zM330.5 123q27.5 28 31.5 76h-212q5 -51 32 -77.5
t73 -26.5q48 0 75.5 28z" />
    <glyph glyph-name="f" unicode="f" horiz-adv-x="360" 
d="M226 487h125v-114h-125v-373h-130v373h-71v114h71v52q0 80 46 125t124 45q77 0 119 -42l-44 -95q-27 23 -58 23q-28 0 -42.5 -17t-14.5 -50v-41z" />
    <glyph glyph-name="g" unicode="g" horiz-adv-x="567" 
d="M408 487h116l-20 -216v-252q0 -101 -66.5 -159.5t-181.5 -58.5q-133 0 -210 86l69 91q29 -32 60.5 -47t76.5 -15q59 0 92 29t33 84v65h-2q-18 -32 -54 -51t-80 -19q-60 0 -107.5 31t-74.5 85t-27 120q0 70 27.5 124.5t75.5 85t109 30.5q55 0 94.5 -22.5t60.5 -65.5h2z
M348.5 172.5q28.5 33.5 28.5 91.5t-28.5 91.5t-76.5 33.5q-49 0 -77.5 -33.5t-28.5 -91.5t28.5 -91.5t77.5 -33.5q48 0 76.5 33.5z" />
    <glyph glyph-name="gbreve" unicode="&#x11f;" horiz-adv-x="567" 
d="M408 487h116l-20 -216v-252q0 -101 -66.5 -159.5t-181.5 -58.5q-133 0 -210 86l69 91q29 -32 60.5 -47t76.5 -15q59 0 92 29t33 84v65h-2q-18 -32 -54 -51t-80 -19q-60 0 -107.5 31t-74.5 85t-27 120q0 70 27.5 124.5t75.5 85t109 30.5q55 0 94.5 -22.5t60.5 -65.5h2z
M348.5 172.5q28.5 33.5 28.5 91.5t-28.5 91.5t-76.5 33.5q-49 0 -77.5 -33.5t-28.5 -91.5t28.5 -91.5t77.5 -33.5q48 0 76.5 33.5zM197 714q0 -38 20.5 -61t59.5 -23q38 0 58.5 23t20.5 61h91q0 -78 -45 -124t-125 -46q-81 0 -125.5 46t-44.5 124h90z" />
    <glyph glyph-name="gcircumflex" unicode="&#x11d;" horiz-adv-x="567" 
d="M408 487h116l-20 -216v-252q0 -101 -66.5 -159.5t-181.5 -58.5q-133 0 -210 86l69 91q29 -32 60.5 -47t76.5 -15q59 0 92 29t33 84v65h-2q-18 -32 -54 -51t-80 -19q-60 0 -107.5 31t-74.5 85t-27 120q0 70 27.5 124.5t75.5 85t109 30.5q55 0 94.5 -22.5t60.5 -65.5h2z
M348.5 172.5q28.5 33.5 28.5 91.5t-28.5 91.5t-76.5 33.5q-49 0 -77.5 -33.5t-28.5 -91.5t28.5 -91.5t77.5 -33.5q48 0 76.5 33.5zM353 706l102 -162h-110l-68 94l-69 -94h-110l103 162h152z" />
    <glyph glyph-name="uni0123" unicode="&#x123;" horiz-adv-x="567" 
d="M408 487h116l-20 -216v-252q0 -101 -66.5 -159.5t-181.5 -58.5q-133 0 -210 86l69 91q29 -32 60.5 -47t76.5 -15q59 0 92 29t33 84v65h-2q-18 -32 -54 -51t-80 -19q-60 0 -107.5 31t-74.5 85t-27 120q0 70 27.5 124.5t75.5 85t109 30.5q55 0 94.5 -22.5t60.5 -65.5h2z
M348.5 172.5q28.5 33.5 28.5 91.5t-28.5 91.5t-76.5 33.5q-49 0 -77.5 -33.5t-28.5 -91.5t28.5 -91.5t77.5 -33.5q48 0 76.5 33.5zM236 708q31 37 81 54l29 -34q-26 -13 -41 -31t-17 -36q25 0 45 -14.5t20 -43.5q0 -25 -19 -41.5t-50 -16.5q-38 0 -58.5 21t-20.5 55
q0 50 31 87z" />
    <glyph glyph-name="gdotaccent" unicode="&#x121;" horiz-adv-x="567" 
d="M408 487h116l-20 -216v-252q0 -101 -66.5 -159.5t-181.5 -58.5q-133 0 -210 86l69 91q29 -32 60.5 -47t76.5 -15q59 0 92 29t33 84v65h-2q-18 -32 -54 -51t-80 -19q-60 0 -107.5 31t-74.5 85t-27 120q0 70 27.5 124.5t75.5 85t109 30.5q55 0 94.5 -22.5t60.5 -65.5h2z
M348.5 172.5q28.5 33.5 28.5 91.5t-28.5 91.5t-76.5 33.5q-49 0 -77.5 -33.5t-28.5 -91.5t28.5 -91.5t77.5 -33.5q48 0 76.5 33.5zM221.5 573q-23.5 23 -23.5 56t23.5 56t55.5 23q33 0 56.5 -23t23.5 -56t-23.5 -56t-56.5 -23q-32 0 -55.5 23z" />
    <glyph glyph-name="h" unicode="h" horiz-adv-x="548" 
d="M448.5 448.5q44.5 -51.5 44.5 -137.5v-311h-130v294q0 39 -24 63.5t-63 24.5q-37 0 -62 -25t-25 -63v-294h-130v698h130v-271h2q16 33 53 53t85 20q75 0 119.5 -51.5z" />
    <glyph glyph-name="hbar" unicode="&#x127;" horiz-adv-x="548" 
d="M448.5 448.5q44.5 -51.5 44.5 -137.5v-311h-130v294q0 39 -24 63.5t-63 24.5q-38 0 -62.5 -25t-24.5 -63v-294h-130v552h-57v75h57v71h130v-71h149v-75h-149v-125h2q16 33 53 53t85 20q75 0 119.5 -51.5z" />
    <glyph glyph-name="hcircumflex" unicode="&#x125;" horiz-adv-x="548" 
d="M448.5 448.5q44.5 -51.5 44.5 -137.5v-311h-130v294q0 39 -24 63.5t-63 24.5q-37 0 -62 -25t-25 -63v-294h-130v698h130v-271h2q16 33 53 53t85 20q75 0 119.5 -51.5zM203 858l101 -133h-113l-68 78l-69 -78h-114l103 133h160z" />
    <glyph glyph-name="i" unicode="i" horiz-adv-x="248" 
d="M67 576.5q-23 21.5 -23 55.5q0 33 23 55t57 22q35 0 57.5 -21.5t22.5 -55.5t-22.5 -55.5t-57.5 -21.5q-34 0 -57 21.5zM189 0h-130v487h130v-487z" />
    <glyph glyph-name="dotlessi" unicode="&#x131;" horiz-adv-x="248" 
d="M189 0h-130v487h130v-487z" />
    <glyph glyph-name="iacute" unicode="&#xed;" horiz-adv-x="248" 
d="M189 0h-130v487h130v-487zM153 544h-116l102 162h141z" />
    <glyph glyph-name="ibreve" unicode="&#x12d;" horiz-adv-x="248" 
d="M189 0h-130v487h130v-487zM44 714q0 -38 20.5 -61t59.5 -23q38 0 58.5 23t20.5 61h91q0 -78 -45 -124t-125 -46q-81 0 -125.5 46t-44.5 124h90z" />
    <glyph glyph-name="icircumflex" unicode="&#xee;" horiz-adv-x="248" 
d="M189 0h-130v487h130v-487zM200 706l102 -162h-110l-68 94l-69 -94h-110l103 162h152z" />
    <glyph glyph-name="idieresis" unicode="&#xef;" horiz-adv-x="248" 
d="M189 0h-130v487h130v-487zM-31 564q-20 20 -20 49t20 48.5t49 19.5q28 0 47.5 -19.5t19.5 -48.5t-19.5 -49t-47.5 -20q-29 0 -49 20zM182 564q-20 20 -20 49q0 28 20 48t48 20q29 0 49 -20t20 -48q0 -29 -20 -49t-49 -20q-28 0 -48 20z" />
    <glyph glyph-name="igrave" unicode="&#xec;" horiz-adv-x="248" 
d="M189 0h-130v487h130v-487zM111 706l101 -162h-116l-127 162h142z" />
    <glyph glyph-name="ij" unicode="&#x133;" horiz-adv-x="497" 
d="M67 576.5q-23 21.5 -23 55.5q0 33 23 55t57 22q35 0 57.5 -21.5t22.5 -55.5t-22.5 -55.5t-57.5 -21.5q-34 0 -57 21.5zM189 0h-130v487h130v-487zM315 576.5q-23 21.5 -23 55.5q0 33 23 55t57 22q35 0 58 -21.5t23 -55.5t-23 -55.5t-58 -21.5q-34 0 -57 21.5zM438 -18
q0 -80 -47 -127.5t-128 -47.5q-59 0 -95 16l25 110q22 -10 50 -10q30 0 47 20t17 55v489h131v-505z" />
    <glyph glyph-name="imacron" unicode="&#x12b;" horiz-adv-x="248" 
d="M189 0h-130v487h130v-487zM266 557h-283v91h283v-91z" />
    <glyph glyph-name="iogonek" unicode="&#x12f;" horiz-adv-x="251" 
d="M70 576.5q-23 21.5 -23 55.5q0 33 23 55t57 22q35 0 57.5 -21.5t22.5 -55.5t-22.5 -55.5t-57.5 -21.5q-34 0 -57 21.5zM192 0h-130v487h130v-487zM166 0q-44 0 -76 -19.5t-32 -50.5q0 -19 11 -29.5t29 -10.5q17 0 28 7.5t22 19.5l45 -62q-39 -52 -113 -52q-48 0 -79.5 29
t-31.5 77q0 41 32 73t83 43z" />
    <glyph glyph-name="itilde" unicode="&#x129;" horiz-adv-x="248" 
d="M189 0h-130v487h130v-487zM234 709q3 -66 -28 -66q-14 0 -26.5 7.5t-14.5 8.5l-59 36q-18 11 -34.5 16.5t-39.5 5.5q-45 0 -71.5 -34t-26.5 -103q0 -19 1 -29h79q-2 32 4.5 49t24.5 17q9 0 19.5 -5.5t19.5 -11.5l60 -34q19 -12 36 -18t40 -6q44 0 70 34.5t26 103.5
q0 19 -1 29h-79z" />
    <glyph glyph-name="j" unicode="j" horiz-adv-x="249" 
d="M67 576.5q-23 21.5 -23 55.5q0 33 23 55t57 22q35 0 58 -21.5t23 -55.5t-23 -55.5t-58 -21.5q-34 0 -57 21.5zM190 -18q0 -80 -47 -127.5t-128 -47.5q-59 0 -95 16l25 110q22 -10 50 -10q30 0 47 20t17 55v489h131v-505z" />
    <glyph glyph-name="uni0237" unicode="&#x237;" horiz-adv-x="249" 
d="M190 -18q0 -80 -47 -127.5t-128 -47.5q-59 0 -95 16l25 110q22 -10 50 -10q30 0 47 20t17 55v489h131v-505z" />
    <glyph glyph-name="jcircumflex" unicode="&#x135;" horiz-adv-x="249" 
d="M190 -18q0 -80 -47 -127.5t-128 -47.5q-59 0 -95 16l25 110q22 -10 50 -10q30 0 47 20t17 55v489h131v-505zM200 706l102 -162h-110l-68 94l-69 -94h-110l103 162h152z" />
    <glyph glyph-name="k" unicode="k" horiz-adv-x="523" 
d="M365 0l-125 189l-51 -40v-149h-130v698h130v-414q76 63 112 99t47.5 57.5t13.5 46.5h134q-2 -36 -13 -64t-42.5 -67t-96.5 -98l181 -258h-160z" />
    <glyph glyph-name="uni0137" unicode="&#x137;" horiz-adv-x="523" 
d="M365 0l-125 189l-51 -40v-149h-130v698h130v-414q76 63 112 99t47.5 57.5t13.5 46.5h134q-2 -36 -13 -64t-42.5 -67t-96.5 -98l181 -258h-160zM319.5 -207.5q-30.5 -37.5 -80.5 -55.5l-30 34q27 13 42 32t17 38q-25 0 -45 14.5t-20 43.5q0 25 18.5 41.5t50.5 16.5
q37 0 57.5 -21t20.5 -55q0 -51 -30.5 -88.5z" />
    <glyph glyph-name="l" unicode="l" horiz-adv-x="309" 
d="M57 698h130v-522q0 -34 15.5 -52t44.5 -18q24 0 43 8l18 -106q-38 -19 -94 -19q-71 0 -114 45.5t-43 120.5v543z" />
    <glyph glyph-name="lacute" unicode="&#x13a;" horiz-adv-x="309" 
d="M57 698h130v-522q0 -34 15.5 -52t44.5 -18q24 0 43 8l18 -106q-38 -19 -94 -19q-71 0 -114 45.5t-43 120.5v543zM156 725h-124l102 133h148z" />
    <glyph glyph-name="lcaron" unicode="&#x13e;" horiz-adv-x="309" 
d="M57 698h130v-522q0 -34 15.5 -52t44.5 -18q24 0 43 8l18 -106q-38 -19 -94 -19q-71 0 -114 45.5t-43 120.5v543zM260 698h115l-68 -193h-79z" />
    <glyph glyph-name="uni013C" unicode="&#x13c;" horiz-adv-x="309" 
d="M57 698h130v-522q0 -34 15.5 -52t44.5 -18q24 0 43 8l18 -106q-38 -19 -94 -19q-71 0 -114 45.5t-43 120.5v543zM230.5 -207.5q-30.5 -37.5 -80.5 -55.5l-30 34q27 13 42 32t17 38q-25 0 -45 14.5t-20 43.5q0 25 18.5 41.5t50.5 16.5q37 0 57.5 -21t20.5 -55
q0 -51 -30.5 -88.5z" />
    <glyph glyph-name="ldot" unicode="&#x140;" horiz-adv-x="362" 
d="M57 698h130v-522q0 -34 15.5 -52t44.5 -18q24 0 43 8l18 -106q-38 -19 -94 -19q-71 0 -114 45.5t-43 120.5v543zM246.5 316q-23.5 23 -23.5 56t23.5 56t55.5 23q33 0 56.5 -23t23.5 -56t-23.5 -56t-56.5 -23q-32 0 -55.5 23z" />
    <glyph glyph-name="lslash" unicode="&#x142;" horiz-adv-x="364" 
d="M323 114l18 -106q-37 -19 -94 -19q-70 0 -113.5 45.5t-43.5 120.5v158l-53 -19l-25 72l78 27v305h130v-259l104 36l25 -72l-129 -45v-182q0 -34 16 -52t45 -18q23 0 42 8z" />
    <glyph glyph-name="m" unicode="m" horiz-adv-x="789" 
d="M694 452q41 -48 41 -128v-324h-131v307q0 34 -19 54.5t-51 20.5q-31 0 -50.5 -21t-19.5 -54v-307h-130v307q0 34 -19 54.5t-51 20.5q-31 0 -50.5 -21t-19.5 -54v-307h-131v278l-20 209h116l8 -72h3q17 41 53.5 63t87.5 22q45 0 78 -22t50 -63h2q19 42 55.5 63.5
t86.5 21.5q70 0 111 -48z" />
    <glyph glyph-name="n" unicode="n" horiz-adv-x="552" 
d="M451 448q47 -52 47 -138v-310h-130v294q0 38 -24.5 63t-63.5 25q-37 0 -61.5 -25t-24.5 -63v-294h-130v273l-21 214h117l7 -76h3q20 43 60.5 66t96.5 23q77 0 124 -52z" />
    <glyph glyph-name="nacute" unicode="&#x144;" horiz-adv-x="552" 
d="M451 448q47 -52 47 -138v-310h-130v294q0 38 -24.5 63t-63.5 25q-37 0 -61.5 -25t-24.5 -63v-294h-130v273l-21 214h117l7 -76h3q20 43 60.5 66t96.5 23q77 0 124 -52zM308 544h-116l102 162h141z" />
    <glyph glyph-name="napostrophe" unicode="&#x149;" horiz-adv-x="604" 
d="M502 448q47 -52 47 -138v-310h-130v294q0 38 -24.5 63t-63.5 25q-37 0 -61.5 -25t-24.5 -63v-294h-130v273l-21 214h117l7 -76h3q20 43 60.5 66t96.5 23q77 0 124 -52zM53.5 542.5q-30.5 -37.5 -80.5 -55.5l-30 34q27 13 42 32t17 38q-25 0 -45 14.5t-20 43.5
q0 25 18.5 41.5t50.5 16.5q37 0 57.5 -21t20.5 -55q0 -51 -30.5 -88.5z" />
    <glyph glyph-name="ncaron" unicode="&#x148;" horiz-adv-x="552" 
d="M451 448q47 -52 47 -138v-310h-130v294q0 38 -24.5 63t-63.5 25q-37 0 -61.5 -25t-24.5 -63v-294h-130v273l-21 214h117l7 -76h3q20 43 60.5 66t96.5 23q77 0 124 -52zM280 612l68 94h110l-102 -162h-152l-102 162h109z" />
    <glyph glyph-name="uni0146" unicode="&#x146;" horiz-adv-x="552" 
d="M451 448q47 -52 47 -138v-310h-130v294q0 38 -24.5 63t-63.5 25q-37 0 -61.5 -25t-24.5 -63v-294h-130v273l-21 214h117l7 -76h3q20 43 60.5 66t96.5 23q77 0 124 -52zM324.5 -207.5q-30.5 -37.5 -80.5 -55.5l-30 34q27 13 42 32t17 38q-25 0 -45 14.5t-20 43.5
q0 25 18.5 41.5t50.5 16.5q37 0 57.5 -21t20.5 -55q0 -51 -30.5 -88.5z" />
    <glyph glyph-name="eng" unicode="&#x14b;" horiz-adv-x="552" 
d="M451 448q47 -52 47 -138v-327q0 -81 -47 -128.5t-127 -47.5q-59 0 -95 16l25 109q21 -9 49 -9q31 0 48 20.5t17 55.5v295q0 38 -24.5 63t-63.5 25q-37 0 -61.5 -25t-24.5 -63v-294h-131v273l-20 214h116l8 -76h2q20 43 60.5 66t97.5 23q77 0 124 -52z" />
    <glyph glyph-name="ntilde" unicode="&#xf1;" horiz-adv-x="552" 
d="M451 448q47 -52 47 -138v-310h-130v294q0 38 -24.5 63t-63.5 25q-37 0 -61.5 -25t-24.5 -63v-294h-130v273l-21 214h117l7 -76h3q20 43 60.5 66t96.5 23q77 0 124 -52zM390 709q3 -66 -28 -66q-14 0 -26.5 7.5t-14.5 8.5l-59 36q-18 11 -34.5 16.5t-39.5 5.5
q-45 0 -71.5 -34t-26.5 -103q0 -19 1 -29h79q-2 32 4.5 49t24.5 17q9 0 19.5 -5.5t19.5 -11.5l60 -34q19 -12 36 -18t40 -6q44 0 70 34.5t26 103.5q0 19 -1 29h-79z" />
    <glyph glyph-name="o" unicode="o" horiz-adv-x="553" 
d="M60.5 377q30.5 58 86.5 90.5t129 32.5t129.5 -32.5t87 -90.5t30.5 -132t-31 -133t-87 -92t-129 -33t-129 33t-86.5 91.5t-30.5 133.5q0 74 30.5 132zM359.5 347q-29.5 39 -83.5 39q-53 0 -82.5 -39t-29.5 -103t29.5 -102t82.5 -38q54 0 83.5 38t29.5 102t-29.5 103z" />
    <glyph glyph-name="oacute" unicode="&#xf3;" horiz-adv-x="553" 
d="M60.5 377q30.5 58 86.5 90.5t129 32.5t129.5 -32.5t87 -90.5t30.5 -132t-31 -133t-87 -92t-129 -33t-129 33t-86.5 91.5t-30.5 133.5q0 74 30.5 132zM359.5 347q-29.5 39 -83.5 39q-53 0 -82.5 -39t-29.5 -103t29.5 -102t82.5 -38q54 0 83.5 38t29.5 102t-29.5 103z
M305 544h-116l102 162h141z" />
    <glyph glyph-name="obreve" unicode="&#x14f;" horiz-adv-x="553" 
d="M60.5 377q30.5 58 86.5 90.5t129 32.5t129.5 -32.5t87 -90.5t30.5 -132t-31 -133t-87 -92t-129 -33t-129 33t-86.5 91.5t-30.5 133.5q0 74 30.5 132zM359.5 347q-29.5 39 -83.5 39q-53 0 -82.5 -39t-29.5 -103t29.5 -102t82.5 -38q54 0 83.5 38t29.5 102t-29.5 103z
M197 714q0 -38 20.5 -61t59.5 -23q38 0 58.5 23t20.5 61h91q0 -78 -45 -124t-125 -46q-81 0 -125.5 46t-44.5 124h90z" />
    <glyph glyph-name="ocircumflex" unicode="&#xf4;" horiz-adv-x="553" 
d="M60.5 377q30.5 58 86.5 90.5t129 32.5t129.5 -32.5t87 -90.5t30.5 -132t-31 -133t-87 -92t-129 -33t-129 33t-86.5 91.5t-30.5 133.5q0 74 30.5 132zM359.5 347q-29.5 39 -83.5 39q-53 0 -82.5 -39t-29.5 -103t29.5 -102t82.5 -38q54 0 83.5 38t29.5 102t-29.5 103z
M353 706l102 -162h-110l-68 94l-69 -94h-110l103 162h152z" />
    <glyph glyph-name="odieresis" unicode="&#xf6;" horiz-adv-x="553" 
d="M60.5 377q30.5 58 86.5 90.5t129 32.5t129.5 -32.5t87 -90.5t30.5 -132t-31 -133t-87 -92t-129 -33t-129 33t-86.5 91.5t-30.5 133.5q0 74 30.5 132zM359.5 347q-29.5 39 -83.5 39q-53 0 -82.5 -39t-29.5 -103t29.5 -102t82.5 -38q54 0 83.5 38t29.5 102t-29.5 103z
M122 564q-20 20 -20 49t20 48.5t49 19.5q28 0 47.5 -19.5t19.5 -48.5t-19.5 -49t-47.5 -20q-29 0 -49 20zM335 564q-20 20 -20 49q0 28 20 48t48 20q29 0 49 -20t20 -48q0 -29 -20 -49t-49 -20q-28 0 -48 20z" />
    <glyph glyph-name="ograve" unicode="&#xf2;" horiz-adv-x="553" 
d="M60.5 377q30.5 58 86.5 90.5t129 32.5t129.5 -32.5t87 -90.5t30.5 -132t-31 -133t-87 -92t-129 -33t-129 33t-86.5 91.5t-30.5 133.5q0 74 30.5 132zM359.5 347q-29.5 39 -83.5 39q-53 0 -82.5 -39t-29.5 -103t29.5 -102t82.5 -38q54 0 83.5 38t29.5 102t-29.5 103z
M264 706l101 -162h-116l-127 162h142z" />
    <glyph glyph-name="ohungarumlaut" unicode="&#x151;" horiz-adv-x="553" 
d="M60.5 377q30.5 58 86.5 90.5t129 32.5t129.5 -32.5t87 -90.5t30.5 -132t-31 -133t-87 -92t-129 -33t-129 33t-86.5 91.5t-30.5 133.5q0 74 30.5 132zM359.5 347q-29.5 39 -83.5 39q-53 0 -82.5 -39t-29.5 -103t29.5 -102t82.5 -38q54 0 83.5 38t29.5 102t-29.5 103z
M226 544h-91l101 162h109zM389 544h-92l102 162h108z" />
    <glyph glyph-name="omacron" unicode="&#x14d;" horiz-adv-x="553" 
d="M60.5 377q30.5 58 86.5 90.5t129 32.5t129.5 -32.5t87 -90.5t30.5 -132t-31 -133t-87 -92t-129 -33t-129 33t-86.5 91.5t-30.5 133.5q0 74 30.5 132zM359.5 347q-29.5 39 -83.5 39q-53 0 -82.5 -39t-29.5 -103t29.5 -102t82.5 -38q54 0 83.5 38t29.5 102t-29.5 103z
M419 557h-283v91h283v-91z" />
    <glyph glyph-name="oslash" unicode="&#xf8;" horiz-adv-x="567" 
d="M550 462l-60 -68q40 -63 40 -149q0 -74 -31 -133t-87 -92t-128 -33q-70 0 -123 29l-57 -66l-84 76l58 68q-41 65 -41 151q0 74 30.5 132t87 90.5t129.5 32.5q69 0 122 -29l57 66zM200.5 347q-29.5 -39 -29.5 -103q0 -38 10 -65l163 190q-25 17 -60 17q-54 0 -83.5 -39z
M366.5 142q29.5 38 29.5 102q0 35 -10 67l-163 -190q26 -17 61 -17q53 0 82.5 38z" />
    <glyph glyph-name="oslashacute" unicode="&#x1ff;" horiz-adv-x="567" 
d="M550 462l-60 -68q40 -63 40 -149q0 -74 -31 -133t-87 -92t-128 -33q-70 0 -123 29l-57 -66l-84 76l58 68q-41 65 -41 151q0 74 30.5 132t87 90.5t129.5 32.5q69 0 122 -29l57 66zM200.5 347q-29.5 -39 -29.5 -103q0 -38 10 -65l163 190q-25 17 -60 17q-54 0 -83.5 -39z
M366.5 142q29.5 38 29.5 102q0 35 -10 67l-163 -190q26 -17 61 -17q53 0 82.5 38zM311 544h-116l102 162h141z" />
    <glyph glyph-name="otilde" unicode="&#xf5;" horiz-adv-x="553" 
d="M60.5 377q30.5 58 86.5 90.5t129 32.5t129.5 -32.5t87 -90.5t30.5 -132t-31 -133t-87 -92t-129 -33t-129 33t-86.5 91.5t-30.5 133.5q0 74 30.5 132zM359.5 347q-29.5 39 -83.5 39q-53 0 -82.5 -39t-29.5 -103t29.5 -102t82.5 -38q54 0 83.5 38t29.5 102t-29.5 103z
M387 709q3 -66 -28 -66q-14 0 -26.5 7.5t-14.5 8.5l-59 36q-18 11 -34.5 16.5t-39.5 5.5q-45 0 -71.5 -34t-26.5 -103q0 -19 1 -29h79q-2 32 4.5 49t24.5 17q9 0 19.5 -5.5t19.5 -11.5l60 -34q19 -12 36 -18t40 -6q44 0 70 34.5t26 103.5q0 19 -1 29h-79z" />
    <glyph glyph-name="oe" unicode="&#x153;" horiz-adv-x="855" 
d="M821 201h-313q6 -46 36 -74t81 -28q73 0 132 52l58 -88q-32 -36 -81 -56t-106 -20q-63 0 -109 25t-72 72h-3q-54 -97 -180 -97q-70 0 -123 33t-82 91.5t-29 133.5t29 132.5t82.5 90t124.5 32.5q123 0 178 -95h3q24 45 68.5 70t102.5 25q62 0 108.5 -31.5t72 -88
t25.5 -131.5q0 -24 -3 -48zM539 364q-25 -29 -31 -76h192q-5 50 -29 77.5t-64 27.5q-43 0 -68 -29zM355.5 142q28.5 38 28.5 102q0 65 -28.5 103.5t-81.5 38.5t-81.5 -38.5t-28.5 -103.5q0 -64 28.5 -102t81.5 -38t81.5 38z" />
    <glyph glyph-name="p" unicode="p" horiz-adv-x="575" 
d="M443.5 468.5q49.5 -31.5 75.5 -88t26 -131.5t-30 -134.5t-84 -93.5t-124 -34q-65 0 -113 27v-200h-131v455l-20 218h116l8 -82h4q19 46 59 70.5t97 24.5q67 0 116.5 -31.5zM379 140.5q32 39.5 32 103.5q0 65 -30.5 103.5t-83.5 38.5q-43 0 -73 -28.5t-30 -72.5v-149
q37 -35 97 -35q56 0 88 39.5z" />
    <glyph glyph-name="thorn" unicode="&#xfe;" horiz-adv-x="572" 
d="M443 468q47 -32 72.5 -88.5t25.5 -127.5q0 -75 -30 -134.5t-84.5 -93t-124.5 -33.5q-62 0 -113 27v-204h-130v884h130v-266h3q20 31 56 49.5t85 18.5q63 0 110 -32zM374.5 143.5q32.5 39.5 32.5 104.5q0 64 -30 102t-83 38q-43 0 -74 -28.5t-31 -70.5v-149q34 -36 97 -36
q56 0 88.5 39.5z" />
    <glyph glyph-name="q" unicode="q" horiz-adv-x="579" 
d="M421 487h116l-20 -214v-459h-127v250h-4q-16 -38 -53.5 -57.5t-88.5 -19.5q-62 0 -110.5 33t-75.5 91t-27 130q0 76 27.5 134.5t78 91.5t115.5 33q56 0 96.5 -23.5t61.5 -69.5h3zM359.5 140q30.5 39 30.5 104q0 66 -30.5 105.5t-81.5 39.5q-52 0 -82.5 -39.5
t-30.5 -105.5q0 -65 30.5 -104t82.5 -39q51 0 81.5 39z" />
    <glyph glyph-name="r" unicode="r" horiz-adv-x="366" 
d="M358 492l-13 -127q-24 8 -48 8q-45 0 -74 -30.5t-29 -79.5v-263h-131v273l-20 214h120l8 -91h2q14 47 49.5 75.5t84.5 28.5q27 0 51 -8z" />
    <glyph glyph-name="racute" unicode="&#x155;" horiz-adv-x="366" 
d="M358 492l-13 -127q-24 8 -48 8q-45 0 -74 -30.5t-29 -79.5v-263h-131v273l-20 214h120l8 -91h2q14 47 49.5 75.5t84.5 28.5q27 0 51 -8zM225 544h-116l102 162h141z" />
    <glyph glyph-name="rcaron" unicode="&#x159;" horiz-adv-x="366" 
d="M358 492l-13 -127q-24 8 -48 8q-45 0 -74 -30.5t-29 -79.5v-263h-131v273l-20 214h120l8 -91h2q14 47 49.5 75.5t84.5 28.5q27 0 51 -8zM197 612l68 94h110l-102 -162h-152l-102 162h109z" />
    <glyph glyph-name="uni0157" unicode="&#x157;" horiz-adv-x="366" 
d="M358 492l-13 -127q-24 8 -48 8q-45 0 -74 -30.5t-29 -79.5v-263h-131v273l-20 214h120l8 -91h2q14 47 49.5 75.5t84.5 28.5q27 0 51 -8zM174.5 -207.5q-30.5 -37.5 -80.5 -55.5l-30 34q27 13 42 32t17 38q-25 0 -45 14.5t-20 43.5q0 25 18.5 41.5t50.5 16.5
q37 0 57.5 -21t20.5 -55q0 -51 -30.5 -88.5z" />
    <glyph glyph-name="s" unicode="s" horiz-adv-x="436" 
d="M74 145q27 -22 63 -34.5t77 -12.5q29 0 44.5 11t15.5 30q0 28 -38 42l-79 30q-59 23 -87.5 57.5t-28.5 86.5q0 64 47.5 104.5t126.5 40.5q57 0 106 -15.5t80 -42.5l-43 -94q-25 19 -64.5 31.5t-74.5 12.5q-23 0 -35.5 -9.5t-12.5 -25.5q0 -14 9 -23t28 -16l78 -31
q63 -23 90.5 -56.5t27.5 -87.5q0 -72 -50.5 -114t-135.5 -42q-59 0 -111.5 16t-86.5 44z" />
    <glyph glyph-name="sacute" unicode="&#x15b;" horiz-adv-x="436" 
d="M74 145q27 -22 63 -34.5t77 -12.5q29 0 44.5 11t15.5 30q0 28 -38 42l-79 30q-59 23 -87.5 57.5t-28.5 86.5q0 64 47.5 104.5t126.5 40.5q57 0 106 -15.5t80 -42.5l-43 -94q-25 19 -64.5 31.5t-74.5 12.5q-23 0 -35.5 -9.5t-12.5 -25.5q0 -14 9 -23t28 -16l78 -31
q63 -23 90.5 -56.5t27.5 -87.5q0 -72 -50.5 -114t-135.5 -42q-59 0 -111.5 16t-86.5 44zM247 544h-116l102 162h141z" />
    <glyph glyph-name="scaron" unicode="&#x161;" horiz-adv-x="436" 
d="M74 145q27 -22 63 -34.5t77 -12.5q29 0 44.5 11t15.5 30q0 28 -38 42l-79 30q-59 23 -87.5 57.5t-28.5 86.5q0 64 47.5 104.5t126.5 40.5q57 0 106 -15.5t80 -42.5l-43 -94q-25 19 -64.5 31.5t-74.5 12.5q-23 0 -35.5 -9.5t-12.5 -25.5q0 -14 9 -23t28 -16l78 -31
q63 -23 90.5 -56.5t27.5 -87.5q0 -72 -50.5 -114t-135.5 -42q-59 0 -111.5 16t-86.5 44zM218 612l68 94h110l-102 -162h-152l-102 162h109z" />
    <glyph glyph-name="scedilla" unicode="&#x15f;" horiz-adv-x="436" 
d="M74 145q27 -22 63 -34.5t77 -12.5q29 0 44.5 11t15.5 30q0 28 -38 42l-79 30q-59 23 -87.5 57.5t-28.5 86.5q0 64 47.5 104.5t126.5 40.5q57 0 106 -15.5t80 -42.5l-43 -94q-25 19 -64.5 31.5t-74.5 12.5q-23 0 -35.5 -9.5t-12.5 -25.5q0 -14 9 -23t28 -16l78 -31
q63 -23 90.5 -56.5t27.5 -87.5q0 -72 -50.5 -114t-135.5 -42q-59 0 -111.5 16t-86.5 44zM300 -66q30 -24 30 -62q0 -47 -36.5 -74.5t-92.5 -27.5q-63 0 -99 24l23 60q27 -17 68 -17q24 0 38 7.5t14 21.5q0 15 -13.5 22.5t-36.5 7.5q-32 0 -62 -11l-18 39l75 105h80l-50 -71
h4q46 0 76 -24z" />
    <glyph glyph-name="scircumflex" unicode="&#x15d;" horiz-adv-x="436" 
d="M74 145q27 -22 63 -34.5t77 -12.5q29 0 44.5 11t15.5 30q0 28 -38 42l-79 30q-59 23 -87.5 57.5t-28.5 86.5q0 64 47.5 104.5t126.5 40.5q57 0 106 -15.5t80 -42.5l-43 -94q-25 19 -64.5 31.5t-74.5 12.5q-23 0 -35.5 -9.5t-12.5 -25.5q0 -14 9 -23t28 -16l78 -31
q63 -23 90.5 -56.5t27.5 -87.5q0 -72 -50.5 -114t-135.5 -42q-59 0 -111.5 16t-86.5 44zM294 706l102 -162h-110l-68 94l-69 -94h-110l103 162h152z" />
    <glyph glyph-name="uni0219" unicode="&#x219;" horiz-adv-x="436" 
d="M74 145q27 -22 63 -34.5t77 -12.5q29 0 44.5 11t15.5 30q0 28 -38 42l-79 30q-59 23 -87.5 57.5t-28.5 86.5q0 64 47.5 104.5t126.5 40.5q57 0 106 -15.5t80 -42.5l-43 -94q-25 19 -64.5 31.5t-74.5 12.5q-23 0 -35.5 -9.5t-12.5 -25.5q0 -14 9 -23t28 -16l78 -31
q63 -23 90.5 -56.5t27.5 -87.5q0 -72 -50.5 -114t-135.5 -42q-59 0 -111.5 16t-86.5 44zM252.5 -207.5q-30.5 -37.5 -80.5 -55.5l-30 34q27 13 42 32t17 38q-25 0 -45 14.5t-20 43.5q0 25 18.5 41.5t50.5 16.5q37 0 57.5 -21t20.5 -55q0 -51 -30.5 -88.5z" />
    <glyph glyph-name="germandbls" unicode="&#xdf;" horiz-adv-x="601" 
d="M59 473q0 105 62 170.5t185 65.5q68 0 117 -26t74.5 -70t25.5 -97q0 -61 -25.5 -104t-62.5 -65v-3q60 -14 99 -56.5t39 -114.5q0 -84 -55 -135t-147 -51q-66 0 -116 22l30 110q18 -11 35.5 -15.5t40.5 -4.5q38 0 61 21t23 58q0 44 -38 68t-107 25v91q42 17 70 56t28 85
q0 40 -25 66t-71 26q-60 0 -86.5 -38t-26.5 -98v-459h-130v473z" />
    <glyph glyph-name="t" unicode="t" horiz-adv-x="385" 
d="M370 19q-49 -30 -115 -30q-78 0 -122 43.5t-44 121.5v219h-73v114h73v131h130v-131h145v-114h-145v-202q0 -32 16 -48.5t47 -16.5q27 0 54 16z" />
    <glyph glyph-name="tbar" unicode="&#x167;" horiz-adv-x="390" 
d="M373 19q-49 -30 -115 -30q-78 0 -122 43.5t-44 121.5v68h-61v77h61v74h-73v114h73v131h130v-131h144v-114h-144v-74h118v-77h-118v-51q0 -65 63 -65q27 0 54 16z" />
    <glyph glyph-name="tcaron" unicode="&#x165;" horiz-adv-x="386" 
d="M370 19q-49 -30 -115 -30q-78 0 -122 43.5t-44 121.5v219h-73v114h73v131h130v-131h145v-114h-145v-202q0 -32 16 -48.5t47 -16.5q27 0 54 16zM292 722h115l-68 -193h-79z" />
    <glyph glyph-name="uni0163" unicode="&#x163;" horiz-adv-x="385" 
d="M370 19q-49 -30 -115 -30q-78 0 -122 43.5t-44 121.5v219h-73v114h73v131h130v-131h145v-114h-145v-202q0 -32 16 -48.5t47 -16.5q27 0 54 16zM264.5 -207.5q-30.5 -37.5 -80.5 -55.5l-30 34q27 13 42 32t17 38q-25 0 -45 14.5t-20 43.5q0 25 18.5 41.5t50.5 16.5
q37 0 57.5 -21t20.5 -55q0 -51 -30.5 -88.5z" />
    <glyph glyph-name="uni021B" unicode="&#x21b;" horiz-adv-x="385" 
d="M370 19q-49 -30 -115 -30q-78 0 -122 43.5t-44 121.5v219h-73v114h73v131h130v-131h145v-114h-145v-202q0 -32 16 -48.5t47 -16.5q27 0 54 16zM264.5 -207.5q-30.5 -37.5 -80.5 -55.5l-30 34q27 13 42 32t17 38q-25 0 -45 14.5t-20 43.5q0 25 18.5 41.5t50.5 16.5
q37 0 57.5 -21t20.5 -55q0 -51 -30.5 -88.5z" />
    <glyph glyph-name="u" unicode="u" horiz-adv-x="547" 
d="M504 0h-117l-7 75h-2q-19 -43 -59 -65.5t-95 -22.5q-77 0 -123.5 52t-46.5 137v311h130v-294q0 -38 23.5 -62.5t61.5 -24.5q37 0 60.5 24.5t23.5 62.5v294h130v-273z" />
    <glyph glyph-name="uacute" unicode="&#xfa;" horiz-adv-x="547" 
d="M504 0h-117l-7 75h-2q-19 -43 -59 -65.5t-95 -22.5q-77 0 -123.5 52t-46.5 137v311h130v-294q0 -38 23.5 -62.5t61.5 -24.5q37 0 60.5 24.5t23.5 62.5v294h130v-273zM297 544h-116l102 162h141z" />
    <glyph glyph-name="ubreve" unicode="&#x16d;" horiz-adv-x="547" 
d="M504 0h-117l-7 75h-2q-19 -43 -59 -65.5t-95 -22.5q-77 0 -123.5 52t-46.5 137v311h130v-294q0 -38 23.5 -62.5t61.5 -24.5q37 0 60.5 24.5t23.5 62.5v294h130v-273zM189 714q0 -38 20.5 -61t59.5 -23q38 0 58.5 23t20.5 61h91q0 -78 -45 -124t-125 -46q-81 0 -125.5 46
t-44.5 124h90z" />
    <glyph glyph-name="ucircumflex" unicode="&#xfb;" horiz-adv-x="547" 
d="M504 0h-117l-7 75h-2q-19 -43 -59 -65.5t-95 -22.5q-77 0 -123.5 52t-46.5 137v311h130v-294q0 -38 23.5 -62.5t61.5 -24.5q37 0 60.5 24.5t23.5 62.5v294h130v-273zM345 706l102 -162h-110l-68 94l-69 -94h-110l103 162h152z" />
    <glyph glyph-name="udieresis" unicode="&#xfc;" horiz-adv-x="547" 
d="M504 0h-117l-7 75h-2q-19 -43 -59 -65.5t-95 -22.5q-77 0 -123.5 52t-46.5 137v311h130v-294q0 -38 23.5 -62.5t61.5 -24.5q37 0 60.5 24.5t23.5 62.5v294h130v-273zM114 564q-20 20 -20 49t20 48.5t49 19.5q28 0 47.5 -19.5t19.5 -48.5t-19.5 -49t-47.5 -20
q-29 0 -49 20zM327 564q-20 20 -20 49q0 28 20 48t48 20q29 0 49 -20t20 -48q0 -29 -20 -49t-49 -20q-28 0 -48 20z" />
    <glyph glyph-name="ugrave" unicode="&#xf9;" horiz-adv-x="547" 
d="M504 0h-117l-7 75h-2q-19 -43 -59 -65.5t-95 -22.5q-77 0 -123.5 52t-46.5 137v311h130v-294q0 -38 23.5 -62.5t61.5 -24.5q37 0 60.5 24.5t23.5 62.5v294h130v-273zM255 706l101 -162h-116l-127 162h142z" />
    <glyph glyph-name="uhungarumlaut" unicode="&#x171;" horiz-adv-x="547" 
d="M504 0h-117l-7 75h-2q-19 -43 -59 -65.5t-95 -22.5q-77 0 -123.5 52t-46.5 137v311h130v-294q0 -38 23.5 -62.5t61.5 -24.5q37 0 60.5 24.5t23.5 62.5v294h130v-273zM218 544h-91l101 162h109zM381 544h-92l102 162h108z" />
    <glyph glyph-name="umacron" unicode="&#x16b;" horiz-adv-x="547" 
d="M504 0h-117l-7 75h-2q-19 -43 -59 -65.5t-95 -22.5q-77 0 -123.5 52t-46.5 137v311h130v-294q0 -38 23.5 -62.5t61.5 -24.5q37 0 60.5 24.5t23.5 62.5v294h130v-273zM411 557h-283v91h283v-91z" />
    <glyph glyph-name="uogonek" unicode="&#x173;" horiz-adv-x="547" 
d="M504 0h-117l-7 75h-2q-19 -43 -59 -65.5t-95 -22.5q-77 0 -123.5 52t-46.5 137v311h130v-294q0 -38 23.5 -62.5t61.5 -24.5q37 0 60.5 24.5t23.5 62.5v294h130v-273zM496 0q-44 0 -76 -19.5t-32 -50.5q0 -19 11 -29.5t29 -10.5q17 0 28 7.5t22 19.5l45 -62
q-39 -52 -113 -52q-48 0 -79.5 29t-31.5 77q0 41 32 73t83 43z" />
    <glyph glyph-name="uring" unicode="&#x16f;" horiz-adv-x="547" 
d="M504 0h-117l-7 75h-2q-19 -43 -59 -65.5t-95 -22.5q-77 0 -123.5 52t-46.5 137v311h130v-294q0 -38 23.5 -62.5t61.5 -24.5q37 0 60.5 24.5t23.5 62.5v294h130v-273zM161.5 569q-40.5 34 -40.5 86q0 51 40.5 85.5t107.5 34.5q66 0 107 -34.5t41 -85.5q0 -52 -40.5 -86
t-107.5 -34t-107.5 34zM316.5 622q16.5 13 16.5 33q0 22 -16.5 35t-47.5 13q-32 0 -48.5 -13t-16.5 -35q0 -20 16.5 -33t48.5 -13q31 0 47.5 13z" />
    <glyph glyph-name="utilde" unicode="&#x169;" horiz-adv-x="547" 
d="M504 0h-117l-7 75h-2q-19 -43 -59 -65.5t-95 -22.5q-77 0 -123.5 52t-46.5 137v311h130v-294q0 -38 23.5 -62.5t61.5 -24.5q37 0 60.5 24.5t23.5 62.5v294h130v-273zM378 709q3 -66 -28 -66q-14 0 -26.5 7.5t-14.5 8.5l-59 36q-18 11 -34.5 16.5t-39.5 5.5
q-45 0 -71.5 -34t-26.5 -103q0 -19 1 -29h79q-2 32 4.5 49t24.5 17q9 0 19.5 -5.5t19.5 -11.5l60 -34q19 -12 36 -18t40 -6q44 0 70 34.5t26 103.5q0 19 -1 29h-79z" />
    <glyph glyph-name="v" unicode="v" horiz-adv-x="522" 
d="M262 126l124 361h133l-178 -487h-160l-178 487h141l114 -361h4z" />
    <glyph glyph-name="w" unicode="w" horiz-adv-x="809" 
d="M586 140l79 347h133l-132 -487h-153l-106 353h-4l-106 -353h-154l-132 487h136l76 -347h4l101 347h160l95 -347h3z" />
    <glyph glyph-name="wacute" unicode="&#x1e83;" horiz-adv-x="809" 
d="M586 140l79 347h133l-132 -487h-153l-106 353h-4l-106 -353h-154l-132 487h136l76 -347h4l101 347h160l95 -347h3zM436 544h-116l102 162h141z" />
    <glyph glyph-name="wcircumflex" unicode="&#x175;" horiz-adv-x="809" 
d="M586 140l79 347h133l-132 -487h-153l-106 353h-4l-106 -353h-154l-132 487h136l76 -347h4l101 347h160l95 -347h3zM484 706l102 -162h-110l-68 94l-69 -94h-110l103 162h152z" />
    <glyph glyph-name="wdieresis" unicode="&#x1e85;" horiz-adv-x="809" 
d="M586 140l79 347h133l-132 -487h-153l-106 353h-4l-106 -353h-154l-132 487h136l76 -347h4l101 347h160l95 -347h3zM253 564q-20 20 -20 49t20 48.5t49 19.5q28 0 47.5 -19.5t19.5 -48.5t-19.5 -49t-47.5 -20q-29 0 -49 20zM466 564q-20 20 -20 49q0 28 20 48t48 20
q29 0 49 -20t20 -48q0 -29 -20 -49t-49 -20q-28 0 -48 20z" />
    <glyph glyph-name="wgrave" unicode="&#x1e81;" horiz-adv-x="809" 
d="M586 140l79 347h133l-132 -487h-153l-106 353h-4l-106 -353h-154l-132 487h136l76 -347h4l101 347h160l95 -347h3zM395 706l101 -162h-116l-127 162h142z" />
    <glyph glyph-name="x" unicode="x" horiz-adv-x="513" 
d="M345 253l168 -253h-146l-110 177h-3l-110 -177h-143l167 252l-157 235h146l99 -161h2l100 161h142z" />
    <glyph glyph-name="uni1E8B" unicode="&#x1e8b;" horiz-adv-x="513" 
d="M345 253l168 -253h-146l-110 177h-3l-110 -177h-143l167 252l-157 235h146l99 -161h2l100 161h142zM201.5 573q-23.5 23 -23.5 56t23.5 56t55.5 23q33 0 56.5 -23t23.5 -56t-23.5 -56t-56.5 -23q-32 0 -55.5 23z" />
    <glyph glyph-name="y" unicode="y" horiz-adv-x="516" 
d="M381 487h133l-208 -535q-29 -76 -74.5 -112.5t-127.5 -36.5q-28 0 -54 6.5t-43 17.5l29 108q27 -16 62 -16q64 0 85 54l11 28l-196 486h141l115 -340h5z" />
    <glyph glyph-name="yacute" unicode="&#xfd;" horiz-adv-x="516" 
d="M381 487h133l-208 -535q-29 -76 -74.5 -112.5t-127.5 -36.5q-28 0 -54 6.5t-43 17.5l29 108q27 -16 62 -16q64 0 85 54l11 28l-196 486h141l115 -340h5zM288 544h-116l102 162h141z" />
    <glyph glyph-name="ycircumflex" unicode="&#x177;" horiz-adv-x="516" 
d="M381 487h133l-208 -535q-29 -76 -74.5 -112.5t-127.5 -36.5q-28 0 -54 6.5t-43 17.5l29 108q27 -16 62 -16q64 0 85 54l11 28l-196 486h141l115 -340h5zM335 706l102 -162h-110l-68 94l-69 -94h-110l103 162h152z" />
    <glyph glyph-name="ydieresis" unicode="&#xff;" horiz-adv-x="516" 
d="M381 487h133l-208 -535q-29 -76 -74.5 -112.5t-127.5 -36.5q-28 0 -54 6.5t-43 17.5l29 108q27 -16 62 -16q64 0 85 54l11 28l-196 486h141l115 -340h5zM104 564q-20 20 -20 49t20 48.5t49 19.5q28 0 47.5 -19.5t19.5 -48.5t-19.5 -49t-47.5 -20q-29 0 -49 20zM317 564
q-20 20 -20 49q0 28 20 48t48 20q29 0 49 -20t20 -48q0 -29 -20 -49t-49 -20q-28 0 -48 20z" />
    <glyph glyph-name="ygrave" unicode="&#x1ef3;" horiz-adv-x="516" 
d="M381 487h133l-208 -535q-29 -76 -74.5 -112.5t-127.5 -36.5q-28 0 -54 6.5t-43 17.5l29 108q27 -16 62 -16q64 0 85 54l11 28l-196 486h141l115 -340h5zM246 706l101 -162h-116l-127 162h142z" />
    <glyph glyph-name="z" unicode="z" horiz-adv-x="445" 
d="M32 0v107l204 262v4h-194v114h361v-104l-198 -262v-4h206v-117h-379z" />
    <glyph glyph-name="zacute" unicode="&#x17a;" horiz-adv-x="445" 
d="M32 0v107l204 262v4h-194v114h361v-104l-198 -262v-4h206v-117h-379zM251 544h-116l102 162h141z" />
    <glyph glyph-name="zcaron" unicode="&#x17e;" horiz-adv-x="445" 
d="M32 0v107l204 262v4h-194v114h361v-104l-198 -262v-4h206v-117h-379zM222 612l68 94h110l-102 -162h-152l-102 162h109z" />
    <glyph glyph-name="zdotaccent" unicode="&#x17c;" horiz-adv-x="445" 
d="M32 0v107l204 262v4h-194v114h361v-104l-198 -262v-4h206v-117h-379zM166.5 573q-23.5 23 -23.5 56t23.5 56t55.5 23q33 0 56.5 -23t23.5 -56t-23.5 -56t-56.5 -23q-32 0 -55.5 23z" />
    <glyph glyph-name="uni01B6" unicode="&#x1b6;" horiz-adv-x="449" 
d="M207 121v-4h207v-117h-380v107l82 105h-62v76h121l63 81v4h-193v114h360v-104l-72 -95h68v-76h-125z" />
    <glyph glyph-name="uniFB01" unicode="&#xfb01;" horiz-adv-x="618" 
d="M226 487h125v-114h-125v-373h-130v373h-71v114h71v52q0 80 46 125t124 45q77 0 119 -42l-44 -95q-27 23 -58 23q-28 0 -42.5 -17t-14.5 -50v-41zM436 576.5q-23 21.5 -23 55.5q0 33 23 55t57 22q35 0 57.5 -21.5t22.5 -55.5t-22.5 -55.5t-57.5 -21.5q-34 0 -57 21.5z
M558 0h-130v487h130v-487z" />
    <glyph glyph-name="uniFB02" unicode="&#xfb02;" horiz-adv-x="669" 
d="M226 487h125v-114h-125v-373h-130v373h-71v114h71v52q0 80 46 125t124 45q77 0 119 -42l-44 -95q-27 23 -58 23q-28 0 -42.5 -17t-14.5 -50v-41zM417 698h130v-522q0 -34 15.5 -52t44.5 -18q24 0 43 8l18 -106q-38 -19 -94 -19q-71 0 -114 45.5t-43 120.5v543z" />
    <glyph glyph-name="ordfeminine" unicode="&#xaa;" horiz-adv-x="411" 
d="M369 308h-91l-6 57q-14 -30 -45 -48t-72 -18q-54 0 -87 29t-33 77q0 54 39 84t107 30q36 0 73 -8v22q0 28 -16.5 45t-44.5 17q-49 0 -71 -46l-80 41q19 43 59.5 67t96.5 24q74 0 115.5 -38.5t41.5 -108.5v-73zM233.5 395.5q20.5 18.5 20.5 50.5q-27 8 -63 8
q-28 0 -43.5 -10.5t-15.5 -29.5q0 -18 12.5 -27.5t35.5 -9.5q33 0 53.5 18.5z" />
    <glyph glyph-name="ordmasculine" unicode="&#xba;" horiz-adv-x="426" 
d="M79.5 628q50.5 53 133.5 53q55 0 96.5 -24.5t64.5 -67.5t23 -99t-23 -99.5t-65 -68t-96 -24.5t-96 24.5t-65 68t-23 99.5q0 85 50.5 138zM271.5 564.5q-20.5 27.5 -58.5 27.5t-59 -28t-21 -74t21 -73t59 -27t58.5 27t20.5 73q0 47 -20.5 74.5z" />
    <glyph glyph-name="uni0394" unicode="&#x394;" horiz-adv-x="636" 
d="M241 670h153l225 -564v-106h-602v106zM481 125l-165 416l-162 -416h327z" />
    <glyph glyph-name="uni03A9" unicode="&#x3a9;" horiz-adv-x="728" 
d="M533 116h138v-116h-257v171q65 18 103 71t38 130q0 57 -24 100.5t-67.5 68t-99.5 24.5q-55 0 -98.5 -24.5t-68 -68.5t-24.5 -100q0 -77 38 -130.5t103 -69.5v-172h-257v116h138v7q-73 34 -114 101t-41 158q0 89 42.5 157.5t116 106t165.5 37.5t166 -37.5t116 -106
t42 -157.5q0 -90 -41 -157t-114 -102v-7z" />
    <glyph glyph-name="uni03BC" unicode="&#x3bc;" horiz-adv-x="552" 
d="M509 0h-117l-7 75h-2q-34 -83 -116 -83q-49 0 -75 29h-3v-207h-130v673h130v-293q0 -38 23.5 -62.5t61.5 -24.5q37 0 60.5 24.5t23.5 62.5v293h130v-273z" />
    <glyph glyph-name="pi" unicode="&#x3c0;" 
d="M53 0q21 78 33.5 180t12.5 193h-73v114h510v-114h-73v-373h-129v373h-106q0 -92 -13 -193.5t-34 -179.5h-128z" />
    <glyph glyph-name="mu" unicode="&#xb5;" horiz-adv-x="562" 
d="M514 0h-117l-7 75h-2q-34 -83 -116 -83q-49 0 -75 29h-3v-207h-130v673h130v-293q0 -38 23.5 -62.5t61.5 -24.5q37 0 60.5 24.5t23.5 62.5v293h130v-273z" />
    <glyph glyph-name="zero" unicode="0" 
d="M97 591.5q60 91.5 183 91.5q124 0 184 -91.5t60 -256.5q0 -167 -60 -257.5t-184 -90.5t-183.5 90.5t-59.5 257.5q0 165 60 256.5zM365.5 503q-23.5 59 -85.5 59q-61 0 -84 -58.5t-23 -168.5q0 -109 23 -166.5t84 -57.5q62 0 85.5 58t23.5 167q0 108 -23.5 167z" />
    <glyph glyph-name="one" unicode="1" 
d="M387 670v-545h140v-125h-456v125h179v395l-159 -58l-42 116l231 92h107z" />
    <glyph glyph-name="two" unicode="2" 
d="M268 315q46 44 69.5 79t23.5 76q0 44 -24.5 67.5t-64.5 23.5q-47 0 -75.5 -31.5t-46.5 -86.5l-112 47q24 89 88 141t158 52q65 0 114.5 -26t76 -71t26.5 -101q0 -65 -27.5 -114t-81.5 -98l-153 -145v-3h265v-125h-451v110z" />
    <glyph glyph-name="three" unicode="3" 
d="M299 385q93 0 152 -50t59 -137q0 -99 -70 -155t-182 -56q-154 0 -231 91l74 102q32 -34 69.5 -51t85.5 -17q50 0 82.5 22.5t32.5 61.5q0 41 -32 62.5t-84 21.5q-48 0 -96 -15l-41 96l197 187h-244v122h410v-117z" />
    <glyph glyph-name="four" unicode="4" 
d="M461 281h75v-122h-75v-159h-136v159h-290v103l83 408h133l-76 -389h150v248h136v-248z" />
    <glyph glyph-name="five" unicode="5" 
d="M410 385.5q48 -24.5 75.5 -71t27.5 -108.5q0 -65 -31.5 -115t-88 -77t-129.5 -27q-79 0 -136.5 24.5t-93.5 62.5l73 102q33 -31 66.5 -47.5t82.5 -16.5q52 0 84.5 25t32.5 69q0 45 -32 70.5t-84 25.5q-59 0 -113 -23l-57 65v326h396v-122h-267v-149q31 11 84 11
q62 0 110 -24.5z" />
    <glyph glyph-name="six" unicode="6" 
d="M473 357.5q59 -55.5 59 -150.5q0 -66 -30.5 -116t-85.5 -77t-125 -27q-67 0 -125 31.5t-94.5 101t-36.5 177.5q0 117 39.5 204t115 134.5t180.5 47.5q42 0 70.5 -4.5t61.5 -13.5l-19 -121q-51 17 -112 17q-87 0 -138.5 -49t-59.5 -144q64 45 143 45q98 0 157 -55.5z
M365 137.5q28 25.5 28 69.5t-28.5 69.5t-71.5 25.5q-65 0 -120 -43q4 -73 35.5 -110t84.5 -37q44 0 72 25.5z" />
    <glyph glyph-name="seven" unicode="7" 
d="M37 670h478v-116l-262 -554h-153l265 548h-328v122z" />
    <glyph glyph-name="eight" unicode="8" 
d="M407 345q58 -22 89 -64t31 -98q0 -57 -31.5 -101.5t-87.5 -69.5t-128 -25q-74 0 -130 24.5t-86.5 69t-30.5 102.5q0 56 30.5 97.5t88.5 63.5v4q-47 21 -73 59.5t-26 88.5q0 54 28.5 97t80 66.5t118.5 23.5q68 0 119.5 -24t79.5 -66.5t28 -96.5q0 -50 -26 -88.5t-74 -60.5
v-2zM208 542q-27 -22 -27 -60t26.5 -60.5t72.5 -22.5t72.5 22.5t26.5 60.5t-26.5 60t-72.5 22q-45 0 -72 -22zM365 133q31 24 31 66q0 41 -31 65.5t-85 24.5t-85 -24.5t-31 -65.5q0 -42 31 -66t85 -24t85 24z" />
    <glyph glyph-name="nine" unicode="9" 
d="M395 651.5q58 -31.5 94.5 -101.5t36.5 -178q0 -182 -83 -283.5t-248 -101.5q-46 0 -76 4.5t-57 14.5l21 125q27 -10 51.5 -14.5t58.5 -4.5q86 0 137 46.5t57 136.5q-58 -46 -143 -46q-97 0 -156.5 57t-59.5 153q0 67 31 118t86 78.5t125 27.5q67 0 125 -31.5zM196.5 387
q28.5 -27 72.5 -27q35 0 63.5 11t55.5 32q-3 78 -34.5 118t-85.5 40q-44 0 -72 -27t-28 -74q0 -46 28.5 -73z" />
    <glyph glyph-name="uni2080" unicode="&#x2080;" horiz-adv-x="352" 
d="M62.5 214.5q38.5 49.5 113.5 49.5t113.5 -49.5t38.5 -142.5q0 -94 -38.5 -142.5t-113.5 -48.5q-152 0 -152 191q0 93 38.5 142.5zM223.5 160q-14.5 29 -47.5 29q-34 0 -49 -29t-15 -88q0 -57 15 -86t49 -29q33 0 47.5 29t14.5 87t-14.5 87z" />
    <glyph glyph-name="uni2081" unicode="&#x2081;" horiz-adv-x="305" 
d="M218 256v-291h79v-77h-269v77h102v201l-90 -31l-27 71l135 50h70z" />
    <glyph glyph-name="uni2082" unicode="&#x2082;" horiz-adv-x="316" 
d="M145 61q29 24 41 43.5t12 39.5q0 22 -12.5 33.5t-33.5 11.5q-24 0 -39.5 -14t-26.5 -47l-71 28q15 52 53.5 80t92.5 28q57 0 93 -32t36 -77q0 -34 -16.5 -63t-51.5 -58l-80 -68v-1h147v-77h-264v69z" />
    <glyph glyph-name="uni2083" unicode="&#x2083;" horiz-adv-x="311" 
d="M175 99q51 -3 83 -29.5t32 -71.5q0 -55 -40.5 -86t-105.5 -31q-48 0 -80.5 11.5t-56.5 36.5l48 61q36 -33 87 -33q25 0 41.5 10.5t16.5 29.5q0 20 -18.5 31t-45.5 11q-21 0 -51 -7l-26 54l108 95h-133v75h240v-71l-99 -83v-3z" />
    <glyph glyph-name="uni2084" unicode="&#x2084;" horiz-adv-x="336" 
d="M276 46h40v-75h-40v-83h-89v83h-164v64l48 221h85l-43 -210h74v131h89v-131z" />
    <glyph glyph-name="uni2085" unicode="&#x2085;" horiz-adv-x="312" 
d="M258 82.5q35 -29.5 35 -80.5q0 -55 -42 -88t-105 -33q-83 0 -135 46l45 62q19 -15 38 -23.5t46 -8.5t44.5 11.5t17.5 33.5q0 21 -17.5 33.5t-43.5 12.5q-27 0 -63 -13l-35 39v182h232v-75h-149v-74q14 5 42 5q55 0 90 -29.5z" />
    <glyph glyph-name="uni2086" unicode="&#x2086;" horiz-adv-x="335" 
d="M280.5 86q35.5 -31 35.5 -82q0 -55 -40.5 -89t-102.5 -34q-61 0 -105.5 41t-44.5 130q0 97 52 154.5t145 57.5q27 0 42 -2.5t34 -7.5l-10 -72q-36 8 -65 8q-48 0 -76 -24t-33 -72q34 23 77 23q56 0 91.5 -31zM210.5 -30.5q14.5 12.5 14.5 34.5q0 20 -15.5 32.5
t-35.5 12.5q-35 0 -62 -21q3 -35 19.5 -53t42.5 -18q22 0 36.5 12.5z" />
    <glyph glyph-name="uni2087" unicode="&#x2087;" horiz-adv-x="302" 
d="M289 185l-145 -297h-99l146 293h-183v75h281v-71z" />
    <glyph glyph-name="uni2088" unicode="&#x2088;" horiz-adv-x="334" 
d="M243 77q34 -12 51.5 -34.5t17.5 -54.5q0 -47 -41 -77t-105 -30t-103.5 30t-39.5 77q0 32 17.5 55t51.5 35q-27 11 -42.5 32.5t-15.5 48.5q0 46 37 75.5t95 29.5q60 0 97 -29t37 -76q0 -27 -15 -48t-42 -32v-2zM129 181q-14 -11 -14 -30q0 -18 14 -28.5t37 -10.5
q25 0 39 10.5t14 28.5q0 19 -14.5 30t-38.5 11q-23 0 -37 -11zM212 -33q17 11 17 32q0 20 -17 32.5t-46 12.5q-28 0 -44 -12.5t-16 -32.5q0 -21 16 -32t44 -11q29 0 46 11z" />
    <glyph glyph-name="uni2089" unicode="&#x2089;" horiz-adv-x="335" 
d="M267 222.5q45 -41.5 45 -129.5q0 -100 -48.5 -156t-147.5 -56q-48 0 -76 10l14 76q15 -5 27.5 -7.5t34.5 -2.5q46 0 73.5 22.5t31.5 67.5q-30 -23 -75 -23q-57 0 -92 31t-35 83q0 57 40 91.5t103 34.5q60 0 105 -41.5zM124.5 104.5q15.5 -13.5 36.5 -13.5q34 0 61 20
q-2 39 -18 58.5t-43 19.5q-23 0 -37.5 -12.5t-14.5 -35.5t15.5 -36.5z" />
    <glyph glyph-name="zero.pnum" horiz-adv-x="623" 
d="M110 590.5q69 92.5 202 92.5t202 -92.5t69 -255.5q0 -165 -68.5 -256.5t-202.5 -91.5t-202.5 91.5t-68.5 256.5q0 163 69 255.5zM412.5 500q-31.5 61 -100.5 61t-100.5 -61t-31.5 -165q0 -103 31 -163t101 -60t101 60t31 164q0 103 -31.5 164z" />
    <glyph glyph-name="one.pnum" horiz-adv-x="423" 
d="M-4 575l249 95h107v-670h-136v521l-179 -63z" />
    <glyph glyph-name="two.pnum" horiz-adv-x="534" 
d="M255 315q46 43 69.5 78.5t23.5 76.5q0 44 -24 67.5t-64 23.5q-47 0 -75.5 -31.5t-45.5 -86.5l-113 47q24 89 88.5 141t157.5 52q65 0 114.5 -26t76 -71t26.5 -101q0 -64 -28 -113t-82 -99l-152 -145v-3h262v-125h-448v110z" />
    <glyph glyph-name="three.pnum" horiz-adv-x="523" 
d="M284 385q90 -1 146.5 -51t56.5 -136q0 -99 -68.5 -155t-178.5 -56q-150 0 -228 91l75 101q31 -33 67 -50t82 -17q49 0 80.5 22.5t31.5 61.5q0 41 -30.5 62.5t-79.5 21.5q-47 0 -94 -15l-41 96l190 187h-237v122h403v-117z" />
    <glyph glyph-name="four.pnum" horiz-adv-x="567" 
d="M465 281h74v-122h-74v-159h-137v159h-290v103l83 408h133l-76 -389h150v248h137v-248z" />
    <glyph glyph-name="five.pnum" horiz-adv-x="525" 
d="M391.5 382.5q47.5 -24.5 74 -70.5t26.5 -108q0 -65 -31.5 -114t-87 -76t-127.5 -27q-77 0 -133 24.5t-91 62.5l72 101q33 -32 66.5 -47.5t79.5 -15.5q50 0 81.5 24.5t31.5 67.5q0 45 -30.5 69.5t-80.5 24.5q-58 0 -112 -23l-56 65v330h389v-122h-260v-153q34 12 81 12
q60 0 107.5 -24.5z" />
    <glyph glyph-name="six.pnum" horiz-adv-x="561" 
d="M471 357.5q58 -55.5 58 -150.5q0 -66 -30 -116t-83.5 -77t-122.5 -27q-67 0 -124.5 31.5t-93.5 101t-36 177.5q0 117 39 204t113.5 134.5t177.5 47.5q41 0 70 -4.5t60 -13.5l-19 -121q-49 17 -109 17q-85 0 -135 -49t-58 -144q62 45 139 45q96 0 154 -55.5zM363 137.5
q27 25.5 27 69.5t-27.5 69.5t-68.5 25.5q-64 0 -116 -42q4 -74 34.5 -111t82.5 -37q41 0 68 25.5z" />
    <glyph glyph-name="seven.pnum" horiz-adv-x="505" 
d="M12 670h473v-116l-257 -554h-153l259 548h-322v122z" />
    <glyph glyph-name="eight.pnum" horiz-adv-x="564" 
d="M408 345q57 -22 87.5 -64t30.5 -98q0 -57 -31 -101.5t-86.5 -69.5t-126.5 -25q-73 0 -128.5 24.5t-85.5 69t-30 102.5q0 56 30.5 98t87.5 64v3q-47 21 -72.5 59t-25.5 89q0 54 28.5 96.5t79 66.5t116.5 24q67 0 118 -24t78.5 -66.5t27.5 -96.5q0 -50 -25.5 -88t-72.5 -60
v-3zM211.5 541.5q-26.5 -22.5 -26.5 -59.5q0 -38 26.5 -60.5t70.5 -22.5q45 0 71 22.5t26 60.5t-26 60t-71 22q-44 0 -70.5 -22.5zM365.5 133q30.5 24 30.5 66q0 41 -31 65.5t-83 24.5t-83 -24.5t-31 -65.5q0 -42 31 -66t83 -24q53 0 83.5 24z" />
    <glyph glyph-name="nine.pnum" horiz-adv-x="563" 
d="M394 651.5q57 -31.5 93 -101t36 -178.5q0 -182 -81.5 -283.5t-244.5 -101.5q-45 0 -75 4.5t-56 15.5l22 124q24 -10 48 -14.5t59 -4.5q84 0 134 46.5t56 136.5q-26 -21 -61.5 -33.5t-77.5 -12.5q-63 0 -111 25.5t-74.5 73t-26.5 111.5q0 67 30 117.5t84.5 78.5t123.5 28
q65 0 122 -31.5zM201.5 387q27.5 -27 69.5 -27q62 0 115 43q-3 78 -33.5 118t-83.5 40q-41 0 -68 -27t-27 -74q0 -46 27.5 -73z" />
    <glyph glyph-name="zero.ss01" 
d="M97 591.5q60 91.5 183 91.5q124 0 184 -91.5t60 -256.5q0 -167 -59.5 -257.5t-184.5 -90.5q-124 0 -183.5 90.5t-59.5 257.5q0 165 60 256.5zM369.5 506q-24.5 59 -89.5 59q-64 0 -89 -59.5t-25 -170.5q0 -110 25 -169t89 -59q65 0 89.5 59t24.5 170t-24.5 170z
M235.5 291q-17.5 18 -17.5 48t17.5 48t44.5 18q28 0 45.5 -18t17.5 -48t-17.5 -48t-45.5 -18q-27 0 -44.5 18z" />
    <glyph glyph-name="uni2070" unicode="&#x2070;" horiz-adv-x="352" 
d="M62.5 739.5q38.5 49.5 113.5 49.5t113.5 -49.5t38.5 -142.5q0 -94 -38.5 -142.5t-113.5 -48.5q-152 0 -152 191q0 93 38.5 142.5zM223.5 685q-14.5 29 -47.5 29q-34 0 -49 -29t-15 -88q0 -57 15 -86t49 -29q33 0 47.5 29t14.5 87t-14.5 87z" />
    <glyph glyph-name="uni00B9" unicode="&#xb9;" horiz-adv-x="304" 
d="M218 781v-291h79v-77h-269v77h102v201l-90 -31l-27 71l135 50h70z" />
    <glyph glyph-name="uni00B2" unicode="&#xb2;" horiz-adv-x="316" 
d="M145 586q29 24 41 43.5t12 39.5q0 22 -12.5 33.5t-33.5 11.5q-24 0 -39.5 -14t-26.5 -47l-71 28q15 52 53.5 80t92.5 28q57 0 93 -32t36 -77q0 -34 -16.5 -63t-51.5 -58l-80 -68v-1h147v-77h-264v69z" />
    <glyph glyph-name="uni00B3" unicode="&#xb3;" horiz-adv-x="311" 
d="M175 624q51 -3 83 -29.5t32 -71.5q0 -55 -40.5 -86t-105.5 -31q-48 0 -80.5 11.5t-56.5 36.5l48 61q36 -33 87 -33q25 0 41.5 10.5t16.5 29.5q0 20 -18.5 31t-45.5 11q-21 0 -51 -7l-26 54l108 95h-133v75h240v-71l-99 -83v-3z" />
    <glyph glyph-name="uni2074" unicode="&#x2074;" horiz-adv-x="334" 
d="M275 571h40v-75h-40v-83h-89v83h-164v64l48 221h85l-43 -210h74v131h89v-131z" />
    <glyph glyph-name="uni2075" unicode="&#x2075;" horiz-adv-x="312" 
d="M258 607.5q35 -29.5 35 -80.5q0 -55 -42 -88t-105 -33q-83 0 -135 46l45 62q19 -15 38 -23.5t46 -8.5t44.5 11.5t17.5 33.5q0 21 -17.5 33.5t-43.5 12.5q-27 0 -63 -13l-35 39v182h232v-75h-149v-74q14 5 42 5q55 0 90 -29.5z" />
    <glyph glyph-name="uni2076" unicode="&#x2076;" horiz-adv-x="335" 
d="M280.5 611q35.5 -31 35.5 -82q0 -55 -40.5 -89t-102.5 -34q-61 0 -105.5 41t-44.5 130q0 97 52 154.5t145 57.5q27 0 42 -2.5t34 -7.5l-10 -72q-36 8 -65 8q-48 0 -76 -24t-33 -72q34 23 77 23q56 0 91.5 -31zM210.5 494.5q14.5 12.5 14.5 34.5q0 20 -15.5 32.5
t-35.5 12.5q-35 0 -62 -21q3 -35 19.5 -53t42.5 -18q22 0 36.5 12.5z" />
    <glyph glyph-name="uni2077" unicode="&#x2077;" horiz-adv-x="303" 
d="M290 710l-145 -297h-99l146 293h-183v75h281v-71z" />
    <glyph glyph-name="uni2078" unicode="&#x2078;" horiz-adv-x="334" 
d="M243 602q34 -12 51.5 -34.5t17.5 -54.5q0 -47 -41 -77t-105 -30t-103.5 30t-39.5 77q0 32 17.5 55t51.5 35q-27 11 -42.5 32.5t-15.5 48.5q0 46 37 75.5t95 29.5q60 0 97 -29t37 -76q0 -27 -15 -48t-42 -32v-2zM129 706q-14 -11 -14 -30q0 -18 14 -28.5t37 -10.5
q25 0 39 10.5t14 28.5q0 19 -14.5 30t-38.5 11q-23 0 -37 -11zM212 492q17 11 17 32q0 20 -17 32.5t-46 12.5q-28 0 -44 -12.5t-16 -32.5q0 -21 16 -32t44 -11q29 0 46 11z" />
    <glyph glyph-name="uni2079" unicode="&#x2079;" horiz-adv-x="335" 
d="M267 747.5q45 -41.5 45 -129.5q0 -100 -48.5 -156t-147.5 -56q-48 0 -76 10l14 76q15 -5 27.5 -7.5t34.5 -2.5q46 0 73.5 22.5t31.5 67.5q-30 -23 -75 -23q-57 0 -92 31t-35 83q0 57 40 91.5t103 34.5q60 0 105 -41.5zM124.5 629.5q15.5 -13.5 36.5 -13.5q34 0 61 20
q-2 39 -18 58.5t-43 19.5q-23 0 -37.5 -12.5t-14.5 -35.5t15.5 -36.5z" />
    <glyph glyph-name="zero.dnom" horiz-adv-x="352" 
d="M62.5 326.5q38.5 49.5 113.5 49.5t113.5 -49.5t38.5 -142.5q0 -94 -38.5 -142.5t-113.5 -48.5q-152 0 -152 191q0 93 38.5 142.5zM223.5 272q-14.5 29 -47.5 29q-34 0 -49 -29t-15 -88q0 -57 15 -86t49 -29q33 0 47.5 29t14.5 87t-14.5 87z" />
    <glyph glyph-name="one.dnom" horiz-adv-x="306" 
d="M219 368v-291h79v-77h-269v77h102v201l-90 -31l-27 71l135 50h70z" />
    <glyph glyph-name="two.dnom" horiz-adv-x="315" 
d="M145 173q29 24 41 43.5t12 39.5q0 22 -12.5 33.5t-33.5 11.5q-24 0 -39.5 -14t-26.5 -47l-71 28q15 52 53.5 80t92.5 28q57 0 93 -32t36 -77q0 -34 -16.5 -63t-51.5 -58l-80 -68v-1h147v-77h-264v69z" />
    <glyph glyph-name="three.dnom" horiz-adv-x="311" 
d="M175 211q51 -3 83 -29.5t32 -71.5q0 -55 -40.5 -86t-105.5 -31q-48 0 -80.5 11.5t-56.5 36.5l48 61q36 -33 87 -33q25 0 41.5 10.5t16.5 29.5q0 20 -18.5 31t-45.5 11q-21 0 -51 -7l-26 54l108 95h-133v75h240v-71l-99 -83v-3z" />
    <glyph glyph-name="four.dnom" horiz-adv-x="335" 
d="M276 158h40v-75h-40v-83h-89v83h-164v64l48 221h85l-43 -210h74v131h89v-131z" />
    <glyph glyph-name="five.dnom" horiz-adv-x="313" 
d="M258 194.5q35 -29.5 35 -80.5q0 -55 -42 -88t-105 -33q-83 0 -135 46l45 62q19 -15 38 -23.5t46 -8.5t44.5 11.5t17.5 33.5q0 21 -17.5 33.5t-43.5 12.5q-27 0 -63 -13l-35 39v182h232v-75h-149v-74q14 5 42 5q55 0 90 -29.5z" />
    <glyph glyph-name="six.dnom" horiz-adv-x="335" 
d="M280.5 198q35.5 -31 35.5 -82q0 -55 -40.5 -89t-102.5 -34q-61 0 -105.5 41t-44.5 130q0 97 52 154.5t145 57.5q27 0 42 -2.5t34 -7.5l-10 -72q-36 8 -65 8q-48 0 -76 -24t-33 -72q34 23 77 23q56 0 91.5 -31zM210.5 81.5q14.5 12.5 14.5 34.5q0 20 -15.5 32.5
t-35.5 12.5q-35 0 -62 -21q3 -35 19.5 -53t42.5 -18q22 0 36.5 12.5z" />
    <glyph glyph-name="seven.dnom" horiz-adv-x="301" 
d="M289 297l-145 -297h-99l146 293h-183v75h281v-71z" />
    <glyph glyph-name="eight.dnom" horiz-adv-x="333" 
d="M242 189q34 -12 51.5 -34.5t17.5 -54.5q0 -47 -41 -77t-105 -30t-103.5 30t-39.5 77q0 32 17.5 55t51.5 35q-27 11 -42.5 32.5t-15.5 48.5q0 46 37 75.5t95 29.5q60 0 97 -29t37 -76q0 -27 -15 -48t-42 -32v-2zM128 293q-14 -11 -14 -30q0 -18 14 -28.5t37 -10.5
q25 0 39 10.5t14 28.5q0 19 -14.5 30t-38.5 11q-23 0 -37 -11zM211 79q17 11 17 32q0 20 -17 32.5t-46 12.5q-28 0 -44 -12.5t-16 -32.5q0 -21 16 -32t44 -11q29 0 46 11z" />
    <glyph glyph-name="nine.dnom" horiz-adv-x="335" 
d="M267 334.5q45 -41.5 45 -129.5q0 -100 -48.5 -156t-147.5 -56q-48 0 -76 10l14 76q15 -5 27.5 -7.5t34.5 -2.5q46 0 73.5 22.5t31.5 67.5q-30 -23 -75 -23q-57 0 -92 31t-35 83q0 57 40 91.5t103 34.5q60 0 105 -41.5zM124.5 216.5q15.5 -13.5 36.5 -13.5q34 0 61 20
q-2 39 -18 58.5t-43 19.5q-23 0 -37.5 -12.5t-14.5 -35.5t15.5 -36.5z" />
    <glyph glyph-name="zero.numr" horiz-adv-x="352" 
d="M62.5 628.5q38.5 49.5 113.5 49.5t113.5 -49.5t38.5 -142.5q0 -94 -38.5 -142.5t-113.5 -48.5q-152 0 -152 191q0 93 38.5 142.5zM223.5 574q-14.5 29 -47.5 29q-34 0 -49 -29t-15 -88q0 -57 15 -86t49 -29q33 0 47.5 29t14.5 87t-14.5 87z" />
    <glyph glyph-name="one.numr" horiz-adv-x="304" 
d="M218 670v-291h79v-77h-269v77h102v201l-90 -31l-27 71l135 50h70z" />
    <glyph glyph-name="two.numr" horiz-adv-x="316" 
d="M145 475q29 24 41 43.5t12 39.5q0 22 -12.5 33.5t-33.5 11.5q-24 0 -39.5 -14t-26.5 -47l-71 28q15 52 53.5 80t92.5 28q57 0 93 -32t36 -77q0 -34 -16.5 -63t-51.5 -58l-80 -68v-1h147v-77h-264v69z" />
    <glyph glyph-name="three.numr" horiz-adv-x="310" 
d="M174 513q51 -3 83 -29.5t32 -71.5q0 -55 -40.5 -86t-105.5 -31q-48 0 -80.5 11.5t-56.5 36.5l48 61q36 -33 87 -33q25 0 41.5 10.5t16.5 29.5q0 20 -18.5 31t-45.5 11q-21 0 -51 -7l-26 54l108 95h-133v75h240v-71l-99 -83v-3z" />
    <glyph glyph-name="four.numr" horiz-adv-x="334" 
d="M275 460h40v-75h-40v-83h-89v83h-164v64l48 221h85l-43 -210h74v131h89v-131z" />
    <glyph glyph-name="five.numr" horiz-adv-x="313" 
d="M258 496.5q35 -29.5 35 -80.5q0 -55 -42 -88t-105 -33q-83 0 -135 46l45 62q19 -15 38 -23.5t46 -8.5t44.5 11.5t17.5 33.5q0 21 -17.5 33.5t-43.5 12.5q-27 0 -63 -13l-35 39v182h232v-75h-149v-74q14 5 42 5q55 0 90 -29.5z" />
    <glyph glyph-name="six.numr" horiz-adv-x="335" 
d="M280.5 500q35.5 -31 35.5 -82q0 -55 -40.5 -89t-102.5 -34q-61 0 -105.5 41t-44.5 130q0 97 52 154.5t145 57.5q27 0 42 -2.5t34 -7.5l-10 -72q-36 8 -65 8q-48 0 -76 -24t-33 -72q34 23 77 23q56 0 91.5 -31zM210.5 383.5q14.5 12.5 14.5 34.5q0 20 -15.5 32.5
t-35.5 12.5q-35 0 -62 -21q3 -35 19.5 -53t42.5 -18q22 0 36.5 12.5z" />
    <glyph glyph-name="seven.numr" horiz-adv-x="303" 
d="M290 599l-145 -297h-99l146 293h-183v75h281v-71z" />
    <glyph glyph-name="eight.numr" horiz-adv-x="333" 
d="M242 491q34 -12 51.5 -34.5t17.5 -54.5q0 -47 -41 -77t-105 -30t-103.5 30t-39.5 77q0 32 17.5 55t51.5 35q-27 11 -42.5 32.5t-15.5 48.5q0 46 37 75.5t95 29.5q60 0 97 -29t37 -76q0 -27 -15 -48t-42 -32v-2zM128 595q-14 -11 -14 -30q0 -18 14 -28.5t37 -10.5
q25 0 39 10.5t14 28.5q0 19 -14.5 30t-38.5 11q-23 0 -37 -11zM211 381q17 11 17 32q0 20 -17 32.5t-46 12.5q-28 0 -44 -12.5t-16 -32.5q0 -21 16 -32t44 -11q29 0 46 11z" />
    <glyph glyph-name="nine.numr" horiz-adv-x="335" 
d="M267 636.5q45 -41.5 45 -129.5q0 -100 -48.5 -156t-147.5 -56q-48 0 -76 10l14 76q15 -5 27.5 -7.5t34.5 -2.5q46 0 73.5 22.5t31.5 67.5q-30 -23 -75 -23q-57 0 -92 31t-35 83q0 57 40 91.5t103 34.5q60 0 105 -41.5zM124.5 518.5q15.5 -13.5 36.5 -13.5q34 0 61 20
q-2 39 -18 58.5t-43 19.5q-23 0 -37.5 -12.5t-14.5 -35.5t15.5 -36.5z" />
    <glyph glyph-name="fraction" unicode="&#x2044;" horiz-adv-x="224" 
d="M-78 0h-100l481 670h100z" />
    <glyph glyph-name="onehalf" unicode="&#xbd;" horiz-adv-x="825" 
d="M230 670v-291h79v-77h-269v77h102v201l-90 -31l-27 71l135 50h70zM249 0h-100l481 670h100zM647 173q29 24 41 43.5t12 39.5q0 22 -12.5 33.5t-33.5 11.5q-24 0 -39.5 -14t-26.5 -47l-71 28q15 52 53.5 80t92.5 28q57 0 93 -32t36 -77q0 -34 -16.5 -63t-51.5 -58l-80 -68
v-1h147v-77h-264v69z" />
    <glyph glyph-name="onequarter" unicode="&#xbc;" horiz-adv-x="829" 
d="M230 670v-291h79v-77h-269v77h102v201l-90 -31l-27 71l135 50h70zM245 0h-100l481 670h100zM770 158h40v-75h-40v-83h-89v83h-164v64l48 221h85l-43 -210h74v131h89v-131z" />
    <glyph glyph-name="threequarters" unicode="&#xbe;" horiz-adv-x="811" 
d="M196 513q51 -3 83 -29.5t32 -71.5q0 -55 -40.5 -86t-105.5 -31q-48 0 -80.5 11.5t-56.5 36.5l48 61q36 -33 87 -33q25 0 41.5 10.5t16.5 29.5q0 20 -18.5 31t-45.5 11q-21 0 -51 -7l-26 54l108 95h-133v75h240v-71l-99 -83v-3zM222 0h-100l481 670h100zM747 158h40v-75
h-40v-83h-89v83h-164v64l48 221h85l-43 -210h74v131h89v-131z" />
    <glyph glyph-name="period" unicode="." horiz-adv-x="236" 
d="M59 16.5q-24 23.5 -24 57.5q0 35 24 58.5t59 23.5t59 -23.5t24 -58.5q0 -34 -24 -57.5t-59 -23.5t-59 23.5z" />
    <glyph glyph-name="comma" unicode="," horiz-adv-x="245" 
d="M168.5 -82.5q-38.5 -56.5 -100.5 -83.5l-33 49q39 20 61 53t22 64q-28 0 -54.5 19.5t-26.5 57.5q0 33 22.5 55.5t57.5 22.5q41 0 65.5 -30.5t24.5 -77.5q0 -73 -38.5 -129.5z" />
    <glyph glyph-name="colon" unicode=":" horiz-adv-x="262" 
d="M72 359.5q-24 23.5 -24 57.5q0 35 24 58.5t59 23.5t59 -23.5t24 -58.5q0 -34 -24 -57.5t-59 -23.5t-59 23.5zM72 16.5q-24 23.5 -24 57.5q0 35 24 58.5t59 23.5t59 -23.5t24 -58.5q0 -34 -24 -57.5t-59 -23.5t-59 23.5z" />
    <glyph glyph-name="semicolon" unicode=";" horiz-adv-x="269" 
d="M180.5 -82.5q-38.5 -56.5 -100.5 -83.5l-33 49q39 20 61 53t22 64q-28 0 -54.5 19.5t-26.5 57.5q0 33 22.5 55.5t57.5 22.5q41 0 65.5 -30.5t24.5 -77.5q0 -73 -38.5 -129.5zM75 359.5q-24 23.5 -24 57.5q0 35 24 58.5t59 23.5t59 -23.5t24 -58.5q0 -34 -24 -57.5
t-59 -23.5t-59 23.5z" />
    <glyph glyph-name="ellipsis" unicode="&#x2026;" horiz-adv-x="697" 
d="M56 14.5q-21 20.5 -21 51.5t21 52t52 21t52.5 -21t21.5 -52t-21 -51.5t-53 -20.5q-31 0 -52 20.5zM296 14.5q-21 20.5 -21 51.5t21.5 52t52.5 21t52.5 -21t21.5 -52t-21 -51.5t-53 -20.5t-53 20.5zM537 14.5q-21 20.5 -21 51.5t21.5 52t52.5 21t52.5 -21t21.5 -52
t-21 -51.5t-53 -20.5t-53 20.5z" />
    <glyph glyph-name="exclam" unicode="!" horiz-adv-x="265" 
d="M193 224h-121l-8 446h137zM74 16.5q-24 23.5 -24 57.5q0 35 24 58.5t59 23.5t58.5 -23.5t23.5 -58.5t-23.5 -58t-58.5 -23t-59 23.5z" />
    <glyph glyph-name="exclamdown" unicode="&#xa1;" horiz-adv-x="255" 
d="M186 476.5q24 -23.5 24 -57.5q0 -35 -24 -58.5t-59 -23.5t-59 23.5t-24 58.5q0 34 24 57.5t59 23.5t59 -23.5zM67 269h121l8 -446h-137z" />
    <glyph glyph-name="question" unicode="?" horiz-adv-x="444" 
d="M275 224h-119l-7 74q-1 6 -1 16q0 42 20.5 67.5t60.5 53.5q31 21 45.5 37t14.5 40t-19 39t-50 15q-79 0 -97 -92l-110 31q13 84 70 131t144 47t141.5 -42.5t54.5 -111.5q0 -39 -13 -66.5t-31 -44.5t-47 -38q-35 -25 -50 -43t-12 -47zM160 16.5q-24 23.5 -24 57.5
q0 35 23.5 58.5t59.5 23.5q35 0 58.5 -23.5t23.5 -58.5q0 -34 -23.5 -57.5t-58.5 -23.5t-59 23.5z" />
    <glyph glyph-name="questiondown" unicode="&#xbf;" horiz-adv-x="442" 
d="M283 476.5q24 -23.5 24 -57.5q0 -35 -24 -58.5t-59 -23.5t-58.5 23.5t-23.5 58.5t23.5 58t58.5 23t59 -23.5zM168 269h119l7 -74q1 -6 1 -16q0 -42 -20.5 -67.5t-60.5 -53.5q-31 -21 -45.5 -37t-14.5 -40t19 -39.5t50 -15.5q79 0 97 93l110 -31q-13 -84 -70 -131
t-144 -47t-141.5 42.5t-54.5 111.5q0 39 13 66.5t31 44.5t47 37q34 24 49.5 43t12.5 48z" />
    <glyph glyph-name="periodcentered" unicode="&#xb7;" horiz-adv-x="246" 
d="M64 282.5q-24 23.5 -24 57.5q0 35 24 58.5t59 23.5t59 -23.5t24 -58.5q0 -34 -24 -57.5t-59 -23.5t-59 23.5z" />
    <glyph glyph-name="bullet" unicode="&#x2022;" horiz-adv-x="361" 
d="M97 253.5q-33 32.5 -33 81.5q0 48 33.5 81t82.5 33t82.5 -33t33.5 -81q0 -49 -33 -81.5t-83 -32.5t-83 32.5z" />
    <glyph glyph-name="asterisk" unicode="*" horiz-adv-x="510" 
d="M328 429l96 -125l-81 -58l-87 128l-89 -128l-81 58l97 123l-152 46l33 94l146 -53l-4 156h100l-5 -156l146 52l31 -94z" />
    <glyph glyph-name="numbersign" unicode="#" horiz-adv-x="617" 
d="M588 511v-90h-108l-18 -164h95v-89h-105l-19 -168h-98l19 168h-128l-19 -168h-99l19 168h-97v89h107l18 164h-94v90h104l18 159h98l-18 -159h128l18 159h99l-18 -159h98zM235 257h128l18 164h-128z" />
    <glyph glyph-name="slash" unicode="/" horiz-adv-x="398" 
d="M109 -93h-98l279 856h98z" />
    <glyph glyph-name="backslash" unicode="\" horiz-adv-x="398" 
d="M108 763l279 -856h-97l-279 856h97z" />
    <glyph glyph-name="parenleft" unicode="(" horiz-adv-x="246" 
d="M135 -112q-98 217 -98 450q0 117 23 226.5t75 216.5l88 -32q-83 -183 -83 -412q0 -227 83 -416z" />
    <glyph glyph-name="parenright" unicode=")" horiz-adv-x="246" 
d="M23 -79q82 187 82 416q0 228 -82 412l87 32q99 -205 99 -443q0 -234 -99 -450z" />
    <glyph glyph-name="braceleft" unicode="{" horiz-adv-x="302" 
d="M276 763v-90h-61q-21 0 -21 -23v-199q0 -36 -3.5 -55.5t-17 -33t-43.5 -19.5v-5q30 -9 43.5 -22t17 -32t3.5 -55v-207q0 -24 20 -24h61v-91h-68q-57 0 -81.5 24.5t-24.5 81.5v229q0 29 -8.5 41.5t-31.5 12.5h-37v89h37q23 0 31.5 13t8.5 41v216q0 53 26 80.5t82 27.5h67z
" />
    <glyph glyph-name="braceright" unicode="}" horiz-adv-x="302" 
d="M94 763q56 0 81.5 -27.5t25.5 -80.5v-216q0 -28 9 -41t31 -13h38v-89h-38q-23 0 -31.5 -12.5t-8.5 -41.5v-229q0 -57 -24 -81.5t-82 -24.5h-67v91h60q20 0 20 24v207q0 36 3.5 55t17 32t43.5 22v5q-30 6 -43.5 19.5t-17 33t-3.5 55.5v199q0 23 -21 23h-60v90h67z" />
    <glyph glyph-name="bracketleft" unicode="[" horiz-adv-x="293" 
d="M275 -93h-207v856h207v-90h-109v-675h109v-91z" />
    <glyph glyph-name="bracketright" unicode="]" horiz-adv-x="293" 
d="M225 763v-856h-207v91h109v675h-109v90h207z" />
    <glyph glyph-name="hyphen" unicode="-" horiz-adv-x="450" 
d="M406 276h-362v125h362v-125z" />
    <glyph glyph-name="uni00AD" unicode="&#xad;" horiz-adv-x="456" 
d="M409 276h-362v125h362v-125z" />
    <glyph glyph-name="endash" unicode="&#x2013;" horiz-adv-x="552" 
d="M508 276h-464v125h464v-125z" />
    <glyph glyph-name="emdash" unicode="&#x2014;" horiz-adv-x="738" 
d="M694 276h-650v125h650v-125z" />
    <glyph glyph-name="underscore" unicode="_" horiz-adv-x="517" 
d="M477 -126h-437v126h437v-126z" />
    <glyph glyph-name="quotesinglbase" unicode="&#x201a;" horiz-adv-x="213" 
d="M144 -68q-32 -46 -83 -69l-26 40q32 17 50 44t18 53q-23 0 -44.5 16.5t-21.5 46.5q0 28 18 46.5t47 18.5q33 0 53.5 -25t20.5 -65q0 -60 -32 -106z" />
    <glyph glyph-name="quotedblbase" unicode="&#x201e;" horiz-adv-x="392" 
d="M144 -68q-32 -46 -83 -69l-26 40q32 17 50 44t18 53q-23 0 -44.5 16.5t-21.5 46.5q0 28 18 46.5t47 18.5q33 0 53.5 -25t20.5 -65q0 -60 -32 -106zM323 -68q-32 -46 -83 -69l-26 40q32 17 50 44t18 53q-23 0 -44.5 16.5t-21.5 46.5q0 28 18 46.5t47 18.5q33 0 53.5 -25
t20.5 -65q0 -60 -32 -106z" />
    <glyph glyph-name="quotedblleft" unicode="&#x201c;" horiz-adv-x="390" 
d="M64 613.5q32 46.5 83 69.5l27 -40q-32 -16 -50 -43.5t-18 -53.5q23 0 44.5 -16.5t21.5 -46.5q0 -28 -18.5 -46.5t-47.5 -18.5q-33 0 -53.5 25t-20.5 65q0 59 32 105.5zM243 614q32 46 83 69l27 -40q-32 -16 -50 -43.5t-18 -53.5q23 0 44.5 -16.5t21.5 -46.5
q0 -27 -18.5 -46t-47.5 -19q-33 0 -53.5 25t-20.5 65q0 60 32 106z" />
    <glyph glyph-name="quotedblright" unicode="&#x201d;" horiz-adv-x="387" 
d="M148 482q-32 -46 -83 -69l-26 40q32 17 50 44t18 53q-23 0 -44.5 16.5t-21.5 46.5q0 28 18 46.5t47 18.5q33 0 53.5 -25t20.5 -65q0 -60 -32 -106zM327 482q-32 -46 -83 -69l-26 40q32 17 50 44t18 53q-23 0 -44.5 16.5t-21.5 46.5q0 28 18 46.5t47 18.5q33 0 53.5 -25
t20.5 -65q0 -60 -32 -106z" />
    <glyph glyph-name="quoteleft" unicode="&#x2018;" horiz-adv-x="211" 
d="M64 613.5q32 46.5 83 69.5l27 -40q-32 -16 -50 -43.5t-18 -53.5q23 0 44.5 -16.5t21.5 -46.5q0 -28 -18.5 -46.5t-47.5 -18.5q-33 0 -53.5 25t-20.5 65q0 59 32 105.5z" />
    <glyph glyph-name="quoteright" unicode="&#x2019;" horiz-adv-x="209" 
d="M148 482q-32 -46 -83 -69l-26 40q32 17 50 44t18 53q-23 0 -44.5 16.5t-21.5 46.5q0 28 18 46.5t47 18.5q33 0 53.5 -25t20.5 -65q0 -60 -32 -106z" />
    <glyph glyph-name="guillemotleft" unicode="&#xab;" horiz-adv-x="521" 
d="M189 502l79 -53l-117 -170l117 -170l-79 -53l-153 223zM403 502l78 -53l-117 -170l117 -170l-78 -53l-153 223z" />
    <glyph glyph-name="guillemotright" unicode="&#xbb;" horiz-adv-x="521" 
d="M40 449l78 53l153 -223l-153 -223l-78 53l117 170zM253 449l79 53l153 -223l-153 -223l-79 53l117 170z" />
    <glyph glyph-name="guilsinglleft" unicode="&#x2039;" horiz-adv-x="307" 
d="M189 502l79 -53l-117 -170l117 -170l-79 -53l-153 223z" />
    <glyph glyph-name="guilsinglright" unicode="&#x203a;" horiz-adv-x="307" 
d="M40 449l78 53l153 -223l-153 -223l-78 53l117 170z" />
    <glyph glyph-name="quotedbl" unicode="&#x22;" horiz-adv-x="363" 
d="M147 405h-91l-9 265h109zM308 405h-93l-8 265h109z" />
    <glyph glyph-name="quotesingle" unicode="'" horiz-adv-x="219" 
d="M164 405h-108l-9 265h125z" />
    <glyph glyph-name="uni2007" unicode="&#x2007;" horiz-adv-x="559" 
 />
    <glyph glyph-name="uni2008" unicode="&#x2008;" horiz-adv-x="236" 
 />
    <glyph glyph-name="uni00A0" unicode="&#xa0;" horiz-adv-x="208" 
 />
    <glyph glyph-name="uni2009" unicode="&#x2009;" horiz-adv-x="125" 
 />
    <glyph glyph-name="Euro" unicode="&#x20ac;" horiz-adv-x="625" 
d="M470 212l120 -42q-22 -87 -79 -135t-148 -48q-104 0 -166.5 63t-82.5 174h-65v83h57q-1 9 -1 28q0 25 1 37h-57v81h67q21 108 83 169t164 61q91 0 149 -49.5t79 -138.5l-120 -38q-25 104 -108 104q-45 0 -71 -28t-38 -80h148v-81h-157q-1 -12 -1 -36v-29h158v-83h-149
q23 -112 110 -112q84 0 107 100z" />
    <glyph glyph-name="uni20BF" unicode="&#x20bf;" horiz-adv-x="592" 
d="M513 90q-42 -48 -114 -62v-112h-89v106h-56v-106h-91v106h-91v624h96v107h90v-107h56v107h90v-116q60 -17 94.5 -58t34.5 -98q0 -41 -19 -74.5t-54 -56.5q46 -22 70.5 -59t24.5 -86q0 -67 -42 -115zM382 511q-21 20 -59 20h-114v-141h114q38 0 59 19t21 51q0 31 -21 51z
M334 141q40 0 62 19.5t22 52.5q0 32 -22 51.5t-62 19.5h-125v-143h125z" />
    <glyph glyph-name="cent" unicode="&#xa2;" horiz-adv-x="515" 
d="M483 151q-61 -69 -176 -72l-10 -93h-81l11 101q-84 20 -133 87.5t-49 162.5q0 71 29 127t82.5 89.5t123.5 37.5l10 93h81l-10 -98q69 -14 119 -66l-62 -83q-32 34 -69 43l-30 -289q69 7 102 44zM239 201l29 278q-47 -12 -71 -48.5t-24 -94.5q0 -104 66 -135z" />
    <glyph glyph-name="currency" unicode="&#xa4;" horiz-adv-x="568" 
d="M459 214l69 -69l-55 -57l-70 70q-52 -36 -118 -36q-65 0 -118 36l-70 -71l-56 57l70 70q-36 53 -36 118q0 66 36 119l-70 70l55 56l71 -71q52 36 118 36q64 0 118 -35l69 69l56 -56l-69 -70q36 -52 36 -118q0 -65 -36 -118zM355.5 260.5q27.5 28.5 27.5 71.5
q0 44 -28 72.5t-71 28.5q-41 0 -69 -28.5t-28 -71.5q0 -44 27.5 -72.5t70.5 -28.5t70.5 28.5z" />
    <glyph glyph-name="dollar" unicode="$" horiz-adv-x="513" 
d="M421 65q-57 -51 -154 -54l-10 -95h-82l11 101q-48 7 -90 25t-71 43l60 99q45 -39 113 -54l17 165l-36 15q-69 29 -102.5 69t-33.5 103q0 50 26 90t74 63.5t110 24.5l10 93h82l-11 -100q85 -17 136 -62l-50 -96q-44 34 -97 47l-16 -153l31 -12q73 -29 106.5 -70.5
t33.5 -106.5q0 -84 -57 -135zM176 449.5q15 -15.5 52 -29.5l14 129q-81 -6 -81 -58q0 -26 15 -41.5zM279 125q82 8 82 67q0 26 -15 41t-52 30z" />
    <glyph glyph-name="florin" unicode="&#x192;" horiz-adv-x="414" 
d="M282.5 545q-18.5 -17 -21.5 -57l-10 -140h112v-81h-117l-32 -453h-136l32 453h-66v81h72l10 148q6 91 53.5 139t135.5 48q20 0 43 -5t38 -12l-25 -111q-16 7 -35 7q-35 0 -53.5 -17z" />
    <glyph glyph-name="sterling" unicode="&#xa3;" horiz-adv-x="511" 
d="M255 262q-7 -73 -57 -137h268v-125h-422v125q37 26 58 59t22 78h-72v81h58l-13 35q-14 34 -21.5 60.5t-7.5 58.5q0 51 26.5 93.5t74.5 67.5t109 25q69 0 120.5 -29t81.5 -80l-91 -73q-16 29 -41.5 46.5t-59.5 17.5q-44 0 -65.5 -24.5t-21.5 -63.5q0 -19 7 -41t21 -56
q3 -8 7 -17t8 -20h182v-81h-171z" />
    <glyph glyph-name="uni20BA" unicode="&#x20ba;" horiz-adv-x="592" 
d="M564 288q0 -144 -63.5 -216t-179.5 -72h-204v223l-70 -30v81l70 30v69l-70 -30v82l70 30v215h137v-157l182 78v-82l-182 -78v-69l182 78v-82l-182 -77v-156h54q58 0 88.5 37.5t30.5 125.5h137z" />
    <glyph glyph-name="yen" unicode="&#xa5;" horiz-adv-x="582" 
d="M421 670h146l-177 -326h107v-82h-138v-62h138v-81h-138v-119h-136v119h-138v81h138v62h-138v82h107l-176 326h150l123 -284h4z" />
    <glyph glyph-name="uni2219" unicode="&#x2219;" 
d="M197 253.5q-33 32.5 -33 81.5q0 48 33.5 81t82.5 33t82.5 -33t33.5 -81q0 -49 -33 -81.5t-83 -32.5t-83 32.5z" />
    <glyph glyph-name="uni2052" unicode="&#x2052;" 
d="M130 538.5q-24 23.5 -24 58.5q0 34 24 57.5t59 23.5t58.5 -23.5t23.5 -57.5q0 -35 -23.5 -58.5t-58.5 -23.5t-59 23.5zM188 0h-109l293 670h109zM312.5 16q-23.5 23 -23.5 58q0 34 23.5 57.5t58.5 23.5t59 -23.5t24 -57.5t-24 -57.5t-59 -23.5t-58.5 23z" />
    <glyph glyph-name="congruent" unicode="&#x2245;" 
d="M498 611v-106q-16 -19 -45 -26.5t-61 -7.5q-28 0 -52.5 7t-59.5 21q-38 14 -61 20.5t-51 6.5q-71 0 -107 -33v105q34 32 107 32q30 0 56 -7t65 -22q33 -13 55.5 -19t47.5 -6q77 0 106 35zM498 305h-437v101h437v-101zM498 111h-437v101h437v-101z" />
    <glyph glyph-name="dotmath" unicode="&#x22c5;" 
d="M221 282.5q-24 23.5 -24 57.5q0 35 24 58.5t59 23.5t59 -23.5t24 -58.5q0 -34 -24 -57.5t-59 -23.5t-59 23.5z" />
    <glyph glyph-name="plus" unicode="+" 
d="M499 400v-123h-151v-165h-136v165h-150v123h150v165h136v-165h151z" />
    <glyph glyph-name="minus" unicode="&#x2212;" 
d="M499 277h-437v123h437v-123z" />
    <glyph glyph-name="multiply" unicode="&#xd7;" 
d="M498 208l-90 -90l-129 128l-127 -128l-91 90l129 129l-129 127l91 91l127 -128l129 128l90 -91l-128 -127z" />
    <glyph glyph-name="divide" unicode="&#xf7;" 
d="M229.5 486q-20.5 20 -20.5 49t20.5 49t50.5 20t50 -20t20 -49t-20 -49t-50 -20t-50.5 20zM498 266h-437v122h437v-122zM229.5 72q-20.5 20 -20.5 49t20.5 49t50.5 20t50 -20t20 -49t-20 -49t-50 -20t-50.5 20z" />
    <glyph glyph-name="equal" unicode="=" 
d="M499 396h-437v114h437v-114zM499 169h-437v115h437v-115z" />
    <glyph glyph-name="notequal" unicode="&#x2260;" 
d="M498 510v-114h-150l-58 -112h208v-115h-268l-60 -116h-84l60 116h-85v115h145l57 112h-202v114h261l61 117h85l-61 -117h91z" />
    <glyph glyph-name="greater" unicode="&#x3e;" 
d="M502 283l-437 -158v116l277 94l-277 95v116l437 -158v-105z" />
    <glyph glyph-name="less" unicode="&#x3c;" 
d="M495 243v-116l-437 157v106l437 158v-116l-277 -95z" />
    <glyph glyph-name="greaterequal" unicode="&#x2265;" 
d="M501 359l-437 -143v106l278 88l-278 87v107l437 -143v-102zM501 177v-104h-437v104h437z" />
    <glyph glyph-name="lessequal" unicode="&#x2264;" 
d="M496 322v-107l-437 144v102l437 143v-107l-278 -87zM496 72h-437v104h437v-104z" />
    <glyph glyph-name="plusminus" unicode="&#xb1;" 
d="M498 490v-123h-150v-153h-137v153h-150v123h150v151h137v-151h150zM498 13h-437v123h437v-123z" />
    <glyph glyph-name="approxequal" unicode="&#x2248;" 
d="M453.5 471.5q29.5 8.5 45.5 28.5v-108q-28 -34 -106 -34q-27 0 -50 6.5t-61 20.5q-37 14 -61 21t-52 7q-72 0 -107 -33v107q38 31 107 31q31 0 57 -7t65 -22q33 -13 55.5 -19.5t46.5 -6.5q31 0 60.5 8.5zM499 298v-107q-16 -18 -45 -25.5t-61 -7.5q-28 0 -53 7t-58 20
q-40 14 -62.5 20.5t-50.5 6.5q-71 0 -107 -34v108q36 31 107 31q31 0 57 -7t65 -22q31 -12 54.5 -18.5t47.5 -6.5q77 0 106 35z" />
    <glyph glyph-name="asciitilde" unicode="~" 
d="M499 433q1 -11 1 -32q0 -86 -31 -129.5t-82 -43.5q-27 0 -44.5 8t-42.5 25l-70 46q-17 13 -26.5 19t-21.5 6q-21 0 -27.5 -23t-4.5 -70h-87q-1 12 -1 34q0 85 31.5 128.5t83.5 43.5q25 0 42.5 -8t41.5 -26l68 -45q15 -12 26 -18t25 -6q19 0 26 22.5t5 68.5h88z" />
    <glyph glyph-name="logicalnot" unicode="&#xac;" 
d="M495 391v-249h-115v136h-322v113h437z" />
    <glyph glyph-name="asciicircum" unicode="^" 
d="M278 563l-87 -182h-119l145 289h125l145 -289h-120z" />
    <glyph glyph-name="infinity" unicode="&#x221e;" horiz-adv-x="922" 
d="M518 472q63 65 152 65q58 0 104.5 -25t73 -70.5t26.5 -104.5q0 -58 -26.5 -104t-72.5 -71.5t-103 -25.5q-90 0 -155 65l-56 58l-55 -57q-34 -34 -71.5 -50t-86.5 -16q-56 0 -101.5 25.5t-72 71t-26.5 104.5q0 58 26.5 103.5t72 71t101.5 25.5q50 0 86.5 -16.5t70.5 -49.5
l57 -56zM294.5 253q17.5 9 35.5 27l57 57l-58 57q-17 18 -34.5 26.5t-42.5 8.5q-39 0 -63.5 -26.5t-24.5 -66.5q0 -41 24.5 -66.5t64.5 -25.5q24 0 41.5 9zM732 271q25 26 25 67q0 40 -25.5 65.5t-64.5 25.5q-23 0 -41 -8.5t-35 -25.5l-58 -57l58 -58q18 -17 35.5 -26
t41.5 -9q39 0 64 26z" />
    <glyph glyph-name="integral" unicode="&#x222b;" horiz-adv-x="399" 
d="M59.5 -97.5q-23.5 8.5 -45.5 25.5l39 98q13 -10 23 -13.5t24 -3.5q16 0 25.5 10.5t9.5 27.5v482q0 76 40 115t104 39q61 0 109 -34l-39 -98q-26 17 -49 17q-17 0 -26.5 -10.5t-9.5 -29.5v-481q0 -76 -41 -114.5t-106 -38.5q-34 0 -57.5 8.5z" />
    <glyph glyph-name="Omega" unicode="&#x2126;" horiz-adv-x="729" 
d="M534 116h138v-116h-257v171q65 18 103 71t38 130q0 57 -24 100.5t-67.5 68t-99.5 24.5q-55 0 -98.5 -24.5t-68 -68.5t-24.5 -100q0 -77 38 -130.5t103 -69.5v-172h-257v116h138v7q-73 34 -114 101t-41 158q0 89 42.5 157.5t116 106t165.5 37.5t166 -37.5t116 -106
t42 -157.5q0 -90 -41 -157t-114 -102v-7z" />
    <glyph glyph-name="Delta" unicode="&#x2206;" horiz-adv-x="639" 
d="M242 670h153l225 -564v-106h-602v106zM482 125l-165 416l-162 -416h327z" />
    <glyph glyph-name="product" unicode="&#x220f;" horiz-adv-x="615" 
d="M232 -93h-129v641h-78v122h565v-122h-77v-641h-131v641h-150v-641z" />
    <glyph glyph-name="summation" unicode="&#x2211;" horiz-adv-x="466" 
d="M435 -93h-406v93l201 287l-194 291v92h391v-111h-236l176 -272l-187 -266h255v-114z" />
    <glyph glyph-name="radical" unicode="&#x221a;" horiz-adv-x="643" 
d="M402 -93h-129l-126 310h-104v114h201l53 -157q27 -83 30 -111h5q3 40 33 146l129 461h132z" />
    <glyph glyph-name="partialdiff" unicode="&#x2202;" horiz-adv-x="558" 
d="M440 608.5q80 -74.5 80 -234.5q0 -115 -33 -202.5t-95 -136t-145 -48.5q-69 0 -120.5 26.5t-79.5 74.5t-28 112q0 93 58 148.5t153 55.5q66 0 106.5 -31t50.5 -83h2q6 38 6 87q0 93 -44.5 142.5t-127.5 49.5q-53 0 -105 -17l-25 108q81 23 144 23q123 0 203 -74.5z
M317.5 129.5q26.5 26.5 26.5 70.5q0 39 -27 65t-70 26q-44 0 -70.5 -26t-26.5 -65q0 -44 26.5 -70.5t70.5 -26.5t70.5 26.5z" />
    <glyph glyph-name="percent" unicode="%" horiz-adv-x="693" 
d="M65.5 634q39.5 44 108.5 44t107 -43.5t38 -124.5t-38 -125t-107 -44q-71 0 -109.5 43.5t-38.5 125.5q0 80 39.5 124zM157 0h-101l481 670h101zM216.5 577q-14.5 23 -42.5 23q-29 0 -44.5 -23t-15.5 -67t15.5 -67t44.5 -23q57 0 57 91q0 43 -14.5 66zM412.5 284
q39.5 44 108.5 44q70 0 108 -43.5t38 -124.5t-38 -124.5t-108 -43.5q-71 0 -109.5 43t-38.5 125q0 80 39.5 124zM521 251q-29 0 -44 -23.5t-15 -67.5q0 -90 59 -90q57 0 57 91q0 90 -57 90z" />
    <glyph glyph-name="perthousand" unicode="&#x2030;" horiz-adv-x="990" 
d="M66 634q38 44 106 44t104.5 -43.5t36.5 -124.5q0 -82 -36.5 -125.5t-104.5 -43.5q-69 0 -106.5 43.5t-37.5 125.5q0 80 38 124zM151 0h-102l481 670h101zM210.5 577.5q-13.5 22.5 -38.5 22.5q-27 0 -41.5 -23t-14.5 -67q0 -90 56 -90q52 0 52 91q0 44 -13.5 66.5z
M404.5 284q37.5 44 105.5 44t104.5 -43.5t36.5 -124.5t-36.5 -124.5t-104.5 -43.5q-70 0 -106.5 43t-36.5 125q0 80 37.5 124zM723.5 284q37.5 44 105.5 44t104.5 -43.5t36.5 -124.5t-36.5 -124.5t-104.5 -43.5q-69 0 -106 43t-37 125q0 80 37.5 124zM510 251
q-27 0 -41 -23.5t-14 -67.5q0 -90 55 -90q52 0 52 91q0 90 -52 90zM829 251q-55 0 -55 -91q0 -90 55 -90q53 0 53 91q0 90 -53 90z" />
    <glyph glyph-name="arrowup" unicode="&#x2191;" horiz-adv-x="643" 
d="M321 701l310 -310l-90 -91l-154 160h-2v-447h-127v447h-2l-154 -159l-90 91z" />
    <glyph glyph-name="uni2197" unicode="&#x2197;" horiz-adv-x="638" 
d="M572 619v-438l-128 -1l4 222l-1 1l-316 -316l-90 90l315 316l-1 1l-221 -3l1 128h437z" />
    <glyph glyph-name="uni2198" unicode="&#x2198;" horiz-adv-x="638" 
d="M573 50h-439v128l222 -4l1 1l-316 317l90 89l316 -315l1 1l-3 221l128 -1v-437z" />
    <glyph glyph-name="arrowdown" unicode="&#x2193;" horiz-adv-x="643" 
d="M322 -31l-310 310l90 91l154 -160h2v447h127v-447h2l154 159l90 -91z" />
    <glyph glyph-name="uni2199" unicode="&#x2199;" horiz-adv-x="638" 
d="M66 51v438l128 1l-4 -222l1 -1l316 316l90 -90l-316 -316l2 -1l221 3l-1 -128h-437z" />
    <glyph glyph-name="arrowleft" unicode="&#x2190;" horiz-adv-x="763" 
d="M37 335l310 310l91 -90l-160 -154v-2h447v-127h-447v-2l159 -154l-91 -90z" />
    <glyph glyph-name="uni2196" unicode="&#x2196;" horiz-adv-x="638" 
d="M66 620h438l1 -128l-222 4l-2 -1l317 -317l-90 -89l-316 315l-1 -1l3 -221l-128 1v437z" />
    <glyph glyph-name="lozenge" unicode="&#x25ca;" horiz-adv-x="596" 
d="M369 670l189 -382l-190 -381h-139l-191 381l192 382h139zM298 35l123 253l-124 253l-122 -253z" />
    <glyph glyph-name="filledbox" unicode="&#x25a0;" horiz-adv-x="760" 
d="M75 610h610v-610h-610v610z" />
    <glyph glyph-name="H22073" unicode="&#x25a1;" horiz-adv-x="760" 
d="M75 610h610v-610h-610v610zM581 104v402h-402v-402h402z" />
    <glyph glyph-name="H18543" unicode="&#x25aa;" horiz-adv-x="438" 
d="M378 464v-318h-318v318h318z" />
    <glyph glyph-name="H18551" unicode="&#x25ab;" horiz-adv-x="438" 
d="M378 464v-318h-318v318h318zM131 217h176v176h-176v-176z" />
    <glyph glyph-name="uni25B6" unicode="&#x25b6;" horiz-adv-x="735" 
d="M75 628l610 -323l-610 -323v646z" />
    <glyph glyph-name="uni25B7" unicode="&#x25b7;" horiz-adv-x="735" 
d="M75 628l610 -323l-610 -323v646zM176 146l307 159l-307 159v-318z" />
    <glyph glyph-name="uni25B8" unicode="&#x25b8;" horiz-adv-x="451" 
d="M60 499l366 -194l-366 -194v388z" />
    <glyph glyph-name="uni25B9" unicode="&#x25b9;" horiz-adv-x="451" 
d="M60 499l366 -194l-366 -194v388zM133 224l157 81l-157 81v-162z" />
    <glyph glyph-name="uni2610" unicode="&#x2610;" horiz-adv-x="880" 
d="M75 670h730v-730h-730v730zM696 49v512h-512v-512h512z" />
    <glyph glyph-name="uni2611" unicode="&#x2611;" horiz-adv-x="880" 
d="M449 120l-231 230l85 85l132 -132l282 379l95 -69zM75 670h492v-103h-389v-524h524v343h103v-446h-730v730z" />
    <glyph glyph-name="uni274C" unicode="&#x274c;" horiz-adv-x="758" 
d="M599 651l96 -96l-220 -220l220 -220l-96 -96l-220 220l-220 -220l-96 96l220 220l-220 220l96 96l220 -220z" />
    <glyph glyph-name="uni2713" unicode="&#x2713;" horiz-adv-x="758" 
d="M330 18l-280 280l96 96l167 -166l300 425l109 -78z" />
    <glyph glyph-name="uni2714" unicode="&#x2714;" horiz-adv-x="802" 
d="M726 709.5q20 -4.5 33 -12.5q12 -7 19.5 -25t7.5 -38q0 -18 -15 -41.5t-46 -55.5q-10 -11 -22 -32q-4 -5 -6.5 -9.5t-5.5 -7.5q-8 -11 -19 -25t-19 -21q-31 -29 -109 -144q-14 -21 -17 -29l-12 -19q-5 -7 -16 -17t-13 -13t-5 -10t-6 -11q-14 -14 -24.5 -30t-24.5 -41
q-11 -20 -14 -24q-6 -9 -22 -25q-13 -12 -28 -35q-7 -8 -16 -22q-34 -45 -60.5 -65.5t-55.5 -20.5q-11 0 -23 3q-48 12 -70 48q-13 22 -22 57t-19 97q-7 41 -22 90q-17 57 -17 87q0 24 10.5 38.5t34.5 23.5q28 10 45 10q23 0 48 -16q14 -9 20 -22.5t14 -45.5q5 -22 7 -29
q2 -9 6.5 -24.5t4.5 -23.5q0 -5 6 -15.5t9 -10.5q4 1 8.5 9t6.5 11q8 16 13 23q8 10 26 30q36 41 69 83q3 4 13.5 19.5t20.5 27.5q27 31 101 130q18 23 44 52q35 38 55 63q39 49 78 61q9 2 29 -2.5z" />
    <glyph glyph-name="uni2718" unicode="&#x2718;" horiz-adv-x="802" 
d="M708 715q16 0 34 -9.5t30.5 -26.5t12.5 -39q0 -29 -15.5 -57.5t-59.5 -75.5q-32 -35 -31 -34q-45 -47 -56 -62q-13 -17 -32 -34t-22 -20q-16 -16 -62 -56q-5 -5 -15.5 -14t-13.5 -18q-2 -8 -2 -12t4 -30q1 -9 1.5 -24.5t2.5 -29.5q1 -9 9 -43q1 -6 3 -13t3 -14
q3 -20 3.5 -37t0.5 -24q0 -9 3 -20t4 -15t4 -16.5t3 -21.5q0 -15 -33 -29.5t-67 -14.5q-14 0 -29.5 21.5t-21.5 42.5l-3 21q-2 20 -4 28q-6 22 -6 62q0 11 -2.5 19.5t-6.5 8.5q-5 0 -16 -10.5t-24 -25.5q-6 -6 -12 -13.5t-13 -15.5q-18 -22 -40 -46q-47 -45 -72 -75
q-23 -29 -38.5 -38t-42.5 -9q-16 0 -22.5 2.5t-18.5 11.5q-28 21 -28 50q0 20 15 46q25 43 47 71.5t35 37.5q8 5 16.5 17t10.5 15q14 16 33.5 36.5t33.5 33.5q42 38 60 57t22 28t2 19q0 4 -0.5 20t-3.5 31l-8 34q-3 9 -10 38q-2 8 -4 32q-2 23 -5 32l-17 57q-7 24 -7 42
q0 17 7 27t22 23q19 13 44 13q19 0 29 -1.5t17 -8.5q13 -13 27 -56.5t14 -86.5q0 -4 4 -16t4 -17q0 -4 7 -18t7 -22q-2 -12 -2 -18q0 -15 24 11t34 42q1 1 23 22q57 54 78 75q45 45 64.5 70.5t20.5 26.5q2 3 14 20.5t22 20.5q6 2 11 2z" />
    <glyph glyph-name="at" unicode="@" horiz-adv-x="753" 
d="M226.5 328.5q20.5 46.5 56 71t77.5 24.5t64.5 -17t35.5 -45h3l7 53h85l-27 -217q0 -21 8.5 -35.5t25.5 -14.5q26 0 45.5 37t19.5 100q0 66 -30.5 118t-87 81.5t-130.5 29.5q-70 0 -126 -34t-87.5 -95.5t-31.5 -138.5q0 -79 29.5 -139t83 -92.5t122.5 -32.5q74 0 132 29
l28 -87q-65 -36 -171 -36q-99 0 -172.5 45.5t-113.5 126.5t-40 186q0 104 44.5 185.5t123.5 127.5t179 46q101 0 178 -42.5t119 -115.5t42 -162q0 -66 -21.5 -117.5t-59 -80t-82.5 -28.5q-76 0 -95 76h-3q-37 -75 -115 -75q-60 0 -98 45t-38 115q0 62 20.5 108.5zM322 166.5
q16 -22.5 44 -22.5q34 0 54.5 32.5t20.5 85.5q0 37 -16 58t-45 21q-34 0 -54 -31.5t-20 -84.5q0 -36 16 -58.5z" />
    <glyph glyph-name="ampersand" unicode="&#x26;" horiz-adv-x="620" 
d="M556 -13q-60 39 -114 78q-81 -78 -200 -78q-93 0 -152.5 51t-59.5 142q0 60 31 102t84 76q-50 81 -50 146q0 81 49.5 130t127.5 49q73 0 116.5 -43t43.5 -115q0 -57 -35.5 -105.5t-94.5 -81.5q50 -53 115 -106q25 68 22 144h114q2 -55 -8.5 -110t-33.5 -104
q65 -46 113 -76zM227 558.5q-15 -18.5 -15 -52.5q0 -42 33 -94q39 21 56.5 47.5t17.5 59.5q0 27 -14.5 42.5t-36.5 15.5q-26 0 -41 -18.5zM354 133q-87 71 -152 147q-23 -17 -35 -37t-12 -52q0 -41 27.5 -68t73.5 -27q55 0 98 37z" />
    <glyph glyph-name="paragraph" unicode="&#xb6;" horiz-adv-x="615" 
d="M53.5 553.5q31.5 53.5 87 85t125.5 31.5h314v-89h-53v-674h-98v674h-73v-674h-96v294q-65 0 -119.5 31.5t-86.5 85t-32 117.5q0 65 31.5 118.5zM140.5 365q17.5 -33 49 -52t70.5 -19v287q-59 0 -98 -41.5t-39 -102.5q0 -39 17.5 -72z" />
    <glyph glyph-name="section" unicode="&#xa7;" horiz-adv-x="525" 
d="M455.5 190q-26.5 -30 -72.5 -38v-2q58 -43 58 -111q0 -67 -50.5 -108t-131.5 -41q-116 0 -205 86l59 78q76 -68 149 -68q34 0 52 14t18 37q0 18 -12.5 32t-42.5 30l-135 74q-46 24 -72.5 53.5t-26.5 85.5q0 44 28 75t71 40v2q-57 42 -57 112q0 37 19.5 69.5t57.5 52.5
t92 20q59 0 112 -25t93 -73l-60 -70q-36 38 -73.5 57.5t-72.5 19.5q-30 0 -46.5 -14t-16.5 -36q0 -21 13 -36.5t41 -30.5l146 -77q43 -24 67.5 -54t24.5 -78q0 -46 -26.5 -76zM366.5 287q-9.5 13 -31.5 26l-91 50q-24 12 -40 12q-24 0 -40 -15t-16 -38q0 -34 39 -56l93 -53
q15 -9 40 -9q23 0 39.5 13.5t16.5 36.5q0 20 -9.5 33z" />
    <glyph glyph-name="copyright" unicode="&#xa9;" horiz-adv-x="785" 
d="M694 155.5q-44 -79.5 -123 -124t-179 -44.5t-178.5 44.5t-122.5 124t-44 179.5t44 179.5t122.5 124t178.5 44.5t179 -44.5t123 -124t44 -179.5t-44 -179.5zM616 472q-33 60 -91.5 93.5t-132.5 33.5t-132.5 -33.5t-91.5 -93.5t-33 -136t33 -136t91.5 -93.5t132.5 -33.5
t132.5 33.5t91.5 93.5t33 136t-33 136zM479 393q-11 26 -33 40t-50 14q-42 0 -66.5 -30t-24.5 -79t24.5 -78.5t66.5 -29.5q56 0 83 52l66 -49q-22 -43 -60.5 -65.5t-89.5 -22.5q-85 0 -134 52.5t-49 139.5q0 56 23 100t64.5 68.5t95.5 24.5q51 0 91 -23t60 -65z" />
    <glyph glyph-name="registered" unicode="&#xae;" horiz-adv-x="784" 
d="M571 638.5q79 -44.5 123 -124t44 -179.5t-44 -179.5t-123 -124t-179 -44.5t-178.5 44.5t-122.5 124t-44 179.5t44 179.5t122.5 124t178.5 44.5t179 -44.5zM524.5 106.5q58.5 33.5 91.5 93.5t33 136t-33 136t-91.5 93.5t-132.5 33.5t-132.5 -33.5t-91.5 -93.5t-33 -136
t33 -136t91.5 -93.5t132.5 -33.5t132.5 33.5zM526 337.5q-19 -28.5 -54 -43.5l78 -142h-101l-68 130h-38v-130h-88v371h150q67 0 103.5 -35t36.5 -87q0 -35 -19 -63.5zM343 447v-95h53q31 0 46 13.5t15 33.5t-15 34t-46 14h-53z" />
    <glyph glyph-name="trademark" unicode="&#x2122;" horiz-adv-x="774" 
d="M20 670h289v-91h-95v-271h-99v271h-95v91zM700 670l23 -362h-98l-8 207h-4l-50 -162h-74l-49 163h-3l-9 -208h-95l22 362h119l51 -181h5l55 181h115z" />
    <glyph glyph-name="degree" unicode="&#xb0;" horiz-adv-x="435" 
d="M127 357q-40 22 -63 61.5t-23 90.5q0 50 23 89.5t63.5 62t90.5 22.5t90.5 -22.5t63 -62t22.5 -89.5q0 -51 -22.5 -90.5t-62.5 -61.5t-91 -22t-91 22zM280.5 445q24.5 25 24.5 64q0 38 -25 63.5t-62 25.5q-38 0 -63 -25.5t-25 -63.5q0 -39 24.5 -64t63.5 -25q38 0 62.5 25
z" />
    <glyph glyph-name="bar" unicode="|" horiz-adv-x="233" 
d="M164 -93h-95v856h95v-856z" />
    <glyph glyph-name="brokenbar" unicode="&#xa6;" horiz-adv-x="233" 
d="M164 763v-347h-94v347h94zM164 -93h-94v360h94v-360z" />
    <glyph glyph-name="dagger" unicode="&#x2020;" horiz-adv-x="396" 
d="M248 242h-99v218h-110v90h110v120h99v-120h109v-90h-109v-218z" />
    <glyph glyph-name="daggerdbl" unicode="&#x2021;" horiz-adv-x="406" 
d="M253 337h109v-91h-109v-120h-100v120h-109v91h109v123h-109v90h109v120h100v-120h109v-90h-109v-123z" />
    <glyph glyph-name="uni02BB" unicode="&#x2bb;" horiz-adv-x="211" 
d="M64 613.5q32 46.5 83 69.5l27 -40q-32 -16 -50 -43.5t-18 -53.5q23 0 44.5 -16.5t21.5 -46.5q0 -28 -18.5 -46.5t-47.5 -18.5q-33 0 -53.5 25t-20.5 65q0 59 32 105.5z" />
    <glyph glyph-name="uni0308" unicode="&#x308;" horiz-adv-x="0" 
d="M-155 564q-20 20 -20 49t20 48.5t49 19.5q28 0 47.5 -19.5t19.5 -48.5t-19.5 -49t-47.5 -20q-29 0 -49 20zM58 564q-20 20 -20 49q0 28 20 48t48 20q29 0 49 -20t20 -48q0 -29 -20 -49t-49 -20q-28 0 -48 20z" />
    <glyph glyph-name="uni0307" unicode="&#x307;" horiz-adv-x="0" 
d="M-55.5 573q-23.5 23 -23.5 56t23.5 56t55.5 23q33 0 56.5 -23t23.5 -56t-23.5 -56t-56.5 -23q-32 0 -55.5 23z" />
    <glyph glyph-name="gravecomb" unicode="&#x300;" horiz-adv-x="0" 
d="M-14 706l101 -162h-116l-127 162h142z" />
    <glyph glyph-name="acutecomb" unicode="&#x301;" horiz-adv-x="0" 
d="M28 544h-116l102 162h141z" />
    <glyph glyph-name="uni030B" unicode="&#x30b;" horiz-adv-x="0" 
d="M-51 544h-91l101 162h109zM112 544h-92l102 162h108z" />
    <glyph glyph-name="uni0302" unicode="&#x302;" horiz-adv-x="0" 
d="M76 706l102 -162h-110l-68 94l-69 -94h-110l103 162h152z" />
    <glyph glyph-name="uni030C" unicode="&#x30c;" horiz-adv-x="0" 
d="M0 612l68 94h110l-102 -162h-152l-102 162h109z" />
    <glyph glyph-name="uni0306" unicode="&#x306;" horiz-adv-x="0" 
d="M-80 714q0 -38 20.5 -61t59.5 -23q38 0 58.5 23t20.5 61h91q0 -78 -45 -124t-125 -46q-81 0 -125.5 46t-44.5 124h90z" />
    <glyph glyph-name="uni030A" unicode="&#x30a;" horiz-adv-x="0" 
d="M-107.5 569q-40.5 34 -40.5 86q0 51 40.5 85.5t107.5 34.5q66 0 107 -34.5t41 -85.5q0 -52 -40.5 -86t-107.5 -34t-107.5 34zM47.5 622q16.5 13 16.5 33q0 22 -16.5 35t-47.5 13q-32 0 -48.5 -13t-16.5 -35q0 -20 16.5 -33t48.5 -13q31 0 47.5 13z" />
    <glyph glyph-name="tildecomb" unicode="&#x303;" horiz-adv-x="0" 
d="M110 709q3 -66 -28 -66q-14 0 -26.5 7.5t-14.5 8.5l-59 36q-18 11 -34.5 16.5t-39.5 5.5q-45 0 -71.5 -34t-26.5 -103q0 -19 1 -29h79q-2 32 4.5 49t24.5 17q9 0 19.5 -5.5t19.5 -11.5l60 -34q19 -12 36 -18t40 -6q44 0 70 34.5t26 103.5q0 19 -1 29h-79z" />
    <glyph glyph-name="uni0304" unicode="&#x304;" horiz-adv-x="0" 
d="M142 557h-283v91h283v-91z" />
    <glyph glyph-name="uni0312" unicode="&#x312;" horiz-adv-x="0" 
d="M-41 708q31 37 81 54l29 -34q-26 -13 -41 -31t-17 -36q25 0 45 -14.5t20 -43.5q0 -25 -19 -41.5t-50 -16.5q-38 0 -58.5 21t-20.5 55q0 50 31 87z" />
    <glyph glyph-name="uni0326" unicode="&#x326;" horiz-adv-x="0" 
d="M44.5 -207.5q-30.5 -37.5 -80.5 -55.5l-30 34q27 13 42 32t17 38q-25 0 -45 14.5t-20 43.5q0 25 18.5 41.5t50.5 16.5q37 0 57.5 -21t20.5 -55q0 -51 -30.5 -88.5z" />
    <glyph glyph-name="uni0327" unicode="&#x327;" horiz-adv-x="0" 
d="M92 -66q30 -24 30 -62q0 -47 -36.5 -74.5t-92.5 -27.5q-63 0 -99 24l23 60q27 -17 68 -17q24 0 38 7.5t14 21.5q0 15 -13.5 22.5t-36.5 7.5q-32 0 -62 -11l-18 39l75 105h80l-50 -71h4q46 0 76 -24z" />
    <glyph glyph-name="uni0328" unicode="&#x328;" horiz-adv-x="0" 
d="M0 0q-44 0 -76 -19.5t-32 -50.5q0 -19 11 -29.5t29 -10.5q17 0 28 7.5t22 19.5l45 -62q-39 -52 -113 -52q-48 0 -79.5 29t-31.5 77q0 41 32 73t83 43z" />
    <glyph glyph-name="dieresis" unicode="&#xa8;" horiz-adv-x="410" 
d="M51 564q-20 20 -20 49t20 48.5t49 19.5q28 0 47.5 -19.5t19.5 -48.5t-19.5 -49t-47.5 -20q-29 0 -49 20zM264 564q-20 20 -20 49q0 28 20 48t48 20q29 0 49 -20t20 -48q0 -29 -20 -49t-49 -20q-28 0 -48 20z" />
    <glyph glyph-name="dotaccent" unicode="&#x2d9;" horiz-adv-x="228" 
d="M57.5 573q-23.5 23 -23.5 56t23.5 56t55.5 23q33 0 56.5 -23t23.5 -56t-23.5 -56t-56.5 -23q-32 0 -55.5 23z" />
    <glyph glyph-name="grave" unicode="`" horiz-adv-x="293" 
d="M166 706l101 -162h-116l-127 162h142z" />
    <glyph glyph-name="acute" unicode="&#xb4;" horiz-adv-x="293" 
d="M142 544h-116l102 162h141z" />
    <glyph glyph-name="hungarumlaut" unicode="&#x2dd;" horiz-adv-x="418" 
d="M115 544h-91l101 162h109zM278 544h-92l102 162h108z" />
    <glyph glyph-name="circumflex" unicode="&#x2c6;" horiz-adv-x="403" 
d="M278 706l102 -162h-110l-68 94l-69 -94h-110l103 162h152z" />
    <glyph glyph-name="caron" unicode="&#x2c7;" horiz-adv-x="403" 
d="M202 612l68 94h110l-102 -162h-152l-102 162h109z" />
    <glyph glyph-name="breve" unicode="&#x2d8;" horiz-adv-x="399" 
d="M120 714q0 -38 20.5 -61t59.5 -23q38 0 58.5 23t20.5 61h91q0 -78 -45 -124t-125 -46q-81 0 -125.5 46t-44.5 124h90z" />
    <glyph glyph-name="ring" unicode="&#x2da;" horiz-adv-x="351" 
d="M68.5 569q-40.5 34 -40.5 86q0 51 40.5 85.5t107.5 34.5q66 0 107 -34.5t41 -85.5q0 -52 -40.5 -86t-107.5 -34t-107.5 34zM223.5 622q16.5 13 16.5 33q0 22 -16.5 35t-47.5 13q-32 0 -48.5 -13t-16.5 -35q0 -20 16.5 -33t48.5 -13q31 0 47.5 13z" />
    <glyph glyph-name="tilde" unicode="&#x2dc;" horiz-adv-x="448" 
d="M334 709q3 -66 -28 -66q-14 0 -26.5 7.5t-14.5 8.5l-59 36q-18 11 -34.5 16.5t-39.5 5.5q-45 0 -71.5 -34t-26.5 -103q0 -19 1 -29h79q-2 32 4.5 49t24.5 17q9 0 19.5 -5.5t19.5 -11.5l60 -34q19 -12 36 -18t40 -6q44 0 70 34.5t26 103.5q0 19 -1 29h-79z" />
    <glyph glyph-name="macron" unicode="&#xaf;" horiz-adv-x="342" 
d="M313 557h-283v91h283v-91z" />
    <glyph glyph-name="cedilla" unicode="&#xb8;" horiz-adv-x="285" 
d="M228 -66q30 -24 30 -62q0 -47 -36.5 -74.5t-92.5 -27.5q-63 0 -99 24l23 60q27 -17 68 -17q24 0 38 7.5t14 21.5q0 15 -13.5 22.5t-36.5 7.5q-32 0 -62 -11l-18 39l75 105h80l-50 -71h4q46 0 76 -24z" />
    <glyph glyph-name="ogonek" unicode="&#x2db;" horiz-adv-x="284" 
d="M232 0q-44 0 -76 -19.5t-32 -50.5q0 -19 11 -29.5t29 -10.5q17 0 28 7.5t22 19.5l45 -62q-39 -52 -113 -52q-48 0 -79.5 29t-31.5 77q0 41 32 73t83 43z" />
    <glyph glyph-name="glyph484" horiz-adv-x="221" 
d="M79 698h115l-68 -193h-79z" />
    <glyph glyph-name="glyph485" horiz-adv-x="284" 
d="M191 19q-37 -23 -56 -44t-19 -44q0 -21 12 -31.5t33 -10.5q33 0 55 28l46 -64q-42 -51 -115 -51q-52 0 -85 28.5t-33 76.5q0 38 21 62t65 51z" />
    <glyph glyph-name="glyph486" horiz-adv-x="0" 
d="M-155 746.5q-20 18.5 -20 46.5t20 46t49 18t48 -18t19 -46t-19 -46.5t-48 -18.5t-49 18.5zM58 746.5q-20 18.5 -20 46.5q0 27 20 45.5t48 18.5q29 0 49 -18.5t20 -45.5q0 -28 -20 -46.5t-49 -18.5q-28 0 -48 18.5z" />
    <glyph glyph-name="glyph487" horiz-adv-x="0" 
d="M-56.5 745q-22.5 18 -22.5 48t22.5 48t56.5 18q33 0 56.5 -18t23.5 -48t-23.5 -48t-56.5 -18q-34 0 -56.5 18z" />
    <glyph glyph-name="glyph488" horiz-adv-x="0" 
d="M-13 858l101 -133h-122l-128 133h149z" />
    <glyph glyph-name="glyph489" horiz-adv-x="0" 
d="M35 725h-124l102 133h148z" />
    <glyph glyph-name="glyph490" horiz-adv-x="0" 
d="M-50 725h-95l100 133h114zM116 725h-95l101 133h113z" />
    <glyph glyph-name="glyph491" horiz-adv-x="0" 
d="M80 858l101 -133h-113l-68 78l-69 -78h-114l103 133h160z" />
    <glyph glyph-name="glyph492" horiz-adv-x="0" 
d="M0 781l68 77h113l-101 -133h-160l-102 133h113z" />
    <glyph glyph-name="glyph493" horiz-adv-x="0" 
d="M-73 868q0 -30 19 -48.5t54 -18.5q34 0 53 18.5t19 48.5h98q0 -67 -44.5 -105t-125.5 -38q-82 0 -126 38t-44 105h97z" />
    <glyph glyph-name="glyph494" horiz-adv-x="0" 
d="M111 858q1 -28 -5 -42t-22 -14t-40 13l-56 31q-37 22 -80 22q-49 0 -76 -36t-21 -107h78q-2 29 3.5 43t23.5 14q9 0 20.5 -4.5t20.5 -9.5l54 -30q20 -10 38.5 -16t44.5 -6q48 0 74.5 35.5t20.5 106.5h-78z" />
    <glyph glyph-name="glyph495" horiz-adv-x="0" 
d="M142 735h-283v90h283v-90z" />
    <glyph glyph-name="glyph496" horiz-adv-x="410" 
d="M51 746.5q-20 18.5 -20 46.5t20 46t49 18t48 -18t19 -46t-19 -46.5t-48 -18.5t-49 18.5zM264 746.5q-20 18.5 -20 46.5q0 27 20 45.5t48 18.5q29 0 49 -18.5t20 -45.5q0 -28 -20 -46.5t-49 -18.5q-28 0 -48 18.5z" />
    <glyph glyph-name="glyph497" horiz-adv-x="228" 
d="M56.5 745q-22.5 18 -22.5 48t22.5 48t56.5 18q33 0 56.5 -18t23.5 -48t-23.5 -48t-56.5 -18q-34 0 -56.5 18z" />
    <glyph glyph-name="glyph498" horiz-adv-x="293" 
d="M169 858l101 -133h-122l-128 133h149z" />
    <glyph glyph-name="glyph499" horiz-adv-x="293" 
d="M146 725h-124l102 133h148z" />
    <glyph glyph-name="glyph500" horiz-adv-x="418" 
d="M115 725h-95l100 133h114zM281 725h-95l101 133h113z" />
    <glyph glyph-name="glyph501" horiz-adv-x="403" 
d="M282 858l101 -133h-113l-68 78l-69 -78h-114l103 133h160z" />
    <glyph glyph-name="glyph502" horiz-adv-x="403" 
d="M202 781l68 77h113l-101 -133h-160l-102 133h113z" />
    <glyph glyph-name="glyph503" horiz-adv-x="399" 
d="M127 868q0 -30 19 -48.5t54 -18.5q34 0 53 18.5t19 48.5h98q0 -67 -44.5 -105t-125.5 -38q-82 0 -126 38t-44 105h97z" />
    <glyph glyph-name="glyph504" horiz-adv-x="351" 
d="M68 742q-40 29 -40 74t40 74.5t108 29.5q67 0 107.5 -29.5t40.5 -74.5t-40 -74t-108 -29t-108 29zM224 788.5q16 10.5 16 27.5t-16 28t-48 11t-48.5 -11t-16.5 -28t16.5 -27.5t48.5 -10.5t48 10.5z" />
    <glyph glyph-name="glyph505" horiz-adv-x="448" 
d="M335 858q1 -28 -5 -42t-22 -14t-40 13l-56 31q-37 22 -80 22q-49 0 -76 -36t-21 -107h78q-2 29 3.5 43t23.5 14q9 0 20.5 -4.5t20.5 -9.5l54 -30q20 -10 38.5 -16t44.5 -6q48 0 74.5 35.5t20.5 106.5h-78z" />
    <glyph glyph-name="glyph506" horiz-adv-x="342" 
d="M313 735h-283v90h283v-90z" />
    <glyph glyph-name="glyph509" horiz-adv-x="0" 
d="M-108 742q-40 29 -40 74t40 74.5t108 29.5q67 0 107.5 -29.5t40.5 -74.5t-40 -74t-108 -29t-108 29zM48 788.5q16 10.5 16 27.5t-16 28t-48 11t-48.5 -11t-16.5 -28t16.5 -27.5t48.5 -10.5t48 10.5z" />
    <glyph glyph-name="glyph510" horiz-adv-x="198" 
d="M142.5 -207.5q-30.5 -37.5 -80.5 -55.5l-30 34q27 13 42 32t17 38q-25 0 -45 14.5t-20 43.5q0 25 18.5 41.5t50.5 16.5q37 0 57.5 -21t20.5 -55q0 -51 -30.5 -88.5z" />
    <glyph glyph-name="glyph511" horiz-adv-x="200" 
d="M57 708q31 37 81 54l29 -34q-26 -13 -41 -31t-17 -36q25 0 45 -14.5t20 -43.5q0 -25 -19 -41.5t-50 -16.5q-38 0 -58.5 21t-20.5 55q0 50 31 87z" />
    </font>
</defs>
</svg>
